  0
SECTION
  2
HEADER
  9
$ACADVER
  1
AC1024
  9
$ACADMAINTVER
 70
     6
  9
$DWGCODEPAGE
  3
UNDEFINED
  9
$INSBASE
 10
0.0
 20
0.0
 30
0.0
  9
$EXTMIN
 10
1.000000000000000E+20
 20
1.000000000000000E+20
 30
1.000000000000000E+20
  9
$EXTMAX
 10
-1.000000000000000E+20
 20
-1.000000000000000E+20
 30
-1.000000000000000E+20
  9
$LIMMIN
 10
0.0
 20
0.0
  9
$LIMMAX
 10
12.0
 20
9.0
  9
$ORTHOMODE
 70
     0
  9
$REGENMODE
 70
     1
  9
$FILLMODE
 70
     1
  9
$QTEXTMODE
 70
     0
  9
$MIRRTEXT
 70
     1
  9
$LTSCALE
 40
1.0
  9
$ATTMODE
 70
     1
  9
$TEXTSIZE
 40
0.2
  9
$TRACEWID
 40
0.05
  9
$TEXTSTYLE
  7
Standard
  9
$CLAYER
  8
0
  9
$CELTYPE
  6
ByLayer
  9
$CECOLOR
 62
   256
  9
$CELTSCALE
 40
1.0
  9
$DISPSILH
 70
     0
  9
$DIMSCALE
 40
1.0
  9
$DIMASZ
 40
0.18
  9
$DIMEXO
 40
0.0625
  9
$DIMDLI
 40
0.38
  9
$DIMRND
 40
0.0
  9
$DIMDLE
 40
0.0
  9
$DIMEXE
 40
0.18
  9
$DIMTP
 40
0.0
  9
$DIMTM
 40
0.0
  9
$DIMTXT
 40
0.18
  9
$DIMCEN
 40
0.09
  9
$DIMTSZ
 40
0.0
  9
$DIMTOL
 70
     0
  9
$DIMLIM
 70
     0
  9
$DIMTIH
 70
     1
  9
$DIMTOH
 70
     1
  9
$DIMSE1
 70
     0
  9
$DIMSE2
 70
     0
  9
$DIMTAD
 70
     0
  9
$DIMZIN
 70
     0
  9
$DIMBLK
  1

  9
$DIMASO
 70
     1
  9
$DIMSHO
 70
     1
  9
$DIMPOST
  1

  9
$DIMAPOST
  1

  9
$DIMALT
 70
     0
  9
$DIMALTD
 70
     2
  9
$DIMALTF
 40
25.4
  9
$DIMLFAC
 40
1.0
  9
$DIMTOFL
 70
     0
  9
$DIMTVP
 40
0.0
  9
$DIMTIX
 70
     0
  9
$DIMSOXD
 70
     0
  9
$DIMSAH
 70
     0
  9
$DIMBLK1
  1

  9
$DIMBLK2
  1

  9
$DIMSTYLE
  2
Standard
  9
$DIMCLRD
 70
     0
  9
$DIMCLRE
 70
     0
  9
$DIMCLRT
 70
     0
  9
$DIMTFAC
 40
1.0
  9
$DIMGAP
 40
0.09
  9
$DIMJUST
 70
     0
  9
$DIMSD1
 70
     0
  9
$DIMSD2
 70
     0
  9
$DIMTOLJ
 70
     1
  9
$DIMTZIN
 70
     0
  9
$DIMALTZ
 70
     0
  9
$DIMALTTZ
 70
     0
  9
$DIMUPT
 70
     0
  9
$DIMDEC
 70
     4
  9
$DIMTDEC
 70
     4
  9
$DIMALTU
 70
     2
  9
$DIMALTTD
 70
     2
  9
$DIMTXSTY
  7
Standard
  9
$DIMAUNIT
 70
     0
  9
$DIMADEC
 70
     0
  9
$DIMALTRND
 40
0.0
  9
$DIMAZIN
 70
     0
  9
$DIMDSEP
 70
    46
  9
$DIMATFIT
 70
     3
  9
$DIMFRAC
 70
     0
  9
$DIMLDRBLK
  1

  9
$DIMLUNIT
 70
     2
  9
$DIMLWD
 70
    -2
  9
$DIMLWE
 70
    -2
  9
$DIMTMOVE
 70
     0
  9
$DIMFXL
 40
1.0
  9
$DIMFXLON
 70
     0
  9
$DIMJOGANG
 40
0.7853981633974483
  9
$DIMTFILL
 70
     0
  9
$DIMTFILLCLR
 70
     0
  9
$DIMARCSYM
 70
     0
  9
$DIMLTYPE
  6

  9
$DIMLTEX1
  6

  9
$DIMLTEX2
  6

  9
$DIMTXTDIRECTION
 70
     0
  9
$LUNITS
 70
     2
  9
$LUPREC
 70
     4
  9
$SKETCHINC
 40
0.1
  9
$FILLETRAD
 40
0.5
  9
$AUNITS
 70
     0
  9
$AUPREC
 70
     0
  9
$MENU
  1
.
  9
$ELEVATION
 40
0.0
  9
$PELEVATION
 40
0.0
  9
$THICKNESS
 40
0.0
  9
$LIMCHECK
 70
     0
  9
$CHAMFERA
 40
0.5
  9
$CHAMFERB
 40
0.5
  9
$CHAMFERC
 40
1.0
  9
$CHAMFERD
 40
0.0
  9
$SKPOLY
 70
     0
  9
$TDCREATE
 40
2457452.930127303
  9
$TDUCREATE
 40
2457452.596793981
  9
$TDUPDATE
 40
2457452.930127303
  9
$TDUUPDATE
 40
2457452.596793981
  9
$TDINDWG
 40
0.0000000116
  9
$TDUSRTIMER
 40
0.0000000116
  9
$USRTIMER
 70
     1
  9
$ANGBASE
 50
0.0
  9
$ANGDIR
 70
     0
  9
$PDMODE
 70
     0
  9
$PDSIZE
 40
0.0
  9
$PLINEWID
 40
0.0
  9
$SPLFRAME
 70
     0
  9
$SPLINETYPE
 70
     6
  9
$SPLINESEGS
 70
     8
  9
$HANDSEED
  5
18E
  9
$SURFTAB1
 70
     6
  9
$SURFTAB2
 70
     6
  9
$SURFTYPE
 70
     6
  9
$SURFU
 70
     6
  9
$SURFV
 70
     6
  9
$UCSBASE
  2

  9
$UCSNAME
  2

  9
$UCSORG
 10
0.0
 20
0.0
 30
0.0
  9
$UCSXDIR
 10
1.0
 20
0.0
 30
0.0
  9
$UCSYDIR
 10
0.0
 20
1.0
 30
0.0
  9
$UCSORTHOREF
  2

  9
$UCSORTHOVIEW
 70
     0
  9
$UCSORGTOP
 10
0.0
 20
0.0
 30
0.0
  9
$UCSORGBOTTOM
 10
0.0
 20
0.0
 30
0.0
  9
$UCSORGLEFT
 10
0.0
 20
0.0
 30
0.0
  9
$UCSORGRIGHT
 10
0.0
 20
0.0
 30
0.0
  9
$UCSORGFRONT
 10
0.0
 20
0.0
 30
0.0
  9
$UCSORGBACK
 10
0.0
 20
0.0
 30
0.0
  9
$PUCSBASE
  2

  9
$PUCSNAME
  2

  9
$PUCSORG
 10
0.0
 20
0.0
 30
0.0
  9
$PUCSXDIR
 10
1.0
 20
0.0
 30
0.0
  9
$PUCSYDIR
 10
0.0
 20
1.0
 30
0.0
  9
$PUCSORTHOREF
  2

  9
$PUCSORTHOVIEW
 70
     0
  9
$PUCSORGTOP
 10
0.0
 20
0.0
 30
0.0
  9
$PUCSORGBOTTOM
 10
0.0
 20
0.0
 30
0.0
  9
$PUCSORGLEFT
 10
0.0
 20
0.0
 30
0.0
  9
$PUCSORGRIGHT
 10
0.0
 20
0.0
 30
0.0
  9
$PUCSORGFRONT
 10
0.0
 20
0.0
 30
0.0
  9
$PUCSORGBACK
 10
0.0
 20
0.0
 30
0.0
  9
$USERI1
 70
     0
  9
$USERI2
 70
     0
  9
$USERI3
 70
     0
  9
$USERI4
 70
     0
  9
$USERI5
 70
     0
  9
$USERR1
 40
0.0
  9
$USERR2
 40
0.0
  9
$USERR3
 40
0.0
  9
$USERR4
 40
0.0
  9
$USERR5
 40
0.0
  9
$WORLDVIEW
 70
     1
  9
$SHADEDGE
 70
     3
  9
$SHADEDIF
 70
    70
  9
$TILEMODE
 70
     1
  9
$MAXACTVP
 70
    64
  9
$PINSBASE
 10
0.0
 20
0.0
 30
0.0
  9
$PLIMCHECK
 70
     0
  9
$PEXTMIN
 10
1.000000000000000E+20
 20
1.000000000000000E+20
 30
1.000000000000000E+20
  9
$PEXTMAX
 10
-1.000000000000000E+20
 20
-1.000000000000000E+20
 30
-1.000000000000000E+20
  9
$PLIMMIN
 10
0.0
 20
0.0
  9
$PLIMMAX
 10
12.0
 20
9.0
  9
$UNITMODE
 70
     0
  9
$VISRETAIN
 70
     1
  9
$PLINEGEN
 70
     0
  9
$PSLTSCALE
 70
     1
  9
$TREEDEPTH
 70
  3020
  9
$CMLSTYLE
  2
Standard
  9
$CMLJUST
 70
     0
  9
$CMLSCALE
 40
1.0
  9
$PROXYGRAPHICS
 70
     1
  9
$MEASUREMENT
 70
     0
  9
$CELWEIGHT
370
    -1
  9
$ENDCAPS
280
     0
  9
$JOINSTYLE
280
     0
  9
$LWDISPLAY
290
     1
  9
$INSUNITS
 70
     1
  9
$HYPERLINKBASE
  1

  9
$STYLESHEET
  1

  9
$XEDIT
290
     1
  9
$CEPSNTYPE
380
     0
  9
$PSTYLEMODE
290
     1
  9
$FINGERPRINTGUID
  2
{5FEF97DD-26C5-D372-F9A8-353FD4B2D632}
  9
$VERSIONGUID
  2
{FAEB1C32-E019-11D5-929B-00C0DF256EC4}
  9
$EXTNAMES
290
     1
  9
$PSVPSCALE
 40
0.0
  9
$OLESTARTUP
290
     0
  9
$SORTENTS
280
   127
  9
$INDEXCTL
280
     0
  9
$HIDETEXT
280
     1
  9
$XCLIPFRAME
280
     2
  9
$HALOGAP
280
     0
  9
$OBSCOLOR
 70
   257
  9
$OBSLTYPE
280
     0
  9
$INTERSECTIONDISPLAY
280
     0
  9
$INTERSECTIONCOLOR
 70
   257
  9
$DIMASSOC
280
     2
  9
$PROJECTNAME
  1

  9
$CAMERADISPLAY
290
     0
  9
$LENSLENGTH
 40
50.0
  9
$CAMERAHEIGHT
 40
0.0
  9
$STEPSPERSEC
 40
2.0
  9
$STEPSIZE
 40
6.0
  9
$3DDWFPREC
 40
2.0
  9
$PSOLWIDTH
 40
0.25
  9
$PSOLHEIGHT
 40
4.0
  9
$LOFTANG1
 40
1.570796326794897
  9
$LOFTANG2
 40
1.570796326794897
  9
$LOFTMAG1
 40
0.0
  9
$LOFTMAG2
 40
0.0
  9
$LOFTPARAM
 70
     7
  9
$LOFTNORMALS
280
     1
  9
$LATITUDE
 40
37.795
  9
$LONGITUDE
 40
-122.394
  9
$NORTHDIRECTION
 40
0.0
  9
$TIMEZONE
 70
 -8000
  9
$LIGHTGLYPHDISPLAY
280
     1
  9
$TILEMODELIGHTSYNCH
280
     1
  9
$CMATERIAL
347
3C
  9
$SOLIDHIST
280
     1
  9
$SHOWHIST
280
     1
  9
$DWFFRAME
280
     2
  9
$DGNFRAME
280
     2
  9
$REALWORLDSCALE
290
     1
  9
$INTERFERECOLOR
 62
   256
  9
$CSHADOW
280
     0
  9
$SHADOWPLANELOCATION
 40
0.0
  0
ENDSEC
  0
SECTION
  2
CLASSES
  0
CLASS
  1
ACDBDICTIONARYWDFLT
  2
AcDbDictionaryWithDefault
  3
ObjectDBX Classes
 90
        0
 91
        4
280
     0
281
     0
  0
CLASS
  1
VISUALSTYLE
  2
AcDbVisualStyle
  3
ObjectDBX Classes
 90
     4095
 91
        4
280
     0
281
     0
  0
CLASS
  1
MATERIAL
  2
AcDbMaterial
  3
ObjectDBX Classes
 90
     1153
 91
        4
280
     0
281
     0
  0
CLASS
  1
SUN
  2
AcDbSun
  3
SCENEOE
 90
     1024
 91
        4
280
     0
281
     0
  0
ENDSEC
  0
SECTION
  2
TABLES
  0
TABLE
  2
VPORT
  5
8
330
0
100
AcDbSymbolTable
 70
     1
  0
VPORT
  5
29
330
8
100
AcDbSymbolTableRecord
100
AcDbViewportTableRecord
  2
*Active
 70
     0
 10
0.0
 20
0.0
 11
1.0
 21
1.0
 12
0.0
 22
0.0
 13
0.0
 23
0.0
 14
0.5
 24
0.5
 15
0.5
 25
0.5
 16
0.0
 26
0.0
 36
1.0
 17
-110.1522943685657
 27
-149.6902898249003
 37
0.0
 40
822.4093573968289
 41
0.8854546062944515
 42
50.0
 43
0.0
 44
0.0
 50
0.0
 51
0.0
 71
     0
 72
   100
 73
     1
 74
     3
 75
     0
 76
     0
 77
     0
 78
     0
281
     0
 65
     1
110
0.0
120
0.0
130
0.0
111
1.0
121
0.0
131
0.0
112
0.0
122
1.0
132
0.0
 79
     0
146
0.0
 60
     3
 61
     5
292
     1
282
     1
141
0.0
142
0.0
 63
   250
361
3F
  0
ENDTAB
  0
TABLE
  2
LTYPE
  5
5
330
0
100
AcDbSymbolTable
 70
     1
  0
LTYPE
  5
14
330
5
100
AcDbSymbolTableRecord
100
AcDbLinetypeTableRecord
  2
ByBlock
 70
     0
  3

 72
    65
 73
     0
 40
0.0
  0
LTYPE
  5
15
330
5
100
AcDbSymbolTableRecord
100
AcDbLinetypeTableRecord
  2
ByLayer
 70
     0
  3

 72
    65
 73
     0
 40
0.0
  0
LTYPE
  5
16
330
5
100
AcDbSymbolTableRecord
100
AcDbLinetypeTableRecord
  2
Continuous
 70
     0
  3
Solid line
 72
    65
 73
     0
 40
0.0
  0
ENDTAB
  0
TABLE
  2
LAYER
  5
2
330
0
100
AcDbSymbolTable
 70
     2
  0
LAYER
  5
10
330
2
100
AcDbSymbolTableRecord
100
AcDbLayerTableRecord
  2
0
 70
     0
 62
     7
  6
Continuous
370
    -3
390
F
347
3E
  0
LAYER
  5
40
330
2
100
AcDbSymbolTableRecord
100
AcDbLayerTableRecord
  2
Layer 2
 70
     0
 62
     7
  6
Continuous
370
    -3
390
F
347
3E
  0
ENDTAB
  0
TABLE
  2
STYLE
  5
3
330
0
100
AcDbSymbolTable
 70
     1
  0
STYLE
  5
11
330
3
100
AcDbSymbolTableRecord
100
AcDbTextStyleTableRecord
  2
Standard
 70
     0
 40
0.0
 41
1.0
 50
0.0
 71
     0
 42
0.2
  3
txt
  4

  0
ENDTAB
  0
TABLE
  2
VIEW
  5
6
330
0
100
AcDbSymbolTable
 70
     0
  0
ENDTAB
  0
TABLE
  2
UCS
  5
7
330
0
100
AcDbSymbolTable
 70
     0
  0
ENDTAB
  0
TABLE
  2
APPID
  5
9
330
0
100
AcDbSymbolTable
 70
     1
  0
APPID
  5
12
330
9
100
AcDbSymbolTableRecord
100
AcDbRegAppTableRecord
  2
ACAD
 70
     0
  0
ENDTAB
  0
TABLE
  2
DIMSTYLE
  5
A
330
0
100
AcDbSymbolTable
 70
     1
100
AcDbDimStyleTable
  0
DIMSTYLE
105
27
330
A
100
AcDbSymbolTableRecord
100
AcDbDimStyleTableRecord
  2
Standard
 70
     0
178
     0
340
11
  0
ENDTAB
  0
TABLE
  2
BLOCK_RECORD
  5
1
330
0
100
AcDbSymbolTable
 70
     1
  0
BLOCK_RECORD
  5
1F
330
1
100
AcDbSymbolTableRecord
100
AcDbBlockTableRecord
  2
*Model_Space
340
22
 70
     0
280
     1
281
     0
  0
BLOCK_RECORD
  5
1B
330
1
100
AcDbSymbolTableRecord
100
AcDbBlockTableRecord
  2
*Paper_Space
340
1E
 70
     0
280
     1
281
     0
  0
BLOCK_RECORD
  5
23
330
1
100
AcDbSymbolTableRecord
100
AcDbBlockTableRecord
  2
*Paper_Space0
340
26
 70
     0
280
     1
281
     0
  0
ENDTAB
  0
ENDSEC
  0
SECTION
  2
BLOCKS
  0
BLOCK
  5
20
330
1F
100
AcDbEntity
  8
0
100
AcDbBlockBegin
  2
*Model_Space
 70
     0
 10
0.0
 20
0.0
 30
0.0
  3
*Model_Space
  1

  0
ENDBLK
  5
21
330
1F
100
AcDbEntity
  8
0
100
AcDbBlockEnd
  0
BLOCK
  5
1C
330
1B
100
AcDbEntity
 67
     1
  8
0
100
AcDbBlockBegin
  2
*Paper_Space
 70
     0
 10
0.0
 20
0.0
 30
0.0
  3
*Paper_Space
  1

  0
ENDBLK
  5
1D
330
1B
100
AcDbEntity
 67
     1
  8
0
100
AcDbBlockEnd
  0
BLOCK
  5
24
330
23
100
AcDbEntity
  8
0
100
AcDbBlockBegin
  2
*Paper_Space0
 70
     0
 10
0.0
 20
0.0
 30
0.0
  3
*Paper_Space0
  1

  0
ENDBLK
  5
25
330
23
100
AcDbEntity
  8
0
100
AcDbBlockEnd
  0
ENDSEC
  0
SECTION
  2
ENTITIES
  0
SPLINE
  5
41
330
1F
100
AcDbEntity
  8
Layer 2
 62
   179
420
  2301728
370
    35
100
AcDbSpline
210
0.0
220
0.0
230
1.0
 70
    11
 71
     3
 72
    65
 73
    61
 74
     0
 42
0.0000000001
 43
0.0000000001
 12
1.0
 22
0.0
 32
0.0
 13
1.0
 23
0.0
 33
0.0
 40
0.0
 40
0.0
 40
0.0
 40
0.0
 40
1.0
 40
1.0
 40
1.0
 40
2.0
 40
2.0
 40
2.0
 40
3.0
 40
3.0
 40
3.0
 40
4.0
 40
4.0
 40
4.0
 40
5.0
 40
5.0
 40
5.0
 40
6.0
 40
6.0
 40
6.0
 40
7.0
 40
7.0
 40
7.0
 40
8.0
 40
8.0
 40
8.0
 40
9.0
 40
9.0
 40
9.0
 40
10.0
 40
10.0
 40
10.0
 40
11.0
 40
11.0
 40
11.0
 40
12.0
 40
12.0
 40
12.0
 40
13.0
 40
13.0
 40
13.0
 40
14.0
 40
14.0
 40
14.0
 40
15.0
 40
15.0
 40
15.0
 40
16.0
 40
16.0
 40
16.0
 40
17.0
 40
17.0
 40
17.0
 40
18.0
 40
18.0
 40
18.0
 40
19.0
 40
19.0
 40
19.0
 40
20.0
 40
20.0
 40
20.0
 40
20.0
 10
220.2637516742635
 20
-245.6382148976291
 30
0.0
 10
220.2637516742635
 20
-245.6382148976291
 30
0.0
 10
220.2637516742635
 20
-175.6382240704025
 30
0.0
 10
220.2637516742635
 20
-175.6382240704025
 30
0.0
 10
220.2637516742635
 20
-175.6382240704025
 30
0.0
 10
214.2536534091645
 20
-175.6382240704025
 30
0.0
 10
214.2536534091645
 20
-175.6382240704025
 30
0.0
 10
214.0318969191483
 20
-169.5233949025519
 30
0.0
 10
208.8834816304506
 20
-102.4331747858609
 30
0.0
 10
89.71166447409986
 20
-102.4331747858609
 30
0.0
 10
-29.92205385943572
 20
-102.4331747858609
 30
0.0
 10
-35.25488941582821
 20
-169.9813342199287
 30
0.0
 10
-35.49173973043914
 20
-175.6382240704025
 30
0.0
 10
-35.49173973043914
 20
-175.6382240704025
 30
0.0
 10
-41.15013681018772
 20
-175.6382240704025
 30
0.0
 10
-41.15013681018772
 20
-175.6382240704025
 30
0.0
 10
-41.15013681018772
 20
-175.6382240704025
 30
0.0
 10
-41.15013681018772
 20
-245.6382148976291
 30
0.0
 10
-41.15013681018772
 20
-245.6382148976291
 30
0.0
 10
-41.15013681018772
 20
-245.6382148976291
 30
0.0
 10
-35.50293629076619
 20
-245.6382148976291
 30
0.0
 10
-35.50293629076619
 20
-245.6382148976291
 30
0.0
 10
-35.50293629076619
 20
-245.6382148976291
 30
0.0
 10
-35.50293629076619
 20
-364.0172294554367
 30
0.0
 10
-35.50293629076619
 20
-364.0172294554367
 30
0.0
 10
-35.50293629076619
 20
-364.0172294554367
 30
0.0
 10
-41.15013681018772
 20
-364.0172294554367
 30
0.0
 10
-41.15013681018772
 20
-364.0172294554367
 30
0.0
 10
-41.15013681018772
 20
-364.0172294554367
 30
0.0
 10
-41.15013681018772
 20
-434.0172633463568
 30
0.0
 10
-41.15013681018772
 20
-434.0172633463568
 30
0.0
 10
-41.15013681018772
 20
-434.0172633463568
 30
0.0
 10
-35.50293629076619
 20
-434.0172633463568
 30
0.0
 10
-35.50293629076619
 20
-434.0172633463568
 30
0.0
 10
-35.50293629076619
 20
-434.0172633463568
 30
0.0
 10
-35.50293629076619
 20
-481.9445704632813
 30
0.0
 10
-35.50293629076619
 20
-481.9445704632813
 30
0.0
 10
-35.50293629076619
 20
-481.9445704632813
 30
0.0
 10
89.38039701134632
 20
-500.1112479761007
 30
0.0
 10
89.38039701134632
 20
-500.1112479761007
 30
0.0
 10
89.38039701134632
 20
-500.1112479761007
 30
0.0
 10
214.2637303134588
 20
-482.2959702027767
 30
0.0
 10
214.2637303134588
 20
-482.2959702027767
 30
0.0
 10
214.2637303134588
 20
-482.2959702027767
 30
0.0
 10
214.2637303134588
 20
-434.1903793944906
 30
0.0
 10
214.2637303134588
 20
-434.1903793944906
 30
0.0
 10
214.2637303134588
 20
-434.1903793944906
 30
0.0
 10
220.2637516742635
 20
-434.1903793944906
 30
0.0
 10
220.2637516742635
 20
-434.1903793944906
 30
0.0
 10
220.2637516742635
 20
-434.1903793944906
 30
0.0
 10
220.2637516742635
 20
-364.1904316309596
 30
0.0
 10
220.2637516742635
 20
-364.1904316309596
 30
0.0
 10
220.2637516742635
 20
-364.1904316309596
 30
0.0
 10
214.2637303134588
 20
-364.1904316309596
 30
0.0
 10
214.2637303134588
 20
-364.1904316309596
 30
0.0
 10
214.2637303134588
 20
-364.1904316309596
 30
0.0
 10
214.2637303134588
 20
-245.6382148976291
 30
0.0
 10
214.2637303134588
 20
-245.6382148976291
 30
0.0
 10
214.2637303134588
 20
-245.6382148976291
 30
0.0
 10
220.2637516742635
 20
-245.6382148976291
 30
0.0
 10
220.2637516742635
 20
-245.6382148976291
 30
0.0
  0
POLYLINE
  5
42
330
1F
100
AcDbEntity
  8
Layer 2
 62
   179
420
  2301728
370
    35
100
AcDb2dPolyline
 66
     1
 10
0.0
 20
0.0
 30
0.0
  0
VERTEX
  5
43
330
42
100
AcDbEntity
  8
Layer 2
 62
   179
420
  2301728
370
    35
100
AcDbVertex
100
AcDb2dVertex
 10
49.56527776538646
 20
-478.5430554359198
 30
0.0
  0
VERTEX
  5
44
330
42
100
AcDbEntity
  8
Layer 2
 62
   179
420
  2301728
370
    35
100
AcDbVertex
100
AcDb2dVertex
 10
43.56805554466354
 20
-478.5430554359198
 30
0.0
  0
VERTEX
  5
45
330
42
100
AcDbEntity
  8
Layer 2
 62
   179
420
  2301728
370
    35
100
AcDbVertex
100
AcDb2dVertex
 10
43.56805554466354
 20
-468.6652776606115
 30
0.0
  0
VERTEX
  5
46
330
42
100
AcDbEntity
  8
Layer 2
 62
   179
420
  2301728
370
    35
100
AcDbVertex
100
AcDb2dVertex
 10
49.56527776538646
 20
-468.6652776606115
 30
0.0
  0
VERTEX
  5
47
330
42
100
AcDbEntity
  8
Layer 2
 62
   179
420
  2301728
370
    35
100
AcDbVertex
100
AcDb2dVertex
 10
49.56527776538646
 20
-478.5430554359198
 30
0.0
  0
SEQEND
  5
48
330
42
100
AcDbEntity
  8
Layer 2
 62
   179
420
  2301728
370
    35
  0
POLYLINE
  5
49
330
1F
100
AcDbEntity
  8
Layer 2
 62
   179
420
  2301728
370
    35
100
AcDb2dPolyline
 66
     1
 10
0.0
 20
0.0
 30
0.0
  0
VERTEX
  5
4A
330
49
100
AcDbEntity
  8
Layer 2
 62
   179
420
  2301728
370
    35
100
AcDbVertex
100
AcDb2dVertex
 10
49.56527776538646
 20
-458.4347221076135
 30
0.0
  0
VERTEX
  5
4B
330
49
100
AcDbEntity
  8
Layer 2
 62
   179
420
  2301728
370
    35
100
AcDbVertex
100
AcDb2dVertex
 10
43.56805554466354
 20
-458.4347221076135
 30
0.0
  0
VERTEX
  5
4C
330
49
100
AcDbEntity
  8
Layer 2
 62
   179
420
  2301728
370
    35
100
AcDbVertex
100
AcDb2dVertex
 10
43.56805554466354
 20
-448.2041665546157
 30
0.0
  0
VERTEX
  5
4D
330
49
100
AcDbEntity
  8
Layer 2
 62
   179
420
  2301728
370
    35
100
AcDbVertex
100
AcDb2dVertex
 10
49.56527776538646
 20
-448.2041665546157
 30
0.0
  0
VERTEX
  5
4E
330
49
100
AcDbEntity
  8
Layer 2
 62
   179
420
  2301728
370
    35
100
AcDbVertex
100
AcDb2dVertex
 10
49.56527776538646
 20
-458.4347221076135
 30
0.0
  0
SEQEND
  5
4F
330
49
100
AcDbEntity
  8
Layer 2
 62
   179
420
  2301728
370
    35
  0
POLYLINE
  5
50
330
1F
100
AcDbEntity
  8
Layer 2
 62
   179
420
  2301728
370
    35
100
AcDb2dPolyline
 66
     1
 10
0.0
 20
0.0
 30
0.0
  0
VERTEX
  5
51
330
50
100
AcDbEntity
  8
Layer 2
 62
   179
420
  2301728
370
    35
100
AcDbVertex
100
AcDb2dVertex
 10
49.56527776538646
 20
-438.3263887793073
 30
0.0
  0
VERTEX
  5
52
330
50
100
AcDbEntity
  8
Layer 2
 62
   179
420
  2301728
370
    35
100
AcDbVertex
100
AcDb2dVertex
 10
43.56805554466354
 20
-438.3263887793073
 30
0.0
  0
VERTEX
  5
53
330
50
100
AcDbEntity
  8
Layer 2
 62
   179
420
  2301728
370
    35
100
AcDbVertex
100
AcDb2dVertex
 10
43.56805554466354
 20
-428.448611003999
 30
0.0
  0
VERTEX
  5
54
330
50
100
AcDbEntity
  8
Layer 2
 62
   179
420
  2301728
370
    35
100
AcDbVertex
100
AcDb2dVertex
 10
49.56527776538646
 20
-428.448611003999
 30
0.0
  0
VERTEX
  5
55
330
50
100
AcDbEntity
  8
Layer 2
 62
   179
420
  2301728
370
    35
100
AcDbVertex
100
AcDb2dVertex
 10
49.56527776538646
 20
-438.3263887793073
 30
0.0
  0
SEQEND
  5
56
330
50
100
AcDbEntity
  8
Layer 2
 62
   179
420
  2301728
370
    35
  0
POLYLINE
  5
57
330
1F
100
AcDbEntity
  8
Layer 2
 62
   179
420
  2301728
370
    35
100
AcDb2dPolyline
 66
     1
 10
0.0
 20
0.0
 30
0.0
  0
VERTEX
  5
58
330
57
100
AcDbEntity
  8
Layer 2
 62
   179
420
  2301728
370
    35
100
AcDbVertex
100
AcDb2dVertex
 10
49.56527776538646
 20
-182.915277732049
 30
0.0
  0
VERTEX
  5
59
330
57
100
AcDbEntity
  8
Layer 2
 62
   179
420
  2301728
370
    35
100
AcDbVertex
100
AcDb2dVertex
 10
43.56805554466354
 20
-182.915277732049
 30
0.0
  0
VERTEX
  5
5A
330
57
100
AcDbEntity
  8
Layer 2
 62
   179
420
  2301728
370
    35
100
AcDbVertex
100
AcDb2dVertex
 10
43.56805554466354
 20
-173.0374999567406
 30
0.0
  0
VERTEX
  5
5B
330
57
100
AcDbEntity
  8
Layer 2
 62
   179
420
  2301728
370
    35
100
AcDbVertex
100
AcDb2dVertex
 10
49.56527776538646
 20
-173.0374999567406
 30
0.0
  0
VERTEX
  5
5C
330
57
100
AcDbEntity
  8
Layer 2
 62
   179
420
  2301728
370
    35
100
AcDbVertex
100
AcDb2dVertex
 10
49.56527776538646
 20
-182.915277732049
 30
0.0
  0
SEQEND
  5
5D
330
57
100
AcDbEntity
  8
Layer 2
 62
   179
420
  2301728
370
    35
  0
POLYLINE
  5
5E
330
1F
100
AcDbEntity
  8
Layer 2
 62
   179
420
  2301728
370
    35
100
AcDb2dPolyline
 66
     1
 10
0.0
 20
0.0
 30
0.0
  0
VERTEX
  5
5F
330
5E
100
AcDbEntity
  8
Layer 2
 62
   179
420
  2301728
370
    35
100
AcDbVertex
100
AcDb2dVertex
 10
49.56527776538646
 20
-162.8069444037427
 30
0.0
  0
VERTEX
  5
60
330
5E
100
AcDbEntity
  8
Layer 2
 62
   179
420
  2301728
370
    35
100
AcDbVertex
100
AcDb2dVertex
 10
43.56805554466354
 20
-162.8069444037427
 30
0.0
  0
VERTEX
  5
61
330
5E
100
AcDbEntity
  8
Layer 2
 62
   179
420
  2301728
370
    35
100
AcDbVertex
100
AcDb2dVertex
 10
43.56805554466354
 20
-152.5763888507448
 30
0.0
  0
VERTEX
  5
62
330
5E
100
AcDbEntity
  8
Layer 2
 62
   179
420
  2301728
370
    35
100
AcDbVertex
100
AcDb2dVertex
 10
49.56527776538646
 20
-152.5763888507448
 30
0.0
  0
VERTEX
  5
63
330
5E
100
AcDbEntity
  8
Layer 2
 62
   179
420
  2301728
370
    35
100
AcDbVertex
100
AcDb2dVertex
 10
49.56527776538646
 20
-162.8069444037427
 30
0.0
  0
SEQEND
  5
64
330
5E
100
AcDbEntity
  8
Layer 2
 62
   179
420
  2301728
370
    35
  0
POLYLINE
  5
65
330
1F
100
AcDbEntity
  8
Layer 2
 62
   179
420
  2301728
370
    35
100
AcDb2dPolyline
 66
     1
 10
0.0
 20
0.0
 30
0.0
  0
VERTEX
  5
66
330
65
100
AcDbEntity
  8
Layer 2
 62
   179
420
  2301728
370
    35
100
AcDbVertex
100
AcDb2dVertex
 10
49.56527776538646
 20
-142.6986110754365
 30
0.0
  0
VERTEX
  5
67
330
65
100
AcDbEntity
  8
Layer 2
 62
   179
420
  2301728
370
    35
100
AcDbVertex
100
AcDb2dVertex
 10
43.56805554466354
 20
-142.6986110754365
 30
0.0
  0
VERTEX
  5
68
330
65
100
AcDbEntity
  8
Layer 2
 62
   179
420
  2301728
370
    35
100
AcDbVertex
100
AcDb2dVertex
 10
43.56805554466354
 20
-132.8208333001281
 30
0.0
  0
VERTEX
  5
69
330
65
100
AcDbEntity
  8
Layer 2
 62
   179
420
  2301728
370
    35
100
AcDbVertex
100
AcDb2dVertex
 10
49.56527776538646
 20
-132.8208333001281
 30
0.0
  0
VERTEX
  5
6A
330
65
100
AcDbEntity
  8
Layer 2
 62
   179
420
  2301728
370
    35
100
AcDbVertex
100
AcDb2dVertex
 10
49.56527776538646
 20
-142.6986110754365
 30
0.0
  0
SEQEND
  5
6B
330
65
100
AcDbEntity
  8
Layer 2
 62
   179
420
  2301728
370
    35
  0
SPLINE
  5
6C
330
1F
100
AcDbEntity
  8
Layer 2
 62
   179
420
  2301728
370
    35
100
AcDbSpline
210
0.0
220
0.0
230
1.0
 70
    11
 71
     3
 72
    17
 73
    13
 74
     0
 42
0.0000000001
 43
0.0000000001
 12
1.0
 22
0.0
 32
0.0
 13
1.0
 23
0.0
 33
0.0
 40
0.0
 40
0.0
 40
0.0
 40
0.0
 40
1.0
 40
1.0
 40
1.0
 40
2.0
 40
2.0
 40
2.0
 40
3.0
 40
3.0
 40
3.0
 40
4.0
 40
4.0
 40
4.0
 40
4.0
 10
89.71168600594665
 20
-490.1109539925988
 30
0.0
 10
69.55322653833001
 20
-490.1109539925988
 30
0.0
 10
53.21173908174915
 20
-473.7693588767834
 30
0.0
 10
53.21173908174915
 20
-453.611071663941
 30
0.0
 10
53.21173908174915
 20
-433.4526121963244
 30
0.0
 10
69.55322653833001
 20
-417.1109309531231
 30
0.0
 10
89.71168600594665
 20
-417.1109309531231
 30
0.0
 10
109.869973218789
 20
-417.1109309531231
 30
0.0
 10
126.2115898664506
 20
-433.4526121963244
 30
0.0
 10
126.2115898664506
 20
-453.611071663941
 30
0.0
 10
126.2115898664506
 20
-473.7693588767834
 30
0.0
 10
109.869973218789
 20
-490.1109539925988
 30
0.0
 10
89.71168600594665
 20
-490.1109539925988
 30
0.0
  0
SPLINE
  5
6D
330
1F
100
AcDbEntity
  8
Layer 2
 62
   179
420
  2301728
370
    35
100
AcDbSpline
210
0.0
220
0.0
230
1.0
 70
    11
 71
     3
 72
    17
 73
    13
 74
     0
 42
0.0000000001
 43
0.0000000001
 12
1.0
 22
0.0
 32
0.0
 13
1.0
 23
0.0
 33
0.0
 40
0.0
 40
0.0
 40
0.0
 40
0.0
 40
1.0
 40
1.0
 40
1.0
 40
2.0
 40
2.0
 40
2.0
 40
3.0
 40
3.0
 40
3.0
 40
4.0
 40
4.0
 40
4.0
 40
4.0
 10
89.71168600594665
 20
-195.5413373670218
 30
0.0
 10
69.55322653833001
 20
-195.5413373670218
 30
0.0
 10
53.21173908174915
 20
-179.1998929741345
 30
0.0
 10
53.21173908174915
 20
-159.0416057612921
 30
0.0
 10
53.21173908174915
 20
-138.8833185484498
 30
0.0
 10
69.55322653833001
 20
-122.5414865823207
 30
0.0
 10
89.71168600594665
 20
-122.5414865823207
 30
0.0
 10
109.869973218789
 20
-122.5414865823207
 30
0.0
 10
126.2115898664506
 20
-138.8833185484498
 30
0.0
 10
126.2115898664506
 20
-159.0416057612921
 30
0.0
 10
126.2115898664506
 20
-179.1998929741345
 30
0.0
 10
109.869973218789
 20
-195.5413373670218
 30
0.0
 10
89.71168600594665
 20
-195.5413373670218
 30
0.0
  0
POLYLINE
  5
6E
330
1F
100
AcDbEntity
  8
Layer 2
 62
   179
420
  2301728
370
    35
100
AcDb2dPolyline
 66
     1
 10
0.0
 20
0.0
 30
0.0
  0
VERTEX
  5
6F
330
6E
100
AcDbEntity
  8
Layer 2
 62
   179
420
  2301728
370
    35
100
AcDbVertex
100
AcDb2dVertex
 10
135.2902777439552
 20
-478.5430554359198
 30
0.0
  0
VERTEX
  5
70
330
6E
100
AcDbEntity
  8
Layer 2
 62
   179
420
  2301728
370
    35
100
AcDbVertex
100
AcDb2dVertex
 10
129.2930555232323
 20
-478.5430554359198
 30
0.0
  0
VERTEX
  5
71
330
6E
100
AcDbEntity
  8
Layer 2
 62
   179
420
  2301728
370
    35
100
AcDbVertex
100
AcDb2dVertex
 10
129.2930555232323
 20
-468.6652776606115
 30
0.0
  0
VERTEX
  5
72
330
6E
100
AcDbEntity
  8
Layer 2
 62
   179
420
  2301728
370
    35
100
AcDbVertex
100
AcDb2dVertex
 10
135.2902777439552
 20
-468.6652776606115
 30
0.0
  0
VERTEX
  5
73
330
6E
100
AcDbEntity
  8
Layer 2
 62
   179
420
  2301728
370
    35
100
AcDbVertex
100
AcDb2dVertex
 10
135.2902777439552
 20
-478.5430554359198
 30
0.0
  0
SEQEND
  5
74
330
6E
100
AcDbEntity
  8
Layer 2
 62
   179
420
  2301728
370
    35
  0
POLYLINE
  5
75
330
1F
100
AcDbEntity
  8
Layer 2
 62
   179
420
  2301728
370
    35
100
AcDb2dPolyline
 66
     1
 10
0.0
 20
0.0
 30
0.0
  0
VERTEX
  5
76
330
75
100
AcDbEntity
  8
Layer 2
 62
   179
420
  2301728
370
    35
100
AcDbVertex
100
AcDb2dVertex
 10
135.2902777439552
 20
-458.4347221076135
 30
0.0
  0
VERTEX
  5
77
330
75
100
AcDbEntity
  8
Layer 2
 62
   179
420
  2301728
370
    35
100
AcDbVertex
100
AcDb2dVertex
 10
129.2930555232323
 20
-458.4347221076135
 30
0.0
  0
VERTEX
  5
78
330
75
100
AcDbEntity
  8
Layer 2
 62
   179
420
  2301728
370
    35
100
AcDbVertex
100
AcDb2dVertex
 10
129.2930555232323
 20
-448.2041665546157
 30
0.0
  0
VERTEX
  5
79
330
75
100
AcDbEntity
  8
Layer 2
 62
   179
420
  2301728
370
    35
100
AcDbVertex
100
AcDb2dVertex
 10
135.2902777439552
 20
-448.2041665546157
 30
0.0
  0
VERTEX
  5
7A
330
75
100
AcDbEntity
  8
Layer 2
 62
   179
420
  2301728
370
    35
100
AcDbVertex
100
AcDb2dVertex
 10
135.2902777439552
 20
-458.4347221076135
 30
0.0
  0
SEQEND
  5
7B
330
75
100
AcDbEntity
  8
Layer 2
 62
   179
420
  2301728
370
    35
  0
POLYLINE
  5
7C
330
1F
100
AcDbEntity
  8
Layer 2
 62
   179
420
  2301728
370
    35
100
AcDb2dPolyline
 66
     1
 10
0.0
 20
0.0
 30
0.0
  0
VERTEX
  5
7D
330
7C
100
AcDbEntity
  8
Layer 2
 62
   179
420
  2301728
370
    35
100
AcDbVertex
100
AcDb2dVertex
 10
135.2902777439552
 20
-438.3263887793073
 30
0.0
  0
VERTEX
  5
7E
330
7C
100
AcDbEntity
  8
Layer 2
 62
   179
420
  2301728
370
    35
100
AcDbVertex
100
AcDb2dVertex
 10
129.2930555232323
 20
-438.3263887793073
 30
0.0
  0
VERTEX
  5
7F
330
7C
100
AcDbEntity
  8
Layer 2
 62
   179
420
  2301728
370
    35
100
AcDbVertex
100
AcDb2dVertex
 10
129.2930555232323
 20
-428.448611003999
 30
0.0
  0
VERTEX
  5
80
330
7C
100
AcDbEntity
  8
Layer 2
 62
   179
420
  2301728
370
    35
100
AcDbVertex
100
AcDb2dVertex
 10
135.2902777439552
 20
-428.448611003999
 30
0.0
  0
VERTEX
  5
81
330
7C
100
AcDbEntity
  8
Layer 2
 62
   179
420
  2301728
370
    35
100
AcDbVertex
100
AcDb2dVertex
 10
135.2902777439552
 20
-438.3263887793073
 30
0.0
  0
SEQEND
  5
82
330
7C
100
AcDbEntity
  8
Layer 2
 62
   179
420
  2301728
370
    35
  0
POLYLINE
  5
83
330
1F
100
AcDbEntity
  8
Layer 2
 62
   179
420
  2301728
370
    35
100
AcDb2dPolyline
 66
     1
 10
0.0
 20
0.0
 30
0.0
  0
VERTEX
  5
84
330
83
100
AcDbEntity
  8
Layer 2
 62
   179
420
  2301728
370
    35
100
AcDbVertex
100
AcDb2dVertex
 10
135.2902777439552
 20
-182.915277732049
 30
0.0
  0
VERTEX
  5
85
330
83
100
AcDbEntity
  8
Layer 2
 62
   179
420
  2301728
370
    35
100
AcDbVertex
100
AcDb2dVertex
 10
129.2930555232323
 20
-182.915277732049
 30
0.0
  0
VERTEX
  5
86
330
83
100
AcDbEntity
  8
Layer 2
 62
   179
420
  2301728
370
    35
100
AcDbVertex
100
AcDb2dVertex
 10
129.2930555232323
 20
-173.0374999567406
 30
0.0
  0
VERTEX
  5
87
330
83
100
AcDbEntity
  8
Layer 2
 62
   179
420
  2301728
370
    35
100
AcDbVertex
100
AcDb2dVertex
 10
135.2902777439552
 20
-173.0374999567406
 30
0.0
  0
VERTEX
  5
88
330
83
100
AcDbEntity
  8
Layer 2
 62
   179
420
  2301728
370
    35
100
AcDbVertex
100
AcDb2dVertex
 10
135.2902777439552
 20
-182.915277732049
 30
0.0
  0
SEQEND
  5
89
330
83
100
AcDbEntity
  8
Layer 2
 62
   179
420
  2301728
370
    35
  0
POLYLINE
  5
8A
330
1F
100
AcDbEntity
  8
Layer 2
 62
   179
420
  2301728
370
    35
100
AcDb2dPolyline
 66
     1
 10
0.0
 20
0.0
 30
0.0
  0
VERTEX
  5
8B
330
8A
100
AcDbEntity
  8
Layer 2
 62
   179
420
  2301728
370
    35
100
AcDbVertex
100
AcDb2dVertex
 10
135.2902777439552
 20
-162.8069444037427
 30
0.0
  0
VERTEX
  5
8C
330
8A
100
AcDbEntity
  8
Layer 2
 62
   179
420
  2301728
370
    35
100
AcDbVertex
100
AcDb2dVertex
 10
129.2930555232323
 20
-162.8069444037427
 30
0.0
  0
VERTEX
  5
8D
330
8A
100
AcDbEntity
  8
Layer 2
 62
   179
420
  2301728
370
    35
100
AcDbVertex
100
AcDb2dVertex
 10
129.2930555232323
 20
-152.5763888507448
 30
0.0
  0
VERTEX
  5
8E
330
8A
100
AcDbEntity
  8
Layer 2
 62
   179
420
  2301728
370
    35
100
AcDbVertex
100
AcDb2dVertex
 10
135.2902777439552
 20
-152.5763888507448
 30
0.0
  0
VERTEX
  5
8F
330
8A
100
AcDbEntity
  8
Layer 2
 62
   179
420
  2301728
370
    35
100
AcDbVertex
100
AcDb2dVertex
 10
135.2902777439552
 20
-162.8069444037427
 30
0.0
  0
SEQEND
  5
90
330
8A
100
AcDbEntity
  8
Layer 2
 62
   179
420
  2301728
370
    35
  0
POLYLINE
  5
91
330
1F
100
AcDbEntity
  8
Layer 2
 62
   179
420
  2301728
370
    35
100
AcDb2dPolyline
 66
     1
 10
0.0
 20
0.0
 30
0.0
  0
VERTEX
  5
92
330
91
100
AcDbEntity
  8
Layer 2
 62
   179
420
  2301728
370
    35
100
AcDbVertex
100
AcDb2dVertex
 10
135.2902777439552
 20
-142.6986110754365
 30
0.0
  0
VERTEX
  5
93
330
91
100
AcDbEntity
  8
Layer 2
 62
   179
420
  2301728
370
    35
100
AcDbVertex
100
AcDb2dVertex
 10
129.2930555232323
 20
-142.6986110754365
 30
0.0
  0
VERTEX
  5
94
330
91
100
AcDbEntity
  8
Layer 2
 62
   179
420
  2301728
370
    35
100
AcDbVertex
100
AcDb2dVertex
 10
129.2930555232323
 20
-132.8208333001281
 30
0.0
  0
VERTEX
  5
95
330
91
100
AcDbEntity
  8
Layer 2
 62
   179
420
  2301728
370
    35
100
AcDbVertex
100
AcDb2dVertex
 10
135.2902777439552
 20
-132.8208333001281
 30
0.0
  0
VERTEX
  5
96
330
91
100
AcDbEntity
  8
Layer 2
 62
   179
420
  2301728
370
    35
100
AcDbVertex
100
AcDb2dVertex
 10
135.2902777439552
 20
-142.6986110754365
 30
0.0
  0
SEQEND
  5
97
330
91
100
AcDbEntity
  8
Layer 2
 62
   179
420
  2301728
370
    35
  0
SPLINE
  5
98
330
1F
100
AcDbEntity
  8
Layer 2
 62
   179
420
  2301728
370
    35
100
AcDbSpline
210
0.0
220
0.0
230
1.0
 70
    11
 71
     3
 72
   110
 73
   106
 74
     0
 42
0.0000000001
 43
0.0000000001
 12
1.0
 22
0.0
 32
0.0
 13
1.0
 23
0.0
 33
0.0
 40
0.0
 40
0.0
 40
0.0
 40
0.0
 40
1.0
 40
1.0
 40
1.0
 40
2.0
 40
2.0
 40
2.0
 40
3.0
 40
3.0
 40
3.0
 40
4.0
 40
4.0
 40
4.0
 40
5.0
 40
5.0
 40
5.0
 40
6.0
 40
6.0
 40
6.0
 40
7.0
 40
7.0
 40
7.0
 40
8.0
 40
8.0
 40
8.0
 40
9.0
 40
9.0
 40
9.0
 40
10.0
 40
10.0
 40
10.0
 40
11.0
 40
11.0
 40
11.0
 40
12.0
 40
12.0
 40
12.0
 40
13.0
 40
13.0
 40
13.0
 40
14.0
 40
14.0
 40
14.0
 40
15.0
 40
15.0
 40
15.0
 40
16.0
 40
16.0
 40
16.0
 40
17.0
 40
17.0
 40
17.0
 40
18.0
 40
18.0
 40
18.0
 40
19.0
 40
19.0
 40
19.0
 40
20.0
 40
20.0
 40
20.0
 40
21.0
 40
21.0
 40
21.0
 40
22.0
 40
22.0
 40
22.0
 40
23.0
 40
23.0
 40
23.0
 40
24.0
 40
24.0
 40
24.0
 40
25.0
 40
25.0
 40
25.0
 40
26.0
 40
26.0
 40
26.0
 40
27.0
 40
27.0
 40
27.0
 40
28.0
 40
28.0
 40
28.0
 40
29.0
 40
29.0
 40
29.0
 40
30.0
 40
30.0
 40
30.0
 40
31.0
 40
31.0
 40
31.0
 40
32.0
 40
32.0
 40
32.0
 40
33.0
 40
33.0
 40
33.0
 40
34.0
 40
34.0
 40
34.0
 40
35.0
 40
35.0
 40
35.0
 40
35.0
 10
-150.1522904762426
 20
-310.7612639603956
 30
0.0
 10
-150.1522904762426
 20
-310.7612639603956
 30
0.0
 10
-88.44423537692323
 20
-310.7612639603956
 30
0.0
 10
-88.44423537692323
 20
-310.7612639603956
 30
0.0
 10
-88.44423537692323
 20
-310.7612639603956
 30
0.0
 10
-116.0280383349795
 20
-235.8779364102145
 30
0.0
 10
-116.0280383349795
 20
-235.8779364102145
 30
0.0
 10
-116.0280383349795
 20
-235.8779364102145
 30
0.0
 10
-135.9472143892991
 20
-235.8779364102145
 30
0.0
 10
-135.9472143892991
 20
-235.8779364102145
 30
0.0
 10
-135.9472143892991
 20
-235.8779364102145
 30
0.0
 10
-135.9472143892991
 20
-229.8779365812566
 30
0.0
 10
-135.9472143892991
 20
-229.8779365812566
 30
0.0
 10
-135.9472143892991
 20
-229.8779365812566
 30
0.0
 10
-205.9472052165254
 20
-229.8779365812566
 30
0.0
 10
-205.9472052165254
 20
-229.8779365812566
 30
0.0
 10
-205.9472052165254
 20
-229.8779365812566
 30
0.0
 10
-205.9472052165254
 20
-235.8779364102145
 30
0.0
 10
-205.9472052165254
 20
-235.8779364102145
 30
0.0
 10
-205.9472052165254
 20
-235.8779364102145
 30
0.0
 10
-275.9472175755987
 20
-235.8779364102145
 30
0.0
 10
-275.9472175755987
 20
-235.8779364102145
 30
0.0
 10
-275.9472175755987
 20
-235.8779364102145
 30
0.0
 10
-275.9472175755987
 20
-229.8779150494099
 30
0.0
 10
-275.9472175755987
 20
-229.8779150494099
 30
0.0
 10
-275.9472175755987
 20
-229.8779150494099
 30
0.0
 10
-345.9472084028253
 20
-229.8779150494099
 30
0.0
 10
-345.9472084028253
 20
-229.8779150494099
 30
0.0
 10
-345.9472084028253
 20
-229.8779150494099
 30
0.0
 10
-345.9472084028253
 20
-235.8779364102145
 30
0.0
 10
-345.9472084028253
 20
-235.8779364102145
 30
0.0
 10
-345.9472084028253
 20
-235.8779364102145
 30
0.0
 10
-366.1833332417875
 20
-235.8779364102145
 30
0.0
 10
-366.1833332417875
 20
-235.8779364102145
 30
0.0
 10
-366.1833332417875
 20
-235.8779364102145
 30
0.0
 10
-393.0704517653382
 20
-309.3763140434784
 30
0.0
 10
-393.0704517653382
 20
-309.3763140434784
 30
0.0
 10
-393.0704517653382
 20
-309.3763140434784
 30
0.0
 10
-393.4356318867747
 20
-310.7612639603956
 30
0.0
 10
-392.333072140417
 20
-310.7612639603956
 30
0.0
 10
-391.2305554577479
 20
-310.7612639603956
 30
0.0
 10
-373.2389749229682
 20
-310.7612639603956
 30
0.0
 10
-373.2389749229682
 20
-310.7612639603956
 30
0.0
 10
-373.2389749229682
 20
-310.7612639603956
 30
0.0
 10
-361.6795599139204
 20
-310.7612639603956
 30
0.0
 10
-361.6795599139204
 20
-310.7612639603956
 30
0.0
 10
-356.1567273415164
 20
-310.7612639603956
 30
0.0
 10
-351.6795889081196
 20
-315.2384023937924
 30
0.0
 10
-351.6795889081196
 20
-320.7612564980432
 30
0.0
 10
-351.6795889081196
 20
-320.7612564980432
 30
0.0
 10
-351.6795889081196
 20
-400.7612183310693
 30
0.0
 10
-351.6795889081196
 20
-400.7612183310693
 30
0.0
 10
-351.6795889081196
 20
-406.2840724353214
 30
0.0
 10
-356.1567273415164
 20
-410.7612324005668
 30
0.0
 10
-361.6795599139204
 20
-410.7612324005668
 30
0.0
 10
-361.6795599139204
 20
-410.7612324005668
 30
0.0
 10
-374.2970498738737
 20
-410.7612324005668
 30
0.0
 10
-374.2970498738737
 20
-410.7612324005668
 30
0.0
 10
-374.2970498738737
 20
-410.7612324005668
 30
0.0
 10
-392.5093749018727
 20
-410.7612324005668
 30
0.0
 10
-392.5093749018727
 20
-410.7612324005668
 30
0.0
 10
-392.5093749018727
 20
-410.7612324005668
 30
0.0
 10
-393.5966470370175
 20
-410.7077472931564
 30
0.0
 10
-393.204810489263
 20
-411.7789136069097
 30
0.0
 10
-392.8129739415123
 20
-412.850079920659
 30
0.0
 10
-390.8534897568873
 20
-418.2064713174325
 30
0.0
 10
-390.8534897568873
 20
-418.2064713174325
 30
0.0
 10
-390.8534897568873
 20
-418.2064713174325
 30
0.0
 10
-366.1833332417875
 20
-485.6446030144396
 30
0.0
 10
-366.1833332417875
 20
-485.6446030144396
 30
0.0
 10
-366.1833332417875
 20
-485.6446030144396
 30
0.0
 10
-346.1203675146526
 20
-485.6446030144396
 30
0.0
 10
-346.1203675146526
 20
-485.6446030144396
 30
0.0
 10
-346.1203675146526
 20
-485.6446030144396
 30
0.0
 10
-346.1203675146526
 20
-491.6445813115507
 30
0.0
 10
-346.1203675146526
 20
-491.6445813115507
 30
0.0
 10
-346.1203675146526
 20
-491.6445813115507
 30
0.0
 10
-276.1203551555793
 20
-491.6445813115507
 30
0.0
 10
-276.1203551555793
 20
-491.6445813115507
 30
0.0
 10
-276.1203551555793
 20
-491.6445813115507
 30
0.0
 10
-276.1203551555793
 20
-485.6446030144396
 30
0.0
 10
-276.1203551555793
 20
-485.6446030144396
 30
0.0
 10
-276.1203551555793
 20
-485.6446030144396
 30
0.0
 10
-206.1203643283527
 20
-485.6446030144396
 30
0.0
 10
-206.1203643283527
 20
-485.6446030144396
 30
0.0
 10
-206.1203643283527
 20
-485.6446030144396
 30
0.0
 10
-206.1203643283527
 20
-491.6445813115507
 30
0.0
 10
-206.1203643283527
 20
-491.6445813115507
 30
0.0
 10
-206.1203643283527
 20
-491.6445813115507
 30
0.0
 10
-136.1203519692794
 20
-491.6445813115507
 30
0.0
 10
-136.1203519692794
 20
-491.6445813115507
 30
0.0
 10
-136.1203519692794
 20
-491.6445813115507
 30
0.0
 10
-136.1203519692794
 20
-485.6446030144396
 30
0.0
 10
-136.1203519692794
 20
-485.6446030144396
 30
0.0
 10
-136.1203519692794
 20
-485.6446030144396
 30
0.0
 10
-116.0280383349795
 20
-485.6446030144396
 30
0.0
 10
-116.0280383349795
 20
-485.6446030144396
 30
0.0
 10
-116.0280383349795
 20
-485.6446030144396
 30
0.0
 10
-88.44423537692323
 20
-410.7612324005668
 30
0.0
 10
-88.44423537692323
 20
-410.7612324005668
 30
0.0
 10
-88.44423537692323
 20
-410.7612324005668
 30
0.0
 10
-150.1522904762426
 20
-410.7612324005668
 30
0.0
 10
-150.1522904762426
 20
-410.7612324005668
 30
0.0
 10
-150.1522904762426
 20
-410.7612324005668
 30
0.0
 10
-150.1522904762426
 20
-310.7612639603956
 30
0.0
 10
-150.1522904762426
 20
-310.7612639603956
 30
0.0
  0
POLYLINE
  5
99
330
1F
100
AcDbEntity
  8
Layer 2
 62
   179
420
  2301728
370
    35
100
AcDb2dPolyline
 66
     1
 10
0.0
 20
0.0
 30
0.0
  0
VERTEX
  5
9A
330
99
100
AcDbEntity
  8
Layer 2
 62
   179
420
  2301728
370
    35
100
AcDbVertex
100
AcDb2dVertex
 10
-141.1636487819834
 20
-255.8779214855097
 30
0.0
  0
VERTEX
  5
9B
330
99
100
AcDbEntity
  8
Layer 2
 62
   179
420
  2301728
370
    35
100
AcDbVertex
100
AcDb2dVertex
 10
-131.1636562443358
 20
-255.8779214855097
 30
0.0
  0
VERTEX
  5
9C
330
99
100
AcDbEntity
  8
Layer 2
 62
   179
420
  2301728
370
    35
100
AcDbVertex
100
AcDb2dVertex
 10
-131.1636562443358
 20
-295.8779346997936
 30
0.0
  0
VERTEX
  5
9D
330
99
100
AcDbEntity
  8
Layer 2
 62
   179
420
  2301728
370
    35
100
AcDbVertex
100
AcDb2dVertex
 10
-141.1636487819834
 20
-295.8779346997936
 30
0.0
  0
VERTEX
  5
9E
330
99
100
AcDbEntity
  8
Layer 2
 62
   179
420
  2301728
370
    35
100
AcDbVertex
100
AcDb2dVertex
 10
-141.1636487819834
 20
-255.8779214855097
 30
0.0
  0
SEQEND
  5
9F
330
99
100
AcDbEntity
  8
Layer 2
 62
   179
420
  2301728
370
    35
  0
SPLINE
  5
A0
330
1F
100
AcDbEntity
  8
Layer 2
 62
   179
420
  2301728
370
    35
100
AcDbSpline
210
0.0
220
0.0
230
1.0
 70
    11
 71
     3
 72
    17
 73
    13
 74
     0
 42
0.0000000001
 43
0.0000000001
 12
1.0
 22
0.0
 32
0.0
 13
1.0
 23
0.0
 33
0.0
 40
0.0
 40
0.0
 40
0.0
 40
0.0
 40
1.0
 40
1.0
 40
1.0
 40
2.0
 40
2.0
 40
2.0
 40
3.0
 40
3.0
 40
3.0
 40
4.0
 40
4.0
 40
4.0
 40
4.0
 10
-232.5885161772044
 20
-245.8779289478621
 30
0.0
 10
-231.8981621056539
 20
-245.8779289478621
 30
0.0
 10
-231.3385278759219
 20
-246.437584709441
 30
0.0
 10
-231.3385278759219
 20
-247.1279387809915
 30
0.0
 10
-231.3385278759219
 20
-247.818292852542
 30
0.0
 10
-231.8981621056539
 20
-248.377927082274
 30
0.0
 10
-232.5885161772044
 20
-248.377927082274
 30
0.0
 10
-233.2788702487549
 20
-248.377927082274
 30
0.0
 10
-233.8385260103338
 20
-247.818292852542
 30
0.0
 10
-233.8385260103338
 20
-247.1279387809915
 30
0.0
 10
-233.8385260103338
 20
-246.437584709441
 30
0.0
 10
-233.2788702487549
 20
-245.8779289478621
 30
0.0
 10
-232.5885161772044
 20
-245.8779289478621
 30
0.0
  0
SPLINE
  5
A1
330
1F
100
AcDbEntity
  8
Layer 2
 62
   179
420
  2301728
370
    35
100
AcDbSpline
210
0.0
220
0.0
230
1.0
 70
    11
 71
     3
 72
    17
 73
    13
 74
     0
 42
0.0000000001
 43
0.0000000001
 12
1.0
 22
0.0
 32
0.0
 13
1.0
 23
0.0
 33
0.0
 40
0.0
 40
0.0
 40
0.0
 40
0.0
 40
1.0
 40
1.0
 40
1.0
 40
2.0
 40
2.0
 40
2.0
 40
3.0
 40
3.0
 40
3.0
 40
4.0
 40
4.0
 40
4.0
 40
4.0
 10
-246.0589041200716
 20
-259.3483168907293
 30
0.0
 10
-245.3685500485211
 20
-259.3483168907293
 30
0.0
 10
-244.8089158187891
 20
-259.9079511204614
 30
0.0
 10
-244.8089158187891
 20
-260.5983267238587
 30
0.0
 10
-244.8089158187891
 20
-261.2886807954092
 30
0.0
 10
-245.3685500485211
 20
-261.8483150251412
 30
0.0
 10
-246.0589041200716
 20
-261.8483150251412
 30
0.0
 10
-246.7492581916221
 20
-261.8483150251412
 30
0.0
 10
-247.308913953201
 20
-261.2886807954092
 30
0.0
 10
-247.308913953201
 20
-260.5983267238587
 30
0.0
 10
-247.308913953201
 20
-259.9079511204614
 30
0.0
 10
-246.7492581916221
 20
-259.3483168907293
 30
0.0
 10
-246.0589041200716
 20
-259.3483168907293
 30
0.0
  0
POLYLINE
  5
A2
330
1F
100
AcDbEntity
  8
Layer 2
 62
   179
420
  2301728
370
    35
100
AcDb2dPolyline
 66
     1
 10
0.0
 20
0.0
 30
0.0
  0
VERTEX
  5
A3
330
A2
100
AcDbEntity
  8
Layer 2
 62
   179
420
  2301728
370
    35
100
AcDbVertex
100
AcDb2dVertex
 10
-290.7740688020895
 20
-255.8779214855097
 30
0.0
  0
VERTEX
  5
A4
330
A2
100
AcDbEntity
  8
Layer 2
 62
   179
420
  2301728
370
    35
100
AcDbVertex
100
AcDb2dVertex
 10
-280.7740762644419
 20
-255.8779214855097
 30
0.0
  0
VERTEX
  5
A5
330
A2
100
AcDbEntity
  8
Layer 2
 62
   179
420
  2301728
370
    35
100
AcDbVertex
100
AcDb2dVertex
 10
-280.7740762644419
 20
-295.8779346997936
 30
0.0
  0
VERTEX
  5
A6
330
A2
100
AcDbEntity
  8
Layer 2
 62
   179
420
  2301728
370
    35
100
AcDbVertex
100
AcDb2dVertex
 10
-290.7740688020895
 20
-295.8779346997936
 30
0.0
  0
VERTEX
  5
A7
330
A2
100
AcDbEntity
  8
Layer 2
 62
   179
420
  2301728
370
    35
100
AcDbVertex
100
AcDb2dVertex
 10
-290.7740688020895
 20
-255.8779214855097
 30
0.0
  0
SEQEND
  5
A8
330
A2
100
AcDbEntity
  8
Layer 2
 62
   179
420
  2301728
370
    35
  0
POLYLINE
  5
A9
330
1F
100
AcDbEntity
  8
Layer 2
 62
   179
420
  2301728
370
    35
100
AcDb2dPolyline
 66
     1
 10
0.0
 20
0.0
 30
0.0
  0
VERTEX
  5
AA
330
A9
100
AcDbEntity
  8
Layer 2
 62
   179
420
  2301728
370
    35
100
AcDbVertex
100
AcDb2dVertex
 10
-320.8173469589124
 20
-255.8779214855097
 30
0.0
  0
VERTEX
  5
AB
330
A9
100
AcDbEntity
  8
Layer 2
 62
   179
420
  2301728
370
    35
100
AcDbVertex
100
AcDb2dVertex
 10
-310.8173544212648
 20
-255.8779214855097
 30
0.0
  0
VERTEX
  5
AC
330
A9
100
AcDbEntity
  8
Layer 2
 62
   179
420
  2301728
370
    35
100
AcDbVertex
100
AcDb2dVertex
 10
-310.8173544212648
 20
-295.8779346997936
 30
0.0
  0
VERTEX
  5
AD
330
A9
100
AcDbEntity
  8
Layer 2
 62
   179
420
  2301728
370
    35
100
AcDbVertex
100
AcDb2dVertex
 10
-320.8173469589124
 20
-295.8779346997936
 30
0.0
  0
VERTEX
  5
AE
330
A9
100
AcDbEntity
  8
Layer 2
 62
   179
420
  2301728
370
    35
100
AcDbVertex
100
AcDb2dVertex
 10
-320.8173469589124
 20
-255.8779214855097
 30
0.0
  0
SEQEND
  5
AF
330
A9
100
AcDbEntity
  8
Layer 2
 62
   179
420
  2301728
370
    35
  0
POLYLINE
  5
B0
330
1F
100
AcDbEntity
  8
Layer 2
 62
   179
420
  2301728
370
    35
100
AcDb2dPolyline
 66
     1
 10
0.0
 20
0.0
 30
0.0
  0
VERTEX
  5
B1
330
B0
100
AcDbEntity
  8
Layer 2
 62
   179
420
  2301728
370
    35
100
AcDbVertex
100
AcDb2dVertex
 10
-340.9039331219681
 20
-465.6446179391444
 30
0.0
  0
VERTEX
  5
B2
330
B0
100
AcDbEntity
  8
Layer 2
 62
   179
420
  2301728
370
    35
100
AcDbVertex
100
AcDb2dVertex
 10
-350.9039256596156
 20
-465.6446179391444
 30
0.0
  0
VERTEX
  5
B3
330
B0
100
AcDbEntity
  8
Layer 2
 62
   179
420
  2301728
370
    35
100
AcDbVertex
100
AcDb2dVertex
 10
-350.9039256596156
 20
-425.644561661169
 30
0.0
  0
VERTEX
  5
B4
330
B0
100
AcDbEntity
  8
Layer 2
 62
   179
420
  2301728
370
    35
100
AcDbVertex
100
AcDb2dVertex
 10
-340.9039331219681
 20
-425.644561661169
 30
0.0
  0
VERTEX
  5
B5
330
B0
100
AcDbEntity
  8
Layer 2
 62
   179
420
  2301728
370
    35
100
AcDbVertex
100
AcDb2dVertex
 10
-340.9039331219681
 20
-465.6446179391444
 30
0.0
  0
SEQEND
  5
B6
330
B0
100
AcDbEntity
  8
Layer 2
 62
   179
420
  2301728
370
    35
  0
POLYLINE
  5
B7
330
1F
100
AcDbEntity
  8
Layer 2
 62
   179
420
  2301728
370
    35
100
AcDb2dPolyline
 66
     1
 10
0.0
 20
0.0
 30
0.0
  0
VERTEX
  5
B8
330
B7
100
AcDbEntity
  8
Layer 2
 62
   179
420
  2301728
370
    35
100
AcDbVertex
100
AcDb2dVertex
 10
-340.7307955419874
 20
-295.8779346997936
 30
0.0
  0
VERTEX
  5
B9
330
B7
100
AcDbEntity
  8
Layer 2
 62
   179
420
  2301728
370
    35
100
AcDbVertex
100
AcDb2dVertex
 10
-350.730788079635
 20
-295.8779346997936
 30
0.0
  0
VERTEX
  5
BA
330
B7
100
AcDbEntity
  8
Layer 2
 62
   179
420
  2301728
370
    35
100
AcDbVertex
100
AcDb2dVertex
 10
-350.730788079635
 20
-255.8779214855097
 30
0.0
  0
VERTEX
  5
BB
330
B7
100
AcDbEntity
  8
Layer 2
 62
   179
420
  2301728
370
    35
100
AcDbVertex
100
AcDb2dVertex
 10
-340.7307955419874
 20
-255.8779214855097
 30
0.0
  0
VERTEX
  5
BC
330
B7
100
AcDbEntity
  8
Layer 2
 62
   179
420
  2301728
370
    35
100
AcDbVertex
100
AcDb2dVertex
 10
-340.7307955419874
 20
-295.8779346997936
 30
0.0
  0
SEQEND
  5
BD
330
B7
100
AcDbEntity
  8
Layer 2
 62
   179
420
  2301728
370
    35
  0
POLYLINE
  5
BE
330
1F
100
AcDbEntity
  8
Layer 2
 62
   179
420
  2301728
370
    35
100
AcDb2dPolyline
 66
     1
 10
0.0
 20
0.0
 30
0.0
  0
VERTEX
  5
BF
330
BE
100
AcDbEntity
  8
Layer 2
 62
   179
420
  2301728
370
    35
100
AcDbVertex
100
AcDb2dVertex
 10
-310.9904920012455
 20
-465.6446179391444
 30
0.0
  0
VERTEX
  5
C0
330
BE
100
AcDbEntity
  8
Layer 2
 62
   179
420
  2301728
370
    35
100
AcDbVertex
100
AcDb2dVertex
 10
-320.990484538893
 20
-465.6446179391444
 30
0.0
  0
VERTEX
  5
C1
330
BE
100
AcDbEntity
  8
Layer 2
 62
   179
420
  2301728
370
    35
100
AcDbVertex
100
AcDb2dVertex
 10
-320.990484538893
 20
-425.644561661169
 30
0.0
  0
VERTEX
  5
C2
330
BE
100
AcDbEntity
  8
Layer 2
 62
   179
420
  2301728
370
    35
100
AcDbVertex
100
AcDb2dVertex
 10
-310.9904920012455
 20
-425.644561661169
 30
0.0
  0
VERTEX
  5
C3
330
BE
100
AcDbEntity
  8
Layer 2
 62
   179
420
  2301728
370
    35
100
AcDbVertex
100
AcDb2dVertex
 10
-310.9904920012455
 20
-465.6446179391444
 30
0.0
  0
SEQEND
  5
C4
330
BE
100
AcDbEntity
  8
Layer 2
 62
   179
420
  2301728
370
    35
  0
POLYLINE
  5
C5
330
1F
100
AcDbEntity
  8
Layer 2
 62
   179
420
  2301728
370
    35
100
AcDb2dPolyline
 66
     1
 10
0.0
 20
0.0
 30
0.0
  0
VERTEX
  5
C6
330
C5
100
AcDbEntity
  8
Layer 2
 62
   179
420
  2301728
370
    35
100
AcDbVertex
100
AcDb2dVertex
 10
-280.9472138444225
 20
-465.6446179391444
 30
0.0
  0
VERTEX
  5
C7
330
C5
100
AcDbEntity
  8
Layer 2
 62
   179
420
  2301728
370
    35
100
AcDbVertex
100
AcDb2dVertex
 10
-290.9472063820701
 20
-465.6446179391444
 30
0.0
  0
VERTEX
  5
C8
330
C5
100
AcDbEntity
  8
Layer 2
 62
   179
420
  2301728
370
    35
100
AcDbVertex
100
AcDb2dVertex
 10
-290.9472063820701
 20
-425.644561661169
 30
0.0
  0
VERTEX
  5
C9
330
C5
100
AcDbEntity
  8
Layer 2
 62
   179
420
  2301728
370
    35
100
AcDbVertex
100
AcDb2dVertex
 10
-280.9472138444225
 20
-425.644561661169
 30
0.0
  0
VERTEX
  5
CA
330
C5
100
AcDbEntity
  8
Layer 2
 62
   179
420
  2301728
370
    35
100
AcDbVertex
100
AcDb2dVertex
 10
-280.9472138444225
 20
-465.6446179391444
 30
0.0
  0
SEQEND
  5
CB
330
C5
100
AcDbEntity
  8
Layer 2
 62
   179
420
  2301728
370
    35
  0
SPLINE
  5
CC
330
1F
100
AcDbEntity
  8
Layer 2
 62
   179
420
  2301728
370
    35
100
AcDbSpline
210
0.0
220
0.0
230
1.0
 70
    11
 71
     3
 72
    17
 73
    13
 74
     0
 42
0.0000000001
 43
0.0000000001
 12
1.0
 22
0.0
 32
0.0
 13
1.0
 23
0.0
 33
0.0
 40
0.0
 40
0.0
 40
0.0
 40
0.0
 40
1.0
 40
1.0
 40
1.0
 40
2.0
 40
2.0
 40
2.0
 40
3.0
 40
3.0
 40
3.0
 40
4.0
 40
4.0
 40
4.0
 40
4.0
 10
-244.8089158187891
 20
-461.9436379867296
 30
0.0
 10
-245.4992698903396
 20
-461.9436379867296
 30
0.0
 10
-246.0589041200716
 20
-461.384025288843
 30
0.0
 10
-246.0589041200716
 20
-460.6936712172919
 30
0.0
 10
-246.0589041200716
 20
-460.0032740820478
 30
0.0
 10
-245.4992698903396
 20
-459.4436613841619
 30
0.0
 10
-244.8089158187891
 20
-459.4436613841619
 30
0.0
 10
-244.1185617472386
 20
-459.4436613841619
 30
0.0
 10
-243.5589059856598
 20
-460.0032740820478
 30
0.0
 10
-243.5589059856598
 20
-460.6936712172919
 30
0.0
 10
-243.5589059856598
 20
-461.384025288843
 30
0.0
 10
-244.1185617472386
 20
-461.9436379867296
 30
0.0
 10
-244.8089158187891
 20
-461.9436379867296
 30
0.0
  0
POLYLINE
  5
CD
330
1F
100
AcDbEntity
  8
Layer 2
 62
   179
420
  2301728
370
    35
100
AcDb2dPolyline
 66
     1
 10
0.0
 20
0.0
 30
0.0
  0
VERTEX
  5
CE
330
CD
100
AcDbEntity
  8
Layer 2
 62
   179
420
  2301728
370
    35
100
AcDbVertex
100
AcDb2dVertex
 10
-240.7740845820048
 20
-397.4251601179276
 30
0.0
  0
VERTEX
  5
CF
330
CD
100
AcDbEntity
  8
Layer 2
 62
   179
420
  2301728
370
    35
100
AcDbVertex
100
AcDb2dVertex
 10
-320.774067946879
 20
-397.4251601179276
 30
0.0
  0
VERTEX
  5
D0
330
CD
100
AcDbEntity
  8
Layer 2
 62
   179
420
  2301728
370
    35
100
AcDbVertex
100
AcDb2dVertex
 10
-320.774067946879
 20
-321.4251479298977
 30
0.0
  0
VERTEX
  5
D1
330
CD
100
AcDbEntity
  8
Layer 2
 62
   179
420
  2301728
370
    35
100
AcDbVertex
100
AcDb2dVertex
 10
-240.7740845820048
 20
-321.4251479298977
 30
0.0
  0
VERTEX
  5
D2
330
CD
100
AcDbEntity
  8
Layer 2
 62
   179
420
  2301728
370
    35
100
AcDbVertex
100
AcDb2dVertex
 10
-240.7740845820048
 20
-397.4251601179276
 30
0.0
  0
SEQEND
  5
D3
330
CD
100
AcDbEntity
  8
Layer 2
 62
   179
420
  2301728
370
    35
  0
SPLINE
  5
D4
330
1F
100
AcDbEntity
  8
Layer 2
 62
   179
420
  2301728
370
    35
100
AcDbSpline
210
0.0
220
0.0
230
1.0
 70
    11
 71
     3
 72
    17
 73
    13
 74
     0
 42
0.0000000001
 43
0.0000000001
 12
1.0
 22
0.0
 32
0.0
 13
1.0
 23
0.0
 33
0.0
 40
0.0
 40
0.0
 40
0.0
 40
0.0
 40
1.0
 40
1.0
 40
1.0
 40
2.0
 40
2.0
 40
2.0
 40
3.0
 40
3.0
 40
3.0
 40
4.0
 40
4.0
 40
4.0
 40
4.0
 10
-233.8385260103338
 20
-274.0686931348791
 30
0.0
 10
-233.8385260103338
 20
-273.3783390633286
 30
0.0
 10
-233.2788702487549
 20
-272.8187048335965
 30
0.0
 10
-232.5885161772044
 20
-272.8187048335965
 30
0.0
 10
-231.8981621056539
 20
-272.8187048335965
 30
0.0
 10
-231.3385278759219
 20
-273.3783390633286
 30
0.0
 10
-231.3385278759219
 20
-274.0686931348791
 30
0.0
 10
-231.3385278759219
 20
-274.7590472064296
 30
0.0
 10
-231.8981621056539
 20
-275.3187029680084
 30
0.0
 10
-232.5885161772044
 20
-275.3187029680084
 30
0.0
 10
-233.2788702487549
 20
-275.3187029680084
 30
0.0
 10
-233.8385260103338
 20
-274.7590472064296
 30
0.0
 10
-233.8385260103338
 20
-274.0686931348791
 30
0.0
  0
SPLINE
  5
D5
330
1F
100
AcDbEntity
  8
Layer 2
 62
   179
420
  2301728
370
    35
100
AcDbSpline
210
0.0
220
0.0
230
1.0
 70
    11
 71
     3
 72
    17
 73
    13
 74
     0
 42
0.0000000001
 43
0.0000000001
 12
1.0
 22
0.0
 32
0.0
 13
1.0
 23
0.0
 33
0.0
 40
0.0
 40
0.0
 40
0.0
 40
0.0
 40
1.0
 40
1.0
 40
1.0
 40
2.0
 40
2.0
 40
2.0
 40
3.0
 40
3.0
 40
3.0
 40
4.0
 40
4.0
 40
4.0
 40
4.0
 10
-231.3385278759219
 20
-475.4140474614417
 30
0.0
 10
-232.0288819474724
 20
-475.4140474614417
 30
0.0
 10
-232.5885161772044
 20
-474.8543916998628
 30
0.0
 10
-232.5885161772044
 20
-474.1640376283117
 30
0.0
 10
-232.5885161772044
 20
-473.4736835567637
 30
0.0
 10
-232.0288819474724
 20
-472.9140277951849
 30
0.0
 10
-231.3385278759219
 20
-472.9140277951849
 30
0.0
 10
-230.6481738043714
 20
-472.9140277951849
 30
0.0
 10
-230.0885180427925
 20
-473.4736835567637
 30
0.0
 10
-230.0885180427925
 20
-474.1640376283117
 30
0.0
 10
-230.0885180427925
 20
-474.8543916998628
 30
0.0
 10
-230.6481738043714
 20
-475.4140474614417
 30
0.0
 10
-231.3385278759219
 20
-475.4140474614417
 30
0.0
  0
SPLINE
  5
D6
330
1F
100
AcDbEntity
  8
Layer 2
 62
   179
420
  2301728
370
    35
100
AcDbSpline
210
0.0
220
0.0
230
1.0
 70
    11
 71
     3
 72
    17
 73
    13
 74
     0
 42
0.0000000001
 43
0.0000000001
 12
1.0
 22
0.0
 32
0.0
 13
1.0
 23
0.0
 33
0.0
 40
0.0
 40
0.0
 40
0.0
 40
0.0
 40
1.0
 40
1.0
 40
1.0
 40
2.0
 40
2.0
 40
2.0
 40
3.0
 40
3.0
 40
3.0
 40
4.0
 40
4.0
 40
4.0
 40
4.0
 10
-231.3385278759219
 20
-448.4732715757066
 30
0.0
 10
-232.0288819474724
 20
-448.4732715757066
 30
0.0
 10
-232.5885161772044
 20
-447.9136588778239
 30
0.0
 10
-232.5885161772044
 20
-447.2232617425798
 30
0.0
 10
-232.5885161772044
 20
-446.5329507347209
 30
0.0
 10
-232.0288819474724
 20
-445.9732949731421
 30
0.0
 10
-231.3385278759219
 20
-445.9732949731421
 30
0.0
 10
-230.6481738043714
 20
-445.9732949731421
 30
0.0
 10
-230.0885180427925
 20
-446.5329507347209
 30
0.0
 10
-230.0885180427925
 20
-447.2232617425798
 30
0.0
 10
-230.0885180427925
 20
-447.9136588778239
 30
0.0
 10
-230.6481738043714
 20
-448.4732715757066
 30
0.0
 10
-231.3385278759219
 20
-448.4732715757066
 30
0.0
  0
SPLINE
  5
D7
330
1F
100
AcDbEntity
  8
Layer 2
 62
   179
420
  2301728
370
    35
100
AcDbSpline
210
0.0
220
0.0
230
1.0
 70
    11
 71
     3
 72
    17
 73
    13
 74
     0
 42
0.0000000001
 43
0.0000000001
 12
1.0
 22
0.0
 32
0.0
 13
1.0
 23
0.0
 33
0.0
 40
0.0
 40
0.0
 40
0.0
 40
0.0
 40
1.0
 40
1.0
 40
1.0
 40
2.0
 40
2.0
 40
2.0
 40
3.0
 40
3.0
 40
3.0
 40
4.0
 40
4.0
 40
4.0
 40
4.0
 10
-220.3681380674666
 20
-260.5983267238587
 30
0.0
 10
-220.3681380674666
 20
-259.9079511204614
 30
0.0
 10
-219.8085038377345
 20
-259.3483168907293
 30
0.0
 10
-219.118149766184
 20
-259.3483168907293
 30
0.0
 10
-218.4277741627867
 20
-259.3483168907293
 30
0.0
 10
-217.8681399330547
 20
-259.9079511204614
 30
0.0
 10
-217.8681399330547
 20
-260.5983267238587
 30
0.0
 10
-217.8681399330547
 20
-261.2886807954092
 30
0.0
 10
-218.4277741627867
 20
-261.8483150251412
 30
0.0
 10
-219.118149766184
 20
-261.8483150251412
 30
0.0
 10
-219.8085038377345
 20
-261.8483150251412
 30
0.0
 10
-220.3681380674666
 20
-261.2886807954092
 30
0.0
 10
-220.3681380674666
 20
-260.5983267238587
 30
0.0
  0
SPLINE
  5
D8
330
1F
100
AcDbEntity
  8
Layer 2
 62
   179
420
  2301728
370
    35
100
AcDbSpline
210
0.0
220
0.0
230
1.0
 70
    11
 71
     3
 72
    17
 73
    13
 74
     0
 42
0.0000000001
 43
0.0000000001
 12
1.0
 22
0.0
 32
0.0
 13
1.0
 23
0.0
 33
0.0
 40
0.0
 40
0.0
 40
0.0
 40
0.0
 40
1.0
 40
1.0
 40
1.0
 40
2.0
 40
2.0
 40
2.0
 40
3.0
 40
3.0
 40
3.0
 40
4.0
 40
4.0
 40
4.0
 40
4.0
 10
-217.8681399330547
 20
-461.9436379867296
 30
0.0
 10
-218.5584940046052
 20
-461.9436379867296
 30
0.0
 10
-219.118149766184
 20
-461.384025288843
 30
0.0
 10
-219.118149766184
 20
-460.6936712172919
 30
0.0
 10
-219.118149766184
 20
-460.0032740820478
 30
0.0
 10
-218.5584940046052
 20
-459.4436613841619
 30
0.0
 10
-217.8681399330547
 20
-459.4436613841619
 30
0.0
 10
-217.1777858615042
 20
-459.4436613841619
 30
0.0
 10
-216.6181300999253
 20
-460.0032740820478
 30
0.0
 10
-216.6181300999253
 20
-460.6936712172919
 30
0.0
 10
-216.6181300999253
 20
-461.384025288843
 30
0.0
 10
-217.1777858615042
 20
-461.9436379867296
 30
0.0
 10
-217.8681399330547
 20
-461.9436379867296
 30
0.0
  0
POLYLINE
  5
D9
330
1F
100
AcDbEntity
  8
Layer 2
 62
   179
420
  2301728
370
    35
100
AcDb2dPolyline
 66
     1
 10
0.0
 20
0.0
 30
0.0
  0
VERTEX
  5
DA
330
D9
100
AcDbEntity
  8
Layer 2
 62
   179
420
  2301728
370
    35
100
AcDbVertex
100
AcDb2dVertex
 10
-141.336786361964
 20
-425.644561661169
 30
0.0
  0
VERTEX
  5
DB
330
D9
100
AcDbEntity
  8
Layer 2
 62
   179
420
  2301728
370
    35
100
AcDbVertex
100
AcDb2dVertex
 10
-131.3367938243164
 20
-425.644561661169
 30
0.0
  0
VERTEX
  5
DC
330
D9
100
AcDbEntity
  8
Layer 2
 62
   179
420
  2301728
370
    35
100
AcDbVertex
100
AcDb2dVertex
 10
-131.3367938243164
 20
-465.6446179391444
 30
0.0
  0
VERTEX
  5
DD
330
D9
100
AcDbEntity
  8
Layer 2
 62
   179
420
  2301728
370
    35
100
AcDbVertex
100
AcDb2dVertex
 10
-141.336786361964
 20
-465.6446179391444
 30
0.0
  0
VERTEX
  5
DE
330
D9
100
AcDbEntity
  8
Layer 2
 62
   179
420
  2301728
370
    35
100
AcDbVertex
100
AcDb2dVertex
 10
-141.336786361964
 20
-425.644561661169
 30
0.0
  0
SEQEND
  5
DF
330
D9
100
AcDbEntity
  8
Layer 2
 62
   179
420
  2301728
370
    35
  0
POLYLINE
  5
E0
330
1F
100
AcDbEntity
  8
Layer 2
 62
   179
420
  2301728
370
    35
100
AcDb2dPolyline
 66
     1
 10
0.0
 20
0.0
 30
0.0
  0
VERTEX
  5
E1
330
E0
100
AcDbEntity
  8
Layer 2
 62
   179
420
  2301728
370
    35
100
AcDbVertex
100
AcDb2dVertex
 10
-191.2934915700152
 20
-465.6446179391444
 30
0.0
  0
VERTEX
  5
E2
330
E0
100
AcDbEntity
  8
Layer 2
 62
   179
420
  2301728
370
    35
100
AcDbVertex
100
AcDb2dVertex
 10
-201.2934841076627
 20
-465.6446179391444
 30
0.0
  0
VERTEX
  5
E3
330
E0
100
AcDbEntity
  8
Layer 2
 62
   179
420
  2301728
370
    35
100
AcDbVertex
100
AcDb2dVertex
 10
-201.2934841076627
 20
-425.644561661169
 30
0.0
  0
VERTEX
  5
E4
330
E0
100
AcDbEntity
  8
Layer 2
 62
   179
420
  2301728
370
    35
100
AcDbVertex
100
AcDb2dVertex
 10
-191.2934915700152
 20
-425.644561661169
 30
0.0
  0
VERTEX
  5
E5
330
E0
100
AcDbEntity
  8
Layer 2
 62
   179
420
  2301728
370
    35
100
AcDbVertex
100
AcDb2dVertex
 10
-191.2934915700152
 20
-465.6446179391444
 30
0.0
  0
SEQEND
  5
E6
330
E0
100
AcDbEntity
  8
Layer 2
 62
   179
420
  2301728
370
    35
  0
POLYLINE
  5
E7
330
1F
100
AcDbEntity
  8
Layer 2
 62
   179
420
  2301728
370
    35
100
AcDb2dPolyline
 66
     1
 10
0.0
 20
0.0
 30
0.0
  0
VERTEX
  5
E8
330
E7
100
AcDbEntity
  8
Layer 2
 62
   179
420
  2301728
370
    35
100
AcDbVertex
100
AcDb2dVertex
 10
-191.1203539900346
 20
-295.8779346997936
 30
0.0
  0
VERTEX
  5
E9
330
E7
100
AcDbEntity
  8
Layer 2
 62
   179
420
  2301728
370
    35
100
AcDbVertex
100
AcDb2dVertex
 10
-201.1203465276822
 20
-295.8779346997936
 30
0.0
  0
VERTEX
  5
EA
330
E7
100
AcDbEntity
  8
Layer 2
 62
   179
420
  2301728
370
    35
100
AcDbVertex
100
AcDb2dVertex
 10
-201.1203465276822
 20
-255.8779214855097
 30
0.0
  0
VERTEX
  5
EB
330
E7
100
AcDbEntity
  8
Layer 2
 62
   179
420
  2301728
370
    35
100
AcDbVertex
100
AcDb2dVertex
 10
-191.1203539900346
 20
-255.8779214855097
 30
0.0
  0
VERTEX
  5
EC
330
E7
100
AcDbEntity
  8
Layer 2
 62
   179
420
  2301728
370
    35
100
AcDbVertex
100
AcDb2dVertex
 10
-191.1203539900346
 20
-295.8779346997936
 30
0.0
  0
SEQEND
  5
ED
330
E7
100
AcDbEntity
  8
Layer 2
 62
   179
420
  2301728
370
    35
  0
POLYLINE
  5
EE
330
1F
100
AcDbEntity
  8
Layer 2
 62
   179
420
  2301728
370
    35
100
AcDb2dPolyline
 66
     1
 10
0.0
 20
0.0
 30
0.0
  0
VERTEX
  5
EF
330
EE
100
AcDbEntity
  8
Layer 2
 62
   179
420
  2301728
370
    35
100
AcDbVertex
100
AcDb2dVertex
 10
-161.2502134131922
 20
-465.6446179391444
 30
0.0
  0
VERTEX
  5
F0
330
EE
100
AcDbEntity
  8
Layer 2
 62
   179
420
  2301728
370
    35
100
AcDbVertex
100
AcDb2dVertex
 10
-171.2502059508398
 20
-465.6446179391444
 30
0.0
  0
VERTEX
  5
F1
330
EE
100
AcDbEntity
  8
Layer 2
 62
   179
420
  2301728
370
    35
100
AcDbVertex
100
AcDb2dVertex
 10
-171.2502059508398
 20
-425.644561661169
 30
0.0
  0
VERTEX
  5
F2
330
EE
100
AcDbEntity
  8
Layer 2
 62
   179
420
  2301728
370
    35
100
AcDbVertex
100
AcDb2dVertex
 10
-161.2502134131922
 20
-425.644561661169
 30
0.0
  0
VERTEX
  5
F3
330
EE
100
AcDbEntity
  8
Layer 2
 62
   179
420
  2301728
370
    35
100
AcDbVertex
100
AcDb2dVertex
 10
-161.2502134131922
 20
-465.6446179391444
 30
0.0
  0
SEQEND
  5
F4
330
EE
100
AcDbEntity
  8
Layer 2
 62
   179
420
  2301728
370
    35
  0
POLYLINE
  5
F5
330
1F
100
AcDbEntity
  8
Layer 2
 62
   179
420
  2301728
370
    35
100
AcDb2dPolyline
 66
     1
 10
0.0
 20
0.0
 30
0.0
  0
VERTEX
  5
F6
330
F5
100
AcDbEntity
  8
Layer 2
 62
   179
420
  2301728
370
    35
100
AcDbVertex
100
AcDb2dVertex
 10
-161.0770758332116
 20
-295.8779346997936
 30
0.0
  0
VERTEX
  5
F7
330
F5
100
AcDbEntity
  8
Layer 2
 62
   179
420
  2301728
370
    35
100
AcDbVertex
100
AcDb2dVertex
 10
-171.0770683708592
 20
-295.8779346997936
 30
0.0
  0
VERTEX
  5
F8
330
F5
100
AcDbEntity
  8
Layer 2
 62
   179
420
  2301728
370
    35
100
AcDbVertex
100
AcDb2dVertex
 10
-171.0770683708592
 20
-255.8779214855097
 30
0.0
  0
VERTEX
  5
F9
330
F5
100
AcDbEntity
  8
Layer 2
 62
   179
420
  2301728
370
    35
100
AcDbVertex
100
AcDb2dVertex
 10
-161.0770758332116
 20
-255.8779214855097
 30
0.0
  0
VERTEX
  5
FA
330
F5
100
AcDbEntity
  8
Layer 2
 62
   179
420
  2301728
370
    35
100
AcDbVertex
100
AcDb2dVertex
 10
-161.0770758332116
 20
-295.8779346997936
 30
0.0
  0
SEQEND
  5
FB
330
F5
100
AcDbEntity
  8
Layer 2
 62
   179
420
  2301728
370
    35
  0
SPLINE
  5
FC
330
1F
100
AcDbEntity
  8
Layer 2
 62
   179
420
  2301728
370
    35
100
AcDbSpline
210
0.0
220
0.0
230
1.0
 70
    11
 71
     3
 72
    41
 73
    37
 74
     0
 42
0.0000000001
 43
0.0000000001
 12
1.0
 22
0.0
 32
0.0
 13
1.0
 23
0.0
 33
0.0
 40
0.0
 40
0.0
 40
0.0
 40
0.0
 40
1.0
 40
1.0
 40
1.0
 40
2.0
 40
2.0
 40
2.0
 40
3.0
 40
3.0
 40
3.0
 40
4.0
 40
4.0
 40
4.0
 40
5.0
 40
5.0
 40
5.0
 40
6.0
 40
6.0
 40
6.0
 40
7.0
 40
7.0
 40
7.0
 40
8.0
 40
8.0
 40
8.0
 40
9.0
 40
9.0
 40
9.0
 40
10.0
 40
10.0
 40
10.0
 40
11.0
 40
11.0
 40
11.0
 40
12.0
 40
12.0
 40
12.0
 40
12.0
 10
-45.57335949924034
 20
-49.46451948836629
 30
0.0
 10
-45.57335949924034
 20
-49.46451948836629
 30
0.0
 10
-116.1203453621378
 20
-2.433174047921438
 30
0.0
 10
-116.1203453621378
 20
-2.433174047921438
 30
0.0
 10
-116.1203453621378
 20
-2.433174047921438
 30
0.0
 10
-366.1203310581
 20
-2.433174047921438
 30
0.0
 10
-366.1203310581
 20
-2.433174047921438
 30
0.0
 10
-366.1203310581
 20
-2.433174047921438
 30
0.0
 10
-436.6673169210001
 20
-49.46451948836629
 30
0.0
 10
-436.6673169210001
 20
-49.46451948836629
 30
0.0
 10
-439.4493176527245
 20
-51.31916511100376
 30
0.0
 10
-441.1203612178449
 20
-54.44147668113247
 30
0.0
 10
-441.1203612178449
 20
-57.78502797695457
 30
0.0
 10
-441.1203612178449
 20
-57.78502797695457
 30
0.0
 10
-441.1203612178449
 20
-147.0813215947672
 30
0.0
 10
-441.1203612178449
 20
-147.0813215947672
 30
0.0
 10
-441.1203612178449
 20
-150.4248513587425
 30
0.0
 10
-439.4493176527245
 20
-153.5471629288712
 30
0.0
 10
-436.6673169210001
 20
-155.4018300833555
 30
0.0
 10
-436.6673169210001
 20
-155.4018300833555
 30
0.0
 10
-366.1203310581
 20
-202.4331755238003
 30
0.0
 10
-366.1203310581
 20
-202.4331755238003
 30
0.0
 10
-366.1203310581
 20
-202.4331755238003
 30
0.0
 10
-116.1203453621378
 20
-202.4331755238003
 30
0.0
 10
-116.1203453621378
 20
-202.4331755238003
 30
0.0
 10
-116.1203453621378
 20
-202.4331755238003
 30
0.0
 10
-45.57335949924034
 20
-155.4018300833555
 30
0.0
 10
-45.57335949924034
 20
-155.4018300833555
 30
0.0
 10
-42.79135876751397
 20
-153.5471629288712
 30
0.0
 10
-41.12035826608742
 20
-150.4248513587425
 30
0.0
 10
-41.12035826608742
 20
-147.0813215947672
 30
0.0
 10
-41.12035826608742
 20
-147.0813215947672
 30
0.0
 10
-41.12035826608742
 20
-57.78500644510779
 30
0.0
 10
-41.12035826608742
 20
-57.78500644510779
 30
0.0
 10
-41.12035826608742
 20
-54.44147668113247
 30
0.0
 10
-42.79135876751397
 20
-51.31916511100376
 30
0.0
 10
-45.57335949924034
 20
-49.46451948836629
 30
0.0
  0
POLYLINE
  5
FD
330
1F
100
AcDbEntity
  8
Layer 2
 62
   179
420
  2301728
370
    35
100
AcDb2dPolyline
 66
     1
 10
0.0
 20
0.0
 30
0.0
  0
VERTEX
  5
FE
330
FD
100
AcDbEntity
  8
Layer 2
 62
   179
420
  2301728
370
    35
100
AcDbVertex
100
AcDb2dVertex
 10
-206.120342796506
 20
-35.94185222151042
 30
0.0
  0
VERTEX
  5
FF
330
FD
100
AcDbEntity
  8
Layer 2
 62
   179
420
  2301728
370
    35
100
AcDbVertex
100
AcDb2dVertex
 10
-136.1203519692794
 20
-35.94185222151042
 30
0.0
  0
VERTEX
  5
100
330
FD
100
AcDbEntity
  8
Layer 2
 62
   179
420
  2301728
370
    35
100
AcDbVertex
100
AcDb2dVertex
 10
-136.1203519692794
 20
-41.94185205046831
 30
0.0
  0
VERTEX
  5
101
330
FD
100
AcDbEntity
  8
Layer 2
 62
   179
420
  2301728
370
    35
100
AcDbVertex
100
AcDb2dVertex
 10
-206.120342796506
 20
-41.94185205046831
 30
0.0
  0
VERTEX
  5
102
330
FD
100
AcDbEntity
  8
Layer 2
 62
   179
420
  2301728
370
    35
100
AcDbVertex
100
AcDb2dVertex
 10
-206.120342796506
 20
-35.94185222151042
 30
0.0
  0
SEQEND
  5
103
330
FD
100
AcDbEntity
  8
Layer 2
 62
   179
420
  2301728
370
    35
  0
POLYLINE
  5
104
330
1F
100
AcDbEntity
  8
Layer 2
 62
   179
420
  2301728
370
    35
100
AcDb2dPolyline
 66
     1
 10
0.0
 20
0.0
 30
0.0
  0
VERTEX
  5
105
330
104
100
AcDbEntity
  8
Layer 2
 62
   179
420
  2301728
370
    35
100
AcDbVertex
100
AcDb2dVertex
 10
-394.672550357061
 20
-35.94185222151042
 30
0.0
  0
VERTEX
  5
106
330
104
100
AcDbEntity
  8
Layer 2
 62
   179
420
  2301728
370
    35
100
AcDbVertex
100
AcDb2dVertex
 10
-324.6725379979877
 20
-35.94185222151042
 30
0.0
  0
VERTEX
  5
107
330
104
100
AcDbEntity
  8
Layer 2
 62
   179
420
  2301728
370
    35
100
AcDbVertex
100
AcDb2dVertex
 10
-324.6725379979877
 20
-41.94185205046831
 30
0.0
  0
VERTEX
  5
108
330
104
100
AcDbEntity
  8
Layer 2
 62
   179
420
  2301728
370
    35
100
AcDbVertex
100
AcDb2dVertex
 10
-394.672550357061
 20
-41.94185205046831
 30
0.0
  0
VERTEX
  5
109
330
104
100
AcDbEntity
  8
Layer 2
 62
   179
420
  2301728
370
    35
100
AcDbVertex
100
AcDb2dVertex
 10
-394.672550357061
 20
-35.94185222151042
 30
0.0
  0
SEQEND
  5
10A
330
104
100
AcDbEntity
  8
Layer 2
 62
   179
420
  2301728
370
    35
  0
POLYLINE
  5
10B
330
1F
100
AcDbEntity
  8
Layer 2
 62
   179
420
  2301728
370
    35
100
AcDb2dPolyline
 66
     1
 10
0.0
 20
0.0
 30
0.0
  0
VERTEX
  5
10C
330
10B
100
AcDbEntity
  8
Layer 2
 62
   179
420
  2301728
370
    35
100
AcDbVertex
100
AcDb2dVertex
 10
-316.1203683698632
 20
-186.3432876968766
 30
0.0
  0
VERTEX
  5
10D
330
10B
100
AcDbEntity
  8
Layer 2
 62
   179
420
  2301728
370
    35
100
AcDbVertex
100
AcDb2dVertex
 10
-326.1203609075107
 20
-186.3432876968766
 30
0.0
  0
VERTEX
  5
10E
330
10B
100
AcDbEntity
  8
Layer 2
 62
   179
420
  2301728
370
    35
100
AcDbVertex
100
AcDb2dVertex
 10
-326.1203609075107
 20
-176.3432951592291
 30
0.0
  0
VERTEX
  5
10F
330
10B
100
AcDbEntity
  8
Layer 2
 62
   179
420
  2301728
370
    35
100
AcDbVertex
100
AcDb2dVertex
 10
-316.1203683698632
 20
-176.3432951592291
 30
0.0
  0
VERTEX
  5
110
330
10B
100
AcDbEntity
  8
Layer 2
 62
   179
420
  2301728
370
    35
100
AcDbVertex
100
AcDb2dVertex
 10
-316.1203683698632
 20
-186.3432876968766
 30
0.0
  0
SEQEND
  5
111
330
10B
100
AcDbEntity
  8
Layer 2
 62
   179
420
  2301728
370
    35
  0
POLYLINE
  5
112
330
1F
100
AcDbEntity
  8
Layer 2
 62
   179
420
  2301728
370
    35
100
AcDb2dPolyline
 66
     1
 10
0.0
 20
0.0
 30
0.0
  0
VERTEX
  5
113
330
112
100
AcDbEntity
  8
Layer 2
 62
   179
420
  2301728
370
    35
100
AcDbVertex
100
AcDb2dVertex
 10
-296.1203617627212
 20
-186.3432876968766
 30
0.0
  0
VERTEX
  5
114
330
112
100
AcDbEntity
  8
Layer 2
 62
   179
420
  2301728
370
    35
100
AcDbVertex
100
AcDb2dVertex
 10
-306.1203543003688
 20
-186.3432876968766
 30
0.0
  0
VERTEX
  5
115
330
112
100
AcDbEntity
  8
Layer 2
 62
   179
420
  2301728
370
    35
100
AcDbVertex
100
AcDb2dVertex
 10
-306.1203543003688
 20
-176.3432951592291
 30
0.0
  0
VERTEX
  5
116
330
112
100
AcDbEntity
  8
Layer 2
 62
   179
420
  2301728
370
    35
100
AcDbVertex
100
AcDb2dVertex
 10
-296.1203617627212
 20
-176.3432951592291
 30
0.0
  0
VERTEX
  5
117
330
112
100
AcDbEntity
  8
Layer 2
 62
   179
420
  2301728
370
    35
100
AcDbVertex
100
AcDb2dVertex
 10
-296.1203617627212
 20
-186.3432876968766
 30
0.0
  0
SEQEND
  5
118
330
112
100
AcDbEntity
  8
Layer 2
 62
   179
420
  2301728
370
    35
  0
POLYLINE
  5
119
330
1F
100
AcDbEntity
  8
Layer 2
 62
   179
420
  2301728
370
    35
100
AcDb2dPolyline
 66
     1
 10
0.0
 20
0.0
 30
0.0
  0
VERTEX
  5
11A
330
119
100
AcDbEntity
  8
Layer 2
 62
   179
420
  2301728
370
    35
100
AcDbVertex
100
AcDb2dVertex
 10
-276.1203551555793
 20
-165.5877285861258
 30
0.0
  0
VERTEX
  5
11B
330
119
100
AcDbEntity
  8
Layer 2
 62
   179
420
  2301728
370
    35
100
AcDbVertex
100
AcDb2dVertex
 10
-346.1203675146526
 20
-165.5877285861258
 30
0.0
  0
VERTEX
  5
11C
330
119
100
AcDbEntity
  8
Layer 2
 62
   179
420
  2301728
370
    35
100
AcDbVertex
100
AcDb2dVertex
 10
-346.1203675146526
 20
-159.587728757168
 30
0.0
  0
VERTEX
  5
11D
330
119
100
AcDbEntity
  8
Layer 2
 62
   179
420
  2301728
370
    35
100
AcDbVertex
100
AcDb2dVertex
 10
-276.1203551555793
 20
-159.587728757168
 30
0.0
  0
VERTEX
  5
11E
330
119
100
AcDbEntity
  8
Layer 2
 62
   179
420
  2301728
370
    35
100
AcDbVertex
100
AcDb2dVertex
 10
-276.1203551555793
 20
-165.5877285861258
 30
0.0
  0
SEQEND
  5
11F
330
119
100
AcDbEntity
  8
Layer 2
 62
   179
420
  2301728
370
    35
  0
POLYLINE
  5
120
330
1F
100
AcDbEntity
  8
Layer 2
 62
   179
420
  2301728
370
    35
100
AcDb2dPolyline
 66
     1
 10
0.0
 20
0.0
 30
0.0
  0
VERTEX
  5
121
330
120
100
AcDbEntity
  8
Layer 2
 62
   179
420
  2301728
370
    35
100
AcDbVertex
100
AcDb2dVertex
 10
-246.1203560107898
 20
-186.3432876968766
 30
0.0
  0
VERTEX
  5
122
330
120
100
AcDbEntity
  8
Layer 2
 62
   179
420
  2301728
370
    35
100
AcDbVertex
100
AcDb2dVertex
 10
-256.1203485484374
 20
-186.3432876968766
 30
0.0
  0
VERTEX
  5
123
330
120
100
AcDbEntity
  8
Layer 2
 62
   179
420
  2301728
370
    35
100
AcDbVertex
100
AcDb2dVertex
 10
-256.1203485484374
 20
-176.3432951592291
 30
0.0
  0
VERTEX
  5
124
330
120
100
AcDbEntity
  8
Layer 2
 62
   179
420
  2301728
370
    35
100
AcDbVertex
100
AcDb2dVertex
 10
-246.1203560107898
 20
-176.3432951592291
 30
0.0
  0
VERTEX
  5
125
330
120
100
AcDbEntity
  8
Layer 2
 62
   179
420
  2301728
370
    35
100
AcDbVertex
100
AcDb2dVertex
 10
-246.1203560107898
 20
-186.3432876968766
 30
0.0
  0
SEQEND
  5
126
330
120
100
AcDbEntity
  8
Layer 2
 62
   179
420
  2301728
370
    35
  0
POLYLINE
  5
127
330
1F
100
AcDbEntity
  8
Layer 2
 62
   179
420
  2301728
370
    35
100
AcDb2dPolyline
 66
     1
 10
0.0
 20
0.0
 30
0.0
  0
VERTEX
  5
128
330
127
100
AcDbEntity
  8
Layer 2
 62
   179
420
  2301728
370
    35
100
AcDbVertex
100
AcDb2dVertex
 10
-226.1203494036479
 20
-186.3432876968766
 30
0.0
  0
VERTEX
  5
129
330
127
100
AcDbEntity
  8
Layer 2
 62
   179
420
  2301728
370
    35
100
AcDbVertex
100
AcDb2dVertex
 10
-236.1203634731422
 20
-186.3432876968766
 30
0.0
  0
VERTEX
  5
12A
330
127
100
AcDbEntity
  8
Layer 2
 62
   179
420
  2301728
370
    35
100
AcDbVertex
100
AcDb2dVertex
 10
-236.1203634731422
 20
-176.3432951592291
 30
0.0
  0
VERTEX
  5
12B
330
127
100
AcDbEntity
  8
Layer 2
 62
   179
420
  2301728
370
    35
100
AcDbVertex
100
AcDb2dVertex
 10
-226.1203494036479
 20
-176.3432951592291
 30
0.0
  0
VERTEX
  5
12C
330
127
100
AcDbEntity
  8
Layer 2
 62
   179
420
  2301728
370
    35
100
AcDbVertex
100
AcDb2dVertex
 10
-226.1203494036479
 20
-186.3432876968766
 30
0.0
  0
SEQEND
  5
12D
330
127
100
AcDbEntity
  8
Layer 2
 62
   179
420
  2301728
370
    35
  0
POLYLINE
  5
12E
330
1F
100
AcDbEntity
  8
Layer 2
 62
   179
420
  2301728
370
    35
100
AcDb2dPolyline
 66
     1
 10
0.0
 20
0.0
 30
0.0
  0
VERTEX
  5
12F
330
12E
100
AcDbEntity
  8
Layer 2
 62
   179
420
  2301728
370
    35
100
AcDbVertex
100
AcDb2dVertex
 10
-171.0770683708592
 20
-186.3432876968766
 30
0.0
  0
VERTEX
  5
130
330
12E
100
AcDbEntity
  8
Layer 2
 62
   179
420
  2301728
370
    35
100
AcDbVertex
100
AcDb2dVertex
 10
-181.0770824403536
 20
-186.3432876968766
 30
0.0
  0
VERTEX
  5
131
330
12E
100
AcDbEntity
  8
Layer 2
 62
   179
420
  2301728
370
    35
100
AcDbVertex
100
AcDb2dVertex
 10
-181.0770824403536
 20
-176.3432951592291
 30
0.0
  0
VERTEX
  5
132
330
12E
100
AcDbEntity
  8
Layer 2
 62
   179
420
  2301728
370
    35
100
AcDbVertex
100
AcDb2dVertex
 10
-171.0770683708592
 20
-176.3432951592291
 30
0.0
  0
VERTEX
  5
133
330
12E
100
AcDbEntity
  8
Layer 2
 62
   179
420
  2301728
370
    35
100
AcDbVertex
100
AcDb2dVertex
 10
-171.0770683708592
 20
-186.3432876968766
 30
0.0
  0
SEQEND
  5
134
330
12E
100
AcDbEntity
  8
Layer 2
 62
   179
420
  2301728
370
    35
  0
POLYLINE
  5
135
330
1F
100
AcDbEntity
  8
Layer 2
 62
   179
420
  2301728
370
    35
100
AcDb2dPolyline
 66
     1
 10
0.0
 20
0.0
 30
0.0
  0
VERTEX
  5
136
330
135
100
AcDbEntity
  8
Layer 2
 62
   179
420
  2301728
370
    35
100
AcDbVertex
100
AcDb2dVertex
 10
-151.0770832955641
 20
-186.3432876968766
 30
0.0
  0
VERTEX
  5
137
330
135
100
AcDbEntity
  8
Layer 2
 62
   179
420
  2301728
370
    35
100
AcDbVertex
100
AcDb2dVertex
 10
-161.0770758332116
 20
-186.3432876968766
 30
0.0
  0
VERTEX
  5
138
330
135
100
AcDbEntity
  8
Layer 2
 62
   179
420
  2301728
370
    35
100
AcDbVertex
100
AcDb2dVertex
 10
-161.0770758332116
 20
-176.3432951592291
 30
0.0
  0
VERTEX
  5
139
330
135
100
AcDbEntity
  8
Layer 2
 62
   179
420
  2301728
370
    35
100
AcDbVertex
100
AcDb2dVertex
 10
-151.0770832955641
 20
-176.3432951592291
 30
0.0
  0
VERTEX
  5
13A
330
135
100
AcDbEntity
  8
Layer 2
 62
   179
420
  2301728
370
    35
100
AcDbVertex
100
AcDb2dVertex
 10
-151.0770832955641
 20
-186.3432876968766
 30
0.0
  0
SEQEND
  5
13B
330
135
100
AcDbEntity
  8
Layer 2
 62
   179
420
  2301728
370
    35
  0
POLYLINE
  5
13C
330
1F
100
AcDbEntity
  8
Layer 2
 62
   179
420
  2301728
370
    35
100
AcDb2dPolyline
 66
     1
 10
0.0
 20
0.0
 30
0.0
  0
VERTEX
  5
13D
330
13C
100
AcDbEntity
  8
Layer 2
 62
   179
420
  2301728
370
    35
100
AcDbVertex
100
AcDb2dVertex
 10
-136.1203519692794
 20
-165.5877285861258
 30
0.0
  0
VERTEX
  5
13E
330
13C
100
AcDbEntity
  8
Layer 2
 62
   179
420
  2301728
370
    35
100
AcDbVertex
100
AcDb2dVertex
 10
-206.1203643283527
 20
-165.5877285861258
 30
0.0
  0
VERTEX
  5
13F
330
13C
100
AcDbEntity
  8
Layer 2
 62
   179
420
  2301728
370
    35
100
AcDbVertex
100
AcDb2dVertex
 10
-206.1203643283527
 20
-159.587728757168
 30
0.0
  0
VERTEX
  5
140
330
13C
100
AcDbEntity
  8
Layer 2
 62
   179
420
  2301728
370
    35
100
AcDbVertex
100
AcDb2dVertex
 10
-136.1203519692794
 20
-159.587728757168
 30
0.0
  0
VERTEX
  5
141
330
13C
100
AcDbEntity
  8
Layer 2
 62
   179
420
  2301728
370
    35
100
AcDbVertex
100
AcDb2dVertex
 10
-136.1203519692794
 20
-165.5877285861258
 30
0.0
  0
SEQEND
  5
142
330
13C
100
AcDbEntity
  8
Layer 2
 62
   179
420
  2301728
370
    35
  0
SPLINE
  5
143
330
1F
100
AcDbEntity
  8
Layer 2
 62
   179
420
  2301728
370
    35
100
AcDbSpline
210
0.0
220
0.0
230
1.0
 70
    11
 71
     3
 72
    41
 73
    37
 74
     0
 42
0.0000000001
 43
0.0000000001
 12
1.0
 22
0.0
 32
0.0
 13
1.0
 23
0.0
 33
0.0
 40
0.0
 40
0.0
 40
0.0
 40
0.0
 40
1.0
 40
1.0
 40
1.0
 40
2.0
 40
2.0
 40
2.0
 40
3.0
 40
3.0
 40
3.0
 40
4.0
 40
4.0
 40
4.0
 40
5.0
 40
5.0
 40
5.0
 40
6.0
 40
6.0
 40
6.0
 40
7.0
 40
7.0
 40
7.0
 40
8.0
 40
8.0
 40
8.0
 40
9.0
 40
9.0
 40
9.0
 40
10.0
 40
10.0
 40
10.0
 40
11.0
 40
11.0
 40
11.0
 40
12.0
 40
12.0
 40
12.0
 40
12.0
 10
-91.12036401801852
 20
-124.7572535732761
 30
0.0
 10
-91.12036401801852
 20
-126.42900768934
 30
0.0
 10
-92.37360362816528
 20
-127.9901742403278
 30
0.0
 10
-94.46010417696006
 20
-128.9175078175699
 30
0.0
 10
-94.46010417696006
 20
-128.9175078175699
 30
0.0
 10
-147.3703543400563
 20
-152.4331697718689
 30
0.0
 10
-147.3703543400563
 20
-152.4331697718689
 30
0.0
 10
-147.3703543400563
 20
-152.4331697718689
 30
0.0
 10
-334.8703220801822
 20
-152.4331697718689
 30
0.0
 10
-334.8703220801822
 20
-152.4331697718689
 30
0.0
 10
-334.8703220801822
 20
-152.4331697718689
 30
0.0
 10
-387.7805507114335
 20
-128.9175078175699
 30
0.0
 10
-387.7805507114335
 20
-128.9175078175699
 30
0.0
 10
-389.8670727920751
 20
-127.9901742403278
 30
0.0
 10
-391.1203554659126
 20
-126.42900768934
 30
0.0
 10
-391.1203554659126
 20
-124.7572535732761
 30
0.0
 10
-391.1203554659126
 20
-124.7572535732761
 30
0.0
 10
-391.1203554659126
 20
-80.10909599844604
 30
0.0
 10
-391.1203554659126
 20
-80.10909599844604
 30
0.0
 10
-391.1203554659126
 20
-78.43732035053499
 30
0.0
 10
-389.8670727920751
 20
-76.87617533139402
 30
0.0
 10
-387.7805507114335
 20
-75.9488417541519
 30
0.0
 10
-387.7805507114335
 20
-75.9488417541519
 30
0.0
 10
-334.8703220801822
 20
-52.43317979985286
 30
0.0
 10
-334.8703220801822
 20
-52.43317979985286
 30
0.0
 10
-334.8703220801822
 20
-52.43317979985286
 30
0.0
 10
-147.3703543400563
 20
-52.43317979985286
 30
0.0
 10
-147.3703543400563
 20
-52.43317979985286
 30
0.0
 10
-147.3703543400563
 20
-52.43317979985286
 30
0.0
 10
-94.46010417696006
 20
-75.9488417541519
 30
0.0
 10
-94.46010417696006
 20
-75.9488417541519
 30
0.0
 10
-92.37360362816528
 20
-76.87617533139402
 30
0.0
 10
-91.12036401801852
 20
-78.43732035053499
 30
0.0
 10
-91.12036401801852
 20
-80.10909599844604
 30
0.0
 10
-91.12036401801852
 20
-80.10909599844604
 30
0.0
 10
-91.12036401801852
 20
-124.7572535732761
 30
0.0
 10
-91.12036401801852
 20
-124.7572535732761
 30
0.0
  0
SPLINE
  5
144
330
1F
100
AcDbEntity
  8
Layer 2
 62
   179
420
  2301728
370
    35
100
AcDbSpline
210
0.0
220
0.0
230
1.0
 70
    11
 71
     3
 72
    41
 73
    37
 74
     0
 42
0.0000000001
 43
0.0000000001
 12
1.0
 22
0.0
 32
0.0
 13
1.0
 23
0.0
 33
0.0
 40
0.0
 40
0.0
 40
0.0
 40
0.0
 40
1.0
 40
1.0
 40
1.0
 40
2.0
 40
2.0
 40
2.0
 40
3.0
 40
3.0
 40
3.0
 40
4.0
 40
4.0
 40
4.0
 40
5.0
 40
5.0
 40
5.0
 40
6.0
 40
6.0
 40
6.0
 40
7.0
 40
7.0
 40
7.0
 40
8.0
 40
8.0
 40
8.0
 40
9.0
 40
9.0
 40
9.0
 40
10.0
 40
10.0
 40
10.0
 40
11.0
 40
11.0
 40
11.0
 40
12.0
 40
12.0
 40
12.0
 40
12.0
 10
-45.57335949924034
 20
184.2964380439324
 30
0.0
 10
-45.57335949924034
 20
184.2964380439324
 30
0.0
 10
-116.1203453621378
 20
231.3277834843773
 30
0.0
 10
-116.1203453621378
 20
231.3277834843773
 30
0.0
 10
-116.1203453621378
 20
231.3277834843773
 30
0.0
 10
-366.1203310581
 20
231.3277834843773
 30
0.0
 10
-366.1203310581
 20
231.3277834843773
 30
0.0
 10
-366.1203310581
 20
231.3277834843773
 30
0.0
 10
-436.6673169210001
 20
184.2964380439324
 30
0.0
 10
-436.6673169210001
 20
184.2964380439324
 30
0.0
 10
-439.4493176527245
 20
182.4417924212949
 30
0.0
 10
-441.1203612178449
 20
179.3194808511662
 30
0.0
 10
-441.1203612178449
 20
175.9759295553441
 30
0.0
 10
-441.1203612178449
 20
175.9759295553441
 30
0.0
 10
-441.1203612178449
 20
86.67963593753149
 30
0.0
 10
-441.1203612178449
 20
86.67963593753149
 30
0.0
 10
-441.1203612178449
 20
83.33610617355617
 30
0.0
 10
-439.4493176527245
 20
80.21379460342746
 30
0.0
 10
-436.6673169210001
 20
78.35912744894321
 30
0.0
 10
-436.6673169210001
 20
78.35912744894321
 30
0.0
 10
-366.1203310581
 20
31.32778200849835
 30
0.0
 10
-366.1203310581
 20
31.32778200849835
 30
0.0
 10
-366.1203310581
 20
31.32778200849835
 30
0.0
 10
-116.1203453621378
 20
31.32778200849835
 30
0.0
 10
-116.1203453621378
 20
31.32778200849835
 30
0.0
 10
-116.1203453621378
 20
31.32778200849835
 30
0.0
 10
-45.57335949924034
 20
78.35912744894321
 30
0.0
 10
-45.57335949924034
 20
78.35912744894321
 30
0.0
 10
-42.79135876751397
 20
80.21379460342746
 30
0.0
 10
-41.12035826608742
 20
83.33610617355617
 30
0.0
 10
-41.12035826608742
 20
86.67963593753149
 30
0.0
 10
-41.12035826608742
 20
86.67963593753149
 30
0.0
 10
-41.12035826608742
 20
175.9759510871912
 30
0.0
 10
-41.12035826608742
 20
175.9759510871912
 30
0.0
 10
-41.12035826608742
 20
179.3194808511662
 30
0.0
 10
-42.79135876751397
 20
182.4417924212949
 30
0.0
 10
-45.57335949924034
 20
184.2964380439324
 30
0.0
  0
POLYLINE
  5
145
330
1F
100
AcDbEntity
  8
Layer 2
 62
   179
420
  2301728
370
    35
100
AcDb2dPolyline
 66
     1
 10
0.0
 20
0.0
 30
0.0
  0
VERTEX
  5
146
330
145
100
AcDbEntity
  8
Layer 2
 62
   179
420
  2301728
370
    35
100
AcDbVertex
100
AcDb2dVertex
 10
-206.120342796506
 20
197.8191053107883
 30
0.0
  0
VERTEX
  5
147
330
145
100
AcDbEntity
  8
Layer 2
 62
   179
420
  2301728
370
    35
100
AcDbVertex
100
AcDb2dVertex
 10
-136.1203519692794
 20
197.8191053107883
 30
0.0
  0
VERTEX
  5
148
330
145
100
AcDbEntity
  8
Layer 2
 62
   179
420
  2301728
370
    35
100
AcDbVertex
100
AcDb2dVertex
 10
-136.1203519692794
 20
191.8191054818304
 30
0.0
  0
VERTEX
  5
149
330
145
100
AcDbEntity
  8
Layer 2
 62
   179
420
  2301728
370
    35
100
AcDbVertex
100
AcDb2dVertex
 10
-206.120342796506
 20
191.8191054818304
 30
0.0
  0
VERTEX
  5
14A
330
145
100
AcDbEntity
  8
Layer 2
 62
   179
420
  2301728
370
    35
100
AcDbVertex
100
AcDb2dVertex
 10
-206.120342796506
 20
197.8191053107883
 30
0.0
  0
SEQEND
  5
14B
330
145
100
AcDbEntity
  8
Layer 2
 62
   179
420
  2301728
370
    35
  0
POLYLINE
  5
14C
330
1F
100
AcDbEntity
  8
Layer 2
 62
   179
420
  2301728
370
    35
100
AcDb2dPolyline
 66
     1
 10
0.0
 20
0.0
 30
0.0
  0
VERTEX
  5
14D
330
14C
100
AcDbEntity
  8
Layer 2
 62
   179
420
  2301728
370
    35
100
AcDbVertex
100
AcDb2dVertex
 10
-394.672550357061
 20
197.8191053107883
 30
0.0
  0
VERTEX
  5
14E
330
14C
100
AcDbEntity
  8
Layer 2
 62
   179
420
  2301728
370
    35
100
AcDbVertex
100
AcDb2dVertex
 10
-324.6725379979877
 20
197.8191053107883
 30
0.0
  0
VERTEX
  5
14F
330
14C
100
AcDbEntity
  8
Layer 2
 62
   179
420
  2301728
370
    35
100
AcDbVertex
100
AcDb2dVertex
 10
-324.6725379979877
 20
191.8191054818304
 30
0.0
  0
VERTEX
  5
150
330
14C
100
AcDbEntity
  8
Layer 2
 62
   179
420
  2301728
370
    35
100
AcDbVertex
100
AcDb2dVertex
 10
-394.672550357061
 20
191.8191054818304
 30
0.0
  0
VERTEX
  5
151
330
14C
100
AcDbEntity
  8
Layer 2
 62
   179
420
  2301728
370
    35
100
AcDbVertex
100
AcDb2dVertex
 10
-394.672550357061
 20
197.8191053107883
 30
0.0
  0
SEQEND
  5
152
330
14C
100
AcDbEntity
  8
Layer 2
 62
   179
420
  2301728
370
    35
  0
POLYLINE
  5
153
330
1F
100
AcDbEntity
  8
Layer 2
 62
   179
420
  2301728
370
    35
100
AcDb2dPolyline
 66
     1
 10
0.0
 20
0.0
 30
0.0
  0
VERTEX
  5
154
330
153
100
AcDbEntity
  8
Layer 2
 62
   179
420
  2301728
370
    35
100
AcDbVertex
100
AcDb2dVertex
 10
-316.1203683698632
 20
47.41766983542206
 30
0.0
  0
VERTEX
  5
155
330
153
100
AcDbEntity
  8
Layer 2
 62
   179
420
  2301728
370
    35
100
AcDbVertex
100
AcDb2dVertex
 10
-326.1203609075107
 20
47.41766983542206
 30
0.0
  0
VERTEX
  5
156
330
153
100
AcDbEntity
  8
Layer 2
 62
   179
420
  2301728
370
    35
100
AcDbVertex
100
AcDb2dVertex
 10
-326.1203609075107
 20
57.41766237306963
 30
0.0
  0
VERTEX
  5
157
330
153
100
AcDbEntity
  8
Layer 2
 62
   179
420
  2301728
370
    35
100
AcDbVertex
100
AcDb2dVertex
 10
-316.1203683698632
 20
57.41766237306963
 30
0.0
  0
VERTEX
  5
158
330
153
100
AcDbEntity
  8
Layer 2
 62
   179
420
  2301728
370
    35
100
AcDbVertex
100
AcDb2dVertex
 10
-316.1203683698632
 20
47.41766983542206
 30
0.0
  0
SEQEND
  5
159
330
153
100
AcDbEntity
  8
Layer 2
 62
   179
420
  2301728
370
    35
  0
POLYLINE
  5
15A
330
1F
100
AcDbEntity
  8
Layer 2
 62
   179
420
  2301728
370
    35
100
AcDb2dPolyline
 66
     1
 10
0.0
 20
0.0
 30
0.0
  0
VERTEX
  5
15B
330
15A
100
AcDbEntity
  8
Layer 2
 62
   179
420
  2301728
370
    35
100
AcDbVertex
100
AcDb2dVertex
 10
-296.1203617627212
 20
47.41766983542206
 30
0.0
  0
VERTEX
  5
15C
330
15A
100
AcDbEntity
  8
Layer 2
 62
   179
420
  2301728
370
    35
100
AcDbVertex
100
AcDb2dVertex
 10
-306.1203543003688
 20
47.41766983542206
 30
0.0
  0
VERTEX
  5
15D
330
15A
100
AcDbEntity
  8
Layer 2
 62
   179
420
  2301728
370
    35
100
AcDbVertex
100
AcDb2dVertex
 10
-306.1203543003688
 20
57.41766237306963
 30
0.0
  0
VERTEX
  5
15E
330
15A
100
AcDbEntity
  8
Layer 2
 62
   179
420
  2301728
370
    35
100
AcDbVertex
100
AcDb2dVertex
 10
-296.1203617627212
 20
57.41766237306963
 30
0.0
  0
VERTEX
  5
15F
330
15A
100
AcDbEntity
  8
Layer 2
 62
   179
420
  2301728
370
    35
100
AcDbVertex
100
AcDb2dVertex
 10
-296.1203617627212
 20
47.41766983542206
 30
0.0
  0
SEQEND
  5
160
330
15A
100
AcDbEntity
  8
Layer 2
 62
   179
420
  2301728
370
    35
  0
POLYLINE
  5
161
330
1F
100
AcDbEntity
  8
Layer 2
 62
   179
420
  2301728
370
    35
100
AcDb2dPolyline
 66
     1
 10
0.0
 20
0.0
 30
0.0
  0
VERTEX
  5
162
330
161
100
AcDbEntity
  8
Layer 2
 62
   179
420
  2301728
370
    35
100
AcDbVertex
100
AcDb2dVertex
 10
-276.1203551555793
 20
68.17322894617317
 30
0.0
  0
VERTEX
  5
163
330
161
100
AcDbEntity
  8
Layer 2
 62
   179
420
  2301728
370
    35
100
AcDbVertex
100
AcDb2dVertex
 10
-346.1203675146526
 20
68.17322894617317
 30
0.0
  0
VERTEX
  5
164
330
161
100
AcDbEntity
  8
Layer 2
 62
   179
420
  2301728
370
    35
100
AcDbVertex
100
AcDb2dVertex
 10
-346.1203675146526
 20
74.17322877513074
 30
0.0
  0
VERTEX
  5
165
330
161
100
AcDbEntity
  8
Layer 2
 62
   179
420
  2301728
370
    35
100
AcDbVertex
100
AcDb2dVertex
 10
-276.1203551555793
 20
74.17322877513074
 30
0.0
  0
VERTEX
  5
166
330
161
100
AcDbEntity
  8
Layer 2
 62
   179
420
  2301728
370
    35
100
AcDbVertex
100
AcDb2dVertex
 10
-276.1203551555793
 20
68.17322894617317
 30
0.0
  0
SEQEND
  5
167
330
161
100
AcDbEntity
  8
Layer 2
 62
   179
420
  2301728
370
    35
  0
POLYLINE
  5
168
330
1F
100
AcDbEntity
  8
Layer 2
 62
   179
420
  2301728
370
    35
100
AcDb2dPolyline
 66
     1
 10
0.0
 20
0.0
 30
0.0
  0
VERTEX
  5
169
330
168
100
AcDbEntity
  8
Layer 2
 62
   179
420
  2301728
370
    35
100
AcDbVertex
100
AcDb2dVertex
 10
-246.1203560107898
 20
47.41766983542206
 30
0.0
  0
VERTEX
  5
16A
330
168
100
AcDbEntity
  8
Layer 2
 62
   179
420
  2301728
370
    35
100
AcDbVertex
100
AcDb2dVertex
 10
-256.1203485484374
 20
47.41766983542206
 30
0.0
  0
VERTEX
  5
16B
330
168
100
AcDbEntity
  8
Layer 2
 62
   179
420
  2301728
370
    35
100
AcDbVertex
100
AcDb2dVertex
 10
-256.1203485484374
 20
57.41766237306963
 30
0.0
  0
VERTEX
  5
16C
330
168
100
AcDbEntity
  8
Layer 2
 62
   179
420
  2301728
370
    35
100
AcDbVertex
100
AcDb2dVertex
 10
-246.1203560107898
 20
57.41766237306963
 30
0.0
  0
VERTEX
  5
16D
330
168
100
AcDbEntity
  8
Layer 2
 62
   179
420
  2301728
370
    35
100
AcDbVertex
100
AcDb2dVertex
 10
-246.1203560107898
 20
47.41766983542206
 30
0.0
  0
SEQEND
  5
16E
330
168
100
AcDbEntity
  8
Layer 2
 62
   179
420
  2301728
370
    35
  0
POLYLINE
  5
16F
330
1F
100
AcDbEntity
  8
Layer 2
 62
   179
420
  2301728
370
    35
100
AcDb2dPolyline
 66
     1
 10
0.0
 20
0.0
 30
0.0
  0
VERTEX
  5
170
330
16F
100
AcDbEntity
  8
Layer 2
 62
   179
420
  2301728
370
    35
100
AcDbVertex
100
AcDb2dVertex
 10
-226.1203494036479
 20
47.41766983542206
 30
0.0
  0
VERTEX
  5
171
330
16F
100
AcDbEntity
  8
Layer 2
 62
   179
420
  2301728
370
    35
100
AcDbVertex
100
AcDb2dVertex
 10
-236.1203634731422
 20
47.41766983542206
 30
0.0
  0
VERTEX
  5
172
330
16F
100
AcDbEntity
  8
Layer 2
 62
   179
420
  2301728
370
    35
100
AcDbVertex
100
AcDb2dVertex
 10
-236.1203634731422
 20
57.41766237306963
 30
0.0
  0
VERTEX
  5
173
330
16F
100
AcDbEntity
  8
Layer 2
 62
   179
420
  2301728
370
    35
100
AcDbVertex
100
AcDb2dVertex
 10
-226.1203494036479
 20
57.41766237306963
 30
0.0
  0
VERTEX
  5
174
330
16F
100
AcDbEntity
  8
Layer 2
 62
   179
420
  2301728
370
    35
100
AcDbVertex
100
AcDb2dVertex
 10
-226.1203494036479
 20
47.41766983542206
 30
0.0
  0
SEQEND
  5
175
330
16F
100
AcDbEntity
  8
Layer 2
 62
   179
420
  2301728
370
    35
  0
POLYLINE
  5
176
330
1F
100
AcDbEntity
  8
Layer 2
 62
   179
420
  2301728
370
    35
100
AcDb2dPolyline
 66
     1
 10
0.0
 20
0.0
 30
0.0
  0
VERTEX
  5
177
330
176
100
AcDbEntity
  8
Layer 2
 62
   179
420
  2301728
370
    35
100
AcDbVertex
100
AcDb2dVertex
 10
-171.0770683708592
 20
47.41766983542206
 30
0.0
  0
VERTEX
  5
178
330
176
100
AcDbEntity
  8
Layer 2
 62
   179
420
  2301728
370
    35
100
AcDbVertex
100
AcDb2dVertex
 10
-181.0770824403536
 20
47.41766983542206
 30
0.0
  0
VERTEX
  5
179
330
176
100
AcDbEntity
  8
Layer 2
 62
   179
420
  2301728
370
    35
100
AcDbVertex
100
AcDb2dVertex
 10
-181.0770824403536
 20
57.41766237306963
 30
0.0
  0
VERTEX
  5
17A
330
176
100
AcDbEntity
  8
Layer 2
 62
   179
420
  2301728
370
    35
100
AcDbVertex
100
AcDb2dVertex
 10
-171.0770683708592
 20
57.41766237306963
 30
0.0
  0
VERTEX
  5
17B
330
176
100
AcDbEntity
  8
Layer 2
 62
   179
420
  2301728
370
    35
100
AcDbVertex
100
AcDb2dVertex
 10
-171.0770683708592
 20
47.41766983542206
 30
0.0
  0
SEQEND
  5
17C
330
176
100
AcDbEntity
  8
Layer 2
 62
   179
420
  2301728
370
    35
  0
POLYLINE
  5
17D
330
1F
100
AcDbEntity
  8
Layer 2
 62
   179
420
  2301728
370
    35
100
AcDb2dPolyline
 66
     1
 10
0.0
 20
0.0
 30
0.0
  0
VERTEX
  5
17E
330
17D
100
AcDbEntity
  8
Layer 2
 62
   179
420
  2301728
370
    35
100
AcDbVertex
100
AcDb2dVertex
 10
-151.0770832955641
 20
47.41766983542206
 30
0.0
  0
VERTEX
  5
17F
330
17D
100
AcDbEntity
  8
Layer 2
 62
   179
420
  2301728
370
    35
100
AcDbVertex
100
AcDb2dVertex
 10
-161.0770758332116
 20
47.41766983542206
 30
0.0
  0
VERTEX
  5
180
330
17D
100
AcDbEntity
  8
Layer 2
 62
   179
420
  2301728
370
    35
100
AcDbVertex
100
AcDb2dVertex
 10
-161.0770758332116
 20
57.41766237306963
 30
0.0
  0
VERTEX
  5
181
330
17D
100
AcDbEntity
  8
Layer 2
 62
   179
420
  2301728
370
    35
100
AcDbVertex
100
AcDb2dVertex
 10
-151.0770832955641
 20
57.41766237306963
 30
0.0
  0
VERTEX
  5
182
330
17D
100
AcDbEntity
  8
Layer 2
 62
   179
420
  2301728
370
    35
100
AcDbVertex
100
AcDb2dVertex
 10
-151.0770832955641
 20
47.41766983542206
 30
0.0
  0
SEQEND
  5
183
330
17D
100
AcDbEntity
  8
Layer 2
 62
   179
420
  2301728
370
    35
  0
POLYLINE
  5
184
330
1F
100
AcDbEntity
  8
Layer 2
 62
   179
420
  2301728
370
    35
100
AcDb2dPolyline
 66
     1
 10
0.0
 20
0.0
 30
0.0
  0
VERTEX
  5
185
330
184
100
AcDbEntity
  8
Layer 2
 62
   179
420
  2301728
370
    35
100
AcDbVertex
100
AcDb2dVertex
 10
-136.1203519692794
 20
68.17322894617317
 30
0.0
  0
VERTEX
  5
186
330
184
100
AcDbEntity
  8
Layer 2
 62
   179
420
  2301728
370
    35
100
AcDbVertex
100
AcDb2dVertex
 10
-206.1203643283527
 20
68.17322894617317
 30
0.0
  0
VERTEX
  5
187
330
184
100
AcDbEntity
  8
Layer 2
 62
   179
420
  2301728
370
    35
100
AcDbVertex
100
AcDb2dVertex
 10
-206.1203643283527
 20
74.17322877513074
 30
0.0
  0
VERTEX
  5
188
330
184
100
AcDbEntity
  8
Layer 2
 62
   179
420
  2301728
370
    35
100
AcDbVertex
100
AcDb2dVertex
 10
-136.1203519692794
 20
74.17322877513074
 30
0.0
  0
VERTEX
  5
189
330
184
100
AcDbEntity
  8
Layer 2
 62
   179
420
  2301728
370
    35
100
AcDbVertex
100
AcDb2dVertex
 10
-136.1203519692794
 20
68.17322894617317
 30
0.0
  0
SEQEND
  5
18A
330
184
100
AcDbEntity
  8
Layer 2
 62
   179
420
  2301728
370
    35
  0
SPLINE
  5
18B
330
1F
100
AcDbEntity
  8
Layer 2
 62
   179
420
  2301728
370
    35
100
AcDbSpline
210
0.0
220
0.0
230
1.0
 70
    11
 71
     3
 72
    41
 73
    37
 74
     0
 42
0.0000000001
 43
0.0000000001
 12
1.0
 22
0.0
 32
0.0
 13
1.0
 23
0.0
 33
0.0
 40
0.0
 40
0.0
 40
0.0
 40
0.0
 40
1.0
 40
1.0
 40
1.0
 40
2.0
 40
2.0
 40
2.0
 40
3.0
 40
3.0
 40
3.0
 40
4.0
 40
4.0
 40
4.0
 40
5.0
 40
5.0
 40
5.0
 40
6.0
 40
6.0
 40
6.0
 40
7.0
 40
7.0
 40
7.0
 40
8.0
 40
8.0
 40
8.0
 40
9.0
 40
9.0
 40
9.0
 40
10.0
 40
10.0
 40
10.0
 40
11.0
 40
11.0
 40
11.0
 40
12.0
 40
12.0
 40
12.0
 40
12.0
 10
-91.12036401801852
 20
109.003703959023
 30
0.0
 10
-91.12036401801852
 20
107.3319498429587
 30
0.0
 10
-92.37360362816528
 20
105.7707832919709
 30
0.0
 10
-94.46010417696006
 20
104.8434497147288
 30
0.0
 10
-94.46010417696006
 20
104.8434497147288
 30
0.0
 10
-147.3703543400563
 20
81.32778776042977
 30
0.0
 10
-147.3703543400563
 20
81.32778776042977
 30
0.0
 10
-147.3703543400563
 20
81.32778776042977
 30
0.0
 10
-334.8703220801822
 20
81.32778776042977
 30
0.0
 10
-334.8703220801822
 20
81.32778776042977
 30
0.0
 10
-334.8703220801822
 20
81.32778776042977
 30
0.0
 10
-387.7805507114335
 20
104.8434497147288
 30
0.0
 10
-387.7805507114335
 20
104.8434497147288
 30
0.0
 10
-389.8670727920751
 20
105.7707832919709
 30
0.0
 10
-391.1203554659126
 20
107.3319498429587
 30
0.0
 10
-391.1203554659126
 20
109.003703959023
 30
0.0
 10
-391.1203554659126
 20
109.003703959023
 30
0.0
 10
-391.1203554659126
 20
153.6518615338527
 30
0.0
 10
-391.1203554659126
 20
153.6518615338527
 30
0.0
 10
-391.1203554659126
 20
155.323637181764
 30
0.0
 10
-389.8670727920751
 20
156.884782200905
 30
0.0
 10
-387.7805507114335
 20
157.8121157781471
 30
0.0
 10
-387.7805507114335
 20
157.8121157781471
 30
0.0
 10
-334.8703220801822
 20
181.3277777324458
 30
0.0
 10
-334.8703220801822
 20
181.3277777324458
 30
0.0
 10
-334.8703220801822
 20
181.3277777324458
 30
0.0
 10
-147.3703543400563
 20
181.3277777324458
 30
0.0
 10
-147.3703543400563
 20
181.3277777324458
 30
0.0
 10
-147.3703543400563
 20
181.3277777324458
 30
0.0
 10
-94.46010417696006
 20
157.8121157781471
 30
0.0
 10
-94.46010417696006
 20
157.8121157781471
 30
0.0
 10
-92.37360362816528
 20
156.884782200905
 30
0.0
 10
-91.12036401801852
 20
155.323637181764
 30
0.0
 10
-91.12036401801852
 20
153.6518615338527
 30
0.0
 10
-91.12036401801852
 20
153.6518615338527
 30
0.0
 10
-91.12036401801852
 20
109.003703959023
 30
0.0
 10
-91.12036401801852
 20
109.003703959023
 30
0.0
  0
ENDSEC
  0
SECTION
  2
OBJECTS
  0
DICTIONARY
  5
C
330
0
100
AcDbDictionary
281
     1
  3
ACAD_GROUP
350
D
  3
ACAD_LAYOUT
350
1A
  3
ACAD_MATERIAL
350
3B
  3
ACAD_MLEADERSTYLE
350
18D
  3
ACAD_MLINESTYLE
350
17
  3
ACAD_PLOTSETTINGS
350
19
  3
ACAD_PLOTSTYLENAME
350
E
  3
ACAD_TABLESTYLE
350
18C
  3
ACAD_VISUALSTYLE
350
2A
  0
SUN
  5
3F
330
29
100
AcDbSun
 90
        1
290
     0
 63
     7
421
 16777215
 40
1.0
291
     1
 91
  2455826
 92
 54000000
292
     0
 70
     2
 71
   256
280
     1
  0
DICTIONARY
  5
D
102
{ACAD_REACTORS
330
C
102
}
330
C
100
AcDbDictionary
281
     1
  0
DICTIONARY
  5
1A
102
{ACAD_REACTORS
330
C
102
}
330
C
100
AcDbDictionary
281
     1
  3
Layout1
350
1E
  3
Layout2
350
26
  3
Model
350
22
  0
DICTIONARY
  5
3B
102
{ACAD_REACTORS
330
C
102
}
330
C
100
AcDbDictionary
281
     1
  3
ByBlock
350
3D
  3
ByLayer
350
3C
  3
Global
350
3E
  0
DICTIONARY
  5
18D
102
{ACAD_REACTORS
330
C
102
}
330
C
100
AcDbDictionary
281
     1
  0
DICTIONARY
  5
17
102
{ACAD_REACTORS
330
C
102
}
330
C
100
AcDbDictionary
281
     1
  3
Standard
350
18
  0
DICTIONARY
  5
19
102
{ACAD_REACTORS
330
C
102
}
330
C
100
AcDbDictionary
281
     1
  0
ACDBDICTIONARYWDFLT
  5
E
102
{ACAD_REACTORS
330
C
102
}
330
C
100
AcDbDictionary
281
     1
  3
Normal
350
F
100
AcDbDictionaryWithDefault
340
F
  0
DICTIONARY
  5
18C
102
{ACAD_REACTORS
330
C
102
}
330
C
100
AcDbDictionary
281
     1
  0
DICTIONARY
  5
2A
102
{ACAD_REACTORS
330
C
102
}
330
C
100
AcDbDictionary
281
     1
  3
2dWireframe
350
2F
  3
3D Hidden
350
31
  3
3dWireframe
350
30
  3
Basic
350
32
  3
Brighten
350
36
  3
ColorChange
350
3A
  3
Conceptual
350
34
  3
Dim
350
35
  3
Facepattern
350
39
  3
Flat
350
2B
  3
FlatWithEdges
350
2C
  3
Gouraud
350
2D
  3
GouraudWithEdges
350
2E
  3
Linepattern
350
38
  3
Realistic
350
33
  3
Thicken
350
37
  0
LAYOUT
  5
1E
102
{ACAD_REACTORS
330
1A
102
}
330
1A
100
AcDbPlotSettings
  1

  2
none_device
  4

  6

 40
0.0
 41
0.0
 42
0.0
 43
0.0
 44
0.0
 45
0.0
 46
0.0
 47
0.0
 48
0.0
 49
0.0
140
0.0
141
0.0
142
1.0
143
1.0
 70
   688
 72
     0
 73
     0
 74
     5
  7

 75
    16
 76
     0
 77
     2
 78
   300
147
1.0
148
0.0
149
0.0
100
AcDbLayout
  1
Layout1
 70
     1
 71
     1
 10
0.0
 20
0.0
 11
12.0
 21
9.0
 12
0.0
 22
0.0
 32
0.0
 14
1.000000000000000E+20
 24
1.000000000000000E+20
 34
1.000000000000000E+20
 15
-1.000000000000000E+20
 25
-1.000000000000000E+20
 35
-1.000000000000000E+20
146
0.0
 13
0.0
 23
0.0
 33
0.0
 16
1.0
 26
0.0
 36
0.0
 17
0.0
 27
1.0
 37
0.0
 76
     0
330
1B
  0
LAYOUT
  5
26
102
{ACAD_REACTORS
330
1A
102
}
330
1A
100
AcDbPlotSettings
  1

  2
none_device
  4

  6

 40
0.0
 41
0.0
 42
0.0
 43
0.0
 44
0.0
 45
0.0
 46
0.0
 47
0.0
 48
0.0
 49
0.0
140
0.0
141
0.0
142
1.0
143
1.0
 70
   688
 72
     0
 73
     0
 74
     5
  7

 75
    16
 76
     0
 77
     2
 78
   300
147
1.0
148
0.0
149
0.0
100
AcDbLayout
  1
Layout2
 70
     1
 71
     2
 10
0.0
 20
0.0
 11
0.0
 21
0.0
 12
0.0
 22
0.0
 32
0.0
 14
0.0
 24
0.0
 34
0.0
 15
0.0
 25
0.0
 35
0.0
146
0.0
 13
0.0
 23
0.0
 33
0.0
 16
1.0
 26
0.0
 36
0.0
 17
0.0
 27
1.0
 37
0.0
 76
     0
330
23
  0
LAYOUT
  5
22
102
{ACAD_REACTORS
330
1A
102
}
330
1A
100
AcDbPlotSettings
  1

  2
none_device
  4

  6

 40
0.0
 41
0.0
 42
0.0
 43
0.0
 44
0.0
 45
0.0
 46
0.0
 47
0.0
 48
0.0
 49
0.0
140
0.0
141
0.0
142
1.0
143
1.0
 70
  1712
 72
     0
 73
     0
 74
     0
  7

 75
     0
 76
     0
 77
     2
 78
   300
147
1.0
148
0.0
149
0.0
100
AcDbLayout
  1
Model
 70
     1
 71
     0
 10
0.0
 20
0.0
 11
12.0
 21
9.0
 12
0.0
 22
0.0
 32
0.0
 14
1.000000000000000E+20
 24
1.000000000000000E+20
 34
1.000000000000000E+20
 15
-1.000000000000000E+20
 25
-1.000000000000000E+20
 35
-1.000000000000000E+20
146
0.0
 13
0.0
 23
0.0
 33
0.0
 16
1.0
 26
0.0
 36
0.0
 17
0.0
 27
1.0
 37
0.0
 76
     0
330
1F
331
29
  0
MATERIAL
  5
3D
102
{ACAD_REACTORS
330
3B
102
}
330
3B
100
AcDbMaterial
  1
ByBlock
 72
     1
 94
      127
  0
MATERIAL
  5
3C
102
{ACAD_REACTORS
330
3B
102
}
330
3B
100
AcDbMaterial
  1
ByLayer
 72
     1
 94
      127
  0
MATERIAL
  5
3E
102
{ACAD_REACTORS
330
3B
102
}
330
3B
100
AcDbMaterial
  1
Global
 72
     1
 94
      127
  0
MLINESTYLE
  5
18
102
{ACAD_REACTORS
330
17
102
}
330
17
100
AcDbMlineStyle
  2
Standard
 70
     0
  3

 62
   256
 51
90.0
 52
90.0
 71
     2
 49
0.5
 62
   256
  6
BYLAYER
 49
-0.5
 62
   256
  6
BYLAYER
  0
ACDBPLACEHOLDER
  5
F
102
{ACAD_REACTORS
330
E
102
}
330
E
  0
VISUALSTYLE
  5
2F
102
{ACAD_REACTORS
330
2A
102
}
330
2A
100
AcDbVisualStyle
  2
2dWireframe
 70
     4
177
     2
291
     0
 71
     0
176
     1
 72
     2
176
     1
 73
     0
176
     1
 90
        0
176
     1
 40
-0.6
176
     1
 41
-30.0
176
     1
 62
     5
 63
     7
421
 16777215
176
     1
 74
     1
176
     1
 91
        4
176
     1
 64
     7
176
     1
 65
   257
176
     1
 75
     1
176
     1
175
     1
176
     1
 42
1.0
176
     1
 92
        0
176
     1
 66
   257
176
     1
 43
1.0
176
     1
 76
     1
176
     1
 77
     6
176
     1
 78
     2
176
     1
 67
     7
176
     1
 79
     5
176
     1
170
     0
176
     1
171
     0
176
     1
290
     0
176
     1
 93
        1
176
     1
 44
0.0
176
     1
173
     0
176
     1
  0
VISUALSTYLE
  5
31
102
{ACAD_REACTORS
330
2A
102
}
330
2A
100
AcDbVisualStyle
  2
3D Hidden
 70
     6
177
     2
291
     0
 71
     1
176
     1
 72
     2
176
     1
 73
     2
176
     1
 90
        0
176
     1
 40
-0.6
176
     1
 41
-30.0
176
     1
 62
     5
 63
     7
421
 16777215
176
     1
 74
     2
176
     1
 91
        2
176
     1
 64
     7
176
     1
 65
   257
176
     1
 75
     2
176
     1
175
     1
176
     1
 42
40.0
176
     1
 92
        0
176
     1
 66
   257
176
     1
 43
1.0
176
     1
 76
     1
176
     1
 77
     6
176
     1
 78
     2
176
     1
 67
     7
176
     1
 79
     3
176
     1
170
     0
176
     1
171
     0
176
     1
290
     0
176
     1
 93
        1
176
     1
 44
0.0
176
     1
173
     0
176
     1
  0
VISUALSTYLE
  5
30
102
{ACAD_REACTORS
330
2A
102
}
330
2A
100
AcDbVisualStyle
  2
3dWireframe
 70
     5
177
     2
291
     0
 71
     0
176
     1
 72
     2
176
     1
 73
     0
176
     1
 90
        0
176
     1
 40
-0.6
176
     1
 41
-30.0
176
     1
 62
     5
 63
     7
421
 16777215
176
     1
 74
     1
176
     1
 91
        4
176
     1
 64
     7
176
     1
 65
   257
176
     1
 75
     1
176
     1
175
     1
176
     1
 42
1.0
176
     1
 92
        0
176
     1
 66
   257
176
     1
 43
1.0
176
     1
 76
     1
176
     1
 77
     6
176
     1
 78
     2
176
     1
 67
     7
176
     1
 79
     5
176
     1
170
     0
176
     1
171
     0
176
     1
290
     0
176
     1
 93
        1
176
     1
 44
0.0
176
     1
173
     0
176
     1
  0
VISUALSTYLE
  5
32
102
{ACAD_REACTORS
330
2A
102
}
330
2A
100
AcDbVisualStyle
  2
Basic
 70
     7
177
     2
291
     1
 71
     1
176
     1
 72
     0
176
     1
 73
     1
176
     1
 90
        0
176
     1
 40
-0.6
176
     1
 41
-30.0
176
     1
 62
     5
 63
     7
421
 16777215
176
     1
 74
     0
176
     1
 91
        4
176
     1
 64
     7
176
     1
 65
   257
176
     1
 75
     1
176
     1
175
     1
176
     1
 42
1.0
176
     1
 92
        8
176
     1
 66
     7
176
     1
 43
1.0
176
     1
 76
     1
176
     1
 77
     6
176
     1
 78
     2
176
     1
 67
     7
176
     1
 79
     5
176
     1
170
     0
176
     1
171
     0
176
     1
290
     0
176
     1
 93
        1
176
     1
 44
0.0
176
     1
173
     0
176
     1
  0
VISUALSTYLE
  5
36
102
{ACAD_REACTORS
330
2A
102
}
330
2A
100
AcDbVisualStyle
  2
Brighten
 70
    12
177
     2
291
     1
 71
     2
176
     1
 72
     2
176
     1
 73
     0
176
     1
 90
        0
176
     1
 40
-0.6
176
     1
 41
-30.0
176
     1
 62
     5
 63
     7
421
 16777215
176
     1
 74
     1
176
     1
 91
        4
176
     1
 64
     7
176
     1
 65
   257
176
     1
 75
     1
176
     1
175
     1
176
     1
 42
1.0
176
     1
 92
        8
176
     1
 66
     7
176
     1
 43
1.0
176
     1
 76
     1
176
     1
 77
     6
176
     1
 78
     2
176
     1
 67
     7
176
     1
 79
     5
176
     1
170
     0
176
     1
171
     0
176
     1
290
     0
176
     1
 93
        1
176
     1
 44
50.0
176
     1
173
     0
176
     1
  0
VISUALSTYLE
  5
3A
102
{ACAD_REACTORS
330
2A
102
}
330
2A
100
AcDbVisualStyle
  2
ColorChange
 70
    16
177
     2
291
     1
 71
     2
176
     1
 72
     2
176
     1
 73
     3
176
     1
 90
        0
176
     1
 40
-0.6
176
     1
 41
-30.0
176
     1
 62
     5
 63
     8
421
  8421504
176
     1
 74
     1
176
     1
 91
        4
176
     1
 64
     7
176
     1
 65
   257
176
     1
 75
     1
176
     1
175
     1
176
     1
 42
1.0
176
     1
 92
        8
176
     1
 66
     8
424
  8421504
176
     1
 43
1.0
176
     1
 76
     1
176
     1
 77
     6
176
     1
 78
     2
176
     1
 67
     7
176
     1
 79
     5
176
     1
170
     0
176
     1
171
     0
176
     1
290
     0
176
     1
 93
        1
176
     1
 44
0.0
176
     1
173
     0
176
     1
  0
VISUALSTYLE
  5
34
102
{ACAD_REACTORS
330
2A
102
}
330
2A
100
AcDbVisualStyle
  2
Conceptual
 70
     9
177
     2
291
     0
 71
     3
176
     1
 72
     2
176
     1
 73
     0
176
     1
 90
        0
176
     1
 40
-0.6
176
     1
 41
-30.0
176
     1
 62
     5
 63
     7
421
 16777215
176
     1
 74
     2
176
     1
 91
        2
176
     1
 64
     7
176
     1
 65
   257
176
     1
 75
     1
176
     1
175
     1
176
     1
 42
40.0
176
     1
 92
        8
176
     1
 66
     7
176
     1
 43
1.0
176
     1
 76
     1
176
     1
 77
     6
176
     1
 78
     2
176
     1
 67
     7
176
     1
 79
     3
176
     1
170
     0
176
     1
171
     0
176
     1
290
     0
176
     1
 93
        1
176
     1
 44
0.0
176
     1
173
     0
176
     1
  0
VISUALSTYLE
  5
35
102
{ACAD_REACTORS
330
2A
102
}
330
2A
100
AcDbVisualStyle
  2
Dim
 70
    11
177
     2
291
     1
 71
     2
176
     1
 72
     2
176
     1
 73
     0
176
     1
 90
        0
176
     1
 40
-0.6
176
     1
 41
-30.0
176
     1
 62
     5
 63
     7
421
 16777215
176
     1
 74
     1
176
     1
 91
        4
176
     1
 64
     7
176
     1
 65
   257
176
     1
 75
     1
176
     1
175
     1
176
     1
 42
1.0
176
     1
 92
        8
176
     1
 66
     7
176
     1
 43
1.0
176
     1
 76
     1
176
     1
 77
     6
176
     1
 78
     2
176
     1
 67
     7
176
     1
 79
     5
176
     1
170
     0
176
     1
171
     0
176
     1
290
     0
176
     1
 93
        1
176
     1
 44
-50.0
176
     1
173
     0
176
     1
  0
VISUALSTYLE
  5
39
102
{ACAD_REACTORS
330
2A
102
}
330
2A
100
AcDbVisualStyle
  2
Facepattern
 70
    15
177
     2
291
     1
 71
     2
176
     1
 72
     2
176
     1
 73
     0
176
     1
 90
        0
176
     1
 40
-0.6
176
     1
 41
-30.0
176
     1
 62
     5
 63
     7
421
 16777215
176
     1
 74
     1
176
     1
 91
        4
176
     1
 64
     7
176
     1
 65
   257
176
     1
 75
     1
176
     1
175
     1
176
     1
 42
1.0
176
     1
 92
        8
176
     1
 66
     7
176
     1
 43
1.0
176
     1
 76
     1
176
     1
 77
     6
176
     1
 78
     2
176
     1
 67
     7
176
     1
 79
     5
176
     1
170
     0
176
     1
171
     0
176
     1
290
     0
176
     1
 93
        1
176
     1
 44
0.0
176
     1
173
     0
176
     1
  0
VISUALSTYLE
  5
2B
102
{ACAD_REACTORS
330
2A
102
}
330
2A
100
AcDbVisualStyle
  2
Flat
 70
     0
177
     2
291
     1
 71
     2
176
     1
 72
     1
176
     1
 73
     1
176
     1
 90
        2
176
     1
 40
-0.6
176
     1
 41
30.0
176
     1
 62
     5
 63
     7
421
 16777215
176
     1
 74
     0
176
     1
 91
        4
176
     1
 64
     7
176
     1
 65
   257
176
     1
 75
     1
176
     1
175
     1
176
     1
 42
1.0
176
     1
 92
        8
176
     1
 66
     7
176
     1
 43
1.0
176
     1
 76
     1
176
     1
 77
     6
176
     1
 78
     2
176
     1
 67
     7
176
     1
 79
     5
176
     1
170
     0
176
     1
171
     0
176
     1
290
     0
176
     1
 93
       13
176
     1
 44
0.0
176
     1
173
     0
176
     1
  0
VISUALSTYLE
  5
2C
102
{ACAD_REACTORS
330
2A
102
}
330
2A
100
AcDbVisualStyle
  2
FlatWithEdges
 70
     1
177
     2
291
     1
 71
     2
176
     1
 72
     1
176
     1
 73
     1
176
     1
 90
        2
176
     1
 40
-0.6
176
     1
 41
30.0
176
     1
 62
     5
 63
     7
421
 16777215
176
     1
 74
     1
176
     1
 91
        4
176
     1
 64
     7
176
     1
 65
   257
176
     1
 75
     1
176
     1
175
     1
176
     1
 42
1.0
176
     1
 92
        0
176
     1
 66
   257
176
     1
 43
1.0
176
     1
 76
     1
176
     1
 77
     6
176
     1
 78
     2
176
     1
 67
     7
176
     1
 79
     5
176
     1
170
     0
176
     1
171
     0
176
     1
290
     0
176
     1
 93
       13
176
     1
 44
0.0
176
     1
173
     0
176
     1
  0
VISUALSTYLE
  5
2D
102
{ACAD_REACTORS
330
2A
102
}
330
2A
100
AcDbVisualStyle
  2
Gouraud
 70
     2
177
     2
291
     1
 71
     2
176
     1
 72
     2
176
     1
 73
     1
176
     1
 90
        2
176
     1
 40
-0.6
176
     1
 41
30.0
176
     1
 62
     5
 63
     7
421
 16777215
176
     1
 74
     0
176
     1
 91
        4
176
     1
 64
     7
176
     1
 65
   257
176
     1
 75
     1
176
     1
175
     1
176
     1
 42
1.0
176
     1
 92
        0
176
     1
 66
     7
176
     1
 43
1.0
176
     1
 76
     1
176
     1
 77
     6
176
     1
 78
     2
176
     1
 67
     7
176
     1
 79
     5
176
     1
170
     0
176
     1
171
     0
176
     1
290
     0
176
     1
 93
       13
176
     1
 44
0.0
176
     1
173
     0
176
     1
  0
VISUALSTYLE
  5
2E
102
{ACAD_REACTORS
330
2A
102
}
330
2A
100
AcDbVisualStyle
  2
GouraudWithEdges
 70
     3
177
     2
291
     1
 71
     2
176
     1
 72
     2
176
     1
 73
     1
176
     1
 90
        2
176
     1
 40
-0.6
176
     1
 41
30.0
176
     1
 62
     5
 63
     7
421
 16777215
176
     1
 74
     1
176
     1
 91
        4
176
     1
 64
     7
176
     1
 65
   257
176
     1
 75
     1
176
     1
175
     1
176
     1
 42
1.0
176
     1
 92
        0
176
     1
 66
   257
176
     1
 43
1.0
176
     1
 76
     1
176
     1
 77
     6
176
     1
 78
     2
176
     1
 67
     7
176
     1
 79
     5
176
     1
170
     0
176
     1
171
     0
176
     1
290
     0
176
     1
 93
       13
176
     1
 44
0.0
176
     1
173
     0
176
     1
  0
VISUALSTYLE
  5
38
102
{ACAD_REACTORS
330
2A
102
}
330
2A
100
AcDbVisualStyle
  2
Linepattern
 70
    14
177
     2
291
     1
 71
     2
176
     1
 72
     2
176
     1
 73
     0
176
     1
 90
        0
176
     1
 40
-0.6
176
     1
 41
-30.0
176
     1
 62
     5
 63
     7
421
 16777215
176
     1
 74
     1
176
     1
 91
        4
176
     1
 64
     7
176
     1
 65
   257
176
     1
 75
     7
176
     1
175
     7
176
     1
 42
1.0
176
     1
 92
        8
176
     1
 66
     7
176
     1
 43
1.0
176
     1
 76
     1
176
     1
 77
     6
176
     1
 78
     2
176
     1
 67
     7
176
     1
 79
     5
176
     1
170
     0
176
     1
171
     0
176
     1
290
     0
176
     1
 93
        1
176
     1
 44
0.0
176
     1
173
     0
176
     1
  0
VISUALSTYLE
  5
33
102
{ACAD_REACTORS
330
2A
102
}
330
2A
100
AcDbVisualStyle
  2
Realistic
 70
     8
177
     2
291
     0
 71
     2
176
     1
 72
     2
176
     1
 73
     0
176
     1
 90
        0
176
     1
 40
-0.6
176
     1
 41
-30.0
176
     1
 62
     5
 63
     7
421
 16777215
176
     1
 74
     1
176
     1
 91
        0
176
     1
 64
     7
176
     1
 65
   257
176
     1
 75
     1
176
     1
175
     1
176
     1
 42
1.0
176
     1
 92
        8
176
     1
 66
     8
424
  7895160
176
     1
 43
1.0
176
     1
 76
     1
176
     1
 77
     6
176
     1
 78
     2
176
     1
 67
     7
176
     1
 79
     5
176
     1
170
     0
176
     1
171
     0
176
     1
290
     0
176
     1
 93
       13
176
     1
 44
0.0
176
     1
173
     0
176
     1
  0
VISUALSTYLE
  5
37
102
{ACAD_REACTORS
330
2A
102
}
330
2A
100
AcDbVisualStyle
  2
Thicken
 70
    13
177
     2
291
     1
 71
     2
176
     1
 72
     2
176
     1
 73
     0
176
     1
 90
        0
176
     1
 40
-0.6
176
     1
 41
-30.0
176
     1
 62
     5
 63
     7
421
 16777215
176
     1
 74
     1
176
     1
 91
        4
176
     1
 64
     7
176
     1
 65
   257
176
     1
 75
     1
176
     1
175
     1
176
     1
 42
1.0
176
     1
 92
       12
176
     1
 66
     7
176
     1
 43
1.0
176
     1
 76
     1
176
     1
 77
     6
176
     1
 78
     2
176
     1
 67
     7
176
     1
 79
     5
176
     1
170
     0
176
     1
171
     0
176
     1
290
     0
176
     1
 93
        1
176
     1
 44
0.0
176
     1
173
     0
176
     1
  0
ENDSEC
  0
EOF
