  0
SECTION
  2
HEADER
  9
$ACADVER
  1
AC1024
  9
$ACADMAINTVER
 70
     6
  9
$DWGCODEPAGE
  3
UNDEFINED
  9
$INSBASE
 10
0.0
 20
0.0
 30
0.0
  9
$EXTMIN
 10
1.000000000000000E+20
 20
1.000000000000000E+20
 30
1.000000000000000E+20
  9
$EXTMAX
 10
-1.000000000000000E+20
 20
-1.000000000000000E+20
 30
-1.000000000000000E+20
  9
$LIMMIN
 10
0.0
 20
0.0
  9
$LIMMAX
 10
12.0
 20
9.0
  9
$ORTHOMODE
 70
     0
  9
$REGENMODE
 70
     1
  9
$FILLMODE
 70
     1
  9
$QTEXTMODE
 70
     0
  9
$MIRRTEXT
 70
     1
  9
$LTSCALE
 40
1.0
  9
$ATTMODE
 70
     1
  9
$TEXTSIZE
 40
0.2
  9
$TRACEWID
 40
0.05
  9
$TEXTSTYLE
  7
Standard
  9
$CLAYER
  8
0
  9
$CELTYPE
  6
ByLayer
  9
$CECOLOR
 62
   256
  9
$CELTSCALE
 40
1.0
  9
$DISPSILH
 70
     0
  9
$DIMSCALE
 40
1.0
  9
$DIMASZ
 40
0.18
  9
$DIMEXO
 40
0.0625
  9
$DIMDLI
 40
0.38
  9
$DIMRND
 40
0.0
  9
$DIMDLE
 40
0.0
  9
$DIMEXE
 40
0.18
  9
$DIMTP
 40
0.0
  9
$DIMTM
 40
0.0
  9
$DIMTXT
 40
0.18
  9
$DIMCEN
 40
0.09
  9
$DIMTSZ
 40
0.0
  9
$DIMTOL
 70
     0
  9
$DIMLIM
 70
     0
  9
$DIMTIH
 70
     1
  9
$DIMTOH
 70
     1
  9
$DIMSE1
 70
     0
  9
$DIMSE2
 70
     0
  9
$DIMTAD
 70
     0
  9
$DIMZIN
 70
     0
  9
$DIMBLK
  1

  9
$DIMASO
 70
     1
  9
$DIMSHO
 70
     1
  9
$DIMPOST
  1

  9
$DIMAPOST
  1

  9
$DIMALT
 70
     0
  9
$DIMALTD
 70
     2
  9
$DIMALTF
 40
25.4
  9
$DIMLFAC
 40
1.0
  9
$DIMTOFL
 70
     0
  9
$DIMTVP
 40
0.0
  9
$DIMTIX
 70
     0
  9
$DIMSOXD
 70
     0
  9
$DIMSAH
 70
     0
  9
$DIMBLK1
  1

  9
$DIMBLK2
  1

  9
$DIMSTYLE
  2
Standard
  9
$DIMCLRD
 70
     0
  9
$DIMCLRE
 70
     0
  9
$DIMCLRT
 70
     0
  9
$DIMTFAC
 40
1.0
  9
$DIMGAP
 40
0.09
  9
$DIMJUST
 70
     0
  9
$DIMSD1
 70
     0
  9
$DIMSD2
 70
     0
  9
$DIMTOLJ
 70
     1
  9
$DIMTZIN
 70
     0
  9
$DIMALTZ
 70
     0
  9
$DIMALTTZ
 70
     0
  9
$DIMUPT
 70
     0
  9
$DIMDEC
 70
     4
  9
$DIMTDEC
 70
     4
  9
$DIMALTU
 70
     2
  9
$DIMALTTD
 70
     2
  9
$DIMTXSTY
  7
Standard
  9
$DIMAUNIT
 70
     0
  9
$DIMADEC
 70
     0
  9
$DIMALTRND
 40
0.0
  9
$DIMAZIN
 70
     0
  9
$DIMDSEP
 70
    46
  9
$DIMATFIT
 70
     3
  9
$DIMFRAC
 70
     0
  9
$DIMLDRBLK
  1

  9
$DIMLUNIT
 70
     2
  9
$DIMLWD
 70
    -2
  9
$DIMLWE
 70
    -2
  9
$DIMTMOVE
 70
     0
  9
$DIMFXL
 40
1.0
  9
$DIMFXLON
 70
     0
  9
$DIMJOGANG
 40
0.7853981633974483
  9
$DIMTFILL
 70
     0
  9
$DIMTFILLCLR
 70
     0
  9
$DIMARCSYM
 70
     0
  9
$DIMLTYPE
  6

  9
$DIMLTEX1
  6

  9
$DIMLTEX2
  6

  9
$DIMTXTDIRECTION
 70
     0
  9
$LUNITS
 70
     2
  9
$LUPREC
 70
     4
  9
$SKETCHINC
 40
0.1
  9
$FILLETRAD
 40
0.5
  9
$AUNITS
 70
     0
  9
$AUPREC
 70
     0
  9
$MENU
  1
.
  9
$ELEVATION
 40
0.0
  9
$PELEVATION
 40
0.0
  9
$THICKNESS
 40
0.0
  9
$LIMCHECK
 70
     0
  9
$CHAMFERA
 40
0.5
  9
$CHAMFERB
 40
0.5
  9
$CHAMFERC
 40
1.0
  9
$CHAMFERD
 40
0.0
  9
$SKPOLY
 70
     0
  9
$TDCREATE
 40
2457451.997337963
  9
$TDUCREATE
 40
2457451.664004629
  9
$TDUPDATE
 40
2457451.997337963
  9
$TDUUPDATE
 40
2457451.664004629
  9
$TDINDWG
 40
0.0000000116
  9
$TDUSRTIMER
 40
0.0000000116
  9
$USRTIMER
 70
     1
  9
$ANGBASE
 50
0.0
  9
$ANGDIR
 70
     0
  9
$PDMODE
 70
     0
  9
$PDSIZE
 40
0.0
  9
$PLINEWID
 40
0.0
  9
$SPLFRAME
 70
     0
  9
$SPLINETYPE
 70
     6
  9
$SPLINESEGS
 70
     8
  9
$HANDSEED
  5
263
  9
$SURFTAB1
 70
     6
  9
$SURFTAB2
 70
     6
  9
$SURFTYPE
 70
     6
  9
$SURFU
 70
     6
  9
$SURFV
 70
     6
  9
$UCSBASE
  2

  9
$UCSNAME
  2

  9
$UCSORG
 10
0.0
 20
0.0
 30
0.0
  9
$UCSXDIR
 10
1.0
 20
0.0
 30
0.0
  9
$UCSYDIR
 10
0.0
 20
1.0
 30
0.0
  9
$UCSORTHOREF
  2

  9
$UCSORTHOVIEW
 70
     0
  9
$UCSORGTOP
 10
0.0
 20
0.0
 30
0.0
  9
$UCSORGBOTTOM
 10
0.0
 20
0.0
 30
0.0
  9
$UCSORGLEFT
 10
0.0
 20
0.0
 30
0.0
  9
$UCSORGRIGHT
 10
0.0
 20
0.0
 30
0.0
  9
$UCSORGFRONT
 10
0.0
 20
0.0
 30
0.0
  9
$UCSORGBACK
 10
0.0
 20
0.0
 30
0.0
  9
$PUCSBASE
  2

  9
$PUCSNAME
  2

  9
$PUCSORG
 10
0.0
 20
0.0
 30
0.0
  9
$PUCSXDIR
 10
1.0
 20
0.0
 30
0.0
  9
$PUCSYDIR
 10
0.0
 20
1.0
 30
0.0
  9
$PUCSORTHOREF
  2

  9
$PUCSORTHOVIEW
 70
     0
  9
$PUCSORGTOP
 10
0.0
 20
0.0
 30
0.0
  9
$PUCSORGBOTTOM
 10
0.0
 20
0.0
 30
0.0
  9
$PUCSORGLEFT
 10
0.0
 20
0.0
 30
0.0
  9
$PUCSORGRIGHT
 10
0.0
 20
0.0
 30
0.0
  9
$PUCSORGFRONT
 10
0.0
 20
0.0
 30
0.0
  9
$PUCSORGBACK
 10
0.0
 20
0.0
 30
0.0
  9
$USERI1
 70
     0
  9
$USERI2
 70
     0
  9
$USERI3
 70
     0
  9
$USERI4
 70
     0
  9
$USERI5
 70
     0
  9
$USERR1
 40
0.0
  9
$USERR2
 40
0.0
  9
$USERR3
 40
0.0
  9
$USERR4
 40
0.0
  9
$USERR5
 40
0.0
  9
$WORLDVIEW
 70
     1
  9
$SHADEDGE
 70
     3
  9
$SHADEDIF
 70
    70
  9
$TILEMODE
 70
     1
  9
$MAXACTVP
 70
    64
  9
$PINSBASE
 10
0.0
 20
0.0
 30
0.0
  9
$PLIMCHECK
 70
     0
  9
$PEXTMIN
 10
1.000000000000000E+20
 20
1.000000000000000E+20
 30
1.000000000000000E+20
  9
$PEXTMAX
 10
-1.000000000000000E+20
 20
-1.000000000000000E+20
 30
-1.000000000000000E+20
  9
$PLIMMIN
 10
0.0
 20
0.0
  9
$PLIMMAX
 10
12.0
 20
9.0
  9
$UNITMODE
 70
     0
  9
$VISRETAIN
 70
     1
  9
$PLINEGEN
 70
     0
  9
$PSLTSCALE
 70
     1
  9
$TREEDEPTH
 70
  3020
  9
$CMLSTYLE
  2
Standard
  9
$CMLJUST
 70
     0
  9
$CMLSCALE
 40
1.0
  9
$PROXYGRAPHICS
 70
     1
  9
$MEASUREMENT
 70
     0
  9
$CELWEIGHT
370
    -1
  9
$ENDCAPS
280
     0
  9
$JOINSTYLE
280
     0
  9
$LWDISPLAY
290
     1
  9
$INSUNITS
 70
     1
  9
$HYPERLINKBASE
  1

  9
$STYLESHEET
  1

  9
$XEDIT
290
     1
  9
$CEPSNTYPE
380
     0
  9
$PSTYLEMODE
290
     1
  9
$FINGERPRINTGUID
  2
{E66B6B90-A3A3-3BB7-8DF9-0BF7BC049368}
  9
$VERSIONGUID
  2
{FAEB1C32-E019-11D5-929B-00C0DF256EC4}
  9
$EXTNAMES
290
     1
  9
$PSVPSCALE
 40
0.0
  9
$OLESTARTUP
290
     0
  9
$SORTENTS
280
   127
  9
$INDEXCTL
280
     0
  9
$HIDETEXT
280
     1
  9
$XCLIPFRAME
280
     2
  9
$HALOGAP
280
     0
  9
$OBSCOLOR
 70
   257
  9
$OBSLTYPE
280
     0
  9
$INTERSECTIONDISPLAY
280
     0
  9
$INTERSECTIONCOLOR
 70
   257
  9
$DIMASSOC
280
     2
  9
$PROJECTNAME
  1

  9
$CAMERADISPLAY
290
     0
  9
$LENSLENGTH
 40
50.0
  9
$CAMERAHEIGHT
 40
0.0
  9
$STEPSPERSEC
 40
2.0
  9
$STEPSIZE
 40
6.0
  9
$3DDWFPREC
 40
2.0
  9
$PSOLWIDTH
 40
0.25
  9
$PSOLHEIGHT
 40
4.0
  9
$LOFTANG1
 40
1.570796326794897
  9
$LOFTANG2
 40
1.570796326794897
  9
$LOFTMAG1
 40
0.0
  9
$LOFTMAG2
 40
0.0
  9
$LOFTPARAM
 70
     7
  9
$LOFTNORMALS
280
     1
  9
$LATITUDE
 40
37.795
  9
$LONGITUDE
 40
-122.394
  9
$NORTHDIRECTION
 40
0.0
  9
$TIMEZONE
 70
 -8000
  9
$LIGHTGLYPHDISPLAY
280
     1
  9
$TILEMODELIGHTSYNCH
280
     1
  9
$CMATERIAL
347
3C
  9
$SOLIDHIST
280
     1
  9
$SHOWHIST
280
     1
  9
$DWFFRAME
280
     2
  9
$DGNFRAME
280
     2
  9
$REALWORLDSCALE
290
     1
  9
$INTERFERECOLOR
 62
   256
  9
$CSHADOW
280
     0
  9
$SHADOWPLANELOCATION
 40
0.0
  0
ENDSEC
  0
SECTION
  2
CLASSES
  0
CLASS
  1
ACDBDICTIONARYWDFLT
  2
AcDbDictionaryWithDefault
  3
ObjectDBX Classes
 90
        0
 91
        4
280
     0
281
     0
  0
CLASS
  1
VISUALSTYLE
  2
AcDbVisualStyle
  3
ObjectDBX Classes
 90
     4095
 91
        4
280
     0
281
     0
  0
CLASS
  1
MATERIAL
  2
AcDbMaterial
  3
ObjectDBX Classes
 90
     1153
 91
        4
280
     0
281
     0
  0
CLASS
  1
SUN
  2
AcDbSun
  3
SCENEOE
 90
     1024
 91
        4
280
     0
281
     0
  0
ENDSEC
  0
SECTION
  2
TABLES
  0
TABLE
  2
VPORT
  5
8
330
0
100
AcDbSymbolTable
 70
     1
  0
VPORT
  5
29
330
8
100
AcDbSymbolTableRecord
100
AcDbViewportTableRecord
  2
*Active
 70
     0
 10
0.0
 20
0.0
 11
1.0
 21
1.0
 12
0.0
 22
0.0
 13
0.0
 23
0.0
 14
0.5
 24
0.5
 15
0.5
 25
0.5
 16
0.0
 26
0.0
 36
1.0
 17
-110.1522943685657
 27
-149.6902898249003
 37
0.0
 40
822.4093573968289
 41
0.8854546062944515
 42
50.0
 43
0.0
 44
0.0
 50
0.0
 51
0.0
 71
     0
 72
   100
 73
     1
 74
     3
 75
     0
 76
     0
 77
     0
 78
     0
281
     0
 65
     1
110
0.0
120
0.0
130
0.0
111
1.0
121
0.0
131
0.0
112
0.0
122
1.0
132
0.0
 79
     0
146
0.0
 60
     3
 61
     5
292
     1
282
     1
141
0.0
142
0.0
 63
   250
361
3F
  0
ENDTAB
  0
TABLE
  2
LTYPE
  5
5
330
0
100
AcDbSymbolTable
 70
     1
  0
LTYPE
  5
14
330
5
100
AcDbSymbolTableRecord
100
AcDbLinetypeTableRecord
  2
ByBlock
 70
     0
  3

 72
    65
 73
     0
 40
0.0
  0
LTYPE
  5
15
330
5
100
AcDbSymbolTableRecord
100
AcDbLinetypeTableRecord
  2
ByLayer
 70
     0
  3

 72
    65
 73
     0
 40
0.0
  0
LTYPE
  5
16
330
5
100
AcDbSymbolTableRecord
100
AcDbLinetypeTableRecord
  2
Continuous
 70
     0
  3
Solid line
 72
    65
 73
     0
 40
0.0
  0
ENDTAB
  0
TABLE
  2
LAYER
  5
2
330
0
100
AcDbSymbolTable
 70
     3
  0
LAYER
  5
10
330
2
100
AcDbSymbolTableRecord
100
AcDbLayerTableRecord
  2
0
 70
     0
 62
     7
  6
Continuous
370
    -3
390
F
347
3E
  0
LAYER
  5
40
330
2
100
AcDbSymbolTableRecord
100
AcDbLayerTableRecord
  2
Layer 1
 70
     1
 62
     7
  6
Continuous
370
    -3
390
F
347
3E
  0
LAYER
  5
105
330
2
100
AcDbSymbolTableRecord
100
AcDbLayerTableRecord
  2
Layer 2
 70
     0
 62
     7
  6
Continuous
370
    -3
390
F
347
3E
  0
ENDTAB
  0
TABLE
  2
STYLE
  5
3
330
0
100
AcDbSymbolTable
 70
     1
  0
STYLE
  5
11
330
3
100
AcDbSymbolTableRecord
100
AcDbTextStyleTableRecord
  2
Standard
 70
     0
 40
0.0
 41
1.0
 50
0.0
 71
     0
 42
0.2
  3
txt
  4

  0
ENDTAB
  0
TABLE
  2
VIEW
  5
6
330
0
100
AcDbSymbolTable
 70
     0
  0
ENDTAB
  0
TABLE
  2
UCS
  5
7
330
0
100
AcDbSymbolTable
 70
     0
  0
ENDTAB
  0
TABLE
  2
APPID
  5
9
330
0
100
AcDbSymbolTable
 70
     1
  0
APPID
  5
12
330
9
100
AcDbSymbolTableRecord
100
AcDbRegAppTableRecord
  2
ACAD
 70
     0
  0
ENDTAB
  0
TABLE
  2
DIMSTYLE
  5
A
330
0
100
AcDbSymbolTable
 70
     1
100
AcDbDimStyleTable
  0
DIMSTYLE
105
27
330
A
100
AcDbSymbolTableRecord
100
AcDbDimStyleTableRecord
  2
Standard
 70
     0
178
     0
340
11
  0
ENDTAB
  0
TABLE
  2
BLOCK_RECORD
  5
1
330
0
100
AcDbSymbolTable
 70
     5
  0
BLOCK_RECORD
  5
1F
330
1
100
AcDbSymbolTableRecord
100
AcDbBlockTableRecord
  2
*Model_Space
340
22
 70
     0
280
     1
281
     0
  0
BLOCK_RECORD
  5
1B
330
1
100
AcDbSymbolTableRecord
100
AcDbBlockTableRecord
  2
*Paper_Space
340
1E
 70
     0
280
     1
281
     0
  0
BLOCK_RECORD
  5
23
330
1
100
AcDbSymbolTableRecord
100
AcDbBlockTableRecord
  2
*Paper_Space0
340
26
 70
     0
280
     1
281
     0
  0
BLOCK_RECORD
  5
42
330
1
100
AcDbSymbolTableRecord
100
AcDbBlockTableRecord
  2
block 2
340
0
102
{BLKREFS
331
43
102
}
 70
     0
280
     1
281
     0
  0
BLOCK_RECORD
  5
95
330
1
100
AcDbSymbolTableRecord
100
AcDbBlockTableRecord
  2
block 3
340
0
102
{BLKREFS
331
96
102
}
 70
     0
280
     1
281
     0
  0
BLOCK_RECORD
  5
BD
330
1
100
AcDbSymbolTableRecord
100
AcDbBlockTableRecord
  2
block 4
340
0
102
{BLKREFS
331
BE
102
}
 70
     0
280
     1
281
     0
  0
BLOCK_RECORD
  5
C5
330
1
100
AcDbSymbolTableRecord
100
AcDbBlockTableRecord
  2
block 5
340
0
102
{BLKREFS
331
C6
102
}
 70
     0
280
     1
281
     0
  0
ENDTAB
  0
ENDSEC
  0
SECTION
  2
BLOCKS
  0
BLOCK
  5
20
330
1F
100
AcDbEntity
  8
0
100
AcDbBlockBegin
  2
*Model_Space
 70
     0
 10
0.0
 20
0.0
 30
0.0
  3
*Model_Space
  1

  0
ENDBLK
  5
21
330
1F
100
AcDbEntity
  8
0
100
AcDbBlockEnd
  0
BLOCK
  5
1C
330
1B
100
AcDbEntity
 67
     1
  8
0
100
AcDbBlockBegin
  2
*Paper_Space
 70
     0
 10
0.0
 20
0.0
 30
0.0
  3
*Paper_Space
  1

  0
ENDBLK
  5
1D
330
1B
100
AcDbEntity
 67
     1
  8
0
100
AcDbBlockEnd
  0
BLOCK
  5
24
330
23
100
AcDbEntity
  8
0
100
AcDbBlockBegin
  2
*Paper_Space0
 70
     0
 10
0.0
 20
0.0
 30
0.0
  3
*Paper_Space0
  1

  0
ENDBLK
  5
25
330
23
100
AcDbEntity
  8
0
100
AcDbBlockEnd
  0
BLOCK
  5
44
330
42
100
AcDbEntity
  8
0
100
AcDbBlockBegin
  2
block 2
 70
     0
 10
0.0
 20
0.0
 30
0.0
  3
block 2
  1

  0
SPLINE
  5
46
330
42
100
AcDbEntity
  8
Layer 1
 62
   179
420
  2301728
370
    35
100
AcDbSpline
210
0.0
220
0.0
230
1.0
 70
    11
 71
     3
 72
    38
 73
    34
 74
     0
 42
0.0000000001
 43
0.0000000001
 12
1.0
 22
0.0
 32
0.0
 13
1.0
 23
0.0
 33
0.0
 40
0.0
 40
0.0
 40
0.0
 40
0.0
 40
1.0
 40
1.0
 40
1.0
 40
2.0
 40
2.0
 40
2.0
 40
3.0
 40
3.0
 40
3.0
 40
4.0
 40
4.0
 40
4.0
 40
5.0
 40
5.0
 40
5.0
 40
6.0
 40
6.0
 40
6.0
 40
7.0
 40
7.0
 40
7.0
 40
8.0
 40
8.0
 40
8.0
 40
9.0
 40
9.0
 40
9.0
 40
10.0
 40
10.0
 40
10.0
 40
11.0
 40
11.0
 40
11.0
 40
11.0
 10
-242.9712157595697
 20
120.6391048553657
 30
0.0
 10
-242.9712157595697
 20
120.6391048553657
 30
0.0
 10
-126.1113375878298
 20
120.6391048553657
 30
0.0
 10
-126.1113375878298
 20
120.6391048553657
 30
0.0
 10
-126.1113375878298
 20
120.6391048553657
 30
0.0
 10
-126.1113375878298
 20
129.7387647516365
 30
0.0
 10
-126.1113375878298
 20
129.7387647516365
 30
0.0
 10
-126.1113375878298
 20
131.9845363710837
 30
0.0
 10
-126.4568376013071
 20
134.2022950578665
 30
0.0
 10
-127.1241525968
 20
136.3199521889561
 30
0.0
 10
-127.7913599330587
 20
138.4376093200455
 30
0.0
 10
-128.780468378721
 20
140.450880057932
 30
0.0
 10
-130.0677067749375
 20
142.2918314260156
 30
0.0
 10
-130.0677067749375
 20
142.2918314260156
 30
0.0
 10
-148.6933356019326
 20
168.9095219507739
 30
0.0
 10
-148.6933356019326
 20
168.9095219507739
 30
0.0
 10
-148.6933356019326
 20
168.9095219507739
 30
0.0
 10
-167.3210530180656
 20
195.5277507717018
 30
0.0
 10
-167.3210530180656
 20
195.5277507717018
 30
0.0
 10
-169.3680641598607
 20
198.4533904533164
 30
0.0
 10
-172.0651863515692
 20
200.7869043484035
 30
0.0
 10
-175.141096791881
 20
202.3895197044482
 30
0.0
 10
-178.2192034805646
 20
203.9925656974285
 30
0.0
 10
-181.6761199496982
 20
204.8634858360997
 30
0.0
 10
-185.2470690793935
 20
204.8634858360997
 30
0.0
 10
-185.2470690793935
 20
204.8634858360997
 30
0.0
 10
-249.1156081530531
 20
204.8634858360997
 30
0.0
 10
-249.1156081530531
 20
204.8634858360997
 30
0.0
 10
-249.1156081530531
 20
204.8634858360997
 30
0.0
 10
-249.1156081530531
 20
120.6391048553657
 30
0.0
 10
-249.1156081530531
 20
120.6391048553657
 30
0.0
 10
-249.1156081530531
 20
120.6391048553657
 30
0.0
 10
-242.9712157595697
 20
120.6391048553657
 30
0.0
 10
-242.9712157595697
 20
120.6391048553657
 30
0.0
  0
SPLINE
  5
47
330
42
100
AcDbEntity
  8
Layer 1
 62
   179
420
  2301728
370
    35
100
AcDbSpline
210
0.0
220
0.0
230
1.0
 70
    11
 71
     3
 72
    35
 73
    31
 74
     0
 42
0.0000000001
 43
0.0000000001
 12
1.0
 22
0.0
 32
0.0
 13
1.0
 23
0.0
 33
0.0
 40
0.0
 40
0.0
 40
0.0
 40
0.0
 40
1.0
 40
1.0
 40
1.0
 40
2.0
 40
2.0
 40
2.0
 40
3.0
 40
3.0
 40
3.0
 40
4.0
 40
4.0
 40
4.0
 40
5.0
 40
5.0
 40
5.0
 40
6.0
 40
6.0
 40
6.0
 40
7.0
 40
7.0
 40
7.0
 40
8.0
 40
8.0
 40
8.0
 40
9.0
 40
9.0
 40
9.0
 40
10.0
 40
10.0
 40
10.0
 40
10.0
 10
-278.9480679980256
 20
120.6391048553657
 30
0.0
 10
-278.9480679980256
 20
120.6391048553657
 30
0.0
 10
-278.9480679980256
 20
204.8634858360997
 30
0.0
 10
-278.9480679980256
 20
204.8634858360997
 30
0.0
 10
-278.9480679980256
 20
204.8634858360997
 30
0.0
 10
-344.3744146545748
 20
204.8634858360997
 30
0.0
 10
-344.3744146545748
 20
204.8634858360997
 30
0.0
 10
-347.945385316117
 20
204.8634858360997
 30
0.0
 10
-351.4033783775897
 20
203.9925656974285
 30
0.0
 10
-354.4803869420864
 20
202.3895197044482
 30
0.0
 10
-357.5573955065854
 20
200.7869043484035
 30
0.0
 10
-360.2545392301394
 20
198.4533904533164
 30
0.0
 10
-362.3004522477515
 20
195.5277507717018
 30
0.0
 10
-362.3004522477515
 20
195.5277507717018
 30
0.0
 10
-380.9282557912716
 20
168.9095219507739
 30
0.0
 10
-380.9282557912716
 20
168.9095219507739
 30
0.0
 10
-380.9282557912716
 20
168.9095219507739
 30
0.0
 10
-399.5539061501115
 20
142.2918314260156
 30
0.0
 10
-399.5539061501115
 20
142.2918314260156
 30
0.0
 10
-400.8409938234009
 20
140.450880057932
 30
0.0
 10
-401.8312434569434
 20
138.4376093200455
 30
0.0
 10
-402.4974387964016
 20
136.3199521889561
 30
0.0
 10
-403.1646246008167
 20
134.2022950578665
 30
0.0
 10
-403.5101676779872
 20
131.9845363710837
 30
0.0
 10
-403.5101676779872
 20
129.7387647516365
 30
0.0
 10
-403.5101676779872
 20
129.7387647516365
 30
0.0
 10
-403.5101676779872
 20
120.6391048553657
 30
0.0
 10
-403.5101676779872
 20
120.6391048553657
 30
0.0
 10
-403.5101676779872
 20
120.6391048553657
 30
0.0
 10
-278.9480679980256
 20
120.6391048553657
 30
0.0
 10
-278.9480679980256
 20
120.6391048553657
 30
0.0
  0
SPLINE
  5
48
330
42
100
AcDbEntity
  8
Layer 1
 62
   179
420
  2301728
370
    35
100
AcDbSpline
210
0.0
220
0.0
230
1.0
 70
    11
 71
     3
 72
    38
 73
    34
 74
     0
 42
0.0000000001
 43
0.0000000001
 12
1.0
 22
0.0
 32
0.0
 13
1.0
 23
0.0
 33
0.0
 40
0.0
 40
0.0
 40
0.0
 40
0.0
 40
1.0
 40
1.0
 40
1.0
 40
2.0
 40
2.0
 40
2.0
 40
3.0
 40
3.0
 40
3.0
 40
4.0
 40
4.0
 40
4.0
 40
5.0
 40
5.0
 40
5.0
 40
6.0
 40
6.0
 40
6.0
 40
7.0
 40
7.0
 40
7.0
 40
8.0
 40
8.0
 40
8.0
 40
9.0
 40
9.0
 40
9.0
 40
10.0
 40
10.0
 40
10.0
 40
11.0
 40
11.0
 40
11.0
 40
11.0
 10
-242.6184379818801
 20
92.2185312676358
 30
0.0
 10
-242.6184379818801
 20
92.2185312676358
 30
0.0
 10
-248.7628303753636
 20
92.2185312676358
 30
0.0
 10
-248.7628303753636
 20
92.2185312676358
 30
0.0
 10
-248.7628303753636
 20
92.2185312676358
 30
0.0
 10
-248.7628303753636
 20
-2.921031866402989
 30
0.0
 10
-248.7628303753636
 20
-2.921031866402989
 30
0.0
 10
-248.7628303753636
 20
-2.921031866402989
 30
0.0
 10
-184.894291301704
 20
-2.921031866402989
 30
0.0
 10
-184.894291301704
 20
-2.921031866402989
 30
0.0
 10
-181.3233421720086
 20
-2.921031866402989
 30
0.0
 10
-177.866425702875
 20
-2.048905944311993
 30
0.0
 10
-174.7883190141914
 20
-0.4469580755176008
 30
0.0
 10
-171.7124085738796
 20
1.154989793276791
 30
0.0
 10
-169.0152863821711
 20
3.489063516380338
 30
0.0
 10
-166.968275240376
 20
6.415241494164419
 30
0.0
 10
-166.968275240376
 20
6.415241494164419
 30
0.0
 10
-148.340557824243
 20
33.03293201892276
 30
0.0
 10
-148.340557824243
 20
33.03293201892276
 30
0.0
 10
-148.340557824243
 20
33.03293201892276
 30
0.0
 10
-129.7149289972479
 20
59.65073020291501
 30
0.0
 10
-129.7149289972479
 20
59.65073020291501
 30
0.0
 10
-128.4276906010314
 20
61.49168157099861
 30
0.0
 10
-127.4385821553691
 20
63.50704089802299
 30
0.0
 10
-126.7713748191104
 20
65.62359990492689
 30
0.0
 10
-126.1040598236175
 20
67.74015891183015
 30
0.0
 10
-125.7585598101402
 20
69.95802525784687
 30
0.0
 10
-125.7585598101402
 20
72.20379687729411
 30
0.0
 10
-125.7585598101402
 20
72.20379687729411
 30
0.0
 10
-125.7585598101402
 20
92.2185312676358
 30
0.0
 10
-125.7585598101402
 20
92.2185312676358
 30
0.0
 10
-125.7585598101402
 20
92.2185312676358
 30
0.0
 10
-242.6184379818801
 20
92.2185312676358
 30
0.0
 10
-242.6184379818801
 20
92.2185312676358
 30
0.0
  0
SPLINE
  5
49
330
42
100
AcDbEntity
  8
Layer 1
 62
   179
420
  2301728
370
    35
100
AcDbSpline
210
0.0
220
0.0
230
1.0
 70
    11
 71
     3
 72
    35
 73
    31
 74
     0
 42
0.0000000001
 43
0.0000000001
 12
1.0
 22
0.0
 32
0.0
 13
1.0
 23
0.0
 33
0.0
 40
0.0
 40
0.0
 40
0.0
 40
0.0
 40
1.0
 40
1.0
 40
1.0
 40
2.0
 40
2.0
 40
2.0
 40
3.0
 40
3.0
 40
3.0
 40
4.0
 40
4.0
 40
4.0
 40
5.0
 40
5.0
 40
5.0
 40
6.0
 40
6.0
 40
6.0
 40
7.0
 40
7.0
 40
7.0
 40
8.0
 40
8.0
 40
8.0
 40
9.0
 40
9.0
 40
9.0
 40
10.0
 40
10.0
 40
10.0
 40
10.0
 10
-403.5101676779872
 20
90.45464237918787
 30
0.0
 10
-403.5101676779872
 20
90.45464237918787
 30
0.0
 10
-403.5101676779872
 20
70.43990798884619
 30
0.0
 10
-403.5101676779872
 20
70.43990798884619
 30
0.0
 10
-403.5101676779872
 20
68.19413636939895
 30
0.0
 10
-403.1646246008167
 20
65.97627002338224
 30
0.0
 10
-402.4974387964016
 20
63.85971101647898
 30
0.0
 10
-401.8312434569434
 20
61.74315200957506
 30
0.0
 10
-400.8409938234009
 20
59.72779268255069
 30
0.0
 10
-399.5539061501115
 20
57.88684131446709
 30
0.0
 10
-399.5539061501115
 20
57.88684131446709
 30
0.0
 10
-380.9282557912716
 20
31.26904313047484
 30
0.0
 10
-380.9282557912716
 20
31.26904313047484
 30
0.0
 10
-380.9282557912716
 20
31.26904313047484
 30
0.0
 10
-362.3004522477515
 20
4.651352605716502
 30
0.0
 10
-362.3004522477515
 20
4.651352605716502
 30
0.0
 10
-360.2545392301394
 20
1.725174627932422
 30
0.0
 10
-357.5573955065854
 20
-0.608899095171126
 30
0.0
 10
-354.4803869420864
 20
-2.210846963965518
 30
0.0
 10
-351.4033783775897
 20
-3.812794832759909
 30
0.0
 10
-347.945385316117
 20
-4.684920754850905
 30
0.0
 10
-344.3744146545748
 20
-4.684920754850905
 30
0.0
 10
-344.3744146545748
 20
-4.684920754850905
 30
0.0
 10
-278.9480679980256
 20
-4.684920754850905
 30
0.0
 10
-278.9480679980256
 20
-4.684920754850905
 30
0.0
 10
-278.9480679980256
 20
-4.684920754850905
 30
0.0
 10
-278.9480679980256
 20
90.45464237918787
 30
0.0
 10
-278.9480679980256
 20
90.45464237918787
 30
0.0
 10
-278.9480679980256
 20
90.45464237918787
 30
0.0
 10
-403.5101676779872
 20
90.45464237918787
 30
0.0
 10
-403.5101676779872
 20
90.45464237918787
 30
0.0
  0
ENDBLK
  5
45
330
42
100
AcDbEntity
  8
0
100
AcDbBlockEnd
  0
BLOCK
  5
97
330
95
100
AcDbEntity
  8
0
100
AcDbBlockBegin
  2
block 3
 70
     0
 10
0.0
 20
0.0
 30
0.0
  3
block 3
  1

  0
SPLINE
  5
99
330
95
100
AcDbEntity
  8
Layer 1
 62
   179
420
  2301728
370
    35
100
AcDbSpline
210
0.0
220
0.0
230
1.0
 70
    11
 71
     3
 72
    38
 73
    34
 74
     0
 42
0.0000000001
 43
0.0000000001
 12
1.0
 22
0.0
 32
0.0
 13
1.0
 23
0.0
 33
0.0
 40
0.0
 40
0.0
 40
0.0
 40
0.0
 40
1.0
 40
1.0
 40
1.0
 40
2.0
 40
2.0
 40
2.0
 40
3.0
 40
3.0
 40
3.0
 40
4.0
 40
4.0
 40
4.0
 40
5.0
 40
5.0
 40
5.0
 40
6.0
 40
6.0
 40
6.0
 40
7.0
 40
7.0
 40
7.0
 40
8.0
 40
8.0
 40
8.0
 40
9.0
 40
9.0
 40
9.0
 40
10.0
 40
10.0
 40
10.0
 40
11.0
 40
11.0
 40
11.0
 40
11.0
 10
-242.9712157595697
 20
-204.0945129495087
 30
0.0
 10
-242.9712157595697
 20
-204.0945129495087
 30
0.0
 10
-126.1113375878298
 20
-204.0945129495087
 30
0.0
 10
-126.1113375878298
 20
-204.0945129495087
 30
0.0
 10
-126.1113375878298
 20
-204.0945129495087
 30
0.0
 10
-126.1113375878298
 20
-194.9948530532376
 30
0.0
 10
-126.1113375878298
 20
-194.9948530532376
 30
0.0
 10
-126.1113375878298
 20
-192.7490814337904
 30
0.0
 10
-126.4568376013071
 20
-190.5313227470076
 30
0.0
 10
-127.1241525968
 20
-188.4136656159181
 30
0.0
 10
-127.7913599330587
 20
-186.2960084848285
 30
0.0
 10
-128.780468378721
 20
-184.2827377469421
 30
0.0
 10
-130.0677067749375
 20
-182.4417863788585
 30
0.0
 10
-130.0677067749375
 20
-182.4417863788585
 30
0.0
 10
-148.6933356019326
 20
-155.8240958541002
 30
0.0
 10
-148.6933356019326
 20
-155.8240958541002
 30
0.0
 10
-148.6933356019326
 20
-155.8240958541002
 30
0.0
 10
-167.3210530180656
 20
-129.2058670331722
 30
0.0
 10
-167.3210530180656
 20
-129.2058670331722
 30
0.0
 10
-169.3680641598607
 20
-126.2802273515577
 30
0.0
 10
-172.0651863515692
 20
-123.9467134564705
 30
0.0
 10
-175.141096791881
 20
-122.3440981004259
 30
0.0
 10
-178.2192034805646
 20
-120.7410521074456
 30
0.0
 10
-181.6761199496982
 20
-119.8701319687744
 30
0.0
 10
-185.2470690793935
 20
-119.8701319687744
 30
0.0
 10
-185.2470690793935
 20
-119.8701319687744
 30
0.0
 10
-249.1156081530531
 20
-119.8701319687744
 30
0.0
 10
-249.1156081530531
 20
-119.8701319687744
 30
0.0
 10
-249.1156081530531
 20
-119.8701319687744
 30
0.0
 10
-249.1156081530531
 20
-204.0945129495087
 30
0.0
 10
-249.1156081530531
 20
-204.0945129495087
 30
0.0
 10
-249.1156081530531
 20
-204.0945129495087
 30
0.0
 10
-242.9712157595697
 20
-204.0945129495087
 30
0.0
 10
-242.9712157595697
 20
-204.0945129495087
 30
0.0
  0
SPLINE
  5
9A
330
95
100
AcDbEntity
  8
Layer 1
 62
   179
420
  2301728
370
    35
100
AcDbSpline
210
0.0
220
0.0
230
1.0
 70
    11
 71
     3
 72
    35
 73
    31
 74
     0
 42
0.0000000001
 43
0.0000000001
 12
1.0
 22
0.0
 32
0.0
 13
1.0
 23
0.0
 33
0.0
 40
0.0
 40
0.0
 40
0.0
 40
0.0
 40
1.0
 40
1.0
 40
1.0
 40
2.0
 40
2.0
 40
2.0
 40
3.0
 40
3.0
 40
3.0
 40
4.0
 40
4.0
 40
4.0
 40
5.0
 40
5.0
 40
5.0
 40
6.0
 40
6.0
 40
6.0
 40
7.0
 40
7.0
 40
7.0
 40
8.0
 40
8.0
 40
8.0
 40
9.0
 40
9.0
 40
9.0
 40
10.0
 40
10.0
 40
10.0
 40
10.0
 10
-278.9480679980256
 20
-204.0945129495087
 30
0.0
 10
-278.9480679980256
 20
-204.0945129495087
 30
0.0
 10
-278.9480679980256
 20
-119.8701319687744
 30
0.0
 10
-278.9480679980256
 20
-119.8701319687744
 30
0.0
 10
-278.9480679980256
 20
-119.8701319687744
 30
0.0
 10
-344.3744146545748
 20
-119.8701319687744
 30
0.0
 10
-344.3744146545748
 20
-119.8701319687744
 30
0.0
 10
-347.945385316117
 20
-119.8701319687744
 30
0.0
 10
-351.4033783775897
 20
-120.7410521074456
 30
0.0
 10
-354.4803869420864
 20
-122.3440981004259
 30
0.0
 10
-357.5573955065854
 20
-123.9467134564705
 30
0.0
 10
-360.2545392301394
 20
-126.2802273515577
 30
0.0
 10
-362.3004522477515
 20
-129.2058670331722
 30
0.0
 10
-362.3004522477515
 20
-129.2058670331722
 30
0.0
 10
-380.9282557912716
 20
-155.8240958541002
 30
0.0
 10
-380.9282557912716
 20
-155.8240958541002
 30
0.0
 10
-380.9282557912716
 20
-155.8240958541002
 30
0.0
 10
-399.5539061501115
 20
-182.4417863788585
 30
0.0
 10
-399.5539061501115
 20
-182.4417863788585
 30
0.0
 10
-400.8409938234009
 20
-184.2827377469421
 30
0.0
 10
-401.8312434569434
 20
-186.2960084848285
 30
0.0
 10
-402.4974387964016
 20
-188.4136656159181
 30
0.0
 10
-403.1646246008167
 20
-190.5313227470076
 30
0.0
 10
-403.5101676779872
 20
-192.7490814337904
 30
0.0
 10
-403.5101676779872
 20
-194.9948530532376
 30
0.0
 10
-403.5101676779872
 20
-194.9948530532376
 30
0.0
 10
-403.5101676779872
 20
-204.0945129495087
 30
0.0
 10
-403.5101676779872
 20
-204.0945129495087
 30
0.0
 10
-403.5101676779872
 20
-204.0945129495087
 30
0.0
 10
-278.9480679980256
 20
-204.0945129495087
 30
0.0
 10
-278.9480679980256
 20
-204.0945129495087
 30
0.0
  0
SPLINE
  5
9B
330
95
100
AcDbEntity
  8
Layer 1
 62
   179
420
  2301728
370
    35
100
AcDbSpline
210
0.0
220
0.0
230
1.0
 70
    11
 71
     3
 72
    38
 73
    34
 74
     0
 42
0.0000000001
 43
0.0000000001
 12
1.0
 22
0.0
 32
0.0
 13
1.0
 23
0.0
 33
0.0
 40
0.0
 40
0.0
 40
0.0
 40
0.0
 40
1.0
 40
1.0
 40
1.0
 40
2.0
 40
2.0
 40
2.0
 40
3.0
 40
3.0
 40
3.0
 40
4.0
 40
4.0
 40
4.0
 40
5.0
 40
5.0
 40
5.0
 40
6.0
 40
6.0
 40
6.0
 40
7.0
 40
7.0
 40
7.0
 40
8.0
 40
8.0
 40
8.0
 40
9.0
 40
9.0
 40
9.0
 40
10.0
 40
10.0
 40
10.0
 40
11.0
 40
11.0
 40
11.0
 40
11.0
 10
-242.6184379818801
 20
-232.5150865372386
 30
0.0
 10
-242.6184379818801
 20
-232.5150865372386
 30
0.0
 10
-248.7628303753636
 20
-232.5150865372386
 30
0.0
 10
-248.7628303753636
 20
-232.5150865372386
 30
0.0
 10
-248.7628303753636
 20
-232.5150865372386
 30
0.0
 10
-248.7628303753636
 20
-327.6546496712771
 30
0.0
 10
-248.7628303753636
 20
-327.6546496712771
 30
0.0
 10
-248.7628303753636
 20
-327.6546496712771
 30
0.0
 10
-184.894291301704
 20
-327.6546496712771
 30
0.0
 10
-184.894291301704
 20
-327.6546496712771
 30
0.0
 10
-181.3233421720086
 20
-327.6546496712771
 30
0.0
 10
-177.866425702875
 20
-326.7825237491861
 30
0.0
 10
-174.7883190141914
 20
-325.1805758803917
 30
0.0
 10
-171.7124085738796
 20
-323.5786280115973
 30
0.0
 10
-169.0152863821711
 20
-321.2445542884938
 30
0.0
 10
-166.968275240376
 20
-318.3183763107097
 30
0.0
 10
-166.968275240376
 20
-318.3183763107097
 30
0.0
 10
-148.340557824243
 20
-291.7006857859514
 30
0.0
 10
-148.340557824243
 20
-291.7006857859514
 30
0.0
 10
-148.340557824243
 20
-291.7006857859514
 30
0.0
 10
-129.7149289972479
 20
-265.0828876019591
 30
0.0
 10
-129.7149289972479
 20
-265.0828876019591
 30
0.0
 10
-128.4276906010314
 20
-263.2419362338755
 30
0.0
 10
-127.4385821553691
 20
-261.2265769068511
 30
0.0
 10
-126.7713748191104
 20
-259.1100178999475
 30
0.0
 10
-126.1040598236175
 20
-256.993458893044
 30
0.0
 10
-125.7585598101402
 20
-254.7755925470272
 30
0.0
 10
-125.7585598101402
 20
-252.52982092758
 30
0.0
 10
-125.7585598101402
 20
-252.52982092758
 30
0.0
 10
-125.7585598101402
 20
-232.5150865372386
 30
0.0
 10
-125.7585598101402
 20
-232.5150865372386
 30
0.0
 10
-125.7585598101402
 20
-232.5150865372386
 30
0.0
 10
-242.6184379818801
 20
-232.5150865372386
 30
0.0
 10
-242.6184379818801
 20
-232.5150865372386
 30
0.0
  0
SPLINE
  5
9C
330
95
100
AcDbEntity
  8
Layer 1
 62
   179
420
  2301728
370
    35
100
AcDbSpline
210
0.0
220
0.0
230
1.0
 70
    11
 71
     3
 72
    35
 73
    31
 74
     0
 42
0.0000000001
 43
0.0000000001
 12
1.0
 22
0.0
 32
0.0
 13
1.0
 23
0.0
 33
0.0
 40
0.0
 40
0.0
 40
0.0
 40
0.0
 40
1.0
 40
1.0
 40
1.0
 40
2.0
 40
2.0
 40
2.0
 40
3.0
 40
3.0
 40
3.0
 40
4.0
 40
4.0
 40
4.0
 40
5.0
 40
5.0
 40
5.0
 40
6.0
 40
6.0
 40
6.0
 40
7.0
 40
7.0
 40
7.0
 40
8.0
 40
8.0
 40
8.0
 40
9.0
 40
9.0
 40
9.0
 40
10.0
 40
10.0
 40
10.0
 40
10.0
 10
-403.5101676779872
 20
-234.2789754256865
 30
0.0
 10
-403.5101676779872
 20
-234.2789754256865
 30
0.0
 10
-403.5101676779872
 20
-254.2937098160279
 30
0.0
 10
-403.5101676779872
 20
-254.2937098160279
 30
0.0
 10
-403.5101676779872
 20
-256.5394814354751
 30
0.0
 10
-403.1646246008167
 20
-258.7573477814918
 30
0.0
 10
-402.4974387964016
 20
-260.8739067883955
 30
0.0
 10
-401.8312434569434
 20
-262.990465795299
 30
0.0
 10
-400.8409938234009
 20
-265.0058251223234
 30
0.0
 10
-399.5539061501115
 20
-266.846776490407
 30
0.0
 10
-399.5539061501115
 20
-266.846776490407
 30
0.0
 10
-380.9282557912716
 20
-293.4645746743993
 30
0.0
 10
-380.9282557912716
 20
-293.4645746743993
 30
0.0
 10
-380.9282557912716
 20
-293.4645746743993
 30
0.0
 10
-362.3004522477515
 20
-320.0822651991576
 30
0.0
 10
-362.3004522477515
 20
-320.0822651991576
 30
0.0
 10
-360.2545392301394
 20
-323.0084431769417
 30
0.0
 10
-357.5573955065854
 20
-325.3425169000452
 30
0.0
 10
-354.4803869420864
 20
-326.9444647688396
 30
0.0
 10
-351.4033783775897
 20
-328.546412637634
 30
0.0
 10
-347.945385316117
 20
-329.418538559725
 30
0.0
 10
-344.3744146545748
 20
-329.418538559725
 30
0.0
 10
-344.3744146545748
 20
-329.418538559725
 30
0.0
 10
-278.9480679980256
 20
-329.418538559725
 30
0.0
 10
-278.9480679980256
 20
-329.418538559725
 30
0.0
 10
-278.9480679980256
 20
-329.418538559725
 30
0.0
 10
-278.9480679980256
 20
-234.2789754256865
 30
0.0
 10
-278.9480679980256
 20
-234.2789754256865
 30
0.0
 10
-278.9480679980256
 20
-234.2789754256865
 30
0.0
 10
-403.5101676779872
 20
-234.2789754256865
 30
0.0
 10
-403.5101676779872
 20
-234.2789754256865
 30
0.0
  0
ENDBLK
  5
98
330
95
100
AcDbEntity
  8
0
100
AcDbBlockEnd
  0
BLOCK
  5
BF
330
BD
100
AcDbEntity
  8
0
100
AcDbBlockBegin
  2
block 4
 70
     0
 10
0.0
 20
0.0
 30
0.0
  3
block 4
  1

  0
SPLINE
  5
C1
330
BD
100
AcDbEntity
  8
Layer 1
 62
   179
420
  2301728
370
    35
100
AcDbSpline
210
0.0
220
0.0
230
1.0
 70
    11
 71
     3
 72
    17
 73
    13
 74
     0
 42
0.0000000001
 43
0.0000000001
 12
1.0
 22
0.0
 32
0.0
 13
1.0
 23
0.0
 33
0.0
 40
0.0
 40
0.0
 40
0.0
 40
0.0
 40
1.0
 40
1.0
 40
1.0
 40
2.0
 40
2.0
 40
2.0
 40
3.0
 40
3.0
 40
3.0
 40
4.0
 40
4.0
 40
4.0
 40
4.0
 10
-94.86688538230668
 20
-208.8047997457486
 30
0.0
 10
-94.86688538230668
 20
-209.7712980576571
 30
0.0
 10
-95.65038706996074
 20
-210.5547997453115
 30
0.0
 10
-96.61688538186894
 20
-210.5547997453115
 30
0.0
 10
-97.58338369377745
 20
-210.5547997453115
 30
0.0
 10
-98.36688538143152
 20
-209.7712980576571
 30
0.0
 10
-98.36688538143152
 20
-208.8047997457486
 30
0.0
 10
-98.36688538143152
 20
-207.8383014338407
 30
0.0
 10
-97.58338369377745
 20
-207.0547997461863
 30
0.0
 10
-96.61688538186894
 20
-207.0547997461863
 30
0.0
 10
-95.65038706996074
 20
-207.0547997461863
 30
0.0
 10
-94.86688538230668
 20
-207.8383014338407
 30
0.0
 10
-94.86688538230668
 20
-208.8047997457486
 30
0.0
  0
SPLINE
  5
C2
330
BD
100
AcDbEntity
  8
Layer 1
 62
   179
420
  2301728
370
    35
100
AcDbSpline
210
0.0
220
0.0
230
1.0
 70
    11
 71
     3
 72
    17
 73
    13
 74
     0
 42
0.0000000001
 43
0.0000000001
 12
1.0
 22
0.0
 32
0.0
 13
1.0
 23
0.0
 33
0.0
 40
0.0
 40
0.0
 40
0.0
 40
0.0
 40
1.0
 40
1.0
 40
1.0
 40
2.0
 40
2.0
 40
2.0
 40
3.0
 40
3.0
 40
3.0
 40
4.0
 40
4.0
 40
4.0
 40
4.0
 10
-94.86688538232175
 20
-227.8047997409987
 30
0.0
 10
-94.86688538232175
 20
-228.7712980529066
 30
0.0
 10
-95.65038706997584
 20
-229.5547997405616
 30
0.0
 10
-96.61688538188402
 20
-229.5547997405616
 30
0.0
 10
-97.58338369379253
 20
-229.5547997405616
 30
0.0
 10
-98.36688538144661
 20
-228.7712980529066
 30
0.0
 10
-98.36688538144661
 20
-227.8047997409987
 30
0.0
 10
-98.36688538144661
 20
-226.8383014290909
 30
0.0
 10
-97.58338369379253
 20
-226.0547997414358
 30
0.0
 10
-96.61688538188402
 20
-226.0547997414358
 30
0.0
 10
-95.65038706997584
 20
-226.0547997414358
 30
0.0
 10
-94.86688538232175
 20
-226.8383014290909
 30
0.0
 10
-94.86688538232175
 20
-227.8047997409987
 30
0.0
  0
SPLINE
  5
C3
330
BD
100
AcDbEntity
  8
Layer 1
 62
   179
420
  2301728
370
    35
100
AcDbSpline
210
0.0
220
0.0
230
1.0
 70
    11
 71
     3
 72
    17
 73
    13
 74
     0
 42
0.0000000001
 43
0.0000000001
 12
1.0
 22
0.0
 32
0.0
 13
1.0
 23
0.0
 33
0.0
 40
0.0
 40
0.0
 40
0.0
 40
0.0
 40
1.0
 40
1.0
 40
1.0
 40
2.0
 40
2.0
 40
2.0
 40
3.0
 40
3.0
 40
3.0
 40
4.0
 40
4.0
 40
4.0
 40
4.0
 10
-85.36688538469667
 20
-218.3047997433736
 30
0.0
 10
-85.36688538469667
 20
-219.2712980552822
 30
0.0
 10
-86.15038707235074
 20
-220.0547997429366
 30
0.0
 10
-87.11688538425894
 20
-220.0547997429366
 30
0.0
 10
-88.08338369616745
 20
-220.0547997429366
 30
0.0
 10
-88.86688538382151
 20
-219.2712980552822
 30
0.0
 10
-88.86688538382151
 20
-218.3047997433736
 30
0.0
 10
-88.86688538382151
 20
-217.3383014314658
 30
0.0
 10
-88.08338369616745
 20
-216.5547997438114
 30
0.0
 10
-87.11688538425894
 20
-216.5547997438114
 30
0.0
 10
-86.15038707235074
 20
-216.5547997438114
 30
0.0
 10
-85.36688538469667
 20
-217.3383014314658
 30
0.0
 10
-85.36688538469667
 20
-218.3047997433736
 30
0.0
  0
SPLINE
  5
C4
330
BD
100
AcDbEntity
  8
Layer 1
 62
   179
420
  2301728
370
    35
100
AcDbSpline
210
0.0
220
0.0
230
1.0
 70
    11
 71
     3
 72
    17
 73
    13
 74
     0
 42
0.0000000001
 43
0.0000000001
 12
1.0
 22
0.0
 32
0.0
 13
1.0
 23
0.0
 33
0.0
 40
0.0
 40
0.0
 40
0.0
 40
0.0
 40
1.0
 40
1.0
 40
1.0
 40
2.0
 40
2.0
 40
2.0
 40
3.0
 40
3.0
 40
3.0
 40
4.0
 40
4.0
 40
4.0
 40
4.0
 10
-104.3668853799167
 20
-218.304799743373
 30
0.0
 10
-104.3668853799167
 20
-219.2712980552815
 30
0.0
 10
-105.1503870675708
 20
-220.0547997429359
 30
0.0
 10
-106.1168853794789
 20
-220.0547997429359
 30
0.0
 10
-107.0833836913875
 20
-220.0547997429359
 30
0.0
 10
-107.8668853790415
 20
-219.2712980552815
 30
0.0
 10
-107.8668853790415
 20
-218.304799743373
 30
0.0
 10
-107.8668853790415
 20
-217.3383014314651
 30
0.0
 10
-107.0833836913875
 20
-216.5547997438107
 30
0.0
 10
-106.1168853794789
 20
-216.5547997438107
 30
0.0
 10
-105.1503870675708
 20
-216.5547997438107
 30
0.0
 10
-104.3668853799167
 20
-217.3383014314651
 30
0.0
 10
-104.3668853799167
 20
-218.304799743373
 30
0.0
  0
ENDBLK
  5
C0
330
BD
100
AcDbEntity
  8
0
100
AcDbBlockEnd
  0
BLOCK
  5
C7
330
C5
100
AcDbEntity
  8
0
100
AcDbBlockBegin
  2
block 5
 70
     0
 10
0.0
 20
0.0
 30
0.0
  3
block 5
  1

  0
SPLINE
  5
C9
330
C5
100
AcDbEntity
  8
Layer 1
 62
   179
420
  2301728
370
    35
100
AcDbSpline
210
0.0
220
0.0
230
1.0
 70
    11
 71
     3
 72
    17
 73
    13
 74
     0
 42
0.0000000001
 43
0.0000000001
 12
1.0
 22
0.0
 32
0.0
 13
1.0
 23
0.0
 33
0.0
 40
0.0
 40
0.0
 40
0.0
 40
0.0
 40
1.0
 40
1.0
 40
1.0
 40
2.0
 40
2.0
 40
2.0
 40
3.0
 40
3.0
 40
3.0
 40
4.0
 40
4.0
 40
4.0
 40
4.0
 10
-94.81972275617264
 20
115.3979779509721
 30
0.0
 10
-94.81972275617264
 20
114.4314796390636
 30
0.0
 10
-95.6032244438267
 20
113.6479779514092
 30
0.0
 10
-96.5697227557349
 20
113.6479779514092
 30
0.0
 10
-97.53622106764341
 20
113.6479779514092
 30
0.0
 10
-98.31972275529748
 20
114.4314796390636
 30
0.0
 10
-98.31972275529748
 20
115.3979779509721
 30
0.0
 10
-98.31972275529748
 20
116.3644762628803
 30
0.0
 10
-97.53622106764341
 20
117.1479779505344
 30
0.0
 10
-96.5697227557349
 20
117.1479779505344
 30
0.0
 10
-95.6032244438267
 20
117.1479779505344
 30
0.0
 10
-94.81972275617264
 20
116.3644762628803
 30
0.0
 10
-94.81972275617264
 20
115.3979779509721
 30
0.0
  0
SPLINE
  5
CA
330
C5
100
AcDbEntity
  8
Layer 1
 62
   179
420
  2301728
370
    35
100
AcDbSpline
210
0.0
220
0.0
230
1.0
 70
    11
 71
     3
 72
    17
 73
    13
 74
     0
 42
0.0000000001
 43
0.0000000001
 12
1.0
 22
0.0
 32
0.0
 13
1.0
 23
0.0
 33
0.0
 40
0.0
 40
0.0
 40
0.0
 40
0.0
 40
1.0
 40
1.0
 40
1.0
 40
2.0
 40
2.0
 40
2.0
 40
3.0
 40
3.0
 40
3.0
 40
4.0
 40
4.0
 40
4.0
 40
4.0
 10
-94.81972275618772
 20
96.39797795572194
 30
0.0
 10
-94.81972275618772
 20
95.43147964381407
 30
0.0
 10
-95.6032244438418
 20
94.64797795615904
 30
0.0
 10
-96.56972275574998
 20
94.64797795615904
 30
0.0
 10
-97.53622106765849
 20
94.64797795615904
 30
0.0
 10
-98.31972275531257
 20
95.43147964381407
 30
0.0
 10
-98.31972275531257
 20
96.39797795572194
 30
0.0
 10
-98.31972275531257
 20
97.36447626762981
 30
0.0
 10
-97.53622106765849
 20
98.14797795528484
 30
0.0
 10
-96.56972275574998
 20
98.14797795528484
 30
0.0
 10
-95.6032244438418
 20
98.14797795528484
 30
0.0
 10
-94.81972275618772
 20
97.36447626762981
 30
0.0
 10
-94.81972275618772
 20
96.39797795572194
 30
0.0
  0
SPLINE
  5
CB
330
C5
100
AcDbEntity
  8
Layer 1
 62
   179
420
  2301728
370
    35
100
AcDbSpline
210
0.0
220
0.0
230
1.0
 70
    11
 71
     3
 72
    17
 73
    13
 74
     0
 42
0.0000000001
 43
0.0000000001
 12
1.0
 22
0.0
 32
0.0
 13
1.0
 23
0.0
 33
0.0
 40
0.0
 40
0.0
 40
0.0
 40
0.0
 40
1.0
 40
1.0
 40
1.0
 40
2.0
 40
2.0
 40
2.0
 40
3.0
 40
3.0
 40
3.0
 40
4.0
 40
4.0
 40
4.0
 40
4.0
 10
-85.31972275856263
 20
105.897977953347
 30
0.0
 10
-85.31972275856263
 20
104.9314796414385
 30
0.0
 10
-86.1032244462167
 20
104.1479779537841
 30
0.0
 10
-87.0697227581249
 20
104.1479779537841
 30
0.0
 10
-88.0362210700334
 20
104.1479779537841
 30
0.0
 10
-88.81972275768747
 20
104.9314796414385
 30
0.0
 10
-88.81972275768747
 20
105.897977953347
 30
0.0
 10
-88.81972275768747
 20
106.8644762652549
 30
0.0
 10
-88.0362210700334
 20
107.6479779529093
 30
0.0
 10
-87.0697227581249
 20
107.6479779529093
 30
0.0
 10
-86.1032244462167
 20
107.6479779529093
 30
0.0
 10
-85.31972275856263
 20
106.8644762652549
 30
0.0
 10
-85.31972275856263
 20
105.897977953347
 30
0.0
  0
SPLINE
  5
CC
330
C5
100
AcDbEntity
  8
Layer 1
 62
   179
420
  2301728
370
    35
100
AcDbSpline
210
0.0
220
0.0
230
1.0
 70
    11
 71
     3
 72
    17
 73
    13
 74
     0
 42
0.0000000001
 43
0.0000000001
 12
1.0
 22
0.0
 32
0.0
 13
1.0
 23
0.0
 33
0.0
 40
0.0
 40
0.0
 40
0.0
 40
0.0
 40
1.0
 40
1.0
 40
1.0
 40
2.0
 40
2.0
 40
2.0
 40
3.0
 40
3.0
 40
3.0
 40
4.0
 40
4.0
 40
4.0
 40
4.0
 10
-104.3197227537826
 20
105.8979779533477
 30
0.0
 10
-104.3197227537826
 20
104.9314796414392
 30
0.0
 10
-105.1032244414367
 20
104.1479779537848
 30
0.0
 10
-106.0697227533449
 20
104.1479779537848
 30
0.0
 10
-107.0362210652534
 20
104.1479779537848
 30
0.0
 10
-107.8197227529075
 20
104.9314796414392
 30
0.0
 10
-107.8197227529075
 20
105.8979779533477
 30
0.0
 10
-107.8197227529075
 20
106.8644762652555
 30
0.0
 10
-107.0362210652534
 20
107.6479779529099
 30
0.0
 10
-106.0697227533449
 20
107.6479779529099
 30
0.0
 10
-105.1032244414367
 20
107.6479779529099
 30
0.0
 10
-104.3197227537826
 20
106.8644762652555
 30
0.0
 10
-104.3197227537826
 20
105.8979779533477
 30
0.0
  0
ENDBLK
  5
C8
330
C5
100
AcDbEntity
  8
0
100
AcDbBlockEnd
  0
ENDSEC
  0
SECTION
  2
ENTITIES
  0
SPLINE
  5
41
330
1F
100
AcDbEntity
  8
Layer 1
 62
   179
420
  2301728
370
    35
100
AcDbSpline
210
0.0
220
0.0
230
1.0
 70
    11
 71
     3
 72
   101
 73
    97
 74
     0
 42
0.0000000001
 43
0.0000000001
 12
1.0
 22
0.0
 32
0.0
 13
1.0
 23
0.0
 33
0.0
 40
0.0
 40
0.0
 40
0.0
 40
0.0
 40
1.0
 40
1.0
 40
1.0
 40
2.0
 40
2.0
 40
2.0
 40
3.0
 40
3.0
 40
3.0
 40
4.0
 40
4.0
 40
4.0
 40
5.0
 40
5.0
 40
5.0
 40
6.0
 40
6.0
 40
6.0
 40
7.0
 40
7.0
 40
7.0
 40
8.0
 40
8.0
 40
8.0
 40
9.0
 40
9.0
 40
9.0
 40
10.0
 40
10.0
 40
10.0
 40
11.0
 40
11.0
 40
11.0
 40
12.0
 40
12.0
 40
12.0
 40
13.0
 40
13.0
 40
13.0
 40
14.0
 40
14.0
 40
14.0
 40
15.0
 40
15.0
 40
15.0
 40
16.0
 40
16.0
 40
16.0
 40
17.0
 40
17.0
 40
17.0
 40
18.0
 40
18.0
 40
18.0
 40
19.0
 40
19.0
 40
19.0
 40
20.0
 40
20.0
 40
20.0
 40
21.0
 40
21.0
 40
21.0
 40
22.0
 40
22.0
 40
22.0
 40
23.0
 40
23.0
 40
23.0
 40
24.0
 40
24.0
 40
24.0
 40
25.0
 40
25.0
 40
25.0
 40
26.0
 40
26.0
 40
26.0
 40
27.0
 40
27.0
 40
27.0
 40
28.0
 40
28.0
 40
28.0
 40
29.0
 40
29.0
 40
29.0
 40
30.0
 40
30.0
 40
30.0
 40
31.0
 40
31.0
 40
31.0
 40
32.0
 40
32.0
 40
32.0
 40
32.0
 10
-461.3225614789554
 20
40.3427819936668
 30
0.0
 10
-461.3225614789554
 20
40.3427819936668
 30
0.0
 10
-434.0119577933527
 20
1.315628110891025
 30
0.0
 10
-434.0119577933527
 20
1.315628110891025
 30
0.0
 10
-434.0119577933527
 20
1.315628110891025
 30
0.0
 10
-406.7015156955685
 20
-37.71233397155428
 30
0.0
 10
-406.7015156955685
 20
-37.71233397155428
 30
0.0
 10
-403.7008298917798
 20
-42.00193454204054
 30
0.0
 10
-399.7464527786784
 20
-45.42417522628071
 30
0.0
 10
-395.2349208647407
 20
-47.77377330799705
 30
0.0
 10
-390.7233889508069
 20
-50.12337138971274
 30
0.0
 10
-385.6524299528413
 20
-51.40129670851176
 30
0.0
 10
-380.4181257770498
 20
-51.40129670851176
 30
0.0
 10
-380.4181257770498
 20
-51.40129670851176
 30
0.0
 10
-267.123573290878
 20
-51.40129670851176
 30
0.0
 10
-267.123573290878
 20
-51.40129670851176
 30
0.0
 10
-267.123573290878
 20
-51.40129670851176
 30
0.0
 10
-153.8275665143348
 20
-51.40129670851176
 30
0.0
 10
-153.8275665143348
 20
-51.40129670851176
 30
0.0
 10
-148.5932522848167
 20
-51.40129670851176
 30
0.0
 10
-143.5231112796744
 20
-50.12337138971274
 30
0.0
 10
-139.0115793657374
 20
-47.77377330799705
 30
0.0
 10
-134.5000474518016
 20
-45.42417522628071
 30
0.0
 10
-130.5464782777944
 20
-42.00193454204054
 30
0.0
 10
-127.544338183632
 20
-37.71233397155428
 30
0.0
 10
-127.544338183632
 20
-37.71233397155428
 30
0.0
 10
-100.2337344980287
 20
1.315628110891025
 30
0.0
 10
-100.2337344980287
 20
1.315628110891025
 30
0.0
 10
-100.2337344980287
 20
1.315628110891025
 30
0.0
 10
-72.92313081242663
 20
40.3427819936668
 30
0.0
 10
-72.92313081242663
 20
40.3427819936668
 30
0.0
 10
-71.03594667120713
 20
43.04055249338097
 30
0.0
 10
-69.58731187147826
 20
45.99468392853733
 30
0.0
 10
-68.60889762581556
 20
49.09881722251661
 30
0.0
 10
-67.63048338015413
 20
52.20295051649589
 30
0.0
 10
-67.12243317590871
 20
55.4548227102201
 30
0.0
 10
-67.12243317590871
 20
58.74678160759527
 30
0.0
 10
-67.12243317590871
 20
58.74678160759527
 30
0.0
 10
-67.12243317590871
 20
98.59878407395632
 30
0.0
 10
-67.12243317590871
 20
98.59878407395632
 30
0.0
 10
-67.12243317590871
 20
98.59878407395632
 30
0.0
 10
-67.12243317590871
 20
138.4507865403161
 30
0.0
 10
-67.12243317590871
 20
138.4507865403161
 30
0.0
 10
-67.12243317590871
 20
141.7427454376913
 30
0.0
 10
-67.63048338015413
 20
144.9952641911515
 30
0.0
 10
-68.60889762581556
 20
148.0993974851308
 30
0.0
 10
-69.58731187147826
 20
151.2035307791101
 30
0.0
 10
-71.03594667120713
 20
154.1570156545307
 30
0.0
 10
-72.92313081242663
 20
156.8546245143105
 30
0.0
 10
-72.92313081242663
 20
156.8546245143105
 30
0.0
 10
-100.2337344980287
 20
195.8825865967571
 30
0.0
 10
-100.2337344980287
 20
195.8825865967571
 30
0.0
 10
-100.2337344980287
 20
195.8825865967571
 30
0.0
 10
-127.544338183632
 20
234.9105486792017
 30
0.0
 10
-127.544338183632
 20
234.9105486792017
 30
0.0
 10
-130.5464782777944
 20
239.200149249688
 30
0.0
 10
-134.5000474518016
 20
242.6215817342583
 30
0.0
 10
-139.0115793657374
 20
244.9713414559081
 30
0.0
 10
-143.5231112796744
 20
247.3217477372949
 30
0.0
 10
-148.5932522848167
 20
248.5987032164884
 30
0.0
 10
-153.8275665143348
 20
248.5987032164884
 30
0.0
 10
-153.8275665143348
 20
248.5987032164884
 30
0.0
 10
-267.123573290878
 20
248.5987032164884
 30
0.0
 10
-267.123573290878
 20
248.5987032164884
 30
0.0
 10
-267.123573290878
 20
248.5987032164884
 30
0.0
 10
-380.4181257770498
 20
248.5987032164884
 30
0.0
 10
-380.4181257770498
 20
248.5987032164884
 30
0.0
 10
-385.6524299528413
 20
248.5987032164884
 30
0.0
 10
-390.7233889508069
 20
247.3217477372949
 30
0.0
 10
-395.2349208647407
 20
244.9713414559081
 30
0.0
 10
-399.7464527786784
 20
242.6215817342583
 30
0.0
 10
-403.7008298917798
 20
239.200149249688
 30
0.0
 10
-406.7015156955685
 20
234.9105486792017
 30
0.0
 10
-406.7015156955685
 20
234.9105486792017
 30
0.0
 10
-434.0119577933527
 20
195.8825865967571
 30
0.0
 10
-434.0119577933527
 20
195.8825865967571
 30
0.0
 10
-434.0119577933527
 20
195.8825865967571
 30
0.0
 10
-461.3225614789554
 20
156.8546245143105
 30
0.0
 10
-461.3225614789554
 20
156.8546245143105
 30
0.0
 10
-463.2099072079969
 20
154.1570156545307
 30
0.0
 10
-464.6607961793865
 20
151.2035307791101
 30
0.0
 10
-465.6376026046635
 20
148.0993974851308
 30
0.0
 10
-466.6160088419129
 20
144.9952641911515
 30
0.0
 10
-467.1224330759089
 20
141.7427454376913
 30
0.0
 10
-467.1224330759089
 20
138.4507865403161
 30
0.0
 10
-467.1224330759089
 20
138.4507865403161
 30
0.0
 10
-467.1224330759089
 20
98.59878407395632
 30
0.0
 10
-467.1224330759089
 20
98.59878407395632
 30
0.0
 10
-467.1224330759089
 20
98.59878407395632
 30
0.0
 10
-467.1224330759089
 20
58.74678160759527
 30
0.0
 10
-467.1224330759089
 20
58.74678160759527
 30
0.0
 10
-467.1224330759089
 20
55.4548227102201
 30
0.0
 10
-466.6160088419129
 20
52.20295051649589
 30
0.0
 10
-465.6376026046635
 20
49.09881722251661
 30
0.0
 10
-464.6607961793865
 20
45.99468392853733
 30
0.0
 10
-463.2099072079969
 20
43.04055249338097
 30
0.0
 10
-461.3225614789554
 20
40.3427819936668
 30
0.0
  0
INSERT
  5
43
330
1F
100
AcDbEntity
  8
Layer 1
100
AcDbBlockReference
  2
block 2
 10
0.0
 20
0.0
 30
0.0
  0
POLYLINE
  5
4A
330
1F
100
AcDbEntity
  8
Layer 1
 62
   179
420
  2301728
370
    35
100
AcDb2dPolyline
 66
     1
 10
0.0
 20
0.0
 30
0.0
  0
VERTEX
  5
4B
330
4A
100
AcDbEntity
  8
Layer 1
 62
   179
420
  2301728
370
    35
100
AcDbVertex
100
AcDb2dVertex
 10
192.7614271201438
 20
223.4795709536692
 30
0.0
  0
VERTEX
  5
4C
330
4A
100
AcDbEntity
  8
Layer 1
 62
   179
420
  2301728
370
    35
100
AcDbVertex
100
AcDb2dVertex
 10
192.7614271201438
 20
254.4588333197225
 30
0.0
  0
VERTEX
  5
4D
330
4A
100
AcDbEntity
  8
Layer 1
 62
   179
420
  2301728
370
    35
100
AcDbVertex
100
AcDb2dVertex
 10
142.7618383598306
 20
254.4588333197225
 30
0.0
  0
VERTEX
  5
4E
330
4A
100
AcDbEntity
  8
Layer 1
 62
   179
420
  2301728
370
    35
100
AcDbVertex
100
AcDb2dVertex
 10
142.7618383598306
 20
223.4795709536692
 30
0.0
  0
VERTEX
  5
4F
330
4A
100
AcDbEntity
  8
Layer 1
 62
   179
420
  2301728
370
    35
100
AcDbVertex
100
AcDb2dVertex
 10
42.21056315831365
 20
223.4795709536692
 30
0.0
  0
VERTEX
  5
50
330
4A
100
AcDbEntity
  8
Layer 1
 62
   179
420
  2301728
370
    35
100
AcDbVertex
100
AcDb2dVertex
 10
42.21056315831365
 20
254.4588333197225
 30
0.0
  0
VERTEX
  5
51
330
4A
100
AcDbEntity
  8
Layer 1
 62
   179
420
  2301728
370
    35
100
AcDbVertex
100
AcDb2dVertex
 10
-7.789022262465271
 20
254.4588333197225
 30
0.0
  0
VERTEX
  5
52
330
4A
100
AcDbEntity
  8
Layer 1
 62
   179
420
  2301728
370
    35
100
AcDbVertex
100
AcDb2dVertex
 10
-7.789022262465271
 20
223.4795709536692
 30
0.0
  0
VERTEX
  5
53
330
4A
100
AcDbEntity
  8
Layer 1
 62
   179
420
  2301728
370
    35
100
AcDbVertex
100
AcDb2dVertex
 10
-57.51379816173799
 20
223.4795709536692
 30
0.0
  0
VERTEX
  5
54
330
4A
100
AcDbEntity
  8
Layer 1
 62
   179
420
  2301728
370
    35
100
AcDbVertex
100
AcDb2dVertex
 10
-57.51379816173799
 20
-114.5619042142282
 30
0.0
  0
VERTEX
  5
55
330
4A
100
AcDbEntity
  8
Layer 1
 62
   179
420
  2301728
370
    35
100
AcDbVertex
100
AcDb2dVertex
 10
-7.789022262465271
 20
-114.5619042142282
 30
0.0
  0
VERTEX
  5
56
330
4A
100
AcDbEntity
  8
Layer 1
 62
   179
420
  2301728
370
    35
100
AcDbVertex
100
AcDb2dVertex
 10
-7.789022262465271
 20
-145.5411665802773
 30
0.0
  0
VERTEX
  5
57
330
4A
100
AcDbEntity
  8
Layer 1
 62
   179
420
  2301728
370
    35
100
AcDbVertex
100
AcDb2dVertex
 10
42.21056315831365
 20
-145.5411665802773
 30
0.0
  0
VERTEX
  5
58
330
4A
100
AcDbEntity
  8
Layer 1
 62
   179
420
  2301728
370
    35
100
AcDbVertex
100
AcDb2dVertex
 10
42.21056315831365
 20
-114.5619042142282
 30
0.0
  0
VERTEX
  5
59
330
4A
100
AcDbEntity
  8
Layer 1
 62
   179
420
  2301728
370
    35
100
AcDbVertex
100
AcDb2dVertex
 10
142.7618383598306
 20
-114.5619042142282
 30
0.0
  0
VERTEX
  5
5A
330
4A
100
AcDbEntity
  8
Layer 1
 62
   179
420
  2301728
370
    35
100
AcDbVertex
100
AcDb2dVertex
 10
142.7618383598306
 20
-145.5411665802773
 30
0.0
  0
VERTEX
  5
5B
330
4A
100
AcDbEntity
  8
Layer 1
 62
   179
420
  2301728
370
    35
100
AcDbVertex
100
AcDb2dVertex
 10
192.7614271201438
 20
-145.5411665802773
 30
0.0
  0
VERTEX
  5
5C
330
4A
100
AcDbEntity
  8
Layer 1
 62
   179
420
  2301728
370
    35
100
AcDbVertex
100
AcDb2dVertex
 10
192.7614271201438
 20
-114.5619042142282
 30
0.0
  0
VERTEX
  5
5D
330
4A
100
AcDbEntity
  8
Layer 1
 62
   179
420
  2301728
370
    35
100
AcDbVertex
100
AcDb2dVertex
 10
242.4862017632618
 20
-114.5619042142282
 30
0.0
  0
VERTEX
  5
5E
330
4A
100
AcDbEntity
  8
Layer 1
 62
   179
420
  2301728
370
    35
100
AcDbVertex
100
AcDb2dVertex
 10
242.4862017632618
 20
223.4795709536692
 30
0.0
  0
VERTEX
  5
5F
330
4A
100
AcDbEntity
  8
Layer 1
 62
   179
420
  2301728
370
    35
100
AcDbVertex
100
AcDb2dVertex
 10
192.7614271201438
 20
223.4795709536692
 30
0.0
  0
SEQEND
  5
60
330
4A
100
AcDbEntity
  8
Layer 1
 62
   179
420
  2301728
370
    35
  0
POLYLINE
  5
61
330
1F
100
AcDbEntity
  8
Layer 1
 62
   179
420
  2301728
370
    35
100
AcDb2dPolyline
 66
     1
 10
0.0
 20
0.0
 30
0.0
  0
VERTEX
  5
62
330
61
100
AcDbEntity
  8
Layer 1
 62
   179
420
  2301728
370
    35
100
AcDbVertex
100
AcDb2dVertex
 10
193.4776729112102
 20
-184.7458396466237
 30
0.0
  0
VERTEX
  5
63
330
61
100
AcDbEntity
  8
Layer 1
 62
   179
420
  2301728
370
    35
100
AcDbVertex
100
AcDb2dVertex
 10
193.4776729112102
 20
-153.7665772805707
 30
0.0
  0
VERTEX
  5
64
330
61
100
AcDbEntity
  8
Layer 1
 62
   179
420
  2301728
370
    35
100
AcDbVertex
100
AcDb2dVertex
 10
143.478084150897
 20
-153.7665772805707
 30
0.0
  0
VERTEX
  5
65
330
61
100
AcDbEntity
  8
Layer 1
 62
   179
420
  2301728
370
    35
100
AcDbVertex
100
AcDb2dVertex
 10
143.478084150897
 20
-184.7458396466237
 30
0.0
  0
VERTEX
  5
66
330
61
100
AcDbEntity
  8
Layer 1
 62
   179
420
  2301728
370
    35
100
AcDbVertex
100
AcDb2dVertex
 10
42.92680894938005
 20
-184.7458396466237
 30
0.0
  0
VERTEX
  5
67
330
61
100
AcDbEntity
  8
Layer 1
 62
   179
420
  2301728
370
    35
100
AcDbVertex
100
AcDb2dVertex
 10
42.92680894938005
 20
-153.7665772805707
 30
0.0
  0
VERTEX
  5
68
330
61
100
AcDbEntity
  8
Layer 1
 62
   179
420
  2301728
370
    35
100
AcDbVertex
100
AcDb2dVertex
 10
-7.072776471398872
 20
-153.7665772805707
 30
0.0
  0
VERTEX
  5
69
330
61
100
AcDbEntity
  8
Layer 1
 62
   179
420
  2301728
370
    35
100
AcDbVertex
100
AcDb2dVertex
 10
-7.072776471398872
 20
-184.7458396466237
 30
0.0
  0
VERTEX
  5
6A
330
61
100
AcDbEntity
  8
Layer 1
 62
   179
420
  2301728
370
    35
100
AcDbVertex
100
AcDb2dVertex
 10
-56.79755237067191
 20
-184.7458396466237
 30
0.0
  0
VERTEX
  5
6B
330
61
100
AcDbEntity
  8
Layer 1
 62
   179
420
  2301728
370
    35
100
AcDbVertex
100
AcDb2dVertex
 10
-56.79755237067191
 20
-522.7873148145218
 30
0.0
  0
VERTEX
  5
6C
330
61
100
AcDbEntity
  8
Layer 1
 62
   179
420
  2301728
370
    35
100
AcDbVertex
100
AcDb2dVertex
 10
-7.072776471398872
 20
-522.7873148145218
 30
0.0
  0
VERTEX
  5
6D
330
61
100
AcDbEntity
  8
Layer 1
 62
   179
420
  2301728
370
    35
100
AcDbVertex
100
AcDb2dVertex
 10
-7.072776471398872
 20
-553.766577180569
 30
0.0
  0
VERTEX
  5
6E
330
61
100
AcDbEntity
  8
Layer 1
 62
   179
420
  2301728
370
    35
100
AcDbVertex
100
AcDb2dVertex
 10
42.92680894938005
 20
-553.766577180569
 30
0.0
  0
VERTEX
  5
6F
330
61
100
AcDbEntity
  8
Layer 1
 62
   179
420
  2301728
370
    35
100
AcDbVertex
100
AcDb2dVertex
 10
42.92680894938005
 20
-522.7873148145218
 30
0.0
  0
VERTEX
  5
70
330
61
100
AcDbEntity
  8
Layer 1
 62
   179
420
  2301728
370
    35
100
AcDbVertex
100
AcDb2dVertex
 10
143.478084150897
 20
-522.7873148145218
 30
0.0
  0
VERTEX
  5
71
330
61
100
AcDbEntity
  8
Layer 1
 62
   179
420
  2301728
370
    35
100
AcDbVertex
100
AcDb2dVertex
 10
143.478084150897
 20
-553.766577180569
 30
0.0
  0
VERTEX
  5
72
330
61
100
AcDbEntity
  8
Layer 1
 62
   179
420
  2301728
370
    35
100
AcDbVertex
100
AcDb2dVertex
 10
193.4776729112102
 20
-553.766577180569
 30
0.0
  0
VERTEX
  5
73
330
61
100
AcDbEntity
  8
Layer 1
 62
   179
420
  2301728
370
    35
100
AcDbVertex
100
AcDb2dVertex
 10
193.4776729112102
 20
-522.7873148145218
 30
0.0
  0
VERTEX
  5
74
330
61
100
AcDbEntity
  8
Layer 1
 62
   179
420
  2301728
370
    35
100
AcDbVertex
100
AcDb2dVertex
 10
243.2024475543282
 20
-522.7873148145218
 30
0.0
  0
VERTEX
  5
75
330
61
100
AcDbEntity
  8
Layer 1
 62
   179
420
  2301728
370
    35
100
AcDbVertex
100
AcDb2dVertex
 10
243.2024475543282
 20
-184.7458396466237
 30
0.0
  0
VERTEX
  5
76
330
61
100
AcDbEntity
  8
Layer 1
 62
   179
420
  2301728
370
    35
100
AcDbVertex
100
AcDb2dVertex
 10
193.4776729112102
 20
-184.7458396466237
 30
0.0
  0
SEQEND
  5
77
330
61
100
AcDbEntity
  8
Layer 1
 62
   179
420
  2301728
370
    35
  0
POLYLINE
  5
78
330
1F
100
AcDbEntity
  8
Layer 1
 62
   179
420
  2301728
370
    35
100
AcDb2dPolyline
 66
     1
 10
0.0
 20
0.0
 30
0.0
  0
VERTEX
  5
79
330
78
100
AcDbEntity
  8
Layer 1
 62
   179
420
  2301728
370
    35
100
AcDbVertex
100
AcDb2dVertex
 10
-312.9400833808138
 20
-31.28027099501149
 30
0.0
  0
VERTEX
  5
7A
330
78
100
AcDbEntity
  8
Layer 1
 62
   179
420
  2301728
370
    35
100
AcDbVertex
100
AcDb2dVertex
 10
-362.940083368314
 20
-31.28027099501149
 30
0.0
  0
VERTEX
  5
7B
330
78
100
AcDbEntity
  8
Layer 1
 62
   179
420
  2301728
370
    35
100
AcDbVertex
100
AcDb2dVertex
 10
-362.940083368314
 20
-21.28027099751151
 30
0.0
  0
VERTEX
  5
7C
330
78
100
AcDbEntity
  8
Layer 1
 62
   179
420
  2301728
370
    35
100
AcDbVertex
100
AcDb2dVertex
 10
-312.9400833808138
 20
-21.28027099751151
 30
0.0
  0
VERTEX
  5
7D
330
78
100
AcDbEntity
  8
Layer 1
 62
   179
420
  2301728
370
    35
100
AcDbVertex
100
AcDb2dVertex
 10
-312.9400833808138
 20
-31.28027099501149
 30
0.0
  0
SEQEND
  5
7E
330
78
100
AcDbEntity
  8
Layer 1
 62
   179
420
  2301728
370
    35
  0
POLYLINE
  5
7F
330
1F
100
AcDbEntity
  8
Layer 1
 62
   179
420
  2301728
370
    35
100
AcDb2dPolyline
 66
     1
 10
0.0
 20
0.0
 30
0.0
  0
VERTEX
  5
80
330
7F
100
AcDbEntity
  8
Layer 1
 62
   179
420
  2301728
370
    35
100
AcDbVertex
100
AcDb2dVertex
 10
-163.2335839774452
 20
-31.28027099501149
 30
0.0
  0
VERTEX
  5
81
330
7F
100
AcDbEntity
  8
Layer 1
 62
   179
420
  2301728
370
    35
100
AcDbVertex
100
AcDb2dVertex
 10
-213.2335839649454
 20
-31.28027099501149
 30
0.0
  0
VERTEX
  5
82
330
7F
100
AcDbEntity
  8
Layer 1
 62
   179
420
  2301728
370
    35
100
AcDbVertex
100
AcDb2dVertex
 10
-213.2335839649454
 20
-21.28027099751151
 30
0.0
  0
VERTEX
  5
83
330
7F
100
AcDbEntity
  8
Layer 1
 62
   179
420
  2301728
370
    35
100
AcDbVertex
100
AcDb2dVertex
 10
-163.2335839774452
 20
-21.28027099751151
 30
0.0
  0
VERTEX
  5
84
330
7F
100
AcDbEntity
  8
Layer 1
 62
   179
420
  2301728
370
    35
100
AcDbVertex
100
AcDb2dVertex
 10
-163.2335839774452
 20
-31.28027099501149
 30
0.0
  0
SEQEND
  5
85
330
7F
100
AcDbEntity
  8
Layer 1
 62
   179
420
  2301728
370
    35
  0
POLYLINE
  5
86
330
1F
100
AcDbEntity
  8
Layer 1
 62
   179
420
  2301728
370
    35
100
AcDb2dPolyline
 66
     1
 10
0.0
 20
0.0
 30
0.0
  0
VERTEX
  5
87
330
86
100
AcDbEntity
  8
Layer 1
 62
   179
420
  2301728
370
    35
100
AcDbVertex
100
AcDb2dVertex
 10
-312.9400833808138
 20
217.0752844984552
 30
0.0
  0
VERTEX
  5
88
330
86
100
AcDbEntity
  8
Layer 1
 62
   179
420
  2301728
370
    35
100
AcDbVertex
100
AcDb2dVertex
 10
-362.940083368314
 20
217.0752844984552
 30
0.0
  0
VERTEX
  5
89
330
86
100
AcDbEntity
  8
Layer 1
 62
   179
420
  2301728
370
    35
100
AcDbVertex
100
AcDb2dVertex
 10
-362.940083368314
 20
227.0752844959548
 30
0.0
  0
VERTEX
  5
8A
330
86
100
AcDbEntity
  8
Layer 1
 62
   179
420
  2301728
370
    35
100
AcDbVertex
100
AcDb2dVertex
 10
-312.9400833808138
 20
227.0752844959548
 30
0.0
  0
VERTEX
  5
8B
330
86
100
AcDbEntity
  8
Layer 1
 62
   179
420
  2301728
370
    35
100
AcDbVertex
100
AcDb2dVertex
 10
-312.9400833808138
 20
217.0752844984552
 30
0.0
  0
SEQEND
  5
8C
330
86
100
AcDbEntity
  8
Layer 1
 62
   179
420
  2301728
370
    35
  0
POLYLINE
  5
8D
330
1F
100
AcDbEntity
  8
Layer 1
 62
   179
420
  2301728
370
    35
100
AcDb2dPolyline
 66
     1
 10
0.0
 20
0.0
 30
0.0
  0
VERTEX
  5
8E
330
8D
100
AcDbEntity
  8
Layer 1
 62
   179
420
  2301728
370
    35
100
AcDbVertex
100
AcDb2dVertex
 10
-163.2335839774452
 20
216.0169511653864
 30
0.0
  0
VERTEX
  5
8F
330
8D
100
AcDbEntity
  8
Layer 1
 62
   179
420
  2301728
370
    35
100
AcDbVertex
100
AcDb2dVertex
 10
-213.2335839649454
 20
216.0169511653864
 30
0.0
  0
VERTEX
  5
90
330
8D
100
AcDbEntity
  8
Layer 1
 62
   179
420
  2301728
370
    35
100
AcDbVertex
100
AcDb2dVertex
 10
-213.2335839649454
 20
226.0169511628861
 30
0.0
  0
VERTEX
  5
91
330
8D
100
AcDbEntity
  8
Layer 1
 62
   179
420
  2301728
370
    35
100
AcDbVertex
100
AcDb2dVertex
 10
-163.2335839774452
 20
226.0169511628861
 30
0.0
  0
VERTEX
  5
92
330
8D
100
AcDbEntity
  8
Layer 1
 62
   179
420
  2301728
370
    35
100
AcDbVertex
100
AcDb2dVertex
 10
-163.2335839774452
 20
216.0169511653864
 30
0.0
  0
SEQEND
  5
93
330
8D
100
AcDbEntity
  8
Layer 1
 62
   179
420
  2301728
370
    35
  0
SPLINE
  5
94
330
1F
100
AcDbEntity
  8
Layer 1
 62
   179
420
  2301728
370
    35
100
AcDbSpline
210
0.0
220
0.0
230
1.0
 70
    11
 71
     3
 72
   101
 73
    97
 74
     0
 42
0.0000000001
 43
0.0000000001
 12
1.0
 22
0.0
 32
0.0
 13
1.0
 23
0.0
 33
0.0
 40
0.0
 40
0.0
 40
0.0
 40
0.0
 40
1.0
 40
1.0
 40
1.0
 40
2.0
 40
2.0
 40
2.0
 40
3.0
 40
3.0
 40
3.0
 40
4.0
 40
4.0
 40
4.0
 40
5.0
 40
5.0
 40
5.0
 40
6.0
 40
6.0
 40
6.0
 40
7.0
 40
7.0
 40
7.0
 40
8.0
 40
8.0
 40
8.0
 40
9.0
 40
9.0
 40
9.0
 40
10.0
 40
10.0
 40
10.0
 40
11.0
 40
11.0
 40
11.0
 40
12.0
 40
12.0
 40
12.0
 40
13.0
 40
13.0
 40
13.0
 40
14.0
 40
14.0
 40
14.0
 40
15.0
 40
15.0
 40
15.0
 40
16.0
 40
16.0
 40
16.0
 40
17.0
 40
17.0
 40
17.0
 40
18.0
 40
18.0
 40
18.0
 40
19.0
 40
19.0
 40
19.0
 40
20.0
 40
20.0
 40
20.0
 40
21.0
 40
21.0
 40
21.0
 40
22.0
 40
22.0
 40
22.0
 40
23.0
 40
23.0
 40
23.0
 40
24.0
 40
24.0
 40
24.0
 40
25.0
 40
25.0
 40
25.0
 40
26.0
 40
26.0
 40
26.0
 40
27.0
 40
27.0
 40
27.0
 40
28.0
 40
28.0
 40
28.0
 40
29.0
 40
29.0
 40
29.0
 40
30.0
 40
30.0
 40
30.0
 40
31.0
 40
31.0
 40
31.0
 40
32.0
 40
32.0
 40
32.0
 40
32.0
 10
-461.3225614789554
 20
-284.390835811207
 30
0.0
 10
-461.3225614789554
 20
-284.390835811207
 30
0.0
 10
-434.0119577933527
 20
-323.4179896939834
 30
0.0
 10
-434.0119577933527
 20
-323.4179896939834
 30
0.0
 10
-434.0119577933527
 20
-323.4179896939834
 30
0.0
 10
-406.7015156955685
 20
-362.445951776428
 30
0.0
 10
-406.7015156955685
 20
-362.445951776428
 30
0.0
 10
-403.7008298917798
 20
-366.735552346915
 30
0.0
 10
-399.7464527786784
 20
-370.1577930311551
 30
0.0
 10
-395.2349208647407
 20
-372.5073911128721
 30
0.0
 10
-390.7233889508069
 20
-374.8569891945859
 30
0.0
 10
-385.6524299528413
 20
-376.1349145133861
 30
0.0
 10
-380.4181257770498
 20
-376.1349145133861
 30
0.0
 10
-380.4181257770498
 20
-376.1349145133861
 30
0.0
 10
-267.123573290878
 20
-376.1349145133861
 30
0.0
 10
-267.123573290878
 20
-376.1349145133861
 30
0.0
 10
-267.123573290878
 20
-376.1349145133861
 30
0.0
 10
-153.8275665143348
 20
-376.1349145133861
 30
0.0
 10
-153.8275665143348
 20
-376.1349145133861
 30
0.0
 10
-148.5932522848167
 20
-376.1349145133861
 30
0.0
 10
-143.5231112796744
 20
-374.8569891945859
 30
0.0
 10
-139.0115793657374
 20
-372.5073911128721
 30
0.0
 10
-134.5000474518016
 20
-370.1577930311551
 30
0.0
 10
-130.5464782777944
 20
-366.735552346915
 30
0.0
 10
-127.544338183632
 20
-362.445951776428
 30
0.0
 10
-127.544338183632
 20
-362.445951776428
 30
0.0
 10
-100.2337344980287
 20
-323.4179896939834
 30
0.0
 10
-100.2337344980287
 20
-323.4179896939834
 30
0.0
 10
-100.2337344980287
 20
-323.4179896939834
 30
0.0
 10
-72.92313081242663
 20
-284.390835811207
 30
0.0
 10
-72.92313081242663
 20
-284.390835811207
 30
0.0
 10
-71.03594667120713
 20
-281.6930653114928
 30
0.0
 10
-69.58731187147826
 20
-278.7389338763371
 30
0.0
 10
-68.60889762581556
 20
-275.6348005823572
 30
0.0
 10
-67.63048338015413
 20
-272.5306672883785
 30
0.0
 10
-67.12243317590871
 20
-269.2787950946537
 30
0.0
 10
-67.12243317590871
 20
-265.9868361972792
 30
0.0
 10
-67.12243317590871
 20
-265.9868361972792
 30
0.0
 10
-67.12243317590871
 20
-226.1348337309174
 30
0.0
 10
-67.12243317590871
 20
-226.1348337309174
 30
0.0
 10
-67.12243317590871
 20
-226.1348337309174
 30
0.0
 10
-67.12243317590871
 20
-186.2828312645583
 30
0.0
 10
-67.12243317590871
 20
-186.2828312645583
 30
0.0
 10
-67.12243317590871
 20
-182.9908723671825
 30
0.0
 10
-67.63048338015413
 20
-179.7383536137226
 30
0.0
 10
-68.60889762581556
 20
-176.6342203197433
 30
0.0
 10
-69.58731187147826
 20
-173.530087025764
 30
0.0
 10
-71.03594667120713
 20
-170.5766021503434
 30
0.0
 10
-72.92313081242663
 20
-167.8789932905636
 30
0.0
 10
-72.92313081242663
 20
-167.8789932905636
 30
0.0
 10
-100.2337344980287
 20
-128.8510312081177
 30
0.0
 10
-100.2337344980287
 20
-128.8510312081177
 30
0.0
 10
-100.2337344980287
 20
-128.8510312081177
 30
0.0
 10
-127.544338183632
 20
-89.82306912567238
 30
0.0
 10
-127.544338183632
 20
-89.82306912567238
 30
0.0
 10
-130.5464782777944
 20
-85.53346855518579
 30
0.0
 10
-134.5000474518016
 20
-82.11203607061643
 30
0.0
 10
-139.0115793657374
 20
-79.762276348966
 30
0.0
 10
-143.5231112796744
 20
-77.41187006757917
 30
0.0
 10
-148.5932522848167
 20
-76.13491458838571
 30
0.0
 10
-153.8275665143348
 20
-76.13491458838571
 30
0.0
 10
-153.8275665143348
 20
-76.13491458838571
 30
0.0
 10
-267.123573290878
 20
-76.13491458838571
 30
0.0
 10
-267.123573290878
 20
-76.13491458838571
 30
0.0
 10
-267.123573290878
 20
-76.13491458838571
 30
0.0
 10
-380.4181257770498
 20
-76.13491458838571
 30
0.0
 10
-380.4181257770498
 20
-76.13491458838571
 30
0.0
 10
-385.6524299528413
 20
-76.13491458838571
 30
0.0
 10
-390.7233889508069
 20
-77.41187006757917
 30
0.0
 10
-395.2349208647407
 20
-79.762276348966
 30
0.0
 10
-399.7464527786784
 20
-82.11203607061643
 30
0.0
 10
-403.7008298917798
 20
-85.53346855518579
 30
0.0
 10
-406.7015156955685
 20
-89.82306912567238
 30
0.0
 10
-406.7015156955685
 20
-89.82306912567238
 30
0.0
 10
-434.0119577933527
 20
-128.8510312081177
 30
0.0
 10
-434.0119577933527
 20
-128.8510312081177
 30
0.0
 10
-434.0119577933527
 20
-128.8510312081177
 30
0.0
 10
-461.3225614789554
 20
-167.8789932905636
 30
0.0
 10
-461.3225614789554
 20
-167.8789932905636
 30
0.0
 10
-463.2099072079969
 20
-170.5766021503434
 30
0.0
 10
-464.6607961793865
 20
-173.530087025764
 30
0.0
 10
-465.6376026046635
 20
-176.6342203197433
 30
0.0
 10
-466.6160088419129
 20
-179.7383536137226
 30
0.0
 10
-467.1224330759089
 20
-182.9908723671825
 30
0.0
 10
-467.1224330759089
 20
-186.2828312645583
 30
0.0
 10
-467.1224330759089
 20
-186.2828312645583
 30
0.0
 10
-467.1224330759089
 20
-226.1348337309174
 30
0.0
 10
-467.1224330759089
 20
-226.1348337309174
 30
0.0
 10
-467.1224330759089
 20
-226.1348337309174
 30
0.0
 10
-467.1224330759089
 20
-265.9868361972792
 30
0.0
 10
-467.1224330759089
 20
-265.9868361972792
 30
0.0
 10
-467.1224330759089
 20
-269.2787950946537
 30
0.0
 10
-466.6160088419129
 20
-272.5306672883785
 30
0.0
 10
-465.6376026046635
 20
-275.6348005823572
 30
0.0
 10
-464.6607961793865
 20
-278.7389338763371
 30
0.0
 10
-463.2099072079969
 20
-281.6930653114928
 30
0.0
 10
-461.3225614789554
 20
-284.390835811207
 30
0.0
  0
INSERT
  5
96
330
1F
100
AcDbEntity
  8
Layer 1
100
AcDbBlockReference
  2
block 3
 10
0.0
 20
0.0
 30
0.0
  0
POLYLINE
  5
9D
330
1F
100
AcDbEntity
  8
Layer 1
 62
   179
420
  2301728
370
    35
100
AcDb2dPolyline
 66
     1
 10
0.0
 20
0.0
 30
0.0
  0
VERTEX
  5
9E
330
9D
100
AcDbEntity
  8
Layer 1
 62
   179
420
  2301728
370
    35
100
AcDbVertex
100
AcDb2dVertex
 10
-312.9400833808138
 20
-356.0138887998868
 30
0.0
  0
VERTEX
  5
9F
330
9D
100
AcDbEntity
  8
Layer 1
 62
   179
420
  2301728
370
    35
100
AcDbVertex
100
AcDb2dVertex
 10
-362.940083368314
 20
-356.0138887998868
 30
0.0
  0
VERTEX
  5
A0
330
9D
100
AcDbEntity
  8
Layer 1
 62
   179
420
  2301728
370
    35
100
AcDbVertex
100
AcDb2dVertex
 10
-362.940083368314
 20
-346.0138888023859
 30
0.0
  0
VERTEX
  5
A1
330
9D
100
AcDbEntity
  8
Layer 1
 62
   179
420
  2301728
370
    35
100
AcDbVertex
100
AcDb2dVertex
 10
-312.9400833808138
 20
-346.0138888023859
 30
0.0
  0
VERTEX
  5
A2
330
9D
100
AcDbEntity
  8
Layer 1
 62
   179
420
  2301728
370
    35
100
AcDbVertex
100
AcDb2dVertex
 10
-312.9400833808138
 20
-356.0138887998868
 30
0.0
  0
SEQEND
  5
A3
330
9D
100
AcDbEntity
  8
Layer 1
 62
   179
420
  2301728
370
    35
  0
POLYLINE
  5
A4
330
1F
100
AcDbEntity
  8
Layer 1
 62
   179
420
  2301728
370
    35
100
AcDb2dPolyline
 66
     1
 10
0.0
 20
0.0
 30
0.0
  0
VERTEX
  5
A5
330
A4
100
AcDbEntity
  8
Layer 1
 62
   179
420
  2301728
370
    35
100
AcDbVertex
100
AcDb2dVertex
 10
-163.2335839774452
 20
-356.0138887998868
 30
0.0
  0
VERTEX
  5
A6
330
A4
100
AcDbEntity
  8
Layer 1
 62
   179
420
  2301728
370
    35
100
AcDbVertex
100
AcDb2dVertex
 10
-213.2335839649454
 20
-356.0138887998868
 30
0.0
  0
VERTEX
  5
A7
330
A4
100
AcDbEntity
  8
Layer 1
 62
   179
420
  2301728
370
    35
100
AcDbVertex
100
AcDb2dVertex
 10
-213.2335839649454
 20
-346.0138888023859
 30
0.0
  0
VERTEX
  5
A8
330
A4
100
AcDbEntity
  8
Layer 1
 62
   179
420
  2301728
370
    35
100
AcDbVertex
100
AcDb2dVertex
 10
-163.2335839774452
 20
-346.0138888023859
 30
0.0
  0
VERTEX
  5
A9
330
A4
100
AcDbEntity
  8
Layer 1
 62
   179
420
  2301728
370
    35
100
AcDbVertex
100
AcDb2dVertex
 10
-163.2335839774452
 20
-356.0138887998868
 30
0.0
  0
SEQEND
  5
AA
330
A4
100
AcDbEntity
  8
Layer 1
 62
   179
420
  2301728
370
    35
  0
POLYLINE
  5
AB
330
1F
100
AcDbEntity
  8
Layer 1
 62
   179
420
  2301728
370
    35
100
AcDb2dPolyline
 66
     1
 10
0.0
 20
0.0
 30
0.0
  0
VERTEX
  5
AC
330
AB
100
AcDbEntity
  8
Layer 1
 62
   179
420
  2301728
370
    35
100
AcDbVertex
100
AcDb2dVertex
 10
-312.9400833808138
 20
-107.6583333064189
 30
0.0
  0
VERTEX
  5
AD
330
AB
100
AcDbEntity
  8
Layer 1
 62
   179
420
  2301728
370
    35
100
AcDbVertex
100
AcDb2dVertex
 10
-362.940083368314
 20
-107.6583333064189
 30
0.0
  0
VERTEX
  5
AE
330
AB
100
AcDbEntity
  8
Layer 1
 62
   179
420
  2301728
370
    35
100
AcDbVertex
100
AcDb2dVertex
 10
-362.940083368314
 20
-97.65833330891893
 30
0.0
  0
VERTEX
  5
AF
330
AB
100
AcDbEntity
  8
Layer 1
 62
   179
420
  2301728
370
    35
100
AcDbVertex
100
AcDb2dVertex
 10
-312.9400833808138
 20
-97.65833330891893
 30
0.0
  0
VERTEX
  5
B0
330
AB
100
AcDbEntity
  8
Layer 1
 62
   179
420
  2301728
370
    35
100
AcDbVertex
100
AcDb2dVertex
 10
-312.9400833808138
 20
-107.6583333064189
 30
0.0
  0
SEQEND
  5
B1
330
AB
100
AcDbEntity
  8
Layer 1
 62
   179
420
  2301728
370
    35
  0
POLYLINE
  5
B2
330
1F
100
AcDbEntity
  8
Layer 1
 62
   179
420
  2301728
370
    35
100
AcDb2dPolyline
 66
     1
 10
0.0
 20
0.0
 30
0.0
  0
VERTEX
  5
B3
330
B2
100
AcDbEntity
  8
Layer 1
 62
   179
420
  2301728
370
    35
100
AcDbVertex
100
AcDb2dVertex
 10
-163.2335839774452
 20
-108.7166666394877
 30
0.0
  0
VERTEX
  5
B4
330
B2
100
AcDbEntity
  8
Layer 1
 62
   179
420
  2301728
370
    35
100
AcDbVertex
100
AcDb2dVertex
 10
-213.2335839649454
 20
-108.7166666394877
 30
0.0
  0
VERTEX
  5
B5
330
B2
100
AcDbEntity
  8
Layer 1
 62
   179
420
  2301728
370
    35
100
AcDbVertex
100
AcDb2dVertex
 10
-213.2335839649454
 20
-98.716666641988
 30
0.0
  0
VERTEX
  5
B6
330
B2
100
AcDbEntity
  8
Layer 1
 62
   179
420
  2301728
370
    35
100
AcDbVertex
100
AcDb2dVertex
 10
-163.2335839774452
 20
-98.716666641988
 30
0.0
  0
VERTEX
  5
B7
330
B2
100
AcDbEntity
  8
Layer 1
 62
   179
420
  2301728
370
    35
100
AcDbVertex
100
AcDb2dVertex
 10
-163.2335839774452
 20
-108.7166666394877
 30
0.0
  0
SEQEND
  5
B8
330
B2
100
AcDbEntity
  8
Layer 1
 62
   179
420
  2301728
370
    35
  0
POLYLINE
  5
B9
330
1F
100
AcDbEntity
  8
Layer 1
 62
   179
420
  2301728
370
    35
100
AcDb2dPolyline
 66
     1
 10
0.0
 20
0.0
 30
0.0
  0
VERTEX
  5
BA
330
B9
100
AcDbEntity
  8
Layer 1
 62
   179
420
  2301728
370
    35
100
AcDbVertex
100
AcDb2dVertex
 10
-56.70583387681198
 20
-224.1889573889364
 30
0.0
  0
VERTEX
  5
BB
330
B9
100
AcDbEntity
  8
Layer 1
 62
   179
420
  2301728
370
    35
100
AcDbVertex
100
AcDb2dVertex
 10
-56.7058338768123
 20
-249.1095309775405
 30
0.0
  0
SEQEND
  5
BC
330
B9
100
AcDbEntity
  8
Layer 1
 62
   179
420
  2301728
370
    35
  0
INSERT
  5
BE
330
1F
100
AcDbEntity
  8
Layer 1
100
AcDbBlockReference
  2
block 4
 10
0.0
 20
0.0
 30
0.0
  0
INSERT
  5
C6
330
1F
100
AcDbEntity
  8
Layer 1
100
AcDbBlockReference
  2
block 5
 10
0.0
 20
0.0
 30
0.0
  0
POLYLINE
  5
CD
330
1F
100
AcDbEntity
  8
Layer 1
 62
   179
420
  2301728
370
    35
100
AcDb2dPolyline
 66
     1
 10
0.0
 20
0.0
 30
0.0
  0
VERTEX
  5
CE
330
CD
100
AcDbEntity
  8
Layer 1
 62
   179
420
  2301728
370
    35
100
AcDbVertex
100
AcDb2dVertex
 10
55.74679549894871
 20
-267.0767666202975
 30
0.0
  0
VERTEX
  5
CF
330
CD
100
AcDbEntity
  8
Layer 1
 62
   179
420
  2301728
370
    35
100
AcDbVertex
100
AcDb2dVertex
 10
-44.25320447605134
 20
-267.0767666202975
 30
0.0
  0
VERTEX
  5
D0
330
CD
100
AcDbEntity
  8
Layer 1
 62
   179
420
  2301728
370
    35
100
AcDbVertex
100
AcDb2dVertex
 10
-44.25320447605134
 20
-257.0767666227978
 30
0.0
  0
VERTEX
  5
D1
330
CD
100
AcDbEntity
  8
Layer 1
 62
   179
420
  2301728
370
    35
100
AcDbVertex
100
AcDb2dVertex
 10
55.74679549894871
 20
-257.0767666227978
 30
0.0
  0
VERTEX
  5
D2
330
CD
100
AcDbEntity
  8
Layer 1
 62
   179
420
  2301728
370
    35
100
AcDbVertex
100
AcDb2dVertex
 10
55.74679549894871
 20
-267.0767666202975
 30
0.0
  0
SEQEND
  5
D3
330
CD
100
AcDbEntity
  8
Layer 1
 62
   179
420
  2301728
370
    35
  0
POLYLINE
  5
D4
330
1F
100
AcDbEntity
  8
Layer 1
 62
   179
420
  2301728
370
    35
100
AcDb2dPolyline
 66
     1
 10
0.0
 20
0.0
 30
0.0
  0
VERTEX
  5
D5
330
D4
100
AcDbEntity
  8
Layer 1
 62
   179
420
  2301728
370
    35
100
AcDbVertex
100
AcDb2dVertex
 10
55.74679549894871
 20
-490.4535910698393
 30
0.0
  0
VERTEX
  5
D6
330
D4
100
AcDbEntity
  8
Layer 1
 62
   179
420
  2301728
370
    35
100
AcDbVertex
100
AcDb2dVertex
 10
-44.25320447605134
 20
-490.4535910698393
 30
0.0
  0
VERTEX
  5
D7
330
D4
100
AcDbEntity
  8
Layer 1
 62
   179
420
  2301728
370
    35
100
AcDbVertex
100
AcDb2dVertex
 10
-44.25320447605134
 20
-480.4535910723403
 30
0.0
  0
VERTEX
  5
D8
330
D4
100
AcDbEntity
  8
Layer 1
 62
   179
420
  2301728
370
    35
100
AcDbVertex
100
AcDb2dVertex
 10
55.74679549894871
 20
-480.4535910723403
 30
0.0
  0
VERTEX
  5
D9
330
D4
100
AcDbEntity
  8
Layer 1
 62
   179
420
  2301728
370
    35
100
AcDbVertex
100
AcDb2dVertex
 10
55.74679549894871
 20
-490.4535910698393
 30
0.0
  0
SEQEND
  5
DA
330
D4
100
AcDbEntity
  8
Layer 1
 62
   179
420
  2301728
370
    35
  0
POLYLINE
  5
DB
330
1F
100
AcDbEntity
  8
Layer 1
 62
   179
420
  2301728
370
    35
100
AcDb2dPolyline
 66
     1
 10
0.0
 20
0.0
 30
0.0
  0
VERTEX
  5
DC
330
DB
100
AcDbEntity
  8
Layer 1
 62
   179
420
  2301728
370
    35
100
AcDbVertex
100
AcDb2dVertex
 10
222.9819848094093
 20
-267.0767666202975
 30
0.0
  0
VERTEX
  5
DD
330
DB
100
AcDbEntity
  8
Layer 1
 62
   179
420
  2301728
370
    35
100
AcDbVertex
100
AcDb2dVertex
 10
122.9819848344089
 20
-267.0767666202975
 30
0.0
  0
VERTEX
  5
DE
330
DB
100
AcDbEntity
  8
Layer 1
 62
   179
420
  2301728
370
    35
100
AcDbVertex
100
AcDb2dVertex
 10
122.9819848344089
 20
-257.0767666227978
 30
0.0
  0
VERTEX
  5
DF
330
DB
100
AcDbEntity
  8
Layer 1
 62
   179
420
  2301728
370
    35
100
AcDbVertex
100
AcDb2dVertex
 10
222.9819848094093
 20
-257.0767666227978
 30
0.0
  0
VERTEX
  5
E0
330
DB
100
AcDbEntity
  8
Layer 1
 62
   179
420
  2301728
370
    35
100
AcDbVertex
100
AcDb2dVertex
 10
222.9819848094093
 20
-267.0767666202975
 30
0.0
  0
SEQEND
  5
E1
330
DB
100
AcDbEntity
  8
Layer 1
 62
   179
420
  2301728
370
    35
  0
POLYLINE
  5
E2
330
1F
100
AcDbEntity
  8
Layer 1
 62
   179
420
  2301728
370
    35
100
AcDb2dPolyline
 66
     1
 10
0.0
 20
0.0
 30
0.0
  0
VERTEX
  5
E3
330
E2
100
AcDbEntity
  8
Layer 1
 62
   179
420
  2301728
370
    35
100
AcDbVertex
100
AcDb2dVertex
 10
222.9819848094093
 20
-490.4535910698393
 30
0.0
  0
VERTEX
  5
E4
330
E2
100
AcDbEntity
  8
Layer 1
 62
   179
420
  2301728
370
    35
100
AcDbVertex
100
AcDb2dVertex
 10
122.9819848344089
 20
-490.4535910698393
 30
0.0
  0
VERTEX
  5
E5
330
E2
100
AcDbEntity
  8
Layer 1
 62
   179
420
  2301728
370
    35
100
AcDbVertex
100
AcDb2dVertex
 10
122.9819848344089
 20
-480.4535910723403
 30
0.0
  0
VERTEX
  5
E6
330
E2
100
AcDbEntity
  8
Layer 1
 62
   179
420
  2301728
370
    35
100
AcDbVertex
100
AcDb2dVertex
 10
222.9819848094093
 20
-480.4535910723403
 30
0.0
  0
VERTEX
  5
E7
330
E2
100
AcDbEntity
  8
Layer 1
 62
   179
420
  2301728
370
    35
100
AcDbVertex
100
AcDb2dVertex
 10
222.9819848094093
 20
-490.4535910698393
 30
0.0
  0
SEQEND
  5
E8
330
E2
100
AcDbEntity
  8
Layer 1
 62
   179
420
  2301728
370
    35
  0
POLYLINE
  5
E9
330
1F
100
AcDbEntity
  8
Layer 1
 62
   179
420
  2301728
370
    35
100
AcDb2dPolyline
 66
     1
 10
0.0
 20
0.0
 30
0.0
  0
VERTEX
  5
EA
330
E9
100
AcDbEntity
  8
Layer 1
 62
   179
420
  2301728
370
    35
100
AcDbVertex
100
AcDb2dVertex
 10
56.45235105432787
 20
156.6093443848921
 30
0.0
  0
VERTEX
  5
EB
330
E9
100
AcDbEntity
  8
Layer 1
 62
   179
420
  2301728
370
    35
100
AcDbVertex
100
AcDb2dVertex
 10
-43.54764892067217
 20
156.6093443848921
 30
0.0
  0
VERTEX
  5
EC
330
E9
100
AcDbEntity
  8
Layer 1
 62
   179
420
  2301728
370
    35
100
AcDbVertex
100
AcDb2dVertex
 10
-43.54764892067217
 20
166.6093443823918
 30
0.0
  0
VERTEX
  5
ED
330
E9
100
AcDbEntity
  8
Layer 1
 62
   179
420
  2301728
370
    35
100
AcDbVertex
100
AcDb2dVertex
 10
56.45235105432787
 20
166.6093443823918
 30
0.0
  0
VERTEX
  5
EE
330
E9
100
AcDbEntity
  8
Layer 1
 62
   179
420
  2301728
370
    35
100
AcDbVertex
100
AcDb2dVertex
 10
56.45235105432787
 20
156.6093443848921
 30
0.0
  0
SEQEND
  5
EF
330
E9
100
AcDbEntity
  8
Layer 1
 62
   179
420
  2301728
370
    35
  0
POLYLINE
  5
F0
330
1F
100
AcDbEntity
  8
Layer 1
 62
   179
420
  2301728
370
    35
100
AcDb2dPolyline
 66
     1
 10
0.0
 20
0.0
 30
0.0
  0
VERTEX
  5
F1
330
F0
100
AcDbEntity
  8
Layer 1
 62
   179
420
  2301728
370
    35
100
AcDbVertex
100
AcDb2dVertex
 10
56.45235105432787
 20
66.60934440739203
 30
0.0
  0
VERTEX
  5
F2
330
F0
100
AcDbEntity
  8
Layer 1
 62
   179
420
  2301728
370
    35
100
AcDbVertex
100
AcDb2dVertex
 10
-43.54764892067217
 20
66.60934440739203
 30
0.0
  0
VERTEX
  5
F3
330
F0
100
AcDbEntity
  8
Layer 1
 62
   179
420
  2301728
370
    35
100
AcDbVertex
100
AcDb2dVertex
 10
-43.54764892067217
 20
76.609344404892
 30
0.0
  0
VERTEX
  5
F4
330
F0
100
AcDbEntity
  8
Layer 1
 62
   179
420
  2301728
370
    35
100
AcDbVertex
100
AcDb2dVertex
 10
56.45235105432787
 20
76.609344404892
 30
0.0
  0
VERTEX
  5
F5
330
F0
100
AcDbEntity
  8
Layer 1
 62
   179
420
  2301728
370
    35
100
AcDbVertex
100
AcDb2dVertex
 10
56.45235105432787
 20
66.60934440739203
 30
0.0
  0
SEQEND
  5
F6
330
F0
100
AcDbEntity
  8
Layer 1
 62
   179
420
  2301728
370
    35
  0
POLYLINE
  5
F7
330
1F
100
AcDbEntity
  8
Layer 1
 62
   179
420
  2301728
370
    35
100
AcDb2dPolyline
 66
     1
 10
0.0
 20
0.0
 30
0.0
  0
VERTEX
  5
F8
330
F7
100
AcDbEntity
  8
Layer 1
 62
   179
420
  2301728
370
    35
100
AcDbVertex
100
AcDb2dVertex
 10
219.788462124605
 20
156.6093443848921
 30
0.0
  0
VERTEX
  5
F9
330
F7
100
AcDbEntity
  8
Layer 1
 62
   179
420
  2301728
370
    35
100
AcDbVertex
100
AcDb2dVertex
 10
119.7884621496046
 20
156.6093443848921
 30
0.0
  0
VERTEX
  5
FA
330
F7
100
AcDbEntity
  8
Layer 1
 62
   179
420
  2301728
370
    35
100
AcDbVertex
100
AcDb2dVertex
 10
119.7884621496046
 20
166.6093443823918
 30
0.0
  0
VERTEX
  5
FB
330
F7
100
AcDbEntity
  8
Layer 1
 62
   179
420
  2301728
370
    35
100
AcDbVertex
100
AcDb2dVertex
 10
219.788462124605
 20
166.6093443823918
 30
0.0
  0
VERTEX
  5
FC
330
F7
100
AcDbEntity
  8
Layer 1
 62
   179
420
  2301728
370
    35
100
AcDbVertex
100
AcDb2dVertex
 10
219.788462124605
 20
156.6093443848921
 30
0.0
  0
SEQEND
  5
FD
330
F7
100
AcDbEntity
  8
Layer 1
 62
   179
420
  2301728
370
    35
  0
POLYLINE
  5
FE
330
1F
100
AcDbEntity
  8
Layer 1
 62
   179
420
  2301728
370
    35
100
AcDb2dPolyline
 66
     1
 10
0.0
 20
0.0
 30
0.0
  0
VERTEX
  5
FF
330
FE
100
AcDbEntity
  8
Layer 1
 62
   179
420
  2301728
370
    35
100
AcDbVertex
100
AcDb2dVertex
 10
219.788462124605
 20
66.60934440739203
 30
0.0
  0
VERTEX
  5
100
330
FE
100
AcDbEntity
  8
Layer 1
 62
   179
420
  2301728
370
    35
100
AcDbVertex
100
AcDb2dVertex
 10
119.7884621496046
 20
66.60934440739203
 30
0.0
  0
VERTEX
  5
101
330
FE
100
AcDbEntity
  8
Layer 1
 62
   179
420
  2301728
370
    35
100
AcDbVertex
100
AcDb2dVertex
 10
119.7884621496046
 20
76.609344404892
 30
0.0
  0
VERTEX
  5
102
330
FE
100
AcDbEntity
  8
Layer 1
 62
   179
420
  2301728
370
    35
100
AcDbVertex
100
AcDb2dVertex
 10
219.788462124605
 20
76.609344404892
 30
0.0
  0
VERTEX
  5
103
330
FE
100
AcDbEntity
  8
Layer 1
 62
   179
420
  2301728
370
    35
100
AcDbVertex
100
AcDb2dVertex
 10
219.788462124605
 20
66.60934440739203
 30
0.0
  0
SEQEND
  5
104
330
FE
100
AcDbEntity
  8
Layer 1
 62
   179
420
  2301728
370
    35
  0
SPLINE
  5
106
330
1F
100
AcDbEntity
  8
Layer 2
 62
   179
420
  2301728
370
    35
100
AcDbSpline
210
0.0
220
0.0
230
1.0
 70
    11
 71
     3
 72
    41
 73
    37
 74
     0
 42
0.0000000001
 43
0.0000000001
 12
1.0
 22
0.0
 32
0.0
 13
1.0
 23
0.0
 33
0.0
 40
0.0
 40
0.0
 40
0.0
 40
0.0
 40
1.0
 40
1.0
 40
1.0
 40
2.0
 40
2.0
 40
2.0
 40
3.0
 40
3.0
 40
3.0
 40
4.0
 40
4.0
 40
4.0
 40
5.0
 40
5.0
 40
5.0
 40
6.0
 40
6.0
 40
6.0
 40
7.0
 40
7.0
 40
7.0
 40
8.0
 40
8.0
 40
8.0
 40
9.0
 40
9.0
 40
9.0
 40
10.0
 40
10.0
 40
10.0
 40
11.0
 40
11.0
 40
11.0
 40
12.0
 40
12.0
 40
12.0
 40
12.0
 10
-45.57335949924034
 20
184.0356658475458
 30
0.0
 10
-45.57335949924034
 20
184.0356658475458
 30
0.0
 10
-116.1203453621375
 20
231.0670112879906
 30
0.0
 10
-116.1203453621375
 20
231.0670112879906
 30
0.0
 10
-116.1203453621375
 20
231.0670112879906
 30
0.0
 10
-366.120331058101
 20
231.0670112879906
 30
0.0
 10
-366.120331058101
 20
231.0670112879906
 30
0.0
 10
-366.120331058101
 20
231.0670112879906
 30
0.0
 10
-436.6673169209981
 20
184.0356658475458
 30
0.0
 10
-436.6673169209981
 20
184.0356658475458
 30
0.0
 10
-439.4493176527245
 20
182.1810202249083
 30
0.0
 10
-441.1203612178449
 20
179.0587086547796
 30
0.0
 10
-441.1203612178449
 20
175.7151573589575
 30
0.0
 10
-441.1203612178449
 20
175.7151573589575
 30
0.0
 10
-441.1203612178449
 20
86.41886374114486
 30
0.0
 10
-441.1203612178449
 20
86.41886374114486
 30
0.0
 10
-441.1203612178449
 20
83.07533397716954
 30
0.0
 10
-439.4493176527245
 20
79.95302240704083
 30
0.0
 10
-436.6673169209981
 20
78.09835525255657
 30
0.0
 10
-436.6673169209981
 20
78.09835525255657
 30
0.0
 10
-366.120331058101
 20
31.06700981211172
 30
0.0
 10
-366.120331058101
 20
31.06700981211172
 30
0.0
 10
-366.120331058101
 20
31.06700981211172
 30
0.0
 10
-116.1203453621375
 20
31.06700981211172
 30
0.0
 10
-116.1203453621375
 20
31.06700981211172
 30
0.0
 10
-116.1203453621375
 20
31.06700981211172
 30
0.0
 10
-45.57335949924034
 20
78.09835525255657
 30
0.0
 10
-45.57335949924034
 20
78.09835525255657
 30
0.0
 10
-42.79135876751397
 20
79.95302240704083
 30
0.0
 10
-41.1203582660871
 20
83.07533397716954
 30
0.0
 10
-41.1203582660871
 20
86.41886374114486
 30
0.0
 10
-41.1203582660871
 20
86.41886374114486
 30
0.0
 10
-41.1203582660871
 20
175.7151788908043
 30
0.0
 10
-41.1203582660871
 20
175.7151788908043
 30
0.0
 10
-41.1203582660871
 20
179.0587086547796
 30
0.0
 10
-42.79135876751397
 20
182.1810202249083
 30
0.0
 10
-45.57335949924034
 20
184.0356658475458
 30
0.0
  0
POLYLINE
  5
107
330
1F
100
AcDbEntity
  8
Layer 2
 62
   179
420
  2301728
370
    35
100
AcDb2dPolyline
 66
     1
 10
0.0
 20
0.0
 30
0.0
  0
VERTEX
  5
108
330
107
100
AcDbEntity
  8
Layer 2
 62
   179
420
  2301728
370
    35
100
AcDbVertex
100
AcDb2dVertex
 10
-206.120342796506
 20
197.5583331144016
 30
0.0
  0
VERTEX
  5
109
330
107
100
AcDbEntity
  8
Layer 2
 62
   179
420
  2301728
370
    35
100
AcDbVertex
100
AcDb2dVertex
 10
-136.1203519692794
 20
197.5583331144016
 30
0.0
  0
VERTEX
  5
10A
330
107
100
AcDbEntity
  8
Layer 2
 62
   179
420
  2301728
370
    35
100
AcDbVertex
100
AcDb2dVertex
 10
-136.1203519692794
 20
191.5583332854438
 30
0.0
  0
VERTEX
  5
10B
330
107
100
AcDbEntity
  8
Layer 2
 62
   179
420
  2301728
370
    35
100
AcDbVertex
100
AcDb2dVertex
 10
-206.120342796506
 20
191.5583332854438
 30
0.0
  0
VERTEX
  5
10C
330
107
100
AcDbEntity
  8
Layer 2
 62
   179
420
  2301728
370
    35
100
AcDbVertex
100
AcDb2dVertex
 10
-206.120342796506
 20
197.5583331144016
 30
0.0
  0
SEQEND
  5
10D
330
107
100
AcDbEntity
  8
Layer 2
 62
   179
420
  2301728
370
    35
  0
POLYLINE
  5
10E
330
1F
100
AcDbEntity
  8
Layer 2
 62
   179
420
  2301728
370
    35
100
AcDb2dPolyline
 66
     1
 10
0.0
 20
0.0
 30
0.0
  0
VERTEX
  5
10F
330
10E
100
AcDbEntity
  8
Layer 2
 62
   179
420
  2301728
370
    35
100
AcDbVertex
100
AcDb2dVertex
 10
-346.1203459828059
 20
197.5583331144016
 30
0.0
  0
VERTEX
  5
110
330
10E
100
AcDbEntity
  8
Layer 2
 62
   179
420
  2301728
370
    35
100
AcDbVertex
100
AcDb2dVertex
 10
-276.1203551555793
 20
197.5583331144016
 30
0.0
  0
VERTEX
  5
111
330
10E
100
AcDbEntity
  8
Layer 2
 62
   179
420
  2301728
370
    35
100
AcDbVertex
100
AcDb2dVertex
 10
-276.1203551555793
 20
191.5583332854438
 30
0.0
  0
VERTEX
  5
112
330
10E
100
AcDbEntity
  8
Layer 2
 62
   179
420
  2301728
370
    35
100
AcDbVertex
100
AcDb2dVertex
 10
-346.1203459828059
 20
191.5583332854438
 30
0.0
  0
VERTEX
  5
113
330
10E
100
AcDbEntity
  8
Layer 2
 62
   179
420
  2301728
370
    35
100
AcDbVertex
100
AcDb2dVertex
 10
-346.1203459828059
 20
197.5583331144016
 30
0.0
  0
SEQEND
  5
114
330
10E
100
AcDbEntity
  8
Layer 2
 62
   179
420
  2301728
370
    35
  0
SPLINE
  5
115
330
1F
100
AcDbEntity
  8
Layer 2
 62
   179
420
  2301728
370
    35
100
AcDbSpline
210
0.0
220
0.0
230
1.0
 70
    11
 71
     3
 72
    17
 73
    13
 74
     0
 42
0.0000000001
 43
0.0000000001
 12
1.0
 22
0.0
 32
0.0
 13
1.0
 23
0.0
 33
0.0
 40
0.0
 40
0.0
 40
0.0
 40
0.0
 40
1.0
 40
1.0
 40
1.0
 40
2.0
 40
2.0
 40
2.0
 40
3.0
 40
3.0
 40
3.0
 40
4.0
 40
4.0
 40
4.0
 40
4.0
 10
-429.8703157833745
 20
130.9108938949524
 30
0.0
 10
-430.5607129186185
 20
130.9108938949524
 30
0.0
 10
-431.1203686801974
 20
131.4705496565312
 30
0.0
 10
-431.1203686801974
 20
132.1609037280817
 30
0.0
 10
-431.1203686801974
 20
132.8512577996322
 30
0.0
 10
-430.5607129186185
 20
133.4109135612111
 30
0.0
 10
-429.8703157833745
 20
133.4109135612111
 30
0.0
 10
-429.1800047755175
 20
133.4109135612111
 30
0.0
 10
-428.6203490139387
 20
132.8512577996322
 30
0.0
 10
-428.6203490139387
 20
132.1609037280817
 30
0.0
 10
-428.6203490139387
 20
131.4705496565312
 30
0.0
 10
-429.1800047755175
 20
130.9108938949524
 30
0.0
 10
-429.8703157833745
 20
130.9108938949524
 30
0.0
  0
SPLINE
  5
116
330
1F
100
AcDbEntity
  8
Layer 2
 62
   179
420
  2301728
370
    35
100
AcDbSpline
210
0.0
220
0.0
230
1.0
 70
    11
 71
     3
 72
    17
 73
    13
 74
     0
 42
0.0000000001
 43
0.0000000001
 12
1.0
 22
0.0
 32
0.0
 13
1.0
 23
0.0
 33
0.0
 40
0.0
 40
0.0
 40
0.0
 40
0.0
 40
1.0
 40
1.0
 40
1.0
 40
2.0
 40
2.0
 40
2.0
 40
3.0
 40
3.0
 40
3.0
 40
4.0
 40
4.0
 40
4.0
 40
4.0
 10
-416.3999924360476
 20
117.440527483932
 30
0.0
 10
-417.0903034439045
 20
117.440527483932
 30
0.0
 10
-417.6499592054834
 20
118.000161713664
 30
0.0
 10
-417.6499592054834
 20
118.6905157852145
 30
0.0
 10
-417.6499592054834
 20
119.380869856765
 30
0.0
 10
-417.0903034439045
 20
119.9405256183439
 30
0.0
 10
-416.3999924360476
 20
119.9405256183439
 30
0.0
 10
-415.7095953008035
 20
119.9405256183439
 30
0.0
 10
-415.1499395392247
 20
119.380869856765
 30
0.0
 10
-415.1499395392247
 20
118.6905157852145
 30
0.0
 10
-415.1499395392247
 20
118.000161713664
 30
0.0
 10
-415.7095953008035
 20
117.440527483932
 30
0.0
 10
-416.3999924360476
 20
117.440527483932
 30
0.0
  0
SPLINE
  5
117
330
1F
100
AcDbEntity
  8
Layer 2
 62
   179
420
  2301728
370
    35
100
AcDbSpline
210
0.0
220
0.0
230
1.0
 70
    11
 71
     3
 72
    17
 73
    13
 74
     0
 42
0.0000000001
 43
0.0000000001
 12
1.0
 22
0.0
 32
0.0
 13
1.0
 23
0.0
 33
0.0
 40
0.0
 40
0.0
 40
0.0
 40
0.0
 40
1.0
 40
1.0
 40
1.0
 40
2.0
 40
2.0
 40
2.0
 40
3.0
 40
3.0
 40
3.0
 40
4.0
 40
4.0
 40
4.0
 40
4.0
 10
-416.3999924360476
 20
144.3812818378196
 30
0.0
 10
-417.0903034439045
 20
144.3812818378196
 30
0.0
 10
-417.6499592054834
 20
144.9409375993985
 30
0.0
 10
-417.6499592054834
 20
145.631291670949
 30
0.0
 10
-417.6499592054834
 20
146.3216457424995
 30
0.0
 10
-417.0903034439045
 20
146.8812799722315
 30
0.0
 10
-416.3999924360476
 20
146.8812799722315
 30
0.0
 10
-415.7095953008035
 20
146.8812799722315
 30
0.0
 10
-415.1499395392247
 20
146.3216457424995
 30
0.0
 10
-415.1499395392247
 20
145.631291670949
 30
0.0
 10
-415.1499395392247
 20
144.9409375993985
 30
0.0
 10
-415.7095953008035
 20
144.3812818378196
 30
0.0
 10
-416.3999924360476
 20
144.3812818378196
 30
0.0
  0
SPLINE
  5
118
330
1F
100
AcDbEntity
  8
Layer 2
 62
   179
420
  2301728
370
    35
100
AcDbSpline
210
0.0
220
0.0
230
1.0
 70
    11
 71
     3
 72
    17
 73
    13
 74
     0
 42
0.0000000001
 43
0.0000000001
 12
1.0
 22
0.0
 32
0.0
 13
1.0
 23
0.0
 33
0.0
 40
0.0
 40
0.0
 40
0.0
 40
0.0
 40
1.0
 40
1.0
 40
1.0
 40
2.0
 40
2.0
 40
2.0
 40
3.0
 40
3.0
 40
3.0
 40
4.0
 40
4.0
 40
4.0
 40
4.0
 10
-402.9295829613336
 20
130.9108938949524
 30
0.0
 10
-403.6199370328841
 20
130.9108938949524
 30
0.0
 10
-404.1795497307694
 20
131.4705496565312
 30
0.0
 10
-404.1795497307694
 20
132.1609037280817
 30
0.0
 10
-404.1795497307694
 20
132.8512577996322
 30
0.0
 10
-403.6199370328841
 20
133.4109135612111
 30
0.0
 10
-402.9295829613336
 20
133.4109135612111
 30
0.0
 10
-402.2392288897831
 20
133.4109135612111
 30
0.0
 10
-401.6795731282043
 20
132.8512577996322
 30
0.0
 10
-401.6795731282043
 20
132.1609037280817
 30
0.0
 10
-401.6795731282043
 20
131.4705496565312
 30
0.0
 10
-402.2392288897831
 20
130.9108938949524
 30
0.0
 10
-402.9295829613336
 20
130.9108938949524
 30
0.0
  0
POLYLINE
  5
119
330
1F
100
AcDbEntity
  8
Layer 2
 62
   179
420
  2301728
370
    35
100
AcDb2dPolyline
 66
     1
 10
0.0
 20
0.0
 30
0.0
  0
VERTEX
  5
11A
330
119
100
AcDbEntity
  8
Layer 2
 62
   179
420
  2301728
370
    35
100
AcDbVertex
100
AcDb2dVertex
 10
-276.1203551555793
 20
38.06701320120374
 30
0.0
  0
VERTEX
  5
11B
330
119
100
AcDbEntity
  8
Layer 2
 62
   179
420
  2301728
370
    35
100
AcDbVertex
100
AcDb2dVertex
 10
-346.1203675146526
 20
38.06701320120374
 30
0.0
  0
VERTEX
  5
11C
330
119
100
AcDbEntity
  8
Layer 2
 62
   179
420
  2301728
370
    35
100
AcDbVertex
100
AcDb2dVertex
 10
-346.1203675146526
 20
44.06701303016163
 30
0.0
  0
VERTEX
  5
11D
330
119
100
AcDbEntity
  8
Layer 2
 62
   179
420
  2301728
370
    35
100
AcDbVertex
100
AcDb2dVertex
 10
-276.1203551555793
 20
44.06701303016163
 30
0.0
  0
VERTEX
  5
11E
330
119
100
AcDbEntity
  8
Layer 2
 62
   179
420
  2301728
370
    35
100
AcDbVertex
100
AcDb2dVertex
 10
-276.1203551555793
 20
38.06701320120374
 30
0.0
  0
SEQEND
  5
11F
330
119
100
AcDbEntity
  8
Layer 2
 62
   179
420
  2301728
370
    35
  0
POLYLINE
  5
120
330
1F
100
AcDbEntity
  8
Layer 2
 62
   179
420
  2301728
370
    35
100
AcDb2dPolyline
 66
     1
 10
0.0
 20
0.0
 30
0.0
  0
VERTEX
  5
121
330
120
100
AcDbEntity
  8
Layer 2
 62
   179
420
  2301728
370
    35
100
AcDbVertex
100
AcDb2dVertex
 10
-136.1203519692794
 20
38.06701320120374
 30
0.0
  0
VERTEX
  5
122
330
120
100
AcDbEntity
  8
Layer 2
 62
   179
420
  2301728
370
    35
100
AcDbVertex
100
AcDb2dVertex
 10
-206.1203643283527
 20
38.06701320120374
 30
0.0
  0
VERTEX
  5
123
330
120
100
AcDbEntity
  8
Layer 2
 62
   179
420
  2301728
370
    35
100
AcDbVertex
100
AcDb2dVertex
 10
-206.1203643283527
 20
44.06701303016163
 30
0.0
  0
VERTEX
  5
124
330
120
100
AcDbEntity
  8
Layer 2
 62
   179
420
  2301728
370
    35
100
AcDbVertex
100
AcDb2dVertex
 10
-136.1203519692794
 20
44.06701303016163
 30
0.0
  0
VERTEX
  5
125
330
120
100
AcDbEntity
  8
Layer 2
 62
   179
420
  2301728
370
    35
100
AcDbVertex
100
AcDb2dVertex
 10
-136.1203519692794
 20
38.06701320120374
 30
0.0
  0
SEQEND
  5
126
330
120
100
AcDbEntity
  8
Layer 2
 62
   179
420
  2301728
370
    35
  0
POLYLINE
  5
127
330
1F
100
AcDbEntity
  8
Layer 2
 62
   179
420
  2301728
370
    35
100
AcDb2dPolyline
 66
     1
 10
0.0
 20
0.0
 30
0.0
  0
VERTEX
  5
128
330
127
100
AcDbEntity
  8
Layer 2
 62
   179
420
  2301728
370
    35
100
AcDbVertex
100
AcDb2dVertex
 10
-88.12035333761618
 20
80.40034652395374
 30
0.0
  0
VERTEX
  5
129
330
127
100
AcDbEntity
  8
Layer 2
 62
   179
420
  2301728
370
    35
100
AcDbVertex
100
AcDb2dVertex
 10
-134.8703206043033
 20
51.06701641925365
 30
0.0
  0
VERTEX
  5
12A
330
127
100
AcDbEntity
  8
Layer 2
 62
   179
420
  2301728
370
    35
100
AcDbVertex
100
AcDb2dVertex
 10
-347.3703127522417
 20
51.06701641925365
 30
0.0
  0
VERTEX
  5
12B
330
127
100
AcDbEntity
  8
Layer 2
 62
   179
420
  2301728
370
    35
100
AcDbVertex
100
AcDb2dVertex
 10
-394.120344614469
 20
80.40036805580051
 30
0.0
  0
VERTEX
  5
12C
330
127
100
AcDbEntity
  8
Layer 2
 62
   179
420
  2301728
370
    35
100
AcDbVertex
100
AcDb2dVertex
 10
-394.120344614469
 20
181.0670055360592
 30
0.0
  0
VERTEX
  5
12D
330
127
100
AcDbEntity
  8
Layer 2
 62
   179
420
  2301728
370
    35
100
AcDbVertex
100
AcDb2dVertex
 10
-88.12035333761618
 20
181.0670055360592
 30
0.0
  0
VERTEX
  5
12E
330
127
100
AcDbEntity
  8
Layer 2
 62
   179
420
  2301728
370
    35
100
AcDbVertex
100
AcDb2dVertex
 10
-88.12035333761618
 20
80.40034652395374
 30
0.0
  0
SEQEND
  5
12F
330
127
100
AcDbEntity
  8
Layer 2
 62
   179
420
  2301728
370
    35
  0
SPLINE
  5
130
330
1F
100
AcDbEntity
  8
Layer 2
 62
   179
420
  2301728
370
    35
100
AcDbSpline
210
0.0
220
0.0
230
1.0
 70
    11
 71
     3
 72
    17
 73
    13
 74
     0
 42
0.0000000001
 43
0.0000000001
 12
1.0
 22
0.0
 32
0.0
 13
1.0
 23
0.0
 33
0.0
 40
0.0
 40
0.0
 40
0.0
 40
0.0
 40
1.0
 40
1.0
 40
1.0
 40
2.0
 40
2.0
 40
2.0
 40
3.0
 40
3.0
 40
3.0
 40
4.0
 40
4.0
 40
4.0
 40
4.0
 10
-79.31111499075165
 20
130.9108938949524
 30
0.0
 10
-80.00146906230215
 20
130.9108938949524
 30
0.0
 10
-80.56112482388099
 20
131.4705496565312
 30
0.0
 10
-80.56112482388099
 20
132.1609037280817
 30
0.0
 10
-80.56112482388099
 20
132.8512577996322
 30
0.0
 10
-80.00146906230215
 20
133.4109135612111
 30
0.0
 10
-79.31111499075165
 20
133.4109135612111
 30
0.0
 10
-78.62076091920115
 20
133.4109135612111
 30
0.0
 10
-78.06112668946909
 20
132.8512577996322
 30
0.0
 10
-78.06112668946909
 20
132.1609037280817
 30
0.0
 10
-78.06112668946909
 20
131.4705496565312
 30
0.0
 10
-78.62076091920115
 20
130.9108938949524
 30
0.0
 10
-79.31111499075165
 20
130.9108938949524
 30
0.0
  0
SPLINE
  5
131
330
1F
100
AcDbEntity
  8
Layer 2
 62
   179
420
  2301728
370
    35
100
AcDbSpline
210
0.0
220
0.0
230
1.0
 70
    11
 71
     3
 72
    17
 73
    13
 74
     0
 42
0.0000000001
 43
0.0000000001
 12
1.0
 22
0.0
 32
0.0
 13
1.0
 23
0.0
 33
0.0
 40
0.0
 40
0.0
 40
0.0
 40
0.0
 40
1.0
 40
1.0
 40
1.0
 40
2.0
 40
2.0
 40
2.0
 40
3.0
 40
3.0
 40
3.0
 40
4.0
 40
4.0
 40
4.0
 40
4.0
 10
-65.84074857973123
 20
117.440527483932
 30
0.0
 10
-66.53110265128173
 20
117.440527483932
 30
0.0
 10
-67.09073688101378
 20
118.000161713664
 30
0.0
 10
-67.09073688101378
 20
118.6905157852145
 30
0.0
 10
-67.09073688101378
 20
119.380869856765
 30
0.0
 10
-66.53110265128173
 20
119.9405256183439
 30
0.0
 10
-65.84074857973123
 20
119.9405256183439
 30
0.0
 10
-65.15037297633394
 20
119.9405256183439
 30
0.0
 10
-64.59073874660189
 20
119.380869856765
 30
0.0
 10
-64.59073874660189
 20
118.6905157852145
 30
0.0
 10
-64.59073874660189
 20
118.000161713664
 30
0.0
 10
-65.15037297633394
 20
117.440527483932
 30
0.0
 10
-65.84074857973123
 20
117.440527483932
 30
0.0
  0
SPLINE
  5
132
330
1F
100
AcDbEntity
  8
Layer 2
 62
   179
420
  2301728
370
    35
100
AcDbSpline
210
0.0
220
0.0
230
1.0
 70
    11
 71
     3
 72
    17
 73
    13
 74
     0
 42
0.0000000001
 43
0.0000000001
 12
1.0
 22
0.0
 32
0.0
 13
1.0
 23
0.0
 33
0.0
 40
0.0
 40
0.0
 40
0.0
 40
0.0
 40
1.0
 40
1.0
 40
1.0
 40
2.0
 40
2.0
 40
2.0
 40
3.0
 40
3.0
 40
3.0
 40
4.0
 40
4.0
 40
4.0
 40
4.0
 10
-65.84074857973123
 20
144.3812818378196
 30
0.0
 10
-66.53110265128173
 20
144.3812818378196
 30
0.0
 10
-67.09073688101378
 20
144.9409375993985
 30
0.0
 10
-67.09073688101378
 20
145.631291670949
 30
0.0
 10
-67.09073688101378
 20
146.3216457424995
 30
0.0
 10
-66.53110265128173
 20
146.8812799722315
 30
0.0
 10
-65.84074857973123
 20
146.8812799722315
 30
0.0
 10
-65.15037297633394
 20
146.8812799722315
 30
0.0
 10
-64.59073874660189
 20
146.3216457424995
 30
0.0
 10
-64.59073874660189
 20
145.631291670949
 30
0.0
 10
-64.59073874660189
 20
144.9409375993985
 30
0.0
 10
-65.15037297633394
 20
144.3812818378196
 30
0.0
 10
-65.84074857973123
 20
144.3812818378196
 30
0.0
  0
SPLINE
  5
133
330
1F
100
AcDbEntity
  8
Layer 2
 62
   179
420
  2301728
370
    35
100
AcDbSpline
210
0.0
220
0.0
230
1.0
 70
    11
 71
     3
 72
    17
 73
    13
 74
     0
 42
0.0000000001
 43
0.0000000001
 12
1.0
 22
0.0
 32
0.0
 13
1.0
 23
0.0
 33
0.0
 40
0.0
 40
0.0
 40
0.0
 40
0.0
 40
1.0
 40
1.0
 40
1.0
 40
2.0
 40
2.0
 40
2.0
 40
3.0
 40
3.0
 40
3.0
 40
4.0
 40
4.0
 40
4.0
 40
4.0
 10
-52.37036063686401
 20
130.9108938949524
 30
0.0
 10
-53.06071470841451
 20
130.9108938949524
 30
0.0
 10
-53.62034893814656
 20
131.4705496565312
 30
0.0
 10
-53.62034893814656
 20
132.1609037280817
 30
0.0
 10
-53.62034893814656
 20
132.8512577996322
 30
0.0
 10
-53.06071470841451
 20
133.4109135612111
 30
0.0
 10
-52.37036063686401
 20
133.4109135612111
 30
0.0
 10
-51.68000656531351
 20
133.4109135612111
 30
0.0
 10
-51.12035080373467
 20
132.8512577996322
 30
0.0
 10
-51.12035080373467
 20
132.1609037280817
 30
0.0
 10
-51.12035080373467
 20
131.4705496565312
 30
0.0
 10
-51.68000656531351
 20
130.9108938949524
 30
0.0
 10
-52.37036063686401
 20
130.9108938949524
 30
0.0
  0
SPLINE
  5
134
330
1F
100
AcDbEntity
  8
Layer 2
 62
   179
420
  2301728
370
    35
100
AcDbSpline
210
0.0
220
0.0
230
1.0
 70
    11
 71
     3
 72
    41
 73
    37
 74
     0
 42
0.0000000001
 43
0.0000000001
 12
1.0
 22
0.0
 32
0.0
 13
1.0
 23
0.0
 33
0.0
 40
0.0
 40
0.0
 40
0.0
 40
0.0
 40
1.0
 40
1.0
 40
1.0
 40
2.0
 40
2.0
 40
2.0
 40
3.0
 40
3.0
 40
3.0
 40
4.0
 40
4.0
 40
4.0
 40
5.0
 40
5.0
 40
5.0
 40
6.0
 40
6.0
 40
6.0
 40
7.0
 40
7.0
 40
7.0
 40
8.0
 40
8.0
 40
8.0
 40
9.0
 40
9.0
 40
9.0
 40
10.0
 40
10.0
 40
10.0
 40
11.0
 40
11.0
 40
11.0
 40
12.0
 40
12.0
 40
12.0
 40
12.0
 10
-45.57335949924034
 20
-25.69761317988202
 30
0.0
 10
-45.57335949924034
 20
-25.69761317988202
 30
0.0
 10
-116.1203453621375
 20
21.33373226056284
 30
0.0
 10
-116.1203453621375
 20
21.33373226056284
 30
0.0
 10
-116.1203453621375
 20
21.33373226056284
 30
0.0
 10
-366.120331058101
 20
21.33373226056284
 30
0.0
 10
-366.120331058101
 20
21.33373226056284
 30
0.0
 10
-366.120331058101
 20
21.33373226056284
 30
0.0
 10
-436.6673169209981
 20
-25.69761317988202
 30
0.0
 10
-436.6673169209981
 20
-25.69761317988202
 30
0.0
 10
-439.4493176527245
 20
-27.55225880251949
 30
0.0
 10
-441.1203612178449
 20
-30.6745703726482
 30
0.0
 10
-441.1203612178449
 20
-34.0181216684703
 30
0.0
 10
-441.1203612178449
 20
-34.0181216684703
 30
0.0
 10
-441.1203612178449
 20
-123.314415286283
 30
0.0
 10
-441.1203612178449
 20
-123.314415286283
 30
0.0
 10
-441.1203612178449
 20
-126.6579450502583
 30
0.0
 10
-439.4493176527245
 20
-129.780256620387
 30
0.0
 10
-436.6673169209981
 20
-131.6349237748712
 30
0.0
 10
-436.6673169209981
 20
-131.6349237748712
 30
0.0
 10
-366.120331058101
 20
-178.6662692153161
 30
0.0
 10
-366.120331058101
 20
-178.6662692153161
 30
0.0
 10
-366.120331058101
 20
-178.6662692153161
 30
0.0
 10
-116.1203453621375
 20
-178.6662692153161
 30
0.0
 10
-116.1203453621375
 20
-178.6662692153161
 30
0.0
 10
-116.1203453621375
 20
-178.6662692153161
 30
0.0
 10
-45.57335949924034
 20
-131.6349237748712
 30
0.0
 10
-45.57335949924034
 20
-131.6349237748712
 30
0.0
 10
-42.79135876751397
 20
-129.780256620387
 30
0.0
 10
-41.1203582660871
 20
-126.6579450502583
 30
0.0
 10
-41.1203582660871
 20
-123.314415286283
 30
0.0
 10
-41.1203582660871
 20
-123.314415286283
 30
0.0
 10
-41.1203582660871
 20
-34.01810013662352
 30
0.0
 10
-41.1203582660871
 20
-34.01810013662352
 30
0.0
 10
-41.1203582660871
 20
-30.6745703726482
 30
0.0
 10
-42.79135876751397
 20
-27.55225880251949
 30
0.0
 10
-45.57335949924034
 20
-25.69761317988202
 30
0.0
  0
POLYLINE
  5
135
330
1F
100
AcDbEntity
  8
Layer 2
 62
   179
420
  2301728
370
    35
100
AcDb2dPolyline
 66
     1
 10
0.0
 20
0.0
 30
0.0
  0
VERTEX
  5
136
330
135
100
AcDbEntity
  8
Layer 2
 62
   179
420
  2301728
370
    35
100
AcDbVertex
100
AcDb2dVertex
 10
-206.120342796506
 20
-12.17494591302614
 30
0.0
  0
VERTEX
  5
137
330
135
100
AcDbEntity
  8
Layer 2
 62
   179
420
  2301728
370
    35
100
AcDbVertex
100
AcDb2dVertex
 10
-136.1203519692794
 20
-12.17494591302614
 30
0.0
  0
VERTEX
  5
138
330
135
100
AcDbEntity
  8
Layer 2
 62
   179
420
  2301728
370
    35
100
AcDbVertex
100
AcDb2dVertex
 10
-136.1203519692794
 20
-18.17494574198404
 30
0.0
  0
VERTEX
  5
139
330
135
100
AcDbEntity
  8
Layer 2
 62
   179
420
  2301728
370
    35
100
AcDbVertex
100
AcDb2dVertex
 10
-206.120342796506
 20
-18.17494574198404
 30
0.0
  0
VERTEX
  5
13A
330
135
100
AcDbEntity
  8
Layer 2
 62
   179
420
  2301728
370
    35
100
AcDbVertex
100
AcDb2dVertex
 10
-206.120342796506
 20
-12.17494591302614
 30
0.0
  0
SEQEND
  5
13B
330
135
100
AcDbEntity
  8
Layer 2
 62
   179
420
  2301728
370
    35
  0
POLYLINE
  5
13C
330
1F
100
AcDbEntity
  8
Layer 2
 62
   179
420
  2301728
370
    35
100
AcDb2dPolyline
 66
     1
 10
0.0
 20
0.0
 30
0.0
  0
VERTEX
  5
13D
330
13C
100
AcDbEntity
  8
Layer 2
 62
   179
420
  2301728
370
    35
100
AcDbVertex
100
AcDb2dVertex
 10
-346.1203459828059
 20
-12.17494591302614
 30
0.0
  0
VERTEX
  5
13E
330
13C
100
AcDbEntity
  8
Layer 2
 62
   179
420
  2301728
370
    35
100
AcDbVertex
100
AcDb2dVertex
 10
-276.1203551555793
 20
-12.17494591302614
 30
0.0
  0
VERTEX
  5
13F
330
13C
100
AcDbEntity
  8
Layer 2
 62
   179
420
  2301728
370
    35
100
AcDbVertex
100
AcDb2dVertex
 10
-276.1203551555793
 20
-18.17494574198404
 30
0.0
  0
VERTEX
  5
140
330
13C
100
AcDbEntity
  8
Layer 2
 62
   179
420
  2301728
370
    35
100
AcDbVertex
100
AcDb2dVertex
 10
-346.1203459828059
 20
-18.17494574198404
 30
0.0
  0
VERTEX
  5
141
330
13C
100
AcDbEntity
  8
Layer 2
 62
   179
420
  2301728
370
    35
100
AcDbVertex
100
AcDb2dVertex
 10
-346.1203459828059
 20
-12.17494591302614
 30
0.0
  0
SEQEND
  5
142
330
13C
100
AcDbEntity
  8
Layer 2
 62
   179
420
  2301728
370
    35
  0
SPLINE
  5
143
330
1F
100
AcDbEntity
  8
Layer 2
 62
   179
420
  2301728
370
    35
100
AcDbSpline
210
0.0
220
0.0
230
1.0
 70
    11
 71
     3
 72
    17
 73
    13
 74
     0
 42
0.0000000001
 43
0.0000000001
 12
1.0
 22
0.0
 32
0.0
 13
1.0
 23
0.0
 33
0.0
 40
0.0
 40
0.0
 40
0.0
 40
0.0
 40
1.0
 40
1.0
 40
1.0
 40
2.0
 40
2.0
 40
2.0
 40
3.0
 40
3.0
 40
3.0
 40
4.0
 40
4.0
 40
4.0
 40
4.0
 10
-429.8703157833745
 20
-78.8223851324754
 30
0.0
 10
-430.5607129186185
 20
-78.8223851324754
 30
0.0
 10
-431.1203686801974
 20
-78.26272937089657
 30
0.0
 10
-431.1203686801974
 20
-77.57237529934606
 30
0.0
 10
-431.1203686801974
 20
-76.88202122779556
 30
0.0
 10
-430.5607129186185
 20
-76.32236546621672
 30
0.0
 10
-429.8703157833745
 20
-76.32236546621672
 30
0.0
 10
-429.1800047755175
 20
-76.32236546621672
 30
0.0
 10
-428.6203490139387
 20
-76.88202122779556
 30
0.0
 10
-428.6203490139387
 20
-77.57237529934606
 30
0.0
 10
-428.6203490139387
 20
-78.26272937089657
 30
0.0
 10
-429.1800047755175
 20
-78.8223851324754
 30
0.0
 10
-429.8703157833745
 20
-78.8223851324754
 30
0.0
  0
SPLINE
  5
144
330
1F
100
AcDbEntity
  8
Layer 2
 62
   179
420
  2301728
370
    35
100
AcDbSpline
210
0.0
220
0.0
230
1.0
 70
    11
 71
     3
 72
    17
 73
    13
 74
     0
 42
0.0000000001
 43
0.0000000001
 12
1.0
 22
0.0
 32
0.0
 13
1.0
 23
0.0
 33
0.0
 40
0.0
 40
0.0
 40
0.0
 40
0.0
 40
1.0
 40
1.0
 40
1.0
 40
2.0
 40
2.0
 40
2.0
 40
3.0
 40
3.0
 40
3.0
 40
4.0
 40
4.0
 40
4.0
 40
4.0
 10
-416.3999924360476
 20
-92.29275154349583
 30
0.0
 10
-417.0903034439045
 20
-92.29275154349583
 30
0.0
 10
-417.6499592054834
 20
-91.73311731376377
 30
0.0
 10
-417.6499592054834
 20
-91.04276324221327
 30
0.0
 10
-417.6499592054834
 20
-90.35240917066277
 30
0.0
 10
-417.0903034439045
 20
-89.79275340908393
 30
0.0
 10
-416.3999924360476
 20
-89.79275340908393
 30
0.0
 10
-415.7095953008035
 20
-89.79275340908393
 30
0.0
 10
-415.1499395392247
 20
-90.35240917066277
 30
0.0
 10
-415.1499395392247
 20
-91.04276324221327
 30
0.0
 10
-415.1499395392247
 20
-91.73311731376377
 30
0.0
 10
-415.7095953008035
 20
-92.29275154349583
 30
0.0
 10
-416.3999924360476
 20
-92.29275154349583
 30
0.0
  0
SPLINE
  5
145
330
1F
100
AcDbEntity
  8
Layer 2
 62
   179
420
  2301728
370
    35
100
AcDbSpline
210
0.0
220
0.0
230
1.0
 70
    11
 71
     3
 72
    17
 73
    13
 74
     0
 42
0.0000000001
 43
0.0000000001
 12
1.0
 22
0.0
 32
0.0
 13
1.0
 23
0.0
 33
0.0
 40
0.0
 40
0.0
 40
0.0
 40
0.0
 40
1.0
 40
1.0
 40
1.0
 40
2.0
 40
2.0
 40
2.0
 40
3.0
 40
3.0
 40
3.0
 40
4.0
 40
4.0
 40
4.0
 40
4.0
 10
-416.3999924360476
 20
-65.35199718960818
 30
0.0
 10
-417.0903034439045
 20
-65.35199718960818
 30
0.0
 10
-417.6499592054834
 20
-64.79234142802935
 30
0.0
 10
-417.6499592054834
 20
-64.10198735647884
 30
0.0
 10
-417.6499592054834
 20
-63.41163328492834
 30
0.0
 10
-417.0903034439045
 20
-62.85199905519629
 30
0.0
 10
-416.3999924360476
 20
-62.85199905519629
 30
0.0
 10
-415.7095953008035
 20
-62.85199905519629
 30
0.0
 10
-415.1499395392247
 20
-63.41163328492834
 30
0.0
 10
-415.1499395392247
 20
-64.10198735647884
 30
0.0
 10
-415.1499395392247
 20
-64.79234142802935
 30
0.0
 10
-415.7095953008035
 20
-65.35199718960818
 30
0.0
 10
-416.3999924360476
 20
-65.35199718960818
 30
0.0
  0
SPLINE
  5
146
330
1F
100
AcDbEntity
  8
Layer 2
 62
   179
420
  2301728
370
    35
100
AcDbSpline
210
0.0
220
0.0
230
1.0
 70
    11
 71
     3
 72
    17
 73
    13
 74
     0
 42
0.0000000001
 43
0.0000000001
 12
1.0
 22
0.0
 32
0.0
 13
1.0
 23
0.0
 33
0.0
 40
0.0
 40
0.0
 40
0.0
 40
0.0
 40
1.0
 40
1.0
 40
1.0
 40
2.0
 40
2.0
 40
2.0
 40
3.0
 40
3.0
 40
3.0
 40
4.0
 40
4.0
 40
4.0
 40
4.0
 10
-402.9295829613336
 20
-78.8223851324754
 30
0.0
 10
-403.6199370328841
 20
-78.8223851324754
 30
0.0
 10
-404.1795497307694
 20
-78.26272937089657
 30
0.0
 10
-404.1795497307694
 20
-77.57237529934606
 30
0.0
 10
-404.1795497307694
 20
-76.88202122779556
 30
0.0
 10
-403.6199370328841
 20
-76.32236546621672
 30
0.0
 10
-402.9295829613336
 20
-76.32236546621672
 30
0.0
 10
-402.2392288897831
 20
-76.32236546621672
 30
0.0
 10
-401.6795731282043
 20
-76.88202122779556
 30
0.0
 10
-401.6795731282043
 20
-77.57237529934606
 30
0.0
 10
-401.6795731282043
 20
-78.26272937089657
 30
0.0
 10
-402.2392288897831
 20
-78.8223851324754
 30
0.0
 10
-402.9295829613336
 20
-78.8223851324754
 30
0.0
  0
POLYLINE
  5
147
330
1F
100
AcDbEntity
  8
Layer 2
 62
   179
420
  2301728
370
    35
100
AcDb2dPolyline
 66
     1
 10
0.0
 20
0.0
 30
0.0
  0
VERTEX
  5
148
330
147
100
AcDbEntity
  8
Layer 2
 62
   179
420
  2301728
370
    35
100
AcDbVertex
100
AcDb2dVertex
 10
-276.1203551555793
 20
-171.6662658262241
 30
0.0
  0
VERTEX
  5
149
330
147
100
AcDbEntity
  8
Layer 2
 62
   179
420
  2301728
370
    35
100
AcDbVertex
100
AcDb2dVertex
 10
-346.1203675146526
 20
-171.6662658262241
 30
0.0
  0
VERTEX
  5
14A
330
147
100
AcDbEntity
  8
Layer 2
 62
   179
420
  2301728
370
    35
100
AcDbVertex
100
AcDb2dVertex
 10
-346.1203675146526
 20
-165.6662659972662
 30
0.0
  0
VERTEX
  5
14B
330
147
100
AcDbEntity
  8
Layer 2
 62
   179
420
  2301728
370
    35
100
AcDbVertex
100
AcDb2dVertex
 10
-276.1203551555793
 20
-165.6662659972662
 30
0.0
  0
VERTEX
  5
14C
330
147
100
AcDbEntity
  8
Layer 2
 62
   179
420
  2301728
370
    35
100
AcDbVertex
100
AcDb2dVertex
 10
-276.1203551555793
 20
-171.6662658262241
 30
0.0
  0
SEQEND
  5
14D
330
147
100
AcDbEntity
  8
Layer 2
 62
   179
420
  2301728
370
    35
  0
POLYLINE
  5
14E
330
1F
100
AcDbEntity
  8
Layer 2
 62
   179
420
  2301728
370
    35
100
AcDb2dPolyline
 66
     1
 10
0.0
 20
0.0
 30
0.0
  0
VERTEX
  5
14F
330
14E
100
AcDbEntity
  8
Layer 2
 62
   179
420
  2301728
370
    35
100
AcDbVertex
100
AcDb2dVertex
 10
-136.1203519692794
 20
-171.6662658262241
 30
0.0
  0
VERTEX
  5
150
330
14E
100
AcDbEntity
  8
Layer 2
 62
   179
420
  2301728
370
    35
100
AcDbVertex
100
AcDb2dVertex
 10
-206.1203643283527
 20
-171.6662658262241
 30
0.0
  0
VERTEX
  5
151
330
14E
100
AcDbEntity
  8
Layer 2
 62
   179
420
  2301728
370
    35
100
AcDbVertex
100
AcDb2dVertex
 10
-206.1203643283527
 20
-165.6662659972662
 30
0.0
  0
VERTEX
  5
152
330
14E
100
AcDbEntity
  8
Layer 2
 62
   179
420
  2301728
370
    35
100
AcDbVertex
100
AcDb2dVertex
 10
-136.1203519692794
 20
-165.6662659972662
 30
0.0
  0
VERTEX
  5
153
330
14E
100
AcDbEntity
  8
Layer 2
 62
   179
420
  2301728
370
    35
100
AcDbVertex
100
AcDb2dVertex
 10
-136.1203519692794
 20
-171.6662658262241
 30
0.0
  0
SEQEND
  5
154
330
14E
100
AcDbEntity
  8
Layer 2
 62
   179
420
  2301728
370
    35
  0
POLYLINE
  5
155
330
1F
100
AcDbEntity
  8
Layer 2
 62
   179
420
  2301728
370
    35
100
AcDb2dPolyline
 66
     1
 10
0.0
 20
0.0
 30
0.0
  0
VERTEX
  5
156
330
155
100
AcDbEntity
  8
Layer 2
 62
   179
420
  2301728
370
    35
100
AcDbVertex
100
AcDb2dVertex
 10
-88.12035333761618
 20
-129.3329325034741
 30
0.0
  0
VERTEX
  5
157
330
155
100
AcDbEntity
  8
Layer 2
 62
   179
420
  2301728
370
    35
100
AcDbVertex
100
AcDb2dVertex
 10
-134.8703206043033
 20
-158.6662626081742
 30
0.0
  0
VERTEX
  5
158
330
155
100
AcDbEntity
  8
Layer 2
 62
   179
420
  2301728
370
    35
100
AcDbVertex
100
AcDb2dVertex
 10
-347.3703127522417
 20
-158.6662626081742
 30
0.0
  0
VERTEX
  5
159
330
155
100
AcDbEntity
  8
Layer 2
 62
   179
420
  2301728
370
    35
100
AcDbVertex
100
AcDb2dVertex
 10
-394.120344614469
 20
-129.3329109716273
 30
0.0
  0
VERTEX
  5
15A
330
155
100
AcDbEntity
  8
Layer 2
 62
   179
420
  2301728
370
    35
100
AcDbVertex
100
AcDb2dVertex
 10
-394.120344614469
 20
-28.66627349136859
 30
0.0
  0
VERTEX
  5
15B
330
155
100
AcDbEntity
  8
Layer 2
 62
   179
420
  2301728
370
    35
100
AcDbVertex
100
AcDb2dVertex
 10
-88.12035333761618
 20
-28.66627349136859
 30
0.0
  0
VERTEX
  5
15C
330
155
100
AcDbEntity
  8
Layer 2
 62
   179
420
  2301728
370
    35
100
AcDbVertex
100
AcDb2dVertex
 10
-88.12035333761618
 20
-129.3329325034741
 30
0.0
  0
SEQEND
  5
15D
330
155
100
AcDbEntity
  8
Layer 2
 62
   179
420
  2301728
370
    35
  0
SPLINE
  5
15E
330
1F
100
AcDbEntity
  8
Layer 2
 62
   179
420
  2301728
370
    35
100
AcDbSpline
210
0.0
220
0.0
230
1.0
 70
    11
 71
     3
 72
    17
 73
    13
 74
     0
 42
0.0000000001
 43
0.0000000001
 12
1.0
 22
0.0
 32
0.0
 13
1.0
 23
0.0
 33
0.0
 40
0.0
 40
0.0
 40
0.0
 40
0.0
 40
1.0
 40
1.0
 40
1.0
 40
2.0
 40
2.0
 40
2.0
 40
3.0
 40
3.0
 40
3.0
 40
4.0
 40
4.0
 40
4.0
 40
4.0
 10
-79.31111499075165
 20
-78.8223851324754
 30
0.0
 10
-80.00146906230215
 20
-78.8223851324754
 30
0.0
 10
-80.56112482388099
 20
-78.26272937089657
 30
0.0
 10
-80.56112482388099
 20
-77.57237529934606
 30
0.0
 10
-80.56112482388099
 20
-76.88202122779556
 30
0.0
 10
-80.00146906230215
 20
-76.32236546621672
 30
0.0
 10
-79.31111499075165
 20
-76.32236546621672
 30
0.0
 10
-78.62076091920115
 20
-76.32236546621672
 30
0.0
 10
-78.06112668946909
 20
-76.88202122779556
 30
0.0
 10
-78.06112668946909
 20
-77.57237529934606
 30
0.0
 10
-78.06112668946909
 20
-78.26272937089657
 30
0.0
 10
-78.62076091920115
 20
-78.8223851324754
 30
0.0
 10
-79.31111499075165
 20
-78.8223851324754
 30
0.0
  0
SPLINE
  5
15F
330
1F
100
AcDbEntity
  8
Layer 2
 62
   179
420
  2301728
370
    35
100
AcDbSpline
210
0.0
220
0.0
230
1.0
 70
    11
 71
     3
 72
    17
 73
    13
 74
     0
 42
0.0000000001
 43
0.0000000001
 12
1.0
 22
0.0
 32
0.0
 13
1.0
 23
0.0
 33
0.0
 40
0.0
 40
0.0
 40
0.0
 40
0.0
 40
1.0
 40
1.0
 40
1.0
 40
2.0
 40
2.0
 40
2.0
 40
3.0
 40
3.0
 40
3.0
 40
4.0
 40
4.0
 40
4.0
 40
4.0
 10
-65.84074857973123
 20
-92.29275154349583
 30
0.0
 10
-66.53110265128173
 20
-92.29275154349583
 30
0.0
 10
-67.09073688101378
 20
-91.73311731376377
 30
0.0
 10
-67.09073688101378
 20
-91.04276324221327
 30
0.0
 10
-67.09073688101378
 20
-90.35240917066277
 30
0.0
 10
-66.53110265128173
 20
-89.79275340908393
 30
0.0
 10
-65.84074857973123
 20
-89.79275340908393
 30
0.0
 10
-65.15037297633394
 20
-89.79275340908393
 30
0.0
 10
-64.59073874660189
 20
-90.35240917066277
 30
0.0
 10
-64.59073874660189
 20
-91.04276324221327
 30
0.0
 10
-64.59073874660189
 20
-91.73311731376377
 30
0.0
 10
-65.15037297633394
 20
-92.29275154349583
 30
0.0
 10
-65.84074857973123
 20
-92.29275154349583
 30
0.0
  0
SPLINE
  5
160
330
1F
100
AcDbEntity
  8
Layer 2
 62
   179
420
  2301728
370
    35
100
AcDbSpline
210
0.0
220
0.0
230
1.0
 70
    11
 71
     3
 72
    17
 73
    13
 74
     0
 42
0.0000000001
 43
0.0000000001
 12
1.0
 22
0.0
 32
0.0
 13
1.0
 23
0.0
 33
0.0
 40
0.0
 40
0.0
 40
0.0
 40
0.0
 40
1.0
 40
1.0
 40
1.0
 40
2.0
 40
2.0
 40
2.0
 40
3.0
 40
3.0
 40
3.0
 40
4.0
 40
4.0
 40
4.0
 40
4.0
 10
-65.84074857973123
 20
-65.35199718960818
 30
0.0
 10
-66.53110265128173
 20
-65.35199718960818
 30
0.0
 10
-67.09073688101378
 20
-64.79234142802935
 30
0.0
 10
-67.09073688101378
 20
-64.10198735647884
 30
0.0
 10
-67.09073688101378
 20
-63.41163328492834
 30
0.0
 10
-66.53110265128173
 20
-62.85199905519629
 30
0.0
 10
-65.84074857973123
 20
-62.85199905519629
 30
0.0
 10
-65.15037297633394
 20
-62.85199905519629
 30
0.0
 10
-64.59073874660189
 20
-63.41163328492834
 30
0.0
 10
-64.59073874660189
 20
-64.10198735647884
 30
0.0
 10
-64.59073874660189
 20
-64.79234142802935
 30
0.0
 10
-65.15037297633394
 20
-65.35199718960818
 30
0.0
 10
-65.84074857973123
 20
-65.35199718960818
 30
0.0
  0
SPLINE
  5
161
330
1F
100
AcDbEntity
  8
Layer 2
 62
   179
420
  2301728
370
    35
100
AcDbSpline
210
0.0
220
0.0
230
1.0
 70
    11
 71
     3
 72
    17
 73
    13
 74
     0
 42
0.0000000001
 43
0.0000000001
 12
1.0
 22
0.0
 32
0.0
 13
1.0
 23
0.0
 33
0.0
 40
0.0
 40
0.0
 40
0.0
 40
0.0
 40
1.0
 40
1.0
 40
1.0
 40
2.0
 40
2.0
 40
2.0
 40
3.0
 40
3.0
 40
3.0
 40
4.0
 40
4.0
 40
4.0
 40
4.0
 10
-52.37036063686401
 20
-78.8223851324754
 30
0.0
 10
-53.06071470841451
 20
-78.8223851324754
 30
0.0
 10
-53.62034893814656
 20
-78.26272937089657
 30
0.0
 10
-53.62034893814656
 20
-77.57237529934606
 30
0.0
 10
-53.62034893814656
 20
-76.88202122779556
 30
0.0
 10
-53.06071470841451
 20
-76.32236546621672
 30
0.0
 10
-52.37036063686401
 20
-76.32236546621672
 30
0.0
 10
-51.68000656531351
 20
-76.32236546621672
 30
0.0
 10
-51.12035080373467
 20
-76.88202122779556
 30
0.0
 10
-51.12035080373467
 20
-77.57237529934606
 30
0.0
 10
-51.12035080373467
 20
-78.26272937089657
 30
0.0
 10
-51.68000656531351
 20
-78.8223851324754
 30
0.0
 10
-52.37036063686401
 20
-78.8223851324754
 30
0.0
  0
POLYLINE
  5
162
330
1F
100
AcDbEntity
  8
Layer 2
 62
   179
420
  2301728
370
    35
100
AcDb2dPolyline
 66
     1
 10
0.0
 20
0.0
 30
0.0
  0
VERTEX
  5
163
330
162
100
AcDbEntity
  8
Layer 2
 62
   179
420
  2301728
370
    35
100
AcDbVertex
100
AcDb2dVertex
 10
220.3124997753798
 20
-245.2819274289139
 30
0.0
  0
VERTEX
  5
164
330
162
100
AcDbEntity
  8
Layer 2
 62
   179
420
  2301728
370
    35
100
AcDbVertex
100
AcDb2dVertex
 10
220.3124997753798
 20
-175.2819366016873
 30
0.0
  0
VERTEX
  5
165
330
162
100
AcDbEntity
  8
Layer 2
 62
   179
420
  2301728
370
    35
100
AcDbVertex
100
AcDb2dVertex
 10
214.3124999464219
 20
-175.2819366016873
 30
0.0
  0
VERTEX
  5
166
330
162
100
AcDbEntity
  8
Layer 2
 62
   179
420
  2301728
370
    35
100
AcDbVertex
100
AcDb2dVertex
 10
214.3124999464219
 20
-127.1763888570948
 30
0.0
  0
VERTEX
  5
167
330
162
100
AcDbEntity
  8
Layer 2
 62
   179
420
  2301728
370
    35
100
AcDbVertex
100
AcDb2dVertex
 10
89.42916664430938
 20
-109.3611110837708
 30
0.0
  0
VERTEX
  5
168
330
162
100
AcDbEntity
  8
Layer 2
 62
   179
420
  2301728
370
    35
100
AcDbVertex
100
AcDb2dVertex
 10
-35.45416665780313
 20
-127.1088219218903
 30
0.0
  0
VERTEX
  5
169
330
162
100
AcDbEntity
  8
Layer 2
 62
   179
420
  2301728
370
    35
100
AcDbVertex
100
AcDb2dVertex
 10
-35.45416665780313
 20
-175.1087990217067
 30
0.0
  0
VERTEX
  5
16A
330
162
100
AcDbEntity
  8
Layer 2
 62
   179
420
  2301728
370
    35
100
AcDbVertex
100
AcDb2dVertex
 10
-41.27777759791623
 20
-175.1087990217067
 30
0.0
  0
VERTEX
  5
16B
330
162
100
AcDbEntity
  8
Layer 2
 62
   179
420
  2301728
370
    35
100
AcDbVertex
100
AcDb2dVertex
 10
-41.27777759791623
 20
-245.1087898489333
 30
0.0
  0
VERTEX
  5
16C
330
162
100
AcDbEntity
  8
Layer 2
 62
   179
420
  2301728
370
    35
100
AcDbVertex
100
AcDb2dVertex
 10
-35.45416665780313
 20
-245.1087898489333
 30
0.0
  0
VERTEX
  5
16D
330
162
100
AcDbEntity
  8
Layer 2
 62
   179
420
  2301728
370
    35
100
AcDbVertex
100
AcDb2dVertex
 10
-35.45416665780313
 20
-315.1088022080067
 30
0.0
  0
VERTEX
  5
16E
330
162
100
AcDbEntity
  8
Layer 2
 62
   179
420
  2301728
370
    35
100
AcDbVertex
100
AcDb2dVertex
 10
-41.27777759791623
 20
-315.1088022080067
 30
0.0
  0
VERTEX
  5
16F
330
162
100
AcDbEntity
  8
Layer 2
 62
   179
420
  2301728
370
    35
100
AcDbVertex
100
AcDb2dVertex
 10
-41.27777759791623
 20
-385.1087930352332
 30
0.0
  0
VERTEX
  5
170
330
162
100
AcDbEntity
  8
Layer 2
 62
   179
420
  2301728
370
    35
100
AcDbVertex
100
AcDb2dVertex
 10
-35.45416665780313
 20
-385.1087930352332
 30
0.0
  0
VERTEX
  5
171
330
162
100
AcDbEntity
  8
Layer 2
 62
   179
420
  2301728
370
    35
100
AcDbVertex
100
AcDb2dVertex
 10
-35.45416665780313
 20
-433.0361001521576
 30
0.0
  0
VERTEX
  5
172
330
162
100
AcDbEntity
  8
Layer 2
 62
   179
420
  2301728
370
    35
100
AcDbVertex
100
AcDb2dVertex
 10
89.42916664430938
 20
-451.2027776649771
 30
0.0
  0
VERTEX
  5
173
330
162
100
AcDbEntity
  8
Layer 2
 62
   179
420
  2301728
370
    35
100
AcDbVertex
100
AcDb2dVertex
 10
214.3124999464219
 20
-433.3874998916531
 30
0.0
  0
VERTEX
  5
174
330
162
100
AcDbEntity
  8
Layer 2
 62
   179
420
  2301728
370
    35
100
AcDbVertex
100
AcDb2dVertex
 10
214.3124999464219
 20
-385.2819090833671
 30
0.0
  0
VERTEX
  5
175
330
162
100
AcDbEntity
  8
Layer 2
 62
   179
420
  2301728
370
    35
100
AcDbVertex
100
AcDb2dVertex
 10
220.3124997753798
 20
-385.2819090833671
 30
0.0
  0
VERTEX
  5
176
330
162
100
AcDbEntity
  8
Layer 2
 62
   179
420
  2301728
370
    35
100
AcDbVertex
100
AcDb2dVertex
 10
220.3124997753798
 20
-315.2819397879873
 30
0.0
  0
VERTEX
  5
177
330
162
100
AcDbEntity
  8
Layer 2
 62
   179
420
  2301728
370
    35
100
AcDbVertex
100
AcDb2dVertex
 10
214.3124999464219
 20
-315.2819397879873
 30
0.0
  0
VERTEX
  5
178
330
162
100
AcDbEntity
  8
Layer 2
 62
   179
420
  2301728
370
    35
100
AcDbVertex
100
AcDb2dVertex
 10
214.3124999464219
 20
-245.2819274289139
 30
0.0
  0
VERTEX
  5
179
330
162
100
AcDbEntity
  8
Layer 2
 62
   179
420
  2301728
370
    35
100
AcDbVertex
100
AcDb2dVertex
 10
220.3124997753798
 20
-245.2819274289139
 30
0.0
  0
SEQEND
  5
17A
330
162
100
AcDbEntity
  8
Layer 2
 62
   179
420
  2301728
370
    35
  0
POLYLINE
  5
17B
330
1F
100
AcDbEntity
  8
Layer 2
 62
   179
420
  2301728
370
    35
100
AcDb2dPolyline
 66
     1
 10
0.0
 20
0.0
 30
0.0
  0
VERTEX
  5
17C
330
17B
100
AcDbEntity
  8
Layer 2
 62
   179
420
  2301728
370
    35
100
AcDbVertex
100
AcDb2dVertex
 10
49.56527776538646
 20
-429.8597221147573
 30
0.0
  0
VERTEX
  5
17D
330
17B
100
AcDbEntity
  8
Layer 2
 62
   179
420
  2301728
370
    35
100
AcDbVertex
100
AcDb2dVertex
 10
43.56805554466354
 20
-429.8597221147573
 30
0.0
  0
VERTEX
  5
17E
330
17B
100
AcDbEntity
  8
Layer 2
 62
   179
420
  2301728
370
    35
100
AcDbVertex
100
AcDb2dVertex
 10
43.56805554466354
 20
-419.981944339449
 30
0.0
  0
VERTEX
  5
17F
330
17B
100
AcDbEntity
  8
Layer 2
 62
   179
420
  2301728
370
    35
100
AcDbVertex
100
AcDb2dVertex
 10
49.56527776538646
 20
-419.981944339449
 30
0.0
  0
VERTEX
  5
180
330
17B
100
AcDbEntity
  8
Layer 2
 62
   179
420
  2301728
370
    35
100
AcDbVertex
100
AcDb2dVertex
 10
49.56527776538646
 20
-429.8597221147573
 30
0.0
  0
SEQEND
  5
181
330
17B
100
AcDbEntity
  8
Layer 2
 62
   179
420
  2301728
370
    35
  0
POLYLINE
  5
182
330
1F
100
AcDbEntity
  8
Layer 2
 62
   179
420
  2301728
370
    35
100
AcDb2dPolyline
 66
     1
 10
0.0
 20
0.0
 30
0.0
  0
VERTEX
  5
183
330
182
100
AcDbEntity
  8
Layer 2
 62
   179
420
  2301728
370
    35
100
AcDbVertex
100
AcDb2dVertex
 10
49.56527776538646
 20
-409.7513887864511
 30
0.0
  0
VERTEX
  5
184
330
182
100
AcDbEntity
  8
Layer 2
 62
   179
420
  2301728
370
    35
100
AcDbVertex
100
AcDb2dVertex
 10
43.56805554466354
 20
-409.7513887864511
 30
0.0
  0
VERTEX
  5
185
330
182
100
AcDbEntity
  8
Layer 2
 62
   179
420
  2301728
370
    35
100
AcDbVertex
100
AcDb2dVertex
 10
43.56805554466354
 20
-399.5208332334531
 30
0.0
  0
VERTEX
  5
186
330
182
100
AcDbEntity
  8
Layer 2
 62
   179
420
  2301728
370
    35
100
AcDbVertex
100
AcDb2dVertex
 10
49.56527776538646
 20
-399.5208332334531
 30
0.0
  0
VERTEX
  5
187
330
182
100
AcDbEntity
  8
Layer 2
 62
   179
420
  2301728
370
    35
100
AcDbVertex
100
AcDb2dVertex
 10
49.56527776538646
 20
-409.7513887864511
 30
0.0
  0
SEQEND
  5
188
330
182
100
AcDbEntity
  8
Layer 2
 62
   179
420
  2301728
370
    35
  0
POLYLINE
  5
189
330
1F
100
AcDbEntity
  8
Layer 2
 62
   179
420
  2301728
370
    35
100
AcDb2dPolyline
 66
     1
 10
0.0
 20
0.0
 30
0.0
  0
VERTEX
  5
18A
330
189
100
AcDbEntity
  8
Layer 2
 62
   179
420
  2301728
370
    35
100
AcDbVertex
100
AcDb2dVertex
 10
49.56527776538646
 20
-389.6430554581448
 30
0.0
  0
VERTEX
  5
18B
330
189
100
AcDbEntity
  8
Layer 2
 62
   179
420
  2301728
370
    35
100
AcDbVertex
100
AcDb2dVertex
 10
43.56805554466354
 20
-389.6430554581448
 30
0.0
  0
VERTEX
  5
18C
330
189
100
AcDbEntity
  8
Layer 2
 62
   179
420
  2301728
370
    35
100
AcDbVertex
100
AcDb2dVertex
 10
43.56805554466354
 20
-379.7652776828365
 30
0.0
  0
VERTEX
  5
18D
330
189
100
AcDbEntity
  8
Layer 2
 62
   179
420
  2301728
370
    35
100
AcDbVertex
100
AcDb2dVertex
 10
49.56527776538646
 20
-379.7652776828365
 30
0.0
  0
VERTEX
  5
18E
330
189
100
AcDbEntity
  8
Layer 2
 62
   179
420
  2301728
370
    35
100
AcDbVertex
100
AcDb2dVertex
 10
49.56527776538646
 20
-389.6430554581448
 30
0.0
  0
SEQEND
  5
18F
330
189
100
AcDbEntity
  8
Layer 2
 62
   179
420
  2301728
370
    35
  0
POLYLINE
  5
190
330
1F
100
AcDbEntity
  8
Layer 2
 62
   179
420
  2301728
370
    35
100
AcDb2dPolyline
 66
     1
 10
0.0
 20
0.0
 30
0.0
  0
VERTEX
  5
191
330
190
100
AcDbEntity
  8
Layer 2
 62
   179
420
  2301728
370
    35
100
AcDbVertex
100
AcDb2dVertex
 10
49.56527776538646
 20
-180.0930555105323
 30
0.0
  0
VERTEX
  5
192
330
190
100
AcDbEntity
  8
Layer 2
 62
   179
420
  2301728
370
    35
100
AcDbVertex
100
AcDb2dVertex
 10
43.56805554466354
 20
-180.0930555105323
 30
0.0
  0
VERTEX
  5
193
330
190
100
AcDbEntity
  8
Layer 2
 62
   179
420
  2301728
370
    35
100
AcDbVertex
100
AcDb2dVertex
 10
43.56805554466354
 20
-170.215277735224
 30
0.0
  0
VERTEX
  5
194
330
190
100
AcDbEntity
  8
Layer 2
 62
   179
420
  2301728
370
    35
100
AcDbVertex
100
AcDb2dVertex
 10
49.56527776538646
 20
-170.215277735224
 30
0.0
  0
VERTEX
  5
195
330
190
100
AcDbEntity
  8
Layer 2
 62
   179
420
  2301728
370
    35
100
AcDbVertex
100
AcDb2dVertex
 10
49.56527776538646
 20
-180.0930555105323
 30
0.0
  0
SEQEND
  5
196
330
190
100
AcDbEntity
  8
Layer 2
 62
   179
420
  2301728
370
    35
  0
POLYLINE
  5
197
330
1F
100
AcDbEntity
  8
Layer 2
 62
   179
420
  2301728
370
    35
100
AcDb2dPolyline
 66
     1
 10
0.0
 20
0.0
 30
0.0
  0
VERTEX
  5
198
330
197
100
AcDbEntity
  8
Layer 2
 62
   179
420
  2301728
370
    35
100
AcDbVertex
100
AcDb2dVertex
 10
49.56527776538646
 20
-159.9847221822261
 30
0.0
  0
VERTEX
  5
199
330
197
100
AcDbEntity
  8
Layer 2
 62
   179
420
  2301728
370
    35
100
AcDbVertex
100
AcDb2dVertex
 10
43.56805554466354
 20
-159.9847221822261
 30
0.0
  0
VERTEX
  5
19A
330
197
100
AcDbEntity
  8
Layer 2
 62
   179
420
  2301728
370
    35
100
AcDbVertex
100
AcDb2dVertex
 10
43.56805554466354
 20
-149.7541666292281
 30
0.0
  0
VERTEX
  5
19B
330
197
100
AcDbEntity
  8
Layer 2
 62
   179
420
  2301728
370
    35
100
AcDbVertex
100
AcDb2dVertex
 10
49.56527776538646
 20
-149.7541666292281
 30
0.0
  0
VERTEX
  5
19C
330
197
100
AcDbEntity
  8
Layer 2
 62
   179
420
  2301728
370
    35
100
AcDbVertex
100
AcDb2dVertex
 10
49.56527776538646
 20
-159.9847221822261
 30
0.0
  0
SEQEND
  5
19D
330
197
100
AcDbEntity
  8
Layer 2
 62
   179
420
  2301728
370
    35
  0
POLYLINE
  5
19E
330
1F
100
AcDbEntity
  8
Layer 2
 62
   179
420
  2301728
370
    35
100
AcDb2dPolyline
 66
     1
 10
0.0
 20
0.0
 30
0.0
  0
VERTEX
  5
19F
330
19E
100
AcDbEntity
  8
Layer 2
 62
   179
420
  2301728
370
    35
100
AcDbVertex
100
AcDb2dVertex
 10
49.56527776538646
 20
-139.8763888539198
 30
0.0
  0
VERTEX
  5
1A0
330
19E
100
AcDbEntity
  8
Layer 2
 62
   179
420
  2301728
370
    35
100
AcDbVertex
100
AcDb2dVertex
 10
43.56805554466354
 20
-139.8763888539198
 30
0.0
  0
VERTEX
  5
1A1
330
19E
100
AcDbEntity
  8
Layer 2
 62
   179
420
  2301728
370
    35
100
AcDbVertex
100
AcDb2dVertex
 10
43.56805554466354
 20
-129.9986110786115
 30
0.0
  0
VERTEX
  5
1A2
330
19E
100
AcDbEntity
  8
Layer 2
 62
   179
420
  2301728
370
    35
100
AcDbVertex
100
AcDb2dVertex
 10
49.56527776538646
 20
-129.9986110786115
 30
0.0
  0
VERTEX
  5
1A3
330
19E
100
AcDbEntity
  8
Layer 2
 62
   179
420
  2301728
370
    35
100
AcDbVertex
100
AcDb2dVertex
 10
49.56527776538646
 20
-139.8763888539198
 30
0.0
  0
SEQEND
  5
1A4
330
19E
100
AcDbEntity
  8
Layer 2
 62
   179
420
  2301728
370
    35
  0
SPLINE
  5
1A5
330
1F
100
AcDbEntity
  8
Layer 2
 62
   179
420
  2301728
370
    35
100
AcDbSpline
210
0.0
220
0.0
230
1.0
 70
    11
 71
     3
 72
    17
 73
    13
 74
     0
 42
0.0000000001
 43
0.0000000001
 12
1.0
 22
0.0
 32
0.0
 13
1.0
 23
0.0
 33
0.0
 40
0.0
 40
0.0
 40
0.0
 40
0.0
 40
1.0
 40
1.0
 40
1.0
 40
2.0
 40
2.0
 40
2.0
 40
3.0
 40
3.0
 40
3.0
 40
4.0
 40
4.0
 40
4.0
 40
4.0
 10
89.58406675006492
 20
-441.2025267451681
 30
0.0
 10
69.42560728244828
 20
-441.2025267451681
 30
0.0
 10
53.08411982586743
 20
-424.8608885656598
 30
0.0
 10
53.08411982586743
 20
-404.7026013528174
 30
0.0
 10
53.08411982586743
 20
-384.5441418852008
 30
0.0
 10
69.42560728244828
 20
-368.2025037056924
 30
0.0
 10
89.58406675006492
 20
-368.2025037056924
 30
0.0
 10
109.7423539629073
 20
-368.2025037056924
 30
0.0
 10
126.0839706105689
 20
-384.5441418852008
 30
0.0
 10
126.0839706105689
 20
-404.7026013528174
 30
0.0
 10
126.0839706105689
 20
-424.8608885656598
 30
0.0
 10
109.7423539629073
 20
-441.2025267451681
 30
0.0
 10
89.58406675006492
 20
-441.2025267451681
 30
0.0
  0
SPLINE
  5
1A6
330
1F
100
AcDbEntity
  8
Layer 2
 62
   179
420
  2301728
370
    35
100
AcDbSpline
210
0.0
220
0.0
230
1.0
 70
    11
 71
     3
 72
    17
 73
    13
 74
     0
 42
0.0000000001
 43
0.0000000001
 12
1.0
 22
0.0
 32
0.0
 13
1.0
 23
0.0
 33
0.0
 40
0.0
 40
0.0
 40
0.0
 40
0.0
 40
1.0
 40
1.0
 40
1.0
 40
2.0
 40
2.0
 40
2.0
 40
3.0
 40
3.0
 40
3.0
 40
4.0
 40
4.0
 40
4.0
 40
4.0
 10
89.58406675006492
 20
-192.4939996873908
 30
0.0
 10
69.42560728244828
 20
-192.4939996873908
 30
0.0
 10
53.08411982586743
 20
-176.1525552945035
 30
0.0
 10
53.08411982586743
 20
-155.9942680816612
 30
0.0
 10
53.08411982586743
 20
-135.8359808688188
 30
0.0
 10
69.42560728244828
 20
-119.4941489026894
 30
0.0
 10
89.58406675006492
 20
-119.4941489026894
 30
0.0
 10
109.7423539629073
 20
-119.4941489026894
 30
0.0
 10
126.0839706105689
 20
-135.8359808688188
 30
0.0
 10
126.0839706105689
 20
-155.9942680816612
 30
0.0
 10
126.0839706105689
 20
-176.1525552945035
 30
0.0
 10
109.7423539629073
 20
-192.4939996873908
 30
0.0
 10
89.58406675006492
 20
-192.4939996873908
 30
0.0
  0
POLYLINE
  5
1A7
330
1F
100
AcDbEntity
  8
Layer 2
 62
   179
420
  2301728
370
    35
100
AcDb2dPolyline
 66
     1
 10
0.0
 20
0.0
 30
0.0
  0
VERTEX
  5
1A8
330
1A7
100
AcDbEntity
  8
Layer 2
 62
   179
420
  2301728
370
    35
100
AcDbVertex
100
AcDb2dVertex
 10
135.2902777439552
 20
-429.8597221147573
 30
0.0
  0
VERTEX
  5
1A9
330
1A7
100
AcDbEntity
  8
Layer 2
 62
   179
420
  2301728
370
    35
100
AcDbVertex
100
AcDb2dVertex
 10
129.2930555232323
 20
-429.8597221147573
 30
0.0
  0
VERTEX
  5
1AA
330
1A7
100
AcDbEntity
  8
Layer 2
 62
   179
420
  2301728
370
    35
100
AcDbVertex
100
AcDb2dVertex
 10
129.2930555232323
 20
-419.981944339449
 30
0.0
  0
VERTEX
  5
1AB
330
1A7
100
AcDbEntity
  8
Layer 2
 62
   179
420
  2301728
370
    35
100
AcDbVertex
100
AcDb2dVertex
 10
135.2902777439552
 20
-419.981944339449
 30
0.0
  0
VERTEX
  5
1AC
330
1A7
100
AcDbEntity
  8
Layer 2
 62
   179
420
  2301728
370
    35
100
AcDbVertex
100
AcDb2dVertex
 10
135.2902777439552
 20
-429.8597221147573
 30
0.0
  0
SEQEND
  5
1AD
330
1A7
100
AcDbEntity
  8
Layer 2
 62
   179
420
  2301728
370
    35
  0
POLYLINE
  5
1AE
330
1F
100
AcDbEntity
  8
Layer 2
 62
   179
420
  2301728
370
    35
100
AcDb2dPolyline
 66
     1
 10
0.0
 20
0.0
 30
0.0
  0
VERTEX
  5
1AF
330
1AE
100
AcDbEntity
  8
Layer 2
 62
   179
420
  2301728
370
    35
100
AcDbVertex
100
AcDb2dVertex
 10
135.2902777439552
 20
-409.7513887864511
 30
0.0
  0
VERTEX
  5
1B0
330
1AE
100
AcDbEntity
  8
Layer 2
 62
   179
420
  2301728
370
    35
100
AcDbVertex
100
AcDb2dVertex
 10
129.2930555232323
 20
-409.7513887864511
 30
0.0
  0
VERTEX
  5
1B1
330
1AE
100
AcDbEntity
  8
Layer 2
 62
   179
420
  2301728
370
    35
100
AcDbVertex
100
AcDb2dVertex
 10
129.2930555232323
 20
-399.5208332334531
 30
0.0
  0
VERTEX
  5
1B2
330
1AE
100
AcDbEntity
  8
Layer 2
 62
   179
420
  2301728
370
    35
100
AcDbVertex
100
AcDb2dVertex
 10
135.2902777439552
 20
-399.5208332334531
 30
0.0
  0
VERTEX
  5
1B3
330
1AE
100
AcDbEntity
  8
Layer 2
 62
   179
420
  2301728
370
    35
100
AcDbVertex
100
AcDb2dVertex
 10
135.2902777439552
 20
-409.7513887864511
 30
0.0
  0
SEQEND
  5
1B4
330
1AE
100
AcDbEntity
  8
Layer 2
 62
   179
420
  2301728
370
    35
  0
POLYLINE
  5
1B5
330
1F
100
AcDbEntity
  8
Layer 2
 62
   179
420
  2301728
370
    35
100
AcDb2dPolyline
 66
     1
 10
0.0
 20
0.0
 30
0.0
  0
VERTEX
  5
1B6
330
1B5
100
AcDbEntity
  8
Layer 2
 62
   179
420
  2301728
370
    35
100
AcDbVertex
100
AcDb2dVertex
 10
135.2902777439552
 20
-389.6430554581448
 30
0.0
  0
VERTEX
  5
1B7
330
1B5
100
AcDbEntity
  8
Layer 2
 62
   179
420
  2301728
370
    35
100
AcDbVertex
100
AcDb2dVertex
 10
129.2930555232323
 20
-389.6430554581448
 30
0.0
  0
VERTEX
  5
1B8
330
1B5
100
AcDbEntity
  8
Layer 2
 62
   179
420
  2301728
370
    35
100
AcDbVertex
100
AcDb2dVertex
 10
129.2930555232323
 20
-379.7652776828365
 30
0.0
  0
VERTEX
  5
1B9
330
1B5
100
AcDbEntity
  8
Layer 2
 62
   179
420
  2301728
370
    35
100
AcDbVertex
100
AcDb2dVertex
 10
135.2902777439552
 20
-379.7652776828365
 30
0.0
  0
VERTEX
  5
1BA
330
1B5
100
AcDbEntity
  8
Layer 2
 62
   179
420
  2301728
370
    35
100
AcDbVertex
100
AcDb2dVertex
 10
135.2902777439552
 20
-389.6430554581448
 30
0.0
  0
SEQEND
  5
1BB
330
1B5
100
AcDbEntity
  8
Layer 2
 62
   179
420
  2301728
370
    35
  0
POLYLINE
  5
1BC
330
1F
100
AcDbEntity
  8
Layer 2
 62
   179
420
  2301728
370
    35
100
AcDb2dPolyline
 66
     1
 10
0.0
 20
0.0
 30
0.0
  0
VERTEX
  5
1BD
330
1BC
100
AcDbEntity
  8
Layer 2
 62
   179
420
  2301728
370
    35
100
AcDbVertex
100
AcDb2dVertex
 10
135.2902777439552
 20
-180.0930555105323
 30
0.0
  0
VERTEX
  5
1BE
330
1BC
100
AcDbEntity
  8
Layer 2
 62
   179
420
  2301728
370
    35
100
AcDbVertex
100
AcDb2dVertex
 10
129.2930555232323
 20
-180.0930555105323
 30
0.0
  0
VERTEX
  5
1BF
330
1BC
100
AcDbEntity
  8
Layer 2
 62
   179
420
  2301728
370
    35
100
AcDbVertex
100
AcDb2dVertex
 10
129.2930555232323
 20
-170.215277735224
 30
0.0
  0
VERTEX
  5
1C0
330
1BC
100
AcDbEntity
  8
Layer 2
 62
   179
420
  2301728
370
    35
100
AcDbVertex
100
AcDb2dVertex
 10
135.2902777439552
 20
-170.215277735224
 30
0.0
  0
VERTEX
  5
1C1
330
1BC
100
AcDbEntity
  8
Layer 2
 62
   179
420
  2301728
370
    35
100
AcDbVertex
100
AcDb2dVertex
 10
135.2902777439552
 20
-180.0930555105323
 30
0.0
  0
SEQEND
  5
1C2
330
1BC
100
AcDbEntity
  8
Layer 2
 62
   179
420
  2301728
370
    35
  0
POLYLINE
  5
1C3
330
1F
100
AcDbEntity
  8
Layer 2
 62
   179
420
  2301728
370
    35
100
AcDb2dPolyline
 66
     1
 10
0.0
 20
0.0
 30
0.0
  0
VERTEX
  5
1C4
330
1C3
100
AcDbEntity
  8
Layer 2
 62
   179
420
  2301728
370
    35
100
AcDbVertex
100
AcDb2dVertex
 10
135.2902777439552
 20
-159.9847221822261
 30
0.0
  0
VERTEX
  5
1C5
330
1C3
100
AcDbEntity
  8
Layer 2
 62
   179
420
  2301728
370
    35
100
AcDbVertex
100
AcDb2dVertex
 10
129.2930555232323
 20
-159.9847221822261
 30
0.0
  0
VERTEX
  5
1C6
330
1C3
100
AcDbEntity
  8
Layer 2
 62
   179
420
  2301728
370
    35
100
AcDbVertex
100
AcDb2dVertex
 10
129.2930555232323
 20
-149.7541666292281
 30
0.0
  0
VERTEX
  5
1C7
330
1C3
100
AcDbEntity
  8
Layer 2
 62
   179
420
  2301728
370
    35
100
AcDbVertex
100
AcDb2dVertex
 10
135.2902777439552
 20
-149.7541666292281
 30
0.0
  0
VERTEX
  5
1C8
330
1C3
100
AcDbEntity
  8
Layer 2
 62
   179
420
  2301728
370
    35
100
AcDbVertex
100
AcDb2dVertex
 10
135.2902777439552
 20
-159.9847221822261
 30
0.0
  0
SEQEND
  5
1C9
330
1C3
100
AcDbEntity
  8
Layer 2
 62
   179
420
  2301728
370
    35
  0
POLYLINE
  5
1CA
330
1F
100
AcDbEntity
  8
Layer 2
 62
   179
420
  2301728
370
    35
100
AcDb2dPolyline
 66
     1
 10
0.0
 20
0.0
 30
0.0
  0
VERTEX
  5
1CB
330
1CA
100
AcDbEntity
  8
Layer 2
 62
   179
420
  2301728
370
    35
100
AcDbVertex
100
AcDb2dVertex
 10
135.2902777439552
 20
-139.8763888539198
 30
0.0
  0
VERTEX
  5
1CC
330
1CA
100
AcDbEntity
  8
Layer 2
 62
   179
420
  2301728
370
    35
100
AcDbVertex
100
AcDb2dVertex
 10
129.2930555232323
 20
-139.8763888539198
 30
0.0
  0
VERTEX
  5
1CD
330
1CA
100
AcDbEntity
  8
Layer 2
 62
   179
420
  2301728
370
    35
100
AcDbVertex
100
AcDb2dVertex
 10
129.2930555232323
 20
-129.9986110786115
 30
0.0
  0
VERTEX
  5
1CE
330
1CA
100
AcDbEntity
  8
Layer 2
 62
   179
420
  2301728
370
    35
100
AcDbVertex
100
AcDb2dVertex
 10
135.2902777439552
 20
-129.9986110786115
 30
0.0
  0
VERTEX
  5
1CF
330
1CA
100
AcDbEntity
  8
Layer 2
 62
   179
420
  2301728
370
    35
100
AcDbVertex
100
AcDb2dVertex
 10
135.2902777439552
 20
-139.8763888539198
 30
0.0
  0
SEQEND
  5
1D0
330
1CA
100
AcDbEntity
  8
Layer 2
 62
   179
420
  2301728
370
    35
  0
POLYLINE
  5
1D1
330
1F
100
AcDbEntity
  8
Layer 2
 62
   179
420
  2301728
370
    35
100
AcDb2dPolyline
 66
     1
 10
0.0
 20
0.0
 30
0.0
  0
VERTEX
  5
1D2
330
1D1
100
AcDbEntity
  8
Layer 2
 62
   179
420
  2301728
370
    35
100
AcDbVertex
100
AcDb2dVertex
 10
-116.0280383349795
 20
-191.7347221742885
 30
0.0
  0
VERTEX
  5
1D3
330
1D1
100
AcDbEntity
  8
Layer 2
 62
   179
420
  2301728
370
    35
100
AcDbVertex
100
AcDb2dVertex
 10
-135.9472143892988
 20
-191.7347221742885
 30
0.0
  0
VERTEX
  5
1D4
330
1D1
100
AcDbEntity
  8
Layer 2
 62
   179
420
  2301728
370
    35
100
AcDbVertex
100
AcDb2dVertex
 10
-135.9472143892988
 20
-185.7347223453307
 30
0.0
  0
VERTEX
  5
1D5
330
1D1
100
AcDbEntity
  8
Layer 2
 62
   179
420
  2301728
370
    35
100
AcDbVertex
100
AcDb2dVertex
 10
-205.9472052165254
 20
-185.7347223453307
 30
0.0
  0
VERTEX
  5
1D6
330
1D1
100
AcDbEntity
  8
Layer 2
 62
   179
420
  2301728
370
    35
100
AcDbVertex
100
AcDb2dVertex
 10
-205.9472052165254
 20
-191.7347221742885
 30
0.0
  0
VERTEX
  5
1D7
330
1D1
100
AcDbEntity
  8
Layer 2
 62
   179
420
  2301728
370
    35
100
AcDbVertex
100
AcDb2dVertex
 10
-276.1203551555793
 20
-191.7347221742885
 30
0.0
  0
VERTEX
  5
1D8
330
1D1
100
AcDbEntity
  8
Layer 2
 62
   179
420
  2301728
370
    35
100
AcDbVertex
100
AcDb2dVertex
 10
-276.1203551555793
 20
-185.7347223453307
 30
0.0
  0
VERTEX
  5
1D9
330
1D1
100
AcDbEntity
  8
Layer 2
 62
   179
420
  2301728
370
    35
100
AcDbVertex
100
AcDb2dVertex
 10
-346.1203675146526
 20
-185.7347223453307
 30
0.0
  0
VERTEX
  5
1DA
330
1D1
100
AcDbEntity
  8
Layer 2
 62
   179
420
  2301728
370
    35
100
AcDbVertex
100
AcDb2dVertex
 10
-346.1203675146526
 20
-191.7347221742885
 30
0.0
  0
VERTEX
  5
1DB
330
1D1
100
AcDbEntity
  8
Layer 2
 62
   179
420
  2301728
370
    35
100
AcDbVertex
100
AcDb2dVertex
 10
-366.1833332417875
 20
-191.7347221742885
 30
0.0
  0
VERTEX
  5
1DC
330
1D1
100
AcDbEntity
  8
Layer 2
 62
   179
420
  2301728
370
    35
100
AcDbVertex
100
AcDb2dVertex
 10
-411.8680554525886
 20
-316.6180554764011
 30
0.0
  0
VERTEX
  5
1DD
330
1D1
100
AcDbEntity
  8
Layer 2
 62
   179
420
  2301728
370
    35
100
AcDbVertex
100
AcDb2dVertex
 10
-366.1833332417875
 20
-441.5013887785136
 30
0.0
  0
VERTEX
  5
1DE
330
1D1
100
AcDbEntity
  8
Layer 2
 62
   179
420
  2301728
370
    35
100
AcDbVertex
100
AcDb2dVertex
 10
-346.1203675146526
 20
-441.5013887785136
 30
0.0
  0
VERTEX
  5
1DF
330
1D1
100
AcDbEntity
  8
Layer 2
 62
   179
420
  2301728
370
    35
100
AcDbVertex
100
AcDb2dVertex
 10
-346.1203675146526
 20
-447.5013670756247
 30
0.0
  0
VERTEX
  5
1E0
330
1D1
100
AcDbEntity
  8
Layer 2
 62
   179
420
  2301728
370
    35
100
AcDbVertex
100
AcDb2dVertex
 10
-276.1203551555793
 20
-447.5013670756247
 30
0.0
  0
VERTEX
  5
1E1
330
1D1
100
AcDbEntity
  8
Layer 2
 62
   179
420
  2301728
370
    35
100
AcDbVertex
100
AcDb2dVertex
 10
-276.1203551555793
 20
-441.5013887785136
 30
0.0
  0
VERTEX
  5
1E2
330
1D1
100
AcDbEntity
  8
Layer 2
 62
   179
420
  2301728
370
    35
100
AcDbVertex
100
AcDb2dVertex
 10
-206.1203643283527
 20
-441.5013887785136
 30
0.0
  0
VERTEX
  5
1E3
330
1D1
100
AcDbEntity
  8
Layer 2
 62
   179
420
  2301728
370
    35
100
AcDbVertex
100
AcDb2dVertex
 10
-206.1203643283527
 20
-447.5013670756247
 30
0.0
  0
VERTEX
  5
1E4
330
1D1
100
AcDbEntity
  8
Layer 2
 62
   179
420
  2301728
370
    35
100
AcDbVertex
100
AcDb2dVertex
 10
-136.1203519692794
 20
-447.5013670756247
 30
0.0
  0
VERTEX
  5
1E5
330
1D1
100
AcDbEntity
  8
Layer 2
 62
   179
420
  2301728
370
    35
100
AcDbVertex
100
AcDb2dVertex
 10
-136.1203519692794
 20
-441.5013887785136
 30
0.0
  0
VERTEX
  5
1E6
330
1D1
100
AcDbEntity
  8
Layer 2
 62
   179
420
  2301728
370
    35
100
AcDbVertex
100
AcDb2dVertex
 10
-116.0280383349795
 20
-441.5013887785136
 30
0.0
  0
VERTEX
  5
1E7
330
1D1
100
AcDbEntity
  8
Layer 2
 62
   179
420
  2301728
370
    35
100
AcDbVertex
100
AcDb2dVertex
 10
-70.0263888713823
 20
-316.6180554764011
 30
0.0
  0
VERTEX
  5
1E8
330
1D1
100
AcDbEntity
  8
Layer 2
 62
   179
420
  2301728
370
    35
100
AcDbVertex
100
AcDb2dVertex
 10
-116.0280383349795
 20
-191.7347221742885
 30
0.0
  0
SEQEND
  5
1E9
330
1D1
100
AcDbEntity
  8
Layer 2
 62
   179
420
  2301728
370
    35
  0
POLYLINE
  5
1EA
330
1F
100
AcDbEntity
  8
Layer 2
 62
   179
420
  2301728
370
    35
100
AcDb2dPolyline
 66
     1
 10
0.0
 20
0.0
 30
0.0
  0
VERTEX
  5
1EB
330
1EA
100
AcDbEntity
  8
Layer 2
 62
   179
420
  2301728
370
    35
100
AcDbVertex
100
AcDb2dVertex
 10
-290.7740688020895
 20
-211.7347072495837
 30
0.0
  0
VERTEX
  5
1EC
330
1EA
100
AcDbEntity
  8
Layer 2
 62
   179
420
  2301728
370
    35
100
AcDbVertex
100
AcDb2dVertex
 10
-280.7740762644419
 20
-211.7347072495837
 30
0.0
  0
VERTEX
  5
1ED
330
1EA
100
AcDbEntity
  8
Layer 2
 62
   179
420
  2301728
370
    35
100
AcDbVertex
100
AcDb2dVertex
 10
-280.7740762644419
 20
-251.7347204638675
 30
0.0
  0
VERTEX
  5
1EE
330
1EA
100
AcDbEntity
  8
Layer 2
 62
   179
420
  2301728
370
    35
100
AcDbVertex
100
AcDb2dVertex
 10
-290.7740688020895
 20
-251.7347204638675
 30
0.0
  0
VERTEX
  5
1EF
330
1EA
100
AcDbEntity
  8
Layer 2
 62
   179
420
  2301728
370
    35
100
AcDbVertex
100
AcDb2dVertex
 10
-290.7740688020895
 20
-211.7347072495837
 30
0.0
  0
SEQEND
  5
1F0
330
1EA
100
AcDbEntity
  8
Layer 2
 62
   179
420
  2301728
370
    35
  0
POLYLINE
  5
1F1
330
1F
100
AcDbEntity
  8
Layer 2
 62
   179
420
  2301728
370
    35
100
AcDb2dPolyline
 66
     1
 10
0.0
 20
0.0
 30
0.0
  0
VERTEX
  5
1F2
330
1F1
100
AcDbEntity
  8
Layer 2
 62
   179
420
  2301728
370
    35
100
AcDbVertex
100
AcDb2dVertex
 10
-320.8173469589124
 20
-211.7347072495837
 30
0.0
  0
VERTEX
  5
1F3
330
1F1
100
AcDbEntity
  8
Layer 2
 62
   179
420
  2301728
370
    35
100
AcDbVertex
100
AcDb2dVertex
 10
-310.8173544212648
 20
-211.7347072495837
 30
0.0
  0
VERTEX
  5
1F4
330
1F1
100
AcDbEntity
  8
Layer 2
 62
   179
420
  2301728
370
    35
100
AcDbVertex
100
AcDb2dVertex
 10
-310.8173544212648
 20
-251.7347204638675
 30
0.0
  0
VERTEX
  5
1F5
330
1F1
100
AcDbEntity
  8
Layer 2
 62
   179
420
  2301728
370
    35
100
AcDbVertex
100
AcDb2dVertex
 10
-320.8173469589124
 20
-251.7347204638675
 30
0.0
  0
VERTEX
  5
1F6
330
1F1
100
AcDbEntity
  8
Layer 2
 62
   179
420
  2301728
370
    35
100
AcDbVertex
100
AcDb2dVertex
 10
-320.8173469589124
 20
-211.7347072495837
 30
0.0
  0
SEQEND
  5
1F7
330
1F1
100
AcDbEntity
  8
Layer 2
 62
   179
420
  2301728
370
    35
  0
POLYLINE
  5
1F8
330
1F
100
AcDbEntity
  8
Layer 2
 62
   179
420
  2301728
370
    35
100
AcDb2dPolyline
 66
     1
 10
0.0
 20
0.0
 30
0.0
  0
VERTEX
  5
1F9
330
1F8
100
AcDbEntity
  8
Layer 2
 62
   179
420
  2301728
370
    35
100
AcDbVertex
100
AcDb2dVertex
 10
-340.9039331219681
 20
-421.5014037032184
 30
0.0
  0
VERTEX
  5
1FA
330
1F8
100
AcDbEntity
  8
Layer 2
 62
   179
420
  2301728
370
    35
100
AcDbVertex
100
AcDb2dVertex
 10
-350.9039256596156
 20
-421.5014037032184
 30
0.0
  0
VERTEX
  5
1FB
330
1F8
100
AcDbEntity
  8
Layer 2
 62
   179
420
  2301728
370
    35
100
AcDbVertex
100
AcDb2dVertex
 10
-350.9039256596156
 20
-381.501347425241
 30
0.0
  0
VERTEX
  5
1FC
330
1F8
100
AcDbEntity
  8
Layer 2
 62
   179
420
  2301728
370
    35
100
AcDbVertex
100
AcDb2dVertex
 10
-340.9039331219681
 20
-381.501347425241
 30
0.0
  0
VERTEX
  5
1FD
330
1F8
100
AcDbEntity
  8
Layer 2
 62
   179
420
  2301728
370
    35
100
AcDbVertex
100
AcDb2dVertex
 10
-340.9039331219681
 20
-421.5014037032184
 30
0.0
  0
SEQEND
  5
1FE
330
1F8
100
AcDbEntity
  8
Layer 2
 62
   179
420
  2301728
370
    35
  0
POLYLINE
  5
1FF
330
1F
100
AcDbEntity
  8
Layer 2
 62
   179
420
  2301728
370
    35
100
AcDb2dPolyline
 66
     1
 10
0.0
 20
0.0
 30
0.0
  0
VERTEX
  5
200
330
1FF
100
AcDbEntity
  8
Layer 2
 62
   179
420
  2301728
370
    35
100
AcDbVertex
100
AcDb2dVertex
 10
-340.7307955419874
 20
-251.7347204638675
 30
0.0
  0
VERTEX
  5
201
330
1FF
100
AcDbEntity
  8
Layer 2
 62
   179
420
  2301728
370
    35
100
AcDbVertex
100
AcDb2dVertex
 10
-350.730788079635
 20
-251.7347204638675
 30
0.0
  0
VERTEX
  5
202
330
1FF
100
AcDbEntity
  8
Layer 2
 62
   179
420
  2301728
370
    35
100
AcDbVertex
100
AcDb2dVertex
 10
-350.730788079635
 20
-211.7347072495837
 30
0.0
  0
VERTEX
  5
203
330
1FF
100
AcDbEntity
  8
Layer 2
 62
   179
420
  2301728
370
    35
100
AcDbVertex
100
AcDb2dVertex
 10
-340.7307955419874
 20
-211.7347072495837
 30
0.0
  0
VERTEX
  5
204
330
1FF
100
AcDbEntity
  8
Layer 2
 62
   179
420
  2301728
370
    35
100
AcDbVertex
100
AcDb2dVertex
 10
-340.7307955419874
 20
-251.7347204638675
 30
0.0
  0
SEQEND
  5
205
330
1FF
100
AcDbEntity
  8
Layer 2
 62
   179
420
  2301728
370
    35
  0
POLYLINE
  5
206
330
1F
100
AcDbEntity
  8
Layer 2
 62
   179
420
  2301728
370
    35
100
AcDb2dPolyline
 66
     1
 10
0.0
 20
0.0
 30
0.0
  0
VERTEX
  5
207
330
206
100
AcDbEntity
  8
Layer 2
 62
   179
420
  2301728
370
    35
100
AcDbVertex
100
AcDb2dVertex
 10
-310.9904920012455
 20
-421.5014037032184
 30
0.0
  0
VERTEX
  5
208
330
206
100
AcDbEntity
  8
Layer 2
 62
   179
420
  2301728
370
    35
100
AcDbVertex
100
AcDb2dVertex
 10
-320.990484538893
 20
-421.5014037032184
 30
0.0
  0
VERTEX
  5
209
330
206
100
AcDbEntity
  8
Layer 2
 62
   179
420
  2301728
370
    35
100
AcDbVertex
100
AcDb2dVertex
 10
-320.990484538893
 20
-381.501347425241
 30
0.0
  0
VERTEX
  5
20A
330
206
100
AcDbEntity
  8
Layer 2
 62
   179
420
  2301728
370
    35
100
AcDbVertex
100
AcDb2dVertex
 10
-310.9904920012455
 20
-381.501347425241
 30
0.0
  0
VERTEX
  5
20B
330
206
100
AcDbEntity
  8
Layer 2
 62
   179
420
  2301728
370
    35
100
AcDbVertex
100
AcDb2dVertex
 10
-310.9904920012455
 20
-421.5014037032184
 30
0.0
  0
SEQEND
  5
20C
330
206
100
AcDbEntity
  8
Layer 2
 62
   179
420
  2301728
370
    35
  0
POLYLINE
  5
20D
330
1F
100
AcDbEntity
  8
Layer 2
 62
   179
420
  2301728
370
    35
100
AcDb2dPolyline
 66
     1
 10
0.0
 20
0.0
 30
0.0
  0
VERTEX
  5
20E
330
20D
100
AcDbEntity
  8
Layer 2
 62
   179
420
  2301728
370
    35
100
AcDbVertex
100
AcDb2dVertex
 10
-280.9472138444225
 20
-421.5014037032184
 30
0.0
  0
VERTEX
  5
20F
330
20D
100
AcDbEntity
  8
Layer 2
 62
   179
420
  2301728
370
    35
100
AcDbVertex
100
AcDb2dVertex
 10
-290.9472063820701
 20
-421.5014037032184
 30
0.0
  0
VERTEX
  5
210
330
20D
100
AcDbEntity
  8
Layer 2
 62
   179
420
  2301728
370
    35
100
AcDbVertex
100
AcDb2dVertex
 10
-290.9472063820701
 20
-381.501347425241
 30
0.0
  0
VERTEX
  5
211
330
20D
100
AcDbEntity
  8
Layer 2
 62
   179
420
  2301728
370
    35
100
AcDbVertex
100
AcDb2dVertex
 10
-280.9472138444225
 20
-381.501347425241
 30
0.0
  0
VERTEX
  5
212
330
20D
100
AcDbEntity
  8
Layer 2
 62
   179
420
  2301728
370
    35
100
AcDbVertex
100
AcDb2dVertex
 10
-280.9472138444225
 20
-421.5014037032184
 30
0.0
  0
SEQEND
  5
213
330
20D
100
AcDbEntity
  8
Layer 2
 62
   179
420
  2301728
370
    35
  0
POLYLINE
  5
214
330
1F
100
AcDbEntity
  8
Layer 2
 62
   179
420
  2301728
370
    35
100
AcDb2dPolyline
 66
     1
 10
0.0
 20
0.0
 30
0.0
  0
VERTEX
  5
215
330
214
100
AcDbEntity
  8
Layer 2
 62
   179
420
  2301728
370
    35
100
AcDbVertex
100
AcDb2dVertex
 10
-339.9427084178898
 20
-353.2819458820029
 30
0.0
  0
VERTEX
  5
216
330
214
100
AcDbEntity
  8
Layer 2
 62
   179
420
  2301728
370
    35
100
AcDbVertex
100
AcDb2dVertex
 10
-339.9427084178898
 20
-277.2819336939716
 30
0.0
  0
VERTEX
  5
217
330
214
100
AcDbEntity
  8
Layer 2
 62
   179
420
  2301728
370
    35
100
AcDbVertex
100
AcDb2dVertex
 10
-259.9427035211688
 20
-277.2819336939716
 30
0.0
  0
VERTEX
  5
218
330
214
100
AcDbEntity
  8
Layer 2
 62
   179
420
  2301728
370
    35
100
AcDbVertex
100
AcDb2dVertex
 10
-259.9427035211688
 20
-353.2819458820029
 30
0.0
  0
VERTEX
  5
219
330
214
100
AcDbEntity
  8
Layer 2
 62
   179
420
  2301728
370
    35
100
AcDbVertex
100
AcDb2dVertex
 10
-339.9427084178898
 20
-353.2819458820029
 30
0.0
  0
SEQEND
  5
21A
330
214
100
AcDbEntity
  8
Layer 2
 62
   179
420
  2301728
370
    35
  0
POLYLINE
  5
21B
330
1F
100
AcDbEntity
  8
Layer 2
 62
   179
420
  2301728
370
    35
100
AcDb2dPolyline
 66
     1
 10
0.0
 20
0.0
 30
0.0
  0
VERTEX
  5
21C
330
21B
100
AcDbEntity
  8
Layer 2
 62
   179
420
  2301728
370
    35
100
AcDbVertex
100
AcDb2dVertex
 10
-251.0337942555467
 20
-421.5014037032184
 30
0.0
  0
VERTEX
  5
21D
330
21B
100
AcDbEntity
  8
Layer 2
 62
   179
420
  2301728
370
    35
100
AcDbVertex
100
AcDb2dVertex
 10
-261.0337867931943
 20
-421.5014037032184
 30
0.0
  0
VERTEX
  5
21E
330
21B
100
AcDbEntity
  8
Layer 2
 62
   179
420
  2301728
370
    35
100
AcDbVertex
100
AcDb2dVertex
 10
-261.0337867931943
 20
-381.501347425241
 30
0.0
  0
VERTEX
  5
21F
330
21B
100
AcDbEntity
  8
Layer 2
 62
   179
420
  2301728
370
    35
100
AcDbVertex
100
AcDb2dVertex
 10
-251.0337942555467
 20
-381.501347425241
 30
0.0
  0
VERTEX
  5
220
330
21B
100
AcDbEntity
  8
Layer 2
 62
   179
420
  2301728
370
    35
100
AcDbVertex
100
AcDb2dVertex
 10
-251.0337942555467
 20
-421.5014037032184
 30
0.0
  0
SEQEND
  5
221
330
21B
100
AcDbEntity
  8
Layer 2
 62
   179
420
  2301728
370
    35
  0
POLYLINE
  5
222
330
1F
100
AcDbEntity
  8
Layer 2
 62
   179
420
  2301728
370
    35
100
AcDb2dPolyline
 66
     1
 10
0.0
 20
0.0
 30
0.0
  0
VERTEX
  5
223
330
222
100
AcDbEntity
  8
Layer 2
 62
   179
420
  2301728
370
    35
100
AcDbVertex
100
AcDb2dVertex
 10
-250.8606566755661
 20
-251.7347204638675
 30
0.0
  0
VERTEX
  5
224
330
222
100
AcDbEntity
  8
Layer 2
 62
   179
420
  2301728
370
    35
100
AcDbVertex
100
AcDb2dVertex
 10
-260.8606492132137
 20
-251.7347204638675
 30
0.0
  0
VERTEX
  5
225
330
222
100
AcDbEntity
  8
Layer 2
 62
   179
420
  2301728
370
    35
100
AcDbVertex
100
AcDb2dVertex
 10
-260.8606492132137
 20
-211.7347072495837
 30
0.0
  0
VERTEX
  5
226
330
222
100
AcDbEntity
  8
Layer 2
 62
   179
420
  2301728
370
    35
100
AcDbVertex
100
AcDb2dVertex
 10
-250.8606566755661
 20
-211.7347072495837
 30
0.0
  0
VERTEX
  5
227
330
222
100
AcDbEntity
  8
Layer 2
 62
   179
420
  2301728
370
    35
100
AcDbVertex
100
AcDb2dVertex
 10
-250.8606566755661
 20
-251.7347204638675
 30
0.0
  0
SEQEND
  5
228
330
222
100
AcDbEntity
  8
Layer 2
 62
   179
420
  2301728
370
    35
  0
POLYLINE
  5
229
330
1F
100
AcDbEntity
  8
Layer 2
 62
   179
420
  2301728
370
    35
100
AcDb2dPolyline
 66
     1
 10
0.0
 20
0.0
 30
0.0
  0
VERTEX
  5
22A
330
229
100
AcDbEntity
  8
Layer 2
 62
   179
420
  2301728
370
    35
100
AcDbVertex
100
AcDb2dVertex
 10
-221.2069326907378
 20
-421.5014037032184
 30
0.0
  0
VERTEX
  5
22B
330
229
100
AcDbEntity
  8
Layer 2
 62
   179
420
  2301728
370
    35
100
AcDbVertex
100
AcDb2dVertex
 10
-231.2069252283854
 20
-421.5014037032184
 30
0.0
  0
VERTEX
  5
22C
330
229
100
AcDbEntity
  8
Layer 2
 62
   179
420
  2301728
370
    35
100
AcDbVertex
100
AcDb2dVertex
 10
-231.2069252283854
 20
-381.501347425241
 30
0.0
  0
VERTEX
  5
22D
330
229
100
AcDbEntity
  8
Layer 2
 62
   179
420
  2301728
370
    35
100
AcDbVertex
100
AcDb2dVertex
 10
-221.2069326907378
 20
-381.501347425241
 30
0.0
  0
VERTEX
  5
22E
330
229
100
AcDbEntity
  8
Layer 2
 62
   179
420
  2301728
370
    35
100
AcDbVertex
100
AcDb2dVertex
 10
-221.2069326907378
 20
-421.5014037032184
 30
0.0
  0
SEQEND
  5
22F
330
229
100
AcDbEntity
  8
Layer 2
 62
   179
420
  2301728
370
    35
  0
POLYLINE
  5
230
330
1F
100
AcDbEntity
  8
Layer 2
 62
   179
420
  2301728
370
    35
100
AcDb2dPolyline
 66
     1
 10
0.0
 20
0.0
 30
0.0
  0
VERTEX
  5
231
330
230
100
AcDbEntity
  8
Layer 2
 62
   179
420
  2301728
370
    35
100
AcDbVertex
100
AcDb2dVertex
 10
-221.0337951107572
 20
-251.7347204638675
 30
0.0
  0
VERTEX
  5
232
330
230
100
AcDbEntity
  8
Layer 2
 62
   179
420
  2301728
370
    35
100
AcDbVertex
100
AcDb2dVertex
 10
-231.0337876484048
 20
-251.7347204638675
 30
0.0
  0
VERTEX
  5
233
330
230
100
AcDbEntity
  8
Layer 2
 62
   179
420
  2301728
370
    35
100
AcDbVertex
100
AcDb2dVertex
 10
-231.0337876484048
 20
-211.7347072495837
 30
0.0
  0
VERTEX
  5
234
330
230
100
AcDbEntity
  8
Layer 2
 62
   179
420
  2301728
370
    35
100
AcDbVertex
100
AcDb2dVertex
 10
-221.0337951107572
 20
-211.7347072495837
 30
0.0
  0
VERTEX
  5
235
330
230
100
AcDbEntity
  8
Layer 2
 62
   179
420
  2301728
370
    35
100
AcDbVertex
100
AcDb2dVertex
 10
-221.0337951107572
 20
-251.7347204638675
 30
0.0
  0
SEQEND
  5
236
330
230
100
AcDbEntity
  8
Layer 2
 62
   179
420
  2301728
370
    35
  0
POLYLINE
  5
237
330
1F
100
AcDbEntity
  8
Layer 2
 62
   179
420
  2301728
370
    35
100
AcDb2dPolyline
 66
     1
 10
0.0
 20
0.0
 30
0.0
  0
VERTEX
  5
238
330
237
100
AcDbEntity
  8
Layer 2
 62
   179
420
  2301728
370
    35
100
AcDbVertex
100
AcDb2dVertex
 10
-191.2934915700152
 20
-421.5014037032184
 30
0.0
  0
VERTEX
  5
239
330
237
100
AcDbEntity
  8
Layer 2
 62
   179
420
  2301728
370
    35
100
AcDbVertex
100
AcDb2dVertex
 10
-201.2934841076627
 20
-421.5014037032184
 30
0.0
  0
VERTEX
  5
23A
330
237
100
AcDbEntity
  8
Layer 2
 62
   179
420
  2301728
370
    35
100
AcDbVertex
100
AcDb2dVertex
 10
-201.2934841076627
 20
-381.501347425241
 30
0.0
  0
VERTEX
  5
23B
330
237
100
AcDbEntity
  8
Layer 2
 62
   179
420
  2301728
370
    35
100
AcDbVertex
100
AcDb2dVertex
 10
-191.2934915700152
 20
-381.501347425241
 30
0.0
  0
VERTEX
  5
23C
330
237
100
AcDbEntity
  8
Layer 2
 62
   179
420
  2301728
370
    35
100
AcDbVertex
100
AcDb2dVertex
 10
-191.2934915700152
 20
-421.5014037032184
 30
0.0
  0
SEQEND
  5
23D
330
237
100
AcDbEntity
  8
Layer 2
 62
   179
420
  2301728
370
    35
  0
POLYLINE
  5
23E
330
1F
100
AcDbEntity
  8
Layer 2
 62
   179
420
  2301728
370
    35
100
AcDb2dPolyline
 66
     1
 10
0.0
 20
0.0
 30
0.0
  0
VERTEX
  5
23F
330
23E
100
AcDbEntity
  8
Layer 2
 62
   179
420
  2301728
370
    35
100
AcDbVertex
100
AcDb2dVertex
 10
-191.1203539900346
 20
-251.7347204638675
 30
0.0
  0
VERTEX
  5
240
330
23E
100
AcDbEntity
  8
Layer 2
 62
   179
420
  2301728
370
    35
100
AcDbVertex
100
AcDb2dVertex
 10
-201.1203465276822
 20
-251.7347204638675
 30
0.0
  0
VERTEX
  5
241
330
23E
100
AcDbEntity
  8
Layer 2
 62
   179
420
  2301728
370
    35
100
AcDbVertex
100
AcDb2dVertex
 10
-201.1203465276822
 20
-211.7347072495837
 30
0.0
  0
VERTEX
  5
242
330
23E
100
AcDbEntity
  8
Layer 2
 62
   179
420
  2301728
370
    35
100
AcDbVertex
100
AcDb2dVertex
 10
-191.1203539900346
 20
-211.7347072495837
 30
0.0
  0
VERTEX
  5
243
330
23E
100
AcDbEntity
  8
Layer 2
 62
   179
420
  2301728
370
    35
100
AcDbVertex
100
AcDb2dVertex
 10
-191.1203539900346
 20
-251.7347204638675
 30
0.0
  0
SEQEND
  5
244
330
23E
100
AcDbEntity
  8
Layer 2
 62
   179
420
  2301728
370
    35
  0
POLYLINE
  5
245
330
1F
100
AcDbEntity
  8
Layer 2
 62
   179
420
  2301728
370
    35
100
AcDb2dPolyline
 66
     1
 10
0.0
 20
0.0
 30
0.0
  0
VERTEX
  5
246
330
245
100
AcDbEntity
  8
Layer 2
 62
   179
420
  2301728
370
    35
100
AcDbVertex
100
AcDb2dVertex
 10
-161.2502134131922
 20
-421.5014037032184
 30
0.0
  0
VERTEX
  5
247
330
245
100
AcDbEntity
  8
Layer 2
 62
   179
420
  2301728
370
    35
100
AcDbVertex
100
AcDb2dVertex
 10
-171.2502059508398
 20
-421.5014037032184
 30
0.0
  0
VERTEX
  5
248
330
245
100
AcDbEntity
  8
Layer 2
 62
   179
420
  2301728
370
    35
100
AcDbVertex
100
AcDb2dVertex
 10
-171.2502059508398
 20
-381.501347425241
 30
0.0
  0
VERTEX
  5
249
330
245
100
AcDbEntity
  8
Layer 2
 62
   179
420
  2301728
370
    35
100
AcDbVertex
100
AcDb2dVertex
 10
-161.2502134131922
 20
-381.501347425241
 30
0.0
  0
VERTEX
  5
24A
330
245
100
AcDbEntity
  8
Layer 2
 62
   179
420
  2301728
370
    35
100
AcDbVertex
100
AcDb2dVertex
 10
-161.2502134131922
 20
-421.5014037032184
 30
0.0
  0
SEQEND
  5
24B
330
245
100
AcDbEntity
  8
Layer 2
 62
   179
420
  2301728
370
    35
  0
POLYLINE
  5
24C
330
1F
100
AcDbEntity
  8
Layer 2
 62
   179
420
  2301728
370
    35
100
AcDb2dPolyline
 66
     1
 10
0.0
 20
0.0
 30
0.0
  0
VERTEX
  5
24D
330
24C
100
AcDbEntity
  8
Layer 2
 62
   179
420
  2301728
370
    35
100
AcDbVertex
100
AcDb2dVertex
 10
-161.0770758332116
 20
-251.7347204638675
 30
0.0
  0
VERTEX
  5
24E
330
24C
100
AcDbEntity
  8
Layer 2
 62
   179
420
  2301728
370
    35
100
AcDbVertex
100
AcDb2dVertex
 10
-171.0770683708592
 20
-251.7347204638675
 30
0.0
  0
VERTEX
  5
24F
330
24C
100
AcDbEntity
  8
Layer 2
 62
   179
420
  2301728
370
    35
100
AcDbVertex
100
AcDb2dVertex
 10
-171.0770683708592
 20
-211.7347072495837
 30
0.0
  0
VERTEX
  5
250
330
24C
100
AcDbEntity
  8
Layer 2
 62
   179
420
  2301728
370
    35
100
AcDbVertex
100
AcDb2dVertex
 10
-161.0770758332116
 20
-211.7347072495837
 30
0.0
  0
VERTEX
  5
251
330
24C
100
AcDbEntity
  8
Layer 2
 62
   179
420
  2301728
370
    35
100
AcDbVertex
100
AcDb2dVertex
 10
-161.0770758332116
 20
-251.7347204638675
 30
0.0
  0
SEQEND
  5
252
330
24C
100
AcDbEntity
  8
Layer 2
 62
   179
420
  2301728
370
    35
  0
POLYLINE
  5
253
330
1F
100
AcDbEntity
  8
Layer 2
 62
   179
420
  2301728
370
    35
100
AcDb2dPolyline
 66
     1
 10
0.0
 20
0.0
 30
0.0
  0
VERTEX
  5
254
330
253
100
AcDbEntity
  8
Layer 2
 62
   179
420
  2301728
370
    35
100
AcDbVertex
100
AcDb2dVertex
 10
-131.3367938243164
 20
-421.5014037032184
 30
0.0
  0
VERTEX
  5
255
330
253
100
AcDbEntity
  8
Layer 2
 62
   179
420
  2301728
370
    35
100
AcDbVertex
100
AcDb2dVertex
 10
-141.336786361964
 20
-421.5014037032184
 30
0.0
  0
VERTEX
  5
256
330
253
100
AcDbEntity
  8
Layer 2
 62
   179
420
  2301728
370
    35
100
AcDbVertex
100
AcDb2dVertex
 10
-141.336786361964
 20
-381.501347425241
 30
0.0
  0
VERTEX
  5
257
330
253
100
AcDbEntity
  8
Layer 2
 62
   179
420
  2301728
370
    35
100
AcDbVertex
100
AcDb2dVertex
 10
-131.3367938243164
 20
-381.501347425241
 30
0.0
  0
VERTEX
  5
258
330
253
100
AcDbEntity
  8
Layer 2
 62
   179
420
  2301728
370
    35
100
AcDbVertex
100
AcDb2dVertex
 10
-131.3367938243164
 20
-421.5014037032184
 30
0.0
  0
SEQEND
  5
259
330
253
100
AcDbEntity
  8
Layer 2
 62
   179
420
  2301728
370
    35
  0
POLYLINE
  5
25A
330
1F
100
AcDbEntity
  8
Layer 2
 62
   179
420
  2301728
370
    35
100
AcDb2dPolyline
 66
     1
 10
0.0
 20
0.0
 30
0.0
  0
VERTEX
  5
25B
330
25A
100
AcDbEntity
  8
Layer 2
 62
   179
420
  2301728
370
    35
100
AcDbVertex
100
AcDb2dVertex
 10
-131.1636562443358
 20
-251.7347204638675
 30
0.0
  0
VERTEX
  5
25C
330
25A
100
AcDbEntity
  8
Layer 2
 62
   179
420
  2301728
370
    35
100
AcDbVertex
100
AcDb2dVertex
 10
-141.1636487819834
 20
-251.7347204638675
 30
0.0
  0
VERTEX
  5
25D
330
25A
100
AcDbEntity
  8
Layer 2
 62
   179
420
  2301728
370
    35
100
AcDbVertex
100
AcDb2dVertex
 10
-141.1636487819834
 20
-211.7347072495837
 30
0.0
  0
VERTEX
  5
25E
330
25A
100
AcDbEntity
  8
Layer 2
 62
   179
420
  2301728
370
    35
100
AcDbVertex
100
AcDb2dVertex
 10
-131.1636562443358
 20
-211.7347072495837
 30
0.0
  0
VERTEX
  5
25F
330
25A
100
AcDbEntity
  8
Layer 2
 62
   179
420
  2301728
370
    35
100
AcDbVertex
100
AcDb2dVertex
 10
-131.1636562443358
 20
-251.7347204638675
 30
0.0
  0
SEQEND
  5
260
330
25A
100
AcDbEntity
  8
Layer 2
 62
   179
420
  2301728
370
    35
  0
ENDSEC
  0
SECTION
  2
OBJECTS
  0
DICTIONARY
  5
C
330
0
100
AcDbDictionary
281
     1
  3
ACAD_GROUP
350
D
  3
ACAD_LAYOUT
350
1A
  3
ACAD_MATERIAL
350
3B
  3
ACAD_MLEADERSTYLE
350
262
  3
ACAD_MLINESTYLE
350
17
  3
ACAD_PLOTSETTINGS
350
19
  3
ACAD_PLOTSTYLENAME
350
E
  3
ACAD_TABLESTYLE
350
261
  3
ACAD_VISUALSTYLE
350
2A
  0
SUN
  5
3F
330
29
100
AcDbSun
 90
        1
290
     0
 63
     7
421
 16777215
 40
1.0
291
     1
 91
  2455826
 92
 54000000
292
     0
 70
     2
 71
   256
280
     1
  0
DICTIONARY
  5
D
102
{ACAD_REACTORS
330
C
102
}
330
C
100
AcDbDictionary
281
     1
  0
DICTIONARY
  5
1A
102
{ACAD_REACTORS
330
C
102
}
330
C
100
AcDbDictionary
281
     1
  3
Layout1
350
1E
  3
Layout2
350
26
  3
Model
350
22
  0
DICTIONARY
  5
3B
102
{ACAD_REACTORS
330
C
102
}
330
C
100
AcDbDictionary
281
     1
  3
ByBlock
350
3D
  3
ByLayer
350
3C
  3
Global
350
3E
  0
DICTIONARY
  5
262
102
{ACAD_REACTORS
330
C
102
}
330
C
100
AcDbDictionary
281
     1
  0
DICTIONARY
  5
17
102
{ACAD_REACTORS
330
C
102
}
330
C
100
AcDbDictionary
281
     1
  3
Standard
350
18
  0
DICTIONARY
  5
19
102
{ACAD_REACTORS
330
C
102
}
330
C
100
AcDbDictionary
281
     1
  0
ACDBDICTIONARYWDFLT
  5
E
102
{ACAD_REACTORS
330
C
102
}
330
C
100
AcDbDictionary
281
     1
  3
Normal
350
F
100
AcDbDictionaryWithDefault
340
F
  0
DICTIONARY
  5
261
102
{ACAD_REACTORS
330
C
102
}
330
C
100
AcDbDictionary
281
     1
  0
DICTIONARY
  5
2A
102
{ACAD_REACTORS
330
C
102
}
330
C
100
AcDbDictionary
281
     1
  3
2dWireframe
350
2F
  3
3D Hidden
350
31
  3
3dWireframe
350
30
  3
Basic
350
32
  3
Brighten
350
36
  3
ColorChange
350
3A
  3
Conceptual
350
34
  3
Dim
350
35
  3
Facepattern
350
39
  3
Flat
350
2B
  3
FlatWithEdges
350
2C
  3
Gouraud
350
2D
  3
GouraudWithEdges
350
2E
  3
Linepattern
350
38
  3
Realistic
350
33
  3
Thicken
350
37
  0
LAYOUT
  5
1E
102
{ACAD_REACTORS
330
1A
102
}
330
1A
100
AcDbPlotSettings
  1

  2
none_device
  4

  6

 40
0.0
 41
0.0
 42
0.0
 43
0.0
 44
0.0
 45
0.0
 46
0.0
 47
0.0
 48
0.0
 49
0.0
140
0.0
141
0.0
142
1.0
143
1.0
 70
   688
 72
     0
 73
     0
 74
     5
  7

 75
    16
 76
     0
 77
     2
 78
   300
147
1.0
148
0.0
149
0.0
100
AcDbLayout
  1
Layout1
 70
     1
 71
     1
 10
0.0
 20
0.0
 11
12.0
 21
9.0
 12
0.0
 22
0.0
 32
0.0
 14
1.000000000000000E+20
 24
1.000000000000000E+20
 34
1.000000000000000E+20
 15
-1.000000000000000E+20
 25
-1.000000000000000E+20
 35
-1.000000000000000E+20
146
0.0
 13
0.0
 23
0.0
 33
0.0
 16
1.0
 26
0.0
 36
0.0
 17
0.0
 27
1.0
 37
0.0
 76
     0
330
1B
  0
LAYOUT
  5
26
102
{ACAD_REACTORS
330
1A
102
}
330
1A
100
AcDbPlotSettings
  1

  2
none_device
  4

  6

 40
0.0
 41
0.0
 42
0.0
 43
0.0
 44
0.0
 45
0.0
 46
0.0
 47
0.0
 48
0.0
 49
0.0
140
0.0
141
0.0
142
1.0
143
1.0
 70
   688
 72
     0
 73
     0
 74
     5
  7

 75
    16
 76
     0
 77
     2
 78
   300
147
1.0
148
0.0
149
0.0
100
AcDbLayout
  1
Layout2
 70
     1
 71
     2
 10
0.0
 20
0.0
 11
0.0
 21
0.0
 12
0.0
 22
0.0
 32
0.0
 14
0.0
 24
0.0
 34
0.0
 15
0.0
 25
0.0
 35
0.0
146
0.0
 13
0.0
 23
0.0
 33
0.0
 16
1.0
 26
0.0
 36
0.0
 17
0.0
 27
1.0
 37
0.0
 76
     0
330
23
  0
LAYOUT
  5
22
102
{ACAD_REACTORS
330
1A
102
}
330
1A
100
AcDbPlotSettings
  1

  2
none_device
  4

  6

 40
0.0
 41
0.0
 42
0.0
 43
0.0
 44
0.0
 45
0.0
 46
0.0
 47
0.0
 48
0.0
 49
0.0
140
0.0
141
0.0
142
1.0
143
1.0
 70
  1712
 72
     0
 73
     0
 74
     0
  7

 75
     0
 76
     0
 77
     2
 78
   300
147
1.0
148
0.0
149
0.0
100
AcDbLayout
  1
Model
 70
     1
 71
     0
 10
0.0
 20
0.0
 11
12.0
 21
9.0
 12
0.0
 22
0.0
 32
0.0
 14
1.000000000000000E+20
 24
1.000000000000000E+20
 34
1.000000000000000E+20
 15
-1.000000000000000E+20
 25
-1.000000000000000E+20
 35
-1.000000000000000E+20
146
0.0
 13
0.0
 23
0.0
 33
0.0
 16
1.0
 26
0.0
 36
0.0
 17
0.0
 27
1.0
 37
0.0
 76
     0
330
1F
331
29
  0
MATERIAL
  5
3D
102
{ACAD_REACTORS
330
3B
102
}
330
3B
100
AcDbMaterial
  1
ByBlock
 72
     1
 94
      127
  0
MATERIAL
  5
3C
102
{ACAD_REACTORS
330
3B
102
}
330
3B
100
AcDbMaterial
  1
ByLayer
 72
     1
 94
      127
  0
MATERIAL
  5
3E
102
{ACAD_REACTORS
330
3B
102
}
330
3B
100
AcDbMaterial
  1
Global
 72
     1
 94
      127
  0
MLINESTYLE
  5
18
102
{ACAD_REACTORS
330
17
102
}
330
17
100
AcDbMlineStyle
  2
Standard
 70
     0
  3

 62
   256
 51
90.0
 52
90.0
 71
     2
 49
0.5
 62
   256
  6
BYLAYER
 49
-0.5
 62
   256
  6
BYLAYER
  0
ACDBPLACEHOLDER
  5
F
102
{ACAD_REACTORS
330
E
102
}
330
E
  0
VISUALSTYLE
  5
2F
102
{ACAD_REACTORS
330
2A
102
}
330
2A
100
AcDbVisualStyle
  2
2dWireframe
 70
     4
177
     2
291
     0
 71
     0
176
     1
 72
     2
176
     1
 73
     0
176
     1
 90
        0
176
     1
 40
-0.6
176
     1
 41
-30.0
176
     1
 62
     5
 63
     7
421
 16777215
176
     1
 74
     1
176
     1
 91
        4
176
     1
 64
     7
176
     1
 65
   257
176
     1
 75
     1
176
     1
175
     1
176
     1
 42
1.0
176
     1
 92
        0
176
     1
 66
   257
176
     1
 43
1.0
176
     1
 76
     1
176
     1
 77
     6
176
     1
 78
     2
176
     1
 67
     7
176
     1
 79
     5
176
     1
170
     0
176
     1
171
     0
176
     1
290
     0
176
     1
 93
        1
176
     1
 44
0.0
176
     1
173
     0
176
     1
  0
VISUALSTYLE
  5
31
102
{ACAD_REACTORS
330
2A
102
}
330
2A
100
AcDbVisualStyle
  2
3D Hidden
 70
     6
177
     2
291
     0
 71
     1
176
     1
 72
     2
176
     1
 73
     2
176
     1
 90
        0
176
     1
 40
-0.6
176
     1
 41
-30.0
176
     1
 62
     5
 63
     7
421
 16777215
176
     1
 74
     2
176
     1
 91
        2
176
     1
 64
     7
176
     1
 65
   257
176
     1
 75
     2
176
     1
175
     1
176
     1
 42
40.0
176
     1
 92
        0
176
     1
 66
   257
176
     1
 43
1.0
176
     1
 76
     1
176
     1
 77
     6
176
     1
 78
     2
176
     1
 67
     7
176
     1
 79
     3
176
     1
170
     0
176
     1
171
     0
176
     1
290
     0
176
     1
 93
        1
176
     1
 44
0.0
176
     1
173
     0
176
     1
  0
VISUALSTYLE
  5
30
102
{ACAD_REACTORS
330
2A
102
}
330
2A
100
AcDbVisualStyle
  2
3dWireframe
 70
     5
177
     2
291
     0
 71
     0
176
     1
 72
     2
176
     1
 73
     0
176
     1
 90
        0
176
     1
 40
-0.6
176
     1
 41
-30.0
176
     1
 62
     5
 63
     7
421
 16777215
176
     1
 74
     1
176
     1
 91
        4
176
     1
 64
     7
176
     1
 65
   257
176
     1
 75
     1
176
     1
175
     1
176
     1
 42
1.0
176
     1
 92
        0
176
     1
 66
   257
176
     1
 43
1.0
176
     1
 76
     1
176
     1
 77
     6
176
     1
 78
     2
176
     1
 67
     7
176
     1
 79
     5
176
     1
170
     0
176
     1
171
     0
176
     1
290
     0
176
     1
 93
        1
176
     1
 44
0.0
176
     1
173
     0
176
     1
  0
VISUALSTYLE
  5
32
102
{ACAD_REACTORS
330
2A
102
}
330
2A
100
AcDbVisualStyle
  2
Basic
 70
     7
177
     2
291
     1
 71
     1
176
     1
 72
     0
176
     1
 73
     1
176
     1
 90
        0
176
     1
 40
-0.6
176
     1
 41
-30.0
176
     1
 62
     5
 63
     7
421
 16777215
176
     1
 74
     0
176
     1
 91
        4
176
     1
 64
     7
176
     1
 65
   257
176
     1
 75
     1
176
     1
175
     1
176
     1
 42
1.0
176
     1
 92
        8
176
     1
 66
     7
176
     1
 43
1.0
176
     1
 76
     1
176
     1
 77
     6
176
     1
 78
     2
176
     1
 67
     7
176
     1
 79
     5
176
     1
170
     0
176
     1
171
     0
176
     1
290
     0
176
     1
 93
        1
176
     1
 44
0.0
176
     1
173
     0
176
     1
  0
VISUALSTYLE
  5
36
102
{ACAD_REACTORS
330
2A
102
}
330
2A
100
AcDbVisualStyle
  2
Brighten
 70
    12
177
     2
291
     1
 71
     2
176
     1
 72
     2
176
     1
 73
     0
176
     1
 90
        0
176
     1
 40
-0.6
176
     1
 41
-30.0
176
     1
 62
     5
 63
     7
421
 16777215
176
     1
 74
     1
176
     1
 91
        4
176
     1
 64
     7
176
     1
 65
   257
176
     1
 75
     1
176
     1
175
     1
176
     1
 42
1.0
176
     1
 92
        8
176
     1
 66
     7
176
     1
 43
1.0
176
     1
 76
     1
176
     1
 77
     6
176
     1
 78
     2
176
     1
 67
     7
176
     1
 79
     5
176
     1
170
     0
176
     1
171
     0
176
     1
290
     0
176
     1
 93
        1
176
     1
 44
50.0
176
     1
173
     0
176
     1
  0
VISUALSTYLE
  5
3A
102
{ACAD_REACTORS
330
2A
102
}
330
2A
100
AcDbVisualStyle
  2
ColorChange
 70
    16
177
     2
291
     1
 71
     2
176
     1
 72
     2
176
     1
 73
     3
176
     1
 90
        0
176
     1
 40
-0.6
176
     1
 41
-30.0
176
     1
 62
     5
 63
     8
421
  8421504
176
     1
 74
     1
176
     1
 91
        4
176
     1
 64
     7
176
     1
 65
   257
176
     1
 75
     1
176
     1
175
     1
176
     1
 42
1.0
176
     1
 92
        8
176
     1
 66
     8
424
  8421504
176
     1
 43
1.0
176
     1
 76
     1
176
     1
 77
     6
176
     1
 78
     2
176
     1
 67
     7
176
     1
 79
     5
176
     1
170
     0
176
     1
171
     0
176
     1
290
     0
176
     1
 93
        1
176
     1
 44
0.0
176
     1
173
     0
176
     1
  0
VISUALSTYLE
  5
34
102
{ACAD_REACTORS
330
2A
102
}
330
2A
100
AcDbVisualStyle
  2
Conceptual
 70
     9
177
     2
291
     0
 71
     3
176
     1
 72
     2
176
     1
 73
     0
176
     1
 90
        0
176
     1
 40
-0.6
176
     1
 41
-30.0
176
     1
 62
     5
 63
     7
421
 16777215
176
     1
 74
     2
176
     1
 91
        2
176
     1
 64
     7
176
     1
 65
   257
176
     1
 75
     1
176
     1
175
     1
176
     1
 42
40.0
176
     1
 92
        8
176
     1
 66
     7
176
     1
 43
1.0
176
     1
 76
     1
176
     1
 77
     6
176
     1
 78
     2
176
     1
 67
     7
176
     1
 79
     3
176
     1
170
     0
176
     1
171
     0
176
     1
290
     0
176
     1
 93
        1
176
     1
 44
0.0
176
     1
173
     0
176
     1
  0
VISUALSTYLE
  5
35
102
{ACAD_REACTORS
330
2A
102
}
330
2A
100
AcDbVisualStyle
  2
Dim
 70
    11
177
     2
291
     1
 71
     2
176
     1
 72
     2
176
     1
 73
     0
176
     1
 90
        0
176
     1
 40
-0.6
176
     1
 41
-30.0
176
     1
 62
     5
 63
     7
421
 16777215
176
     1
 74
     1
176
     1
 91
        4
176
     1
 64
     7
176
     1
 65
   257
176
     1
 75
     1
176
     1
175
     1
176
     1
 42
1.0
176
     1
 92
        8
176
     1
 66
     7
176
     1
 43
1.0
176
     1
 76
     1
176
     1
 77
     6
176
     1
 78
     2
176
     1
 67
     7
176
     1
 79
     5
176
     1
170
     0
176
     1
171
     0
176
     1
290
     0
176
     1
 93
        1
176
     1
 44
-50.0
176
     1
173
     0
176
     1
  0
VISUALSTYLE
  5
39
102
{ACAD_REACTORS
330
2A
102
}
330
2A
100
AcDbVisualStyle
  2
Facepattern
 70
    15
177
     2
291
     1
 71
     2
176
     1
 72
     2
176
     1
 73
     0
176
     1
 90
        0
176
     1
 40
-0.6
176
     1
 41
-30.0
176
     1
 62
     5
 63
     7
421
 16777215
176
     1
 74
     1
176
     1
 91
        4
176
     1
 64
     7
176
     1
 65
   257
176
     1
 75
     1
176
     1
175
     1
176
     1
 42
1.0
176
     1
 92
        8
176
     1
 66
     7
176
     1
 43
1.0
176
     1
 76
     1
176
     1
 77
     6
176
     1
 78
     2
176
     1
 67
     7
176
     1
 79
     5
176
     1
170
     0
176
     1
171
     0
176
     1
290
     0
176
     1
 93
        1
176
     1
 44
0.0
176
     1
173
     0
176
     1
  0
VISUALSTYLE
  5
2B
102
{ACAD_REACTORS
330
2A
102
}
330
2A
100
AcDbVisualStyle
  2
Flat
 70
     0
177
     2
291
     1
 71
     2
176
     1
 72
     1
176
     1
 73
     1
176
     1
 90
        2
176
     1
 40
-0.6
176
     1
 41
30.0
176
     1
 62
     5
 63
     7
421
 16777215
176
     1
 74
     0
176
     1
 91
        4
176
     1
 64
     7
176
     1
 65
   257
176
     1
 75
     1
176
     1
175
     1
176
     1
 42
1.0
176
     1
 92
        8
176
     1
 66
     7
176
     1
 43
1.0
176
     1
 76
     1
176
     1
 77
     6
176
     1
 78
     2
176
     1
 67
     7
176
     1
 79
     5
176
     1
170
     0
176
     1
171
     0
176
     1
290
     0
176
     1
 93
       13
176
     1
 44
0.0
176
     1
173
     0
176
     1
  0
VISUALSTYLE
  5
2C
102
{ACAD_REACTORS
330
2A
102
}
330
2A
100
AcDbVisualStyle
  2
FlatWithEdges
 70
     1
177
     2
291
     1
 71
     2
176
     1
 72
     1
176
     1
 73
     1
176
     1
 90
        2
176
     1
 40
-0.6
176
     1
 41
30.0
176
     1
 62
     5
 63
     7
421
 16777215
176
     1
 74
     1
176
     1
 91
        4
176
     1
 64
     7
176
     1
 65
   257
176
     1
 75
     1
176
     1
175
     1
176
     1
 42
1.0
176
     1
 92
        0
176
     1
 66
   257
176
     1
 43
1.0
176
     1
 76
     1
176
     1
 77
     6
176
     1
 78
     2
176
     1
 67
     7
176
     1
 79
     5
176
     1
170
     0
176
     1
171
     0
176
     1
290
     0
176
     1
 93
       13
176
     1
 44
0.0
176
     1
173
     0
176
     1
  0
VISUALSTYLE
  5
2D
102
{ACAD_REACTORS
330
2A
102
}
330
2A
100
AcDbVisualStyle
  2
Gouraud
 70
     2
177
     2
291
     1
 71
     2
176
     1
 72
     2
176
     1
 73
     1
176
     1
 90
        2
176
     1
 40
-0.6
176
     1
 41
30.0
176
     1
 62
     5
 63
     7
421
 16777215
176
     1
 74
     0
176
     1
 91
        4
176
     1
 64
     7
176
     1
 65
   257
176
     1
 75
     1
176
     1
175
     1
176
     1
 42
1.0
176
     1
 92
        0
176
     1
 66
     7
176
     1
 43
1.0
176
     1
 76
     1
176
     1
 77
     6
176
     1
 78
     2
176
     1
 67
     7
176
     1
 79
     5
176
     1
170
     0
176
     1
171
     0
176
     1
290
     0
176
     1
 93
       13
176
     1
 44
0.0
176
     1
173
     0
176
     1
  0
VISUALSTYLE
  5
2E
102
{ACAD_REACTORS
330
2A
102
}
330
2A
100
AcDbVisualStyle
  2
GouraudWithEdges
 70
     3
177
     2
291
     1
 71
     2
176
     1
 72
     2
176
     1
 73
     1
176
     1
 90
        2
176
     1
 40
-0.6
176
     1
 41
30.0
176
     1
 62
     5
 63
     7
421
 16777215
176
     1
 74
     1
176
     1
 91
        4
176
     1
 64
     7
176
     1
 65
   257
176
     1
 75
     1
176
     1
175
     1
176
     1
 42
1.0
176
     1
 92
        0
176
     1
 66
   257
176
     1
 43
1.0
176
     1
 76
     1
176
     1
 77
     6
176
     1
 78
     2
176
     1
 67
     7
176
     1
 79
     5
176
     1
170
     0
176
     1
171
     0
176
     1
290
     0
176
     1
 93
       13
176
     1
 44
0.0
176
     1
173
     0
176
     1
  0
VISUALSTYLE
  5
38
102
{ACAD_REACTORS
330
2A
102
}
330
2A
100
AcDbVisualStyle
  2
Linepattern
 70
    14
177
     2
291
     1
 71
     2
176
     1
 72
     2
176
     1
 73
     0
176
     1
 90
        0
176
     1
 40
-0.6
176
     1
 41
-30.0
176
     1
 62
     5
 63
     7
421
 16777215
176
     1
 74
     1
176
     1
 91
        4
176
     1
 64
     7
176
     1
 65
   257
176
     1
 75
     7
176
     1
175
     7
176
     1
 42
1.0
176
     1
 92
        8
176
     1
 66
     7
176
     1
 43
1.0
176
     1
 76
     1
176
     1
 77
     6
176
     1
 78
     2
176
     1
 67
     7
176
     1
 79
     5
176
     1
170
     0
176
     1
171
     0
176
     1
290
     0
176
     1
 93
        1
176
     1
 44
0.0
176
     1
173
     0
176
     1
  0
VISUALSTYLE
  5
33
102
{ACAD_REACTORS
330
2A
102
}
330
2A
100
AcDbVisualStyle
  2
Realistic
 70
     8
177
     2
291
     0
 71
     2
176
     1
 72
     2
176
     1
 73
     0
176
     1
 90
        0
176
     1
 40
-0.6
176
     1
 41
-30.0
176
     1
 62
     5
 63
     7
421
 16777215
176
     1
 74
     1
176
     1
 91
        0
176
     1
 64
     7
176
     1
 65
   257
176
     1
 75
     1
176
     1
175
     1
176
     1
 42
1.0
176
     1
 92
        8
176
     1
 66
     8
424
  7895160
176
     1
 43
1.0
176
     1
 76
     1
176
     1
 77
     6
176
     1
 78
     2
176
     1
 67
     7
176
     1
 79
     5
176
     1
170
     0
176
     1
171
     0
176
     1
290
     0
176
     1
 93
       13
176
     1
 44
0.0
176
     1
173
     0
176
     1
  0
VISUALSTYLE
  5
37
102
{ACAD_REACTORS
330
2A
102
}
330
2A
100
AcDbVisualStyle
  2
Thicken
 70
    13
177
     2
291
     1
 71
     2
176
     1
 72
     2
176
     1
 73
     0
176
     1
 90
        0
176
     1
 40
-0.6
176
     1
 41
-30.0
176
     1
 62
     5
 63
     7
421
 16777215
176
     1
 74
     1
176
     1
 91
        4
176
     1
 64
     7
176
     1
 65
   257
176
     1
 75
     1
176
     1
175
     1
176
     1
 42
1.0
176
     1
 92
       12
176
     1
 66
     7
176
     1
 43
1.0
176
     1
 76
     1
176
     1
 77
     6
176
     1
 78
     2
176
     1
 67
     7
176
     1
 79
     5
176
     1
170
     0
176
     1
171
     0
176
     1
290
     0
176
     1
 93
        1
176
     1
 44
0.0
176
     1
173
     0
176
     1
  0
ENDSEC
  0
EOF
